<svg width="21" height="21" viewBox="0 0 21 21" fill="none" xmlns="http://www.w3.org/2000/svg">
<path d="M17.3599 6.35688L10.4999 11.4056L3.63994 6.35688M2.83057 4.68563C2.5985 4.68563 2.37594 4.77781 2.21185 4.94191C2.04775 5.106 1.95557 5.32856 1.95557 5.56063V15.4525C1.95557 15.6846 2.04775 15.9071 2.21185 16.0712C2.37594 16.2353 2.5985 16.3275 2.83057 16.3275H18.1693C18.4014 16.3275 18.6239 16.2353 18.788 16.0712C18.9521 15.9071 19.0443 15.6846 19.0443 15.4525V5.5475C19.0443 5.31544 18.9521 5.09288 18.788 4.92878C18.6239 4.76469 18.4014 4.6725 18.1693 4.6725H2.83057V4.68563Z" stroke="#1e645c" stroke-linecap="round" stroke-linejoin="round"/>
</svg>
