<svg width="29" height="29" viewBox="0 0 29 29" fill="none" xmlns="http://www.w3.org/2000/svg">
<path d="M14.4999 2.71875C12.1252 2.71875 9.84779 3.66209 8.16863 5.34124C6.48948 7.0204 5.54614 9.29782 5.54614 11.6725V12.325C5.90864 17.2308 9.98073 21.176 14.4999 26.2813C19.2184 20.9525 23.4536 16.9167 23.4536 11.6725C23.4536 9.29782 22.5103 7.0204 20.8311 5.34124C19.152 3.66209 16.8746 2.71875 14.4999 2.71875ZM14.4999 7.37083C15.3521 7.37083 16.1852 7.62363 16.8938 8.09724C17.6023 8.57084 18.1544 9.24397 18.4803 10.0315C18.8061 10.8189 18.8911 11.6854 18.7244 12.5212C18.5577 13.3569 18.1468 14.1245 17.5438 14.7267C16.9407 15.3289 16.1726 15.7387 15.3366 15.9042C14.5006 16.0697 13.6342 15.9836 12.8472 15.6566C12.0602 15.3296 11.3878 14.7766 10.9152 14.0674C10.4426 13.3582 10.191 12.5247 10.1922 11.6725C10.1938 10.5311 10.6483 9.43694 11.456 8.6304C12.2637 7.82385 13.3585 7.37083 14.4999 7.37083Z" stroke="black" stroke-linecap="round" stroke-linejoin="round"/>
</svg>
