<svg width="24" height="24" viewBox="0 0 24 24" fill="none" xmlns="http://www.w3.org/2000/svg">
<path d="M5.843 4.568C7.47594 2.93506 9.69068 2.01768 12 2.01768C14.3093 2.01768 16.5241 2.93506 18.157 4.568C19.7899 6.20094 20.7073 8.41568 20.7073 10.725C20.7073 13.0343 19.7899 15.2491 18.157 16.882L16.97 18.056C16.095 18.914 14.96 20.018 13.564 21.368C13.1444 21.7737 12.5836 22.0005 12 22.0005C11.4164 22.0005 10.8556 21.7737 10.436 21.368L6.945 17.972C6.505 17.541 6.139 17.178 5.843 16.882C5.03441 16.0735 4.393 15.1136 3.9554 14.0572C3.51779 13.0007 3.29256 11.8685 3.29256 10.725C3.29256 9.58153 3.51779 8.44925 3.9554 7.39283C4.393 6.33641 5.03441 5.37653 5.843 4.568ZM17.096 5.628C16.4267 4.95872 15.632 4.42783 14.7575 4.06564C13.883 3.70345 12.9457 3.51706 11.9991 3.5171C11.0526 3.51715 10.1153 3.70363 9.24083 4.06591C8.36635 4.42818 7.57178 4.95915 6.9025 5.6285C6.23322 6.29785 5.70233 7.09246 5.34014 7.96698C4.97795 8.8415 4.79156 9.7788 4.79161 10.7254C4.79165 11.6719 4.97814 12.6092 5.34041 13.4837C5.70268 14.3582 6.23365 15.1527 6.903 15.822L8.391 17.29C9.209 18.091 10.239 19.091 11.479 20.29C11.6188 20.425 11.8056 20.5005 12 20.5005C12.1944 20.5005 12.3812 20.425 12.521 20.29L15.916 16.99C16.386 16.529 16.779 16.14 17.096 15.822C18.4475 14.4704 19.2068 12.6374 19.2068 10.726C19.2068 8.81464 18.4475 6.98156 17.096 5.63V5.628ZM12 7.999C12.3942 7.999 12.7846 8.07665 13.1488 8.22751C13.513 8.37838 13.844 8.5995 14.1227 8.87826C14.4015 9.15702 14.6226 9.48796 14.7735 9.85218C14.9243 10.2164 15.002 10.6068 15.002 11.001C15.002 11.3952 14.9243 11.7856 14.7735 12.1498C14.6226 12.514 14.4015 12.845 14.1227 13.1237C13.844 13.4025 13.513 13.6236 13.1488 13.7745C12.7846 13.9253 12.3942 14.003 12 14.003C11.2134 13.9886 10.4639 13.6661 9.91277 13.1048C9.36159 12.5434 9.05279 11.7882 9.05279 11.0015C9.05279 10.2148 9.36159 9.45955 9.91277 8.89822C10.4639 8.3369 11.2134 8.01436 12 8V7.999ZM12 9.499C11.6016 9.499 11.2196 9.65724 10.9379 9.93892C10.6562 10.2206 10.498 10.6026 10.498 11.001C10.498 11.3994 10.6562 11.7814 10.9379 12.0631C11.2196 12.3448 11.6016 12.503 12 12.503C12.3915 12.4929 12.7636 12.3303 13.0369 12.0498C13.3103 11.7693 13.4632 11.3931 13.4632 11.0015C13.4632 10.6099 13.3103 10.2337 13.0369 9.95321C12.7636 9.67273 12.3915 9.5101 12 9.5V9.499Z" fill="#1e645c"/>
</svg>
