<svg width="20" height="21" viewBox="0 0 20 21" fill="none" xmlns="http://www.w3.org/2000/svg">
<path d="M15.8902 4.19508H13.4755V2.98777C13.4755 2.88103 13.4331 2.77867 13.3577 2.7032C13.2822 2.62773 13.1798 2.58533 13.0731 2.58533C12.9664 2.58533 12.864 2.62773 12.7885 2.7032C12.7131 2.77867 12.6707 2.88103 12.6707 2.98777V4.19508H7.03652V2.98777C7.03652 2.88103 6.99412 2.77867 6.91864 2.7032C6.84317 2.62773 6.74081 2.58533 6.63408 2.58533C6.52734 2.58533 6.42498 2.62773 6.34951 2.7032C6.27404 2.77867 6.23164 2.88103 6.23164 2.98777V4.19508H3.817C3.28353 4.19572 2.77209 4.40793 2.39487 4.78515C2.01765 5.16237 1.80545 5.67381 1.80481 6.20728V16.6707C1.80545 17.2042 2.01765 17.7156 2.39487 18.0928C2.77209 18.47 3.28353 18.6822 3.817 18.6829H15.8902C16.4237 18.6825 16.9353 18.4703 17.3125 18.0931C17.6898 17.7158 17.9019 17.2042 17.9024 16.6707V6.20728C17.9019 5.67374 17.6898 5.16218 17.3125 4.78491C16.9353 4.40764 16.4237 4.19551 15.8902 4.19508ZM17.0975 16.6707C17.0975 16.9909 16.9703 17.298 16.7439 17.5244C16.5175 17.7508 16.2104 17.878 15.8902 17.878H3.817C3.4968 17.878 3.18972 17.7508 2.9633 17.5244C2.73689 17.298 2.60969 16.9909 2.60969 16.6707V9.82923H17.0975V16.6707ZM17.0975 9.02435H2.60969V6.20728C2.60969 5.54084 3.14896 4.99996 3.817 4.99996H6.23164V6.20728C6.23164 6.31401 6.27404 6.41637 6.34951 6.49185C6.42498 6.56732 6.52734 6.60972 6.63408 6.60972C6.74081 6.60972 6.84317 6.56732 6.91864 6.49185C6.99412 6.41637 7.03652 6.31401 7.03652 6.20728V4.99996H12.6707V6.20728C12.6707 6.31401 12.7131 6.41637 12.7885 6.49185C12.864 6.56732 12.9664 6.60972 13.0731 6.60972C13.1798 6.60972 13.2822 6.56732 13.3577 6.49185C13.4331 6.41637 13.4755 6.31401 13.4755 6.20728V4.99996H15.8902C16.2104 4.99996 16.5175 5.12716 16.7439 5.35358C16.9703 5.57999 17.0975 5.88708 17.0975 6.20728V9.02435Z" fill="white"/>
</svg>
