<svg width="20" height="20" viewBox="0 0 20 20" fill="none" xmlns="http://www.w3.org/2000/svg">
<path d="M14.5317 18.2808H5.46834C4.91581 18.2808 4.3859 18.0613 3.9952 17.6706C3.6045 17.2799 3.38501 16.75 3.38501 16.1975V15.5083C3.38501 12.2008 6.35251 9.50833 10 9.50833C13.6475 9.50833 16.615 12.1992 16.615 15.5083V16.1975C16.615 16.75 16.3955 17.2799 16.0048 17.6706C15.6141 18.0613 15.0842 18.2808 14.5317 18.2808ZM10 10.3433C6.81168 10.3433 4.21834 12.66 4.21834 15.51V16.1992C4.21834 16.5307 4.35004 16.8486 4.58446 17.0831C4.81888 17.3175 5.13682 17.4492 5.46834 17.4492H14.5317C14.8632 17.4492 15.1811 17.3175 15.4156 17.0831C15.65 16.8486 15.7817 16.5307 15.7817 16.1992V15.5083C15.7817 12.66 13.1883 10.3433 10 10.3433ZM10 8.25917C9.35323 8.25933 8.72093 8.06769 8.18307 7.70848C7.64521 7.34927 7.22596 6.83862 6.97833 6.24112C6.7307 5.64362 6.66583 4.98611 6.79191 4.35173C6.91799 3.71736 7.22936 3.13462 7.68664 2.67722C8.14393 2.21982 8.72658 1.9083 9.36092 1.78206C9.99527 1.65582 10.6528 1.72053 11.2504 1.968C11.8479 2.21548 12.3587 2.6346 12.718 3.17237C13.0774 3.71013 13.2692 4.34239 13.2692 4.98917C13.2685 5.85608 12.9239 6.6873 12.311 7.30038C11.6981 7.91346 10.8669 8.25829 10 8.25917ZM10 2.55333C9.51801 2.55317 9.04679 2.69596 8.64596 2.96364C8.24512 3.23132 7.93268 3.61187 7.74815 4.05714C7.56362 4.50242 7.5153 4.99242 7.60929 5.46517C7.70328 5.93791 7.93537 6.37216 8.27619 6.71298C8.61702 7.05381 9.05127 7.2859 9.52401 7.37989C9.99676 7.47388 10.4868 7.42556 10.932 7.24103C11.3773 7.0565 11.7579 6.74406 12.0255 6.34322C12.2932 5.94239 12.436 5.47117 12.4358 4.98917C12.4352 4.34335 12.1783 3.72417 11.7217 3.2675C11.265 2.81084 10.6458 2.554 10 2.55333Z" fill="#1e645c"/>
</svg>
