<svg xmlns="http://www.w3.org/2000/svg" viewBox="0 0 991.03 311.44"><g id="Layer_2" data-name="Layer 2"><g id="Isolation_Mode" data-name="Isolation Mode"><path d="M424.62,85.61c-1.3-9.18-10.08-16.15-20.16-16.15-18.21,0-25.06,15.5-25.06,31.65,0,15.37,6.85,30.87,25.06,30.87,12.4,0,19.38-8.52,20.93-20.67H445c-2.07,23-18,37.72-40.57,37.72-28.55,0-45.34-21.31-45.34-47.92,0-27.39,16.79-48.7,45.34-48.7,20.28,0,37.34,11.88,39.79,33.2Z" fill="#00195e"/><path d="M516.5,146.84H499.06v-9.3h-.38a23.84,23.84,0,0,1-20.42,11.11c-19.5,0-24.41-11-24.41-27.52V80.05h18.34v37.72c0,11,3.23,16.41,11.76,16.41,9.95,0,14.21-5.56,14.21-19.12v-35H516.5Z" fill="#00195e"/><path d="M528.58,80.05h17.31v9h.26a24.13,24.13,0,0,1,20.41-10.85c8.4,0,15.89,3.1,19.51,11.11a24.26,24.26,0,0,1,20.15-11.11c14.21,0,24.41,6.59,24.41,23.9v44.7H612.29V109c0-8.92-.78-16.28-11.24-16.28s-12.27,8.53-12.27,16.92v37.21H570.43V109.38c0-7.76.52-16.67-11.11-16.67-3.61,0-12.4,2.33-12.4,15.37v38.76H528.58Z" fill="#00195e"/><path d="M705.13,146.84H687.69v-9.3h-.39a23.83,23.83,0,0,1-20.41,11.11c-19.5,0-24.41-11-24.41-27.52V80.05h18.34v37.72c0,11,3.23,16.41,11.76,16.41,9.94,0,14.21-5.56,14.21-19.12v-35h18.34Z" fill="#00195e"/><path d="M717.21,54.6h18.34v92.24H717.21Z" fill="#00195e"/><path d="M810.05,146.84H792.61v-9.3h-.39a23.83,23.83,0,0,1-20.41,11.11c-19.5,0-24.41-11-24.41-27.52V80.05h18.34v37.72c0,11,3.23,16.41,11.76,16.41,9.94,0,14.21-5.56,14.21-19.12v-35h18.34Z" fill="#00195e"/><path d="M836.07,125.14c.13,8,6.84,11.23,14.08,11.23,5.29,0,12-2.06,12-8.52,0-5.56-7.62-7.49-20.8-10.34-10.59-2.32-21.18-6.07-21.18-17.82,0-17.06,14.72-21.45,29.06-21.45,14.6,0,28,4.91,29.46,21.32H861.26c-.52-7.11-6-9-12.53-9-4.14,0-10.21.78-10.21,6.21,0,6.58,10.34,7.49,20.8,9.94,10.72,2.46,21.19,6.33,21.19,18.73,0,17.57-15.25,23.26-30.49,23.26-15.5,0-30.62-5.82-31.39-23.51Z" fill="#00195e"/><path d="M389.35,167.6h13.56l36,92.23H425.39l-10.08-27.77h-39L366,259.83H353.31Zm-9.17,54.12h31.26l-15.37-43h-.26Z" fill="#00195e"/><path d="M451.29,238.77c.39,9.82,8.91,12.92,18,12.92,6.84,0,16.14-1.55,16.14-9.94s-10.85-9.95-21.83-12.41-21.83-6.07-21.83-18.86c0-13.43,13.31-19,24.93-19,14.73,0,26.49,4.66,27.39,20.93h-11c-.78-8.52-8.27-11.24-15.5-11.24-6.59,0-14.21,1.81-14.21,8.53,0,7.88,11.62,9.17,21.83,11.63,11,2.45,21.83,6.07,21.83,19,0,15.88-14.85,21-28.42,21-15,0-27.64-6.07-28.29-22.61Z" fill="#00195e"/><path d="M514.49,238.77c.38,9.82,8.91,12.92,18,12.92,6.85,0,16.15-1.55,16.15-9.94s-10.85-9.95-21.83-12.41-21.83-6.07-21.83-18.86c0-13.43,13.3-19,24.93-19,14.73,0,26.48,4.66,27.39,20.93h-11c-.78-8.52-8.27-11.24-15.51-11.24-6.58,0-14.21,1.81-14.21,8.53,0,7.88,11.63,9.17,21.84,11.63,11,2.45,21.83,6.07,21.83,19,0,15.88-14.86,21-28.42,21-15,0-27.65-6.07-28.29-22.61Z" fill="#00195e"/><path d="M598.93,191.49c21.19,0,32.43,15.38,32.43,35s-11.24,34.88-32.43,34.88S566.51,246,566.51,226.5,577.75,191.49,598.93,191.49Zm0,60.2c11.5,0,20.8-9,20.8-25.19s-9.3-25.32-20.8-25.32-20.79,9-20.79,25.32S587.44,251.69,598.93,251.69Z" fill="#00195e"/><path d="M687.45,214.49c-1.68-8.4-7.49-13.31-16.54-13.31-15.89,0-20.8,12.53-20.8,26.1,0,12.27,5.56,24.41,19.51,24.41,10.59,0,16.92-6.2,18.34-16.27H699.2c-2.45,16.27-12.66,26-29.45,26-20.41,0-31.26-14.21-31.26-34.1s10.33-35.79,31.52-35.79c15.11,0,27.26,7.11,28.81,23Z" fill="#00195e"/><path d="M720.49,181h-11V167.6h11Zm-11,12h11v66.79h-11Z" fill="#00195e"/><path d="M793.89,259.57a14.74,14.74,0,0,1-7.88,1.81c-5.68,0-9.3-3.1-9.3-10.33-6.07,7.1-14.21,10.33-23.51,10.33-12.14,0-22.09-5.42-22.09-18.73,0-15.11,11.24-18.34,22.6-20.54,12.15-2.32,22.48-1.55,22.48-9.82,0-9.56-7.88-11.11-14.85-11.11-9.3,0-16.15,2.84-16.67,12.66h-11c.65-16.53,13.44-22.35,28.29-22.35,12,0,25.06,2.72,25.06,18.35V244.2c0,5.17,0,7.49,3.49,7.49a9.53,9.53,0,0,0,3.36-.64Zm-17.83-34.23c-4.26,3.1-12.53,3.23-19.89,4.52s-13.44,3.88-13.44,12c0,7.23,6.21,9.81,12.92,9.81,14.47,0,20.41-9,20.41-15.11Z" fill="#00195e"/><path d="M816.46,193h13.3v9.69h-13.3V244.2c0,5,1.42,5.94,8.26,5.94h5v9.69h-8.39c-11.37,0-15.89-2.32-15.89-14.6v-42.5H794.11V193h11.37V173h11Z" fill="#00195e"/><path d="M849.9,181h-11V167.6h11Zm-11,12h11v66.79h-11Z" fill="#00195e"/><path d="M892.94,191.49c21.19,0,32.43,15.38,32.43,35s-11.24,34.88-32.43,34.88S860.52,246,860.52,226.5,871.76,191.49,892.94,191.49Zm0,60.2c11.5,0,20.8-9,20.8-25.19s-9.3-25.32-20.8-25.32-20.8,9-20.8,25.32S881.44,251.69,892.94,251.69Z" fill="#00195e"/><path d="M935.74,193h10.33v10.6h.26c4.65-8.27,12.15-12.15,21.7-12.15,17.57,0,23,10.08,23,24.42v43.92h-11V214.62c0-8.14-5.17-13.44-13.57-13.44-13.3,0-19.76,8.92-19.76,20.93v37.72h-11Z" fill="#00195e"/><path d="M259.64,230.51l-21.16-12.22a103.84,103.84,0,0,1-66.75,40,103.64,103.64,0,0,0,87.91-27.78Z" fill="#9a6bff"/><path d="M171.73,53.15a103.9,103.9,0,0,1,66.75,40l21.16-12.21a103.64,103.64,0,0,0-87.91-27.78Z" fill="#00d2a0"/><path d="M32,155.72C32,75.28,93.33,8.9,171.67.83A155.82,155.82,0,0,0,155.72,0C69.85,0,0,69.85,0,155.72S69.85,311.44,155.72,311.44a155.82,155.82,0,0,0,15.95-.83C93.33,302.54,32,236.15,32,155.72Z" fill="#f50"/><path d="M283.66,67.06l-24,13.87a105,105,0,0,1,10.87,12.21l45.18-26.08A155.63,155.63,0,0,0,171.67.83,155.81,155.81,0,0,1,283.66,67.06Z" fill="#90d400"/><path d="M51.91,155.72A103.82,103.82,0,0,0,171.73,258.29a103.81,103.81,0,0,1,0-205.14A103.82,103.82,0,0,0,51.91,155.72Z" fill="#31b6ff"/><path d="M259.64,230.51l24,13.87a155.84,155.84,0,0,1-112,66.23,158.23,158.23,0,0,0,16.08.83,155.67,155.67,0,0,0,127.94-67.06l-45.18-26.09A104.3,104.3,0,0,1,259.64,230.51Z" fill="#ff3697"/><path d="M283.66,244.38l-24-13.87a103.64,103.64,0,0,1-87.91,27.78,103.81,103.81,0,1,1-16-206.38,103.14,103.14,0,0,1,16,1.24,103.64,103.64,0,0,1,87.91,27.78l24-13.87A155.81,155.81,0,0,0,171.67.83C93.33,8.9,32,75.28,32,155.72s61.3,146.82,139.64,154.89A155.84,155.84,0,0,0,283.66,244.38Z" fill="#00195e"/></g></g></svg>