<svg width="30" height="30" viewBox="0 0 30 30" fill="none" xmlns="http://www.w3.org/2000/svg">
<g clip-path="url(#clip0_319_4)">
<mask id="mask0_319_4" style="mask-type:luminance" maskUnits="userSpaceOnUse" x="0" y="0" width="30" height="30">
<path d="M15 27.5C16.6418 27.5021 18.2679 27.1798 19.7848 26.5515C21.3016 25.9231 22.6793 25.0012 23.8388 23.8388C25.0012 22.6793 25.9231 21.3016 26.5515 19.7848C27.1798 18.2679 27.5021 16.6418 27.5 15C27.5021 13.3582 27.1797 11.7321 26.5514 10.2153C25.9231 8.69843 25.0012 7.3207 23.8388 6.16126C22.6793 4.99878 21.3016 4.07688 19.7848 3.44856C18.2679 2.82024 16.6418 2.49788 15 2.50001C13.3582 2.49792 11.7321 2.82029 10.2153 3.44861C8.69843 4.07693 7.3207 4.99881 6.16126 6.16126C4.99881 7.3207 4.07693 8.69843 3.44861 10.2153C2.82029 11.7321 2.49792 13.3582 2.50001 15C2.49788 16.6418 2.82024 18.2679 3.44856 19.7848C4.07688 21.3016 4.99878 22.6793 6.16126 23.8388C7.3207 25.0012 8.69843 25.9231 10.2153 26.5514C11.7321 27.1797 13.3582 27.5021 15 27.5Z" fill="white" stroke="white" stroke-width="4" stroke-linejoin="round"/>
<path d="M10 15L13.75 18.75L21.25 11.25" stroke="black" stroke-width="4" stroke-linecap="round" stroke-linejoin="round"/>
</mask>
<g mask="url(#mask0_319_4)">
<path d="M0 0H30V30H0V0Z" fill="#1ABC00"/>
</g>
</g>
<defs>
<clipPath id="clip0_319_4">
<rect width="30" height="30" fill="white"/>
</clipPath>
</defs>
</svg>
