<?xml version="1.0" encoding="UTF-8"?>
<svg id="Layer_1" data-name="Layer 1" xmlns="http://www.w3.org/2000/svg" viewBox="0 0 313.84 380.48">
  <defs>
    <style>
      .cls-1 {
        stroke-width: 0px;
      }
    </style>
  </defs>
  <path class="cls-1" d="M293.68,196.9c0-2.91,0-46.55,0-46.55,0-38.61-10.11-66.12-30.92-84.1-4.46-3.86-9.46-7.3-14.99-10.35-.25-6.59-3.72-11.73-12.5-14.08-7.13-1.91-12.15-.47-15.66,3.13-10.68-2.81-22.62-4.74-35.87-5.82-6.16-9.3-15.62-14.69-26.81-14.69s-20.64,5.38-26.81,14.69c-13.25,1.08-25.2,3.02-35.88,5.82-3.51-3.6-8.52-5.04-15.66-3.13-8.79,2.35-12.26,7.5-12.5,14.08-5.53,3.05-10.53,6.5-14.99,10.35-20.81,17.98-30.92,45.49-30.92,84.1,0,0,0,44.78,0,46.64,0,.02,0,.04,0,.06v46.75c0,38.61,10.12,66.12,30.93,84.1,12.31,10.64,28.63,18.21,49.29,22.8,13.38,2.98,28.58,4.7,45.7,5.21,3.53.1,7.15.16,10.85.16,49.29,0,83.91-9.21,105.84-28.16,20.81-17.98,30.92-45.49,30.92-84.1v-46.75c0-.05,0-.1,0-.15ZM244.34,70.65c9.65,5.47,17.64,12.22,24.04,20.28,9.15,11.54,14.57,25.22,17.74,39.61.04.18.45,1.81.49,1.99-.96-.52-1.87-1.64-2.38-2.17.26-.18,1.42-1.65,1.27-2.03-.12-.34-2.21-.83-2.47-1.22-.02-.05-.03-.1-.05-.14.31-.27,1.52-1.79,1.35-2.18-.14-.33-2.22-.7-2.7-1.13,0-.01-.01-.03-.02-.05.38-.34,1.62-1.92,1.43-2.33-.15-.31-2.21-.56-2.89-.98.43-.42,1.7-2.06,1.48-2.48-.16-.3-2.15-.43-3.01-.81.51-.55,1.71-2.19,1.47-2.6-.17-.3-2.1-.33-3.11-.64.56-.67,1.71-2.32,1.45-2.72-.18-.3-2.1-.22-3.22-.48.61-.77,1.71-2.44,1.43-2.84-.21-.29-2.1-.11-3.32-.29.63-.87,1.68-2.57,1.38-2.97-.21-.28-2.1,0-3.4-.11.64-.95,1.66-2.71,1.32-3.1-.23-.28-2.1.11-3.47.09.64-1.05,1.59-2.83,1.24-3.21-.24-.27-2.07.21-3.49.27.63-1.13,1.46-2.87,1.09-3.24-.25-.26-2.09.33-3.57.49.62-1.22,1.41-3.01,1.01-3.37-.27-.25-2.11.43-3.64.69.61-1.3,1.33-3.14.92-3.5-.29-.24-2.15.56-3.72.91.57-1.37,1.26-3.28.81-3.63-.31-.23-2.18.69-3.79,1.14.54-1.44,1.18-3.44.7-3.77-.33-.23-2.21.83-3.87,1.38.52-1.53,1.11-3.6.6-3.92-.35-.22-2.24.98-3.95,1.63.49-1.6,1.02-3.77.49-4.09-.37-.21-2.29,1.14-4.02,1.89.44-1.69.92-3.96.36-4.25-.39-.21-1.73.99-3.5,1.85.55-1.38,1.17-3.59.58-3.88-.36-.17-2.07,1.49-4.09,2.11,2.08-1.49,3.72-3.6,5.02-6.18ZM279.99,253.84c.33.47.74.54,1.05,1.03.31.49.19.93-.32,1.52-.94,1.09-2.45,2.79-3.42,3.86-.52.57-.66.99-.38,1.5.28.51.72.56,1,1.07.28.51.15.95-.39,1.51-1,1.03-2.59,2.68-3.61,3.69-.55.55-.96.68-1.45.39-.49-.29-.52-.74-1.01-1.03-.49-.3-.91-.18-1.46.34-1.03.95-2.64,2.48-3.67,3.43-.56.51-.97.62-1.44.31-.47-.31-.49-.75-.96-1.05-.46-.31-.87-.19-1.41.3-1.01.9-2.63,2.35-3.67,3.19-.57.45-1.04.57-1.44.2-.4-.37-.62-.65-.89-1.13-.28-.47-.05-.92.46-1.37,8.72-7.68,16.72-16.3,24.35-25.06.45-.51.92-.71,1.39-.42s.73.55,1.11.95c.38.4.19.95-.22,1.43-1.02,1.18-2.26,2.67-3.31,3.85-.43.48-.62,1.02-.29,1.49ZM270.02,277.38c.29.45.39.42.68.87.29.45.05.95-.57,1.43-1.14.89-3.03,2.31-4.19,3.16-.63.46-.94.92-.68,1.37.26.45.31.42.58.86s-.14.97-.64,1.36c-.98.77-2.37,1.74-3.38,2.49-.51.38-1.08.54-1.47.21s-.25-.51-.64-.84c-.39-.33-.95-.19-1.47.19-1.28.93-2.91,2.1-4.24,2.97-.54.35-1.16.51-1.47.1s-.29-.49-.62-.89c-.33-.39-.94-.26-1.47.08-1.31.84-2.95,1.92-4.27,2.73-.54.33-1.17.4-1.48,0-.31-.4-.39-.48-.58-.96-.19-.48.1-.91.69-1.27,9.9-6.07,19.3-12.8,27.85-20.67.51-.47,1.04-.65,1.45-.33.41.32.48.39.76.83s.1.94-.47,1.45c-1.06.94-2.8,2.45-3.83,3.43-.55.53-.83.99-.54,1.44ZM242.14,289.18c.23.5.43.75.7,1.25.27.49-.08.91-.73,1.29-1.2.7-3.08,1.8-4.3,2.5-.66.37-1.17.39-1.5-.07-.33-.46-.41-.78-.73-1.26-.31-.47-.82-.43-1.49-.09-1.23.62-3.11,1.62-4.34,2.25-.66.34-1.19.38-1.46-.12-.27-.49-.37-.81-.67-1.29-.3-.48-.79-.47-1.46-.17-1.23.55-3.12,1.45-4.33,2.01-.66.3-1.12.28-1.41-.18-.29-.46-.43-.81-.59-1.33-.16-.52.16-.93.75-1.2,10.12-4.74,20.16-10.16,29.57-16.17.55-.35,1.06-.45,1.43-.05.37.4.56.69.82,1.17.26.48-.09.95-.6,1.29-1.25.84-2.82,1.88-4.13,2.64-.53.31-.85.74-.66,1.24.19.5.53.69.72,1.19s-.14.94-.67,1.26c-1.31.8-2.91,1.79-4.24,2.58-.54.32-.93.76-.69,1.26ZM231.97,302.17c.23.48.25.54.46,1.03.21.49-.15.92-.85,1.24-1.29.59-3.3,1.55-4.59,2.15-.7.32-1.08.75-.88,1.25.2.5.19.57.42,1.06.23.49-.15.92-.94,1.23-.79.32-2.92,1.2-3.7,1.52s-1.3.29-1.54-.19c-.24-.49-.24-.55-.46-1.04-.21-.49-.87-.46-1.47-.22-1.48.6-3.31,1.21-4.81,1.76-.61.22-1.26.2-1.45-.29-.19-.49-.24-.57-.4-1.06-.16-.49-.84-.51-1.43-.29-1.46.54-3.32,1.06-4.79,1.51-.6.19-1.21.11-1.41-.37-.2-.47-.25-.57-.32-1.08-.07-.51.32-.88.96-1.09,10.75-3.44,21.21-7.89,31.23-13.09.6-.31,1.16-.32,1.47.09.31.41.38.5.54.99.16.49-.11.92-.78,1.26-1.23.63-3.2,1.68-4.45,2.32-.67.35-1.04.79-.82,1.28ZM252.6,260.77c-16.77,14.93-46.97,32.74-95.68,32.74-2.85,0-5.64-.06-8.36-.18-12.08-.52-22.93-2.15-32.64-4.55-25.56-6.3-43.25-17.82-54.68-28.01-19.97-17.79-31.86-41.62-31.86-63.72h-.02s.02,0,.02,0c.14-14.9,4.28-29.29,11.56-42.26,9.08-16.36,22.43-28.38,38.01-36.92,3.03,1.28,6.79,1.46,11.46.21,6.9-1.85,10.52-5.42,11.88-10.06,10.47-3.3,21.41-5.45,32.35-6.65,2.14,2.18,4.5,4.01,7.04,5.47-38.38,3.23-66.54,18.54-84.33,37.72l.83.73c2.42-2.62,5.02-5.14,7.77-7.54,14.34-12.49,39.01-27.13,77.5-29.95,4.14,2.04,8.7,3.12,13.48,3.12s9.34-1.09,13.48-3.12c38.49,2.83,63.16,17.47,77.5,29.95.7.61,1.38,1.23,2.06,1.85l.8-.76c-17.87-16.45-44.09-29.1-78.57-32,2.53-1.46,4.89-3.29,7.02-5.46,10.94,1.19,21.87,3.35,32.34,6.65,1.35,4.64,4.97,8.21,11.88,10.06,4.67,1.25,8.43,1.07,11.46-.21,15.58,8.54,28.93,20.57,38.01,36.92,7.28,12.96,11.42,27.35,11.56,42.26h.02s-.02,0-.02,0c0,22.1-11.9,45.93-31.86,63.72ZM69.49,70.65c1.3,2.58,2.95,4.7,5.02,6.18-2.02-.62-3.72-2.28-4.09-2.11-.6.28.03,2.49.58,3.88-1.77-.86-3.11-2.06-3.5-1.85-.56.29-.09,2.56.36,4.25-1.73-.75-3.65-2.09-4.02-1.89-.53.31,0,2.48.49,4.09-1.7-.65-3.6-1.84-3.95-1.63-.51.33.08,2.4.6,3.92-1.66-.54-3.54-1.6-3.87-1.38-.48.34.16,2.33.7,3.77-1.61-.44-3.48-1.37-3.79-1.14-.44.35.24,2.27.81,3.63-1.57-.35-3.43-1.15-3.72-.91-.41.36.31,2.2.92,3.5-1.53-.26-3.37-.94-3.64-.69-.4.36.39,2.15,1.01,3.37-1.47-.16-3.32-.75-3.57-.49-.37.37.47,2.11,1.09,3.24-1.42-.07-3.25-.54-3.49-.27-.36.38.6,2.16,1.24,3.21-1.37.02-3.24-.37-3.47-.09-.34.39.68,2.15,1.32,3.1-1.3.11-3.2-.17-3.4.11-.3.4.75,2.1,1.38,2.97-1.21.18-3.11,0-3.32.29-.28.4.82,2.07,1.43,2.84-1.12.26-3.03.17-3.22.48-.26.4.89,2.05,1.45,2.72-1.01.31-2.94.34-3.11.64-.24.41.96,2.05,1.47,2.6-.87.38-2.85.51-3.01.81-.22.42,1.05,2.06,1.48,2.48-.68.41-2.74.66-2.89.98-.18.41,1.05,1.99,1.43,2.33-.01.02-.02.04-.02.05-.48.42-2.56.8-2.7,1.13-.16.39,1.04,1.91,1.35,2.18-.02.04-.03.09-.05.14-.26.39-2.35.89-2.47,1.22-.15.38,1.01,1.84,1.27,2.03-.51.53-1.42,1.65-2.38,2.17.04-.18.45-1.81.49-1.99,3.17-14.39,8.59-28.07,17.74-39.61,6.39-8.05,14.39-14.8,24.04-20.28ZM68.92,59.83c.54-1.06,1.23-2.01,2.02-2.87,1.9-2.06,4.4-3.51,6.95-4.26-.92.82-1.86,1.56-2.8,2.28-.56.44-1.13.87-1.69,1.31-1.35,1.04-3.19,2.44-4.49,3.54ZM72.34,95.27c-.46.45-.92.91-1.38,1.39.06-.23.14-.46.23-.68,1.02-2.7,3.54-4.79,6.23-5.72-1.68,1.82-3.38,3.34-5.08,5.01ZM76.05,95.33c-1.2,1.5-2.44,2.51-3.68,3.83-.15.16-.3.32-.45.5,0-.16.01-.31.03-.46.25-2.04,2.12-3.54,4.1-3.87ZM71.41,92.05c-.36.38-.72.77-1.07,1.17.09-.24.19-.48.3-.72,1.69-3.69,5.48-6.55,9.44-7.28-3.21,1.96-6.11,4.16-8.67,6.84ZM70.74,108.64c.95,2.27,2.12,4.26,3.56,5.86-1.66-.63-3.44-1.9-3.83-1.68-.55.31-.13,2.44.61,4.24-1.77-.41-3.96-1.9-4.37-1.64-.51.33-.05,2.35.7,4.05-1.71-.35-3.86-1.65-4.25-1.38-.49.33.01,2.28.79,3.87-1.66-.27-3.75-1.42-4.12-1.15-.46.35.08,2.21.86,3.71-1.59-.21-3.64-1.19-3.99-.92-.42.35.13,2.14.92,3.54-1.54-.14-3.53-1-3.86-.72-.4.35.18,2.06.99,3.37-1.49-.08-3.42-.79-3.73-.51-.37.35.23,1.99,1.03,3.22-1.42-.02-3.31-.62-3.58-.34-.36.36.28,1.98,1.08,3.12-1.35.04-3.21-.44-3.47-.16-.33.36.34,1.93,1.13,3-1.29.09-3.09-.29-3.33-.01-.05.07-.08.15-.08.27,0,.59.56,1.75,1.2,2.57-1.22.13-2.95-.14-3.17.14-.04.05-.07.14-.07.25,0,.54.56,1.68,1.19,2.44-1.16.16-2.81-.01-3.01.26-.25.35.4,1.7,1.12,2.55-1.08.2-2.64.11-2.84.38-.23.35.41,1.63,1.08,2.4-1.01.23-2.48.23-2.66.5-.21.33.41,1.54,1.05,2.25-.94.25-2.33.31-2.48.57-.18.33.41,1.47,1.01,2.12-.88.27-2.17.4-2.31.66-.14.26.24,1.06.69,1.67-.71,1.09-1.6,2.06-2.52,2.35.1-.31.61-1.93.71-2.24,4.52-13.44,11.63-25.29,21.23-35.11,4.96-5.06,10.52-9.57,16.67-13.52ZM65.74,107.52c-1.54-.59-3.38-1.86-3.8-1.59-.37.24.09,2.53.67,3.8-1.5-.49-3.34-1.65-3.75-1.37-.35.24.16,2.46.77,3.66-1.46-.39-3.31-1.43-3.7-1.15-.33.25.24,2.42.85,3.53-1.41-.3-3.26-1.22-3.62-.93-.31.26.3,2.36.92,3.39-1.37-.21-3.22-1.02-3.56-.72-.3.27.38,2.33,1.01,3.27-1.31-.12-3.19-.83-3.5-.52-.29.27.44,2.31,1.07,3.14-1.25-.03-3.13-.63-3.42-.31-.27.28.52,2.3,1.14,3.03-1.17.05-3.08-.44-3.36-.12-.26.3.69,2.48,1.29,2.97-1.06.17-3.09-.25-3.36.09-.25.33.77,2.46,1.31,2.83-.93.25-2.99-.05-3.24.29-.24.33.85,2.48,1.33,2.68h0c-.79.34-2.9.15-3.13.5-.21.31.77,2.18,1.24,2.46-.03.05-.05.11-.09.16-.76.29-2.61.28-2.82.62-.17.29.69,1.9,1.14,2.25-.07.11-.1.24-.2.33-.6.5-2.31.39-2.47.7-.15.27.61,1.67,1.03,2.06-.09.17-.12.38-.26.5-.54.48-2.03.49-2.17.77-.12.26.5,1.38.89,1.82-.68,1.03-1.71,2.05-2.67,2.37.08-.24.58-1.58.66-1.81,4.74-14.27,11.95-26.4,21.61-36.29,4.35-4.45,9.23-8.46,14.6-12.03.14,1.98.51,4.06,1.09,6.21.07.26.14.52.22.77.03.16.06.31.09.47-1.56-.67-3.94-2.07-4.4-1.81-.38.23.02,2.58.6,3.95ZM120.68,63.81c-.05,0-.03,0,0,0-2.05-1.89-4.01-5.27-4.6-5.19-.89.13-1.39,3.71-1.44,6.13-1.99-1.79-3.92-4.9-4.5-4.8-.85.15-1.25,3.52-1.25,5.89-1.96-1.7-3.87-4.55-4.42-4.44-.72.15-.81,2.68-.78,4.84-1.84-1.45-3.63-3.85-4.08-3.74-.68.16-.73,2.47-.67,4.52-2.11-2.72-2.08-7.01.7-8.05,7.45-1.87,15.49-3.31,24.14-4.32-.25,1.15-.47,2.33-.65,3.54-.39-.49-.7-.81-.88-.78-.93.11-1.46,3.9-1.57,6.4.03,0,.05,0,0,0ZM123.41,78.5c.41,2.23.94,4.37,1.59,6.41,0,.22-.01.43-.01.64-2.09-1.84-3.94-4.6-4.79-4.47-.74.11-1.22,3.91-.8,6.16-2.31-1.67-4.51-4.87-5.42-4.71-.71.12-1.08,3.78-.66,5.97-2.28-1.6-4.49-4.6-5.38-4.43-.52.1-.8,2.15-.7,4.05.03.61.09,1.2.2,1.72-2.25-1.5-4.49-4.31-5.34-4.13-.66.14-.84,3.53-.35,5.58-2.22-1.42-4.48-4.06-5.3-3.87-.61.16-.71,3.19-.25,5.19-2.77-2.26-2.68-7.06.02-7.99,8.34-2.7,17.41-4.74,27.18-6.13ZM126.38,97.79c-2.31-1.15-4.49-5.18-5.19-5.07-.83.12-1.35,3.23-1.17,6.08-2.22-1.15-4.4-4.81-5.07-4.69-.8.15-1.23,3.15-.96,5.89-2.17-1.12-4.36-4.47-5-4.32-.77.17-1.08,3.06-.76,5.68.02,0,.04,0,0,0-.05.01-.02,0,0,0-2.74-.88-4.98-4.11-5.42-4.04-.54.07-1.05,3.1.15,5.5-.01,0-.03,0-.04.01v-.02c-4.66-.04-5.94-6.28-1.69-7.82,7.93-2.35,16.46-4.13,25.56-5.34.28.63.57,1.25.87,1.86-.85.22-1.4,3.37-1.28,6.29ZM214.23,62.49c-.44-.11-2.24,2.3-4.08,3.74.03-2.17-.06-4.69-.78-4.84-.55-.11-2.46,2.74-4.42,4.44,0-2.36-.4-5.73-1.25-5.89-.57-.1-2.5,3.01-4.5,4.8-.05-2.43-.55-6-1.44-6.13-.6-.09-2.56,3.3-4.6,5.19.02,0,.05,0,0,0-.05-.01-.03,0,0,0-.11-2.5-.64-6.29-1.57-6.4-.18-.02-.49.29-.88.78-.18-1.2-.4-2.38-.65-3.53,8.65,1.01,16.69,2.45,24.14,4.32,2.77,1.03,2.81,5.33.7,8.05.07-2.05.02-4.36-.67-4.52ZM190.43,78.5c9.77,1.39,18.83,3.44,27.17,6.13,2.7.93,2.79,5.73.02,7.99.46-2,.36-5.04-.25-5.19-.82-.19-3.07,2.45-5.3,3.87.5-2.06.31-5.44-.35-5.58-.84-.18-3.08,2.62-5.34,4.13.12-.51.17-1.11.2-1.72.1-1.91-.18-3.95-.7-4.05-.88-.17-3.09,2.83-5.38,4.43.42-2.19.06-5.85-.66-5.97-.91-.17-3.1,3.03-5.42,4.71.41-2.25-.06-6.05-.8-6.16-.85-.13-2.71,2.63-4.79,4.47,0-.2,0-.41-.01-.62.65-2.04,1.19-4.19,1.59-6.42ZM212.61,94.98c4.25,1.54,2.97,7.78-1.69,7.82,0,0,0,.01,0,.02-.01,0-.03,0-.04-.01,1.2-2.39.69-5.43.15-5.5-.44-.06-2.68,3.16-5.42,4.04.02,0,.04.01,0,0-.03,0-.02,0,0,0,.32-2.62.01-5.51-.76-5.68-.64-.14-2.83,3.21-5,4.32.26-2.73-.16-5.73-.96-5.89-.67-.12-2.85,3.54-5.07,4.69.18-2.85-.34-5.96-1.17-6.08-.7-.11-2.88,3.92-5.19,5.07.12-2.91-.43-6.06-1.28-6.29.3-.61.6-1.23.88-1.86,9.1,1.2,17.62,2.98,25.55,5.33ZM226.95,88.05c3.2-.52,6.62,0,9.53,1.24-2.49-.19-4.94-.34-7.38-.33-2.16.01-4.31.16-6.48.55,1.34-.74,2.81-1.21,4.34-1.46ZM223.16,86.94c.13-.08.26-.16.39-.23,1.46-.87,3.12-1.4,4.82-1.6,2.45-.28,5,.13,7.18,1.18-1.65-.13-3.25-.2-4.84-.19-2.3.02-4.57.24-6.88.7-.22.04-.44.08-.66.13ZM231.48,92.01c-1.7.05-3.31.09-4.92.16-.6.03-1.21.07-1.81.11-.78.06-1.57.13-2.37.22-.39.05-.78.09-1.17.15.38-.25.78-.47,1.19-.66,2.81-1.29,6.28-1.21,9.08,0ZM280.78,143.86c-.14-.28-1.63-.29-2.17-.77-.14-.12-.17-.33-.26-.5.42-.39,1.18-1.79,1.03-2.06-.16-.31-1.88-.21-2.47-.7-.1-.08-.13-.22-.2-.33.44-.36,1.31-1.96,1.14-2.25-.21-.34-2.06-.33-2.82-.62-.03-.05-.05-.11-.09-.16.47-.28,1.44-2.15,1.24-2.46-.23-.35-2.34-.16-3.13-.49h0c.49-.21,1.57-2.36,1.33-2.69-.25-.35-2.31-.04-3.24-.29.54-.37,1.56-2.5,1.31-2.83-.27-.34-2.3.09-3.36-.09.6-.49,1.55-2.67,1.29-2.97-.28-.33-2.19.17-3.36.12.62-.74,1.41-2.75,1.14-3.03-.29-.31-2.18.28-3.42.31.63-.83,1.37-2.87,1.07-3.14-.31-.31-2.19.4-3.5.52.63-.94,1.31-3,1.01-3.27-.34-.3-2.19.51-3.56.72.62-1.03,1.24-3.13.92-3.39-.36-.29-2.21.63-3.62.93.61-1.12,1.17-3.28.85-3.53-.39-.28-2.23.76-3.7,1.15.61-1.2,1.12-3.43.77-3.66-.41-.28-2.25.88-3.75,1.37.59-1.28,1.04-3.57.67-3.8-.42-.27-2.27,1.01-3.8,1.59.57-1.37.98-3.72.6-3.95-.46-.26-2.84,1.14-4.4,1.81.03-.16.06-.32.09-.47.07-.25.15-.51.22-.77.58-2.16.96-4.24,1.09-6.21,5.37,3.58,10.24,7.58,14.6,12.03,9.66,9.89,16.87,22.02,21.61,36.29.08.23.58,1.58.66,1.81-.96-.33-1.99-1.35-2.67-2.37.39-.44,1.01-1.56.89-1.82ZM259.76,122.17c9.6,9.82,16.71,21.67,21.23,35.11.1.31.61,1.93.71,2.24-.92-.3-1.81-1.26-2.52-2.35.46-.61.83-1.41.69-1.67-.14-.26-1.43-.39-2.31-.66.6-.65,1.19-1.8,1.01-2.12-.15-.26-1.54-.33-2.48-.57.64-.72,1.26-1.93,1.05-2.25-.17-.27-1.65-.27-2.66-.5.67-.77,1.31-2.05,1.08-2.4-.2-.27-1.76-.18-2.84-.38.72-.85,1.37-2.2,1.12-2.55-.21-.27-1.85-.1-3.01-.26.63-.76,1.19-1.9,1.19-2.44,0-.11-.02-.2-.07-.25-.22-.28-1.94-.01-3.16-.14.64-.82,1.2-1.98,1.2-2.57,0-.12-.02-.21-.08-.27-.24-.28-2.04.1-3.33.01.79-1.07,1.45-2.64,1.13-3-.26-.28-2.11.21-3.47.16.8-1.14,1.44-2.76,1.08-3.12-.27-.28-2.16.31-3.58.34.8-1.22,1.4-2.87,1.03-3.22-.3-.28-2.24.43-3.73.51.8-1.31,1.39-3.02.99-3.37-.32-.28-2.32.57-3.86.72.79-1.41,1.34-3.2.92-3.54-.35-.27-2.4.72-3.99.92.78-1.5,1.31-3.36.86-3.71-.37-.27-2.46.88-4.12,1.15.78-1.59,1.28-3.54.79-3.87-.39-.27-2.54,1.03-4.25,1.38.76-1.7,1.21-3.73.7-4.05-.41-.26-2.6,1.22-4.37,1.64.74-1.8,1.16-3.92.61-4.24-.38-.22-2.16,1.05-3.83,1.68,1.44-1.6,2.61-3.58,3.56-5.86,6.15,3.95,11.71,8.46,16.67,13.52ZM224.2,46.23c3.36-1.44,7.42-1.31,10.69.26-3.23-.26-6.3-.28-9.41.13-.99.13-1.98.3-2.98.52.54-.35,1.11-.65,1.7-.91ZM223.64,49.39c2.31-.94,5.1-.72,7.27.44-1.91.05-3.66.05-5.45.12-1.07.04-2.16.12-3.3.25.46-.33.95-.6,1.47-.81ZM228.69,52.21c-2.48.72-4.68.69-7.23.97,1.98-1.69,4.86-1.77,7.23-.97ZM225.45,78.4c3.55.95,6.57,1.07,9.15.51,11.29,5.4,20.7,12.35,28.32,20.9,9.04,10.16,15.76,22.63,20.29,37.94-1.35-.78-2.36-2.97-2.53-3.48-.02-.07-.05-.13-.08-.2v.02c-4.61-10.03-10.61-18.85-18-26.41-5.02-5.13-10.69-9.7-17-13.69-.72-5.83-4.31-10.34-12.38-12.5-5.25-1.41-9.34-.99-12.54.75-9.08-3.09-19.01-5.42-29.77-6.95.3-2.44.47-4.98.47-7.61,0-.28-.01-.56-.01-.84,8.49,1.14,16.38,2.74,23.69,4.8,1.92,3.03,5.23,5.38,10.39,6.76ZM217.47,47.69c2.4.67,2.41,6.2-1.76,8.32h0c.21-1.89-.7-4.78-1.46-5.32-.58-.41-2.22,2.49-4.16,3.99.18-1.95-.5-4.84-1.28-5.37-.6-.41-2.22,2.66-4.18,4.26.04,0,.07.01,0,0-.08-.02-.04-.01,0,0,.16-2-.69-5.01-1.49-5.53-.66-.43-2.25,2.88-4.26,4.55.15-2.06-.8-5.21-1.66-5.73-.68-.43-2.3,3.14-4.36,4.89.16-2.11-.9-5.45-1.8-5.97-.49-.29-1.41,1.41-2.61,3.09-.77-2.24-1.66-4.35-2.7-6.32,11.61,1.03,22.17,2.74,31.72,5.16ZM131.92,42.22c.75-1.2,1.56-2.34,2.43-3.42,5.54-6.87,13.41-11.14,22.57-11.14s17.02,4.27,22.57,11.14c.87,1.08,1.68,2.22,2.43,3.42.66,1.06,1.28,2.16,1.85,3.3,1.34,2.72,2.39,5.67,3.12,8.79.56,2.4.93,4.9,1.1,7.48.06.99.1,1.98.1,2.99,0,.55-.01,1.09-.03,1.64-.1,2.88-.46,5.67-1.06,8.35-.24,1.08-.52,2.14-.83,3.17-.72,2.36-1.63,4.59-2.71,6.69-.78,1.51-1.64,2.94-2.59,4.29-.4.57-.82,1.13-1.25,1.67-1,1.25-2.07,2.42-3.22,3.49-.86.81-1.77,1.57-2.71,2.26-2.34,1.73-4.9,3.09-7.66,4.04-2.85.98-5.9,1.51-9.11,1.51s-6.26-.53-9.11-1.51c-2.76-.95-5.33-2.31-7.66-4.04-.95-.7-1.86-1.47-2.73-2.28-1.14-1.07-2.21-2.23-3.2-3.47-.43-.54-.85-1.1-1.25-1.67-.95-1.35-1.82-2.79-2.6-4.3-1.08-2.09-1.98-4.33-2.7-6.68-.32-1.04-.59-2.09-.83-3.17-.6-2.67-.96-5.47-1.06-8.35-.02-.54-.03-1.09-.03-1.64,0-1.01.04-2,.1-2.99.16-2.58.53-5.08,1.1-7.49.73-3.12,1.78-6.07,3.12-8.78.57-1.15,1.19-2.25,1.85-3.31ZM96.36,47.69c9.56-2.42,20.12-4.13,31.73-5.16-1.04,1.97-1.94,4.09-2.7,6.33-1.2-1.68-2.12-3.39-2.61-3.1-.9.53-1.96,3.86-1.8,5.97-2.06-1.75-3.67-5.32-4.36-4.89-.86.53-1.81,3.67-1.66,5.73-2.01-1.67-3.6-4.98-4.26-4.55-.8.53-1.65,3.53-1.48,5.53.04,0,.08-.01,0,0h0c-.07.01-.04,0,0,0-1.96-1.59-3.58-4.67-4.18-4.26-.78.53-1.46,3.41-1.28,5.37-1.94-1.5-3.58-4.4-4.16-3.99-.76.55-1.68,3.44-1.46,5.32h0c-4.16-2.11-4.15-7.64-1.76-8.31ZM88.38,78.4c5.16-1.38,8.47-3.73,10.39-6.76,7.31-2.06,15.2-3.66,23.69-4.8,0,.28-.01.56-.01.84,0,2.63.16,5.17.47,7.61-10.77,1.54-20.69,3.86-29.78,6.95-3.2-1.74-7.29-2.16-12.54-.75-8.07,2.16-11.66,6.68-12.38,12.5-6.31,4-11.98,8.56-17,13.69-7.39,7.57-13.4,16.39-18,26.41v-.02c-.02.07-.05.13-.08.2-.17.51-1.17,2.7-2.53,3.48,4.53-15.3,11.25-27.78,20.29-37.94,7.62-8.55,17.03-15.5,28.32-20.9,2.58.56,5.6.44,9.15-.51ZM79.55,45.1c-3.86,1.98-7.29,4.21-10.43,7.33,1.95-4.19,6.18-7,10.43-7.33ZM71.01,53.34c2.94-3.22,6.95-5.41,11.01-6.05-2.57,1.32-5.04,2.77-7.41,4.39-1.98,1.35-3.9,2.83-5.73,4.47.62-1.01,1.33-1.95,2.13-2.81ZM26.88,115.41c5.68-25.43,18.48-43.8,39.35-55.89.19,1.59.52,3.24.97,4.94.24.91.51,1.78.8,2.62-1.69-.73-3.63-2.2-3.95-1.83-.41.46-.21,2.48.23,3.87-1.66-.61-3.44-1.98-3.73-1.6-.39.46-.11,2.41.35,3.72-1.63-.51-3.38-1.71-3.65-1.35-.36.46-.02,2.34.47,3.59-1.58-.42-3.33-1.48-3.59-1.13-.34.47.07,2.28.57,3.46-1.54-.31-3.27-1.26-3.51-.89-.31.46.14,2.22.68,3.33-1.48-.22-3.22-1.05-3.45-.67-.29.47.24,2.2.8,3.22-1.44-.13-3.18-.84-3.39-.47-.28.49.31,2.18.91,3.11-1.39-.03-3.15-.64-3.35-.25-.24.5.46,2.3,1.08,3.1-1.32.08-3.17-.44-3.35-.05-.24.52.54,2.31,1.17,3-1.25.16-3.12-.25-3.3.14-.21.52.65,2.32,1.28,2.88-1.16.25-3.09-.08-3.25.35-.2.5.65,2.29,1.25,2.79-1.07.29-2.95.1-3.08.51-.18.49.65,1.96,1.21,2.49-.05.1-.08.21-.16.28-.82.65-2.63.22-2.76.61-.15.46.37,2.22.9,2.76-.75.62-2.37.34-2.47.69-.13.42.43,2.07.92,2.61-.12.23,0,0-.19.17-.67.6-2.1.42-2.2.76-.1.41.37,2.07.82,2.59-.14.32-2.09.68-2.17,1.03-.08.37.39,2.03.81,2.54-.16.39-1.96.8-2.05,1.16-.08.34.42,1.09.8,1.57-.37.97-1.14,1.95-2.38,2.63.08-.38.5-2.01.59-2.38ZM23.91,258.05c1.17.82,2.58.46,3.11.1l1.88-1.29c1.52-1.04,2.84-.44,3.73.76,1.05,1.41,2.03,2.89,3.12,4.24,1.42,1.82,2.86,1.18,3.62.58l2.75-2.18c1.37-1.09,2.74-.71,3.65.32l2.1,2.49c.91,1.01,1,2.42-.28,3.6l-2.59,2.37c-.71.64-1.59,1.97-.05,3.64,1.21,1.19,2.38,2.44,3.61,3.6,1.06.98,1.38,2.36.15,3.72l-1.53,1.69c-.63.69-1.39,2.19.41,3.7,1.39,1.15,2.73,2.36,4.18,3.43,1.22.94,1.73,2.34.65,3.82l-1.44,1.96c-.58.78-1.1,2.3.97,3.73l1.24.98c1.14.82,2.37,1.52,3.55,2.29,2.12,1.36,3.35.21,3.82-.61l1.23-2.1c.93-1.58,2.42-1.66,3.75-.9,1.56.89,3.2,1.64,4.8,2.48,2.13.99,3.18-.25,3.57-1.11l.94-2.08c.76-1.67,2.14-1.9,3.46-1.34,1.58.61,3.12,1.28,4.73,1.84,2.14.74,2.99-.58,3.29-1.49l1.12-3.33c.57-1.65,1.86-2.1,3.17-1.73l3.08.94c1.34.34,2.2,1.49,1.76,3.17l-.88,3.4c-.24.92-.25,2.5,1.93,3.07-4.14,5.24-6.86,11.58-7.63,18.52-12.88-3.9-25.38-9.35-36.79-16.68-5.66-3.44-10.84-7.62-15.65-12.12-3.06-2.84-5.91-5.88-8.66-9-1.94-7.5-3.23-15.64-3.88-24.45ZM91.28,338.65c-1.94-2.93-4.14-6.44-6.38-10.35-.41-.72-1.32-.96-2.05-.57-3.52,1.92-7.19,3.81-11.01,5.45-.8.35-1.76.01-2.15-.76-1.72-3.39-3.22-6.66-5.02-11.29-.31-.79-1.13-1-1.98-.89-2.91.37-6.49,1.03-10.54,1.06-.87,0-1.58-.36-1.99-1.13-1.74-3.28-3.01-5.92-4.54-9.56-.4-.95-.95-1.39-1.79-1.25-1.38.24-2.76.43-4.15.61-4.68-7.07-8.31-15.07-10.95-24.04,2.15,2.29,4.37,4.53,6.68,6.68,4.9,4.54,10.2,8.65,15.68,12.54,6.52,4.36,13.57,7.93,20.86,10.68,5.52,2.09,11.18,3.71,16.88,4.95-.04.44-.08.88-.11,1.32-.37,6.09.81,11.91,3.22,17.1-.26-.12-.5-.31-.66-.56ZM118.4,350.56c2.99-1.81,5.39-3.63,7.25-5.52,1.63,2.27,3.88,4.56,6.8,6.94-4.86-.36-9.54-.83-14.04-1.42ZM155.67,344.69c-2.26,3.09-5.02,5.81-8.17,8.03-4.76-.12-9.36-.34-13.82-.65-1.98-2.35-5.17-6.64-7.52-12.29-.02-.05-.06-.08-.11-.08-.05,0-.1.02-.12.07-2.98,4.92-6.51,8.53-8.85,10.63-5.55-.76-10.83-1.69-15.85-2.8-2.53-2.79-4.62-5.99-6.17-9.5-.19-.43-.37-.86-.54-1.3-.23-.6-.45-1.2-.66-1.81-.98-2.97-1.58-6.13-1.73-9.41-.06-1.38-.05-2.75.05-4.1,0-.06,0-.13.01-.19.47-6.35,2.65-12.27,6.09-17.26.07-.1.13-.2.2-.29.31-.44.63-.86.95-1.29,3.68-4.75,8.54-8.55,14.18-10.92,7.33,1.89,15.3,3.35,23.96,4.24-3.69,2.1-6.57,4.2-8.72,6.39-2.14-2.98-5.33-5.98-9.71-9.2-.04-.03-.11-.03-.15,0-.04.04-.05.1-.01.15,0,0,5.69,5.5,9.35,14.3.02.05.06.08.11.08.05,0,.1-.02.12-.07,3.5-5.76,7.74-9.74,9.93-11.57,3.5.34,7.11.59,10.84.73,2.48,2,4.68,4.34,6.54,6.94,3.81,5.33,6.19,11.77,6.52,18.8.03.61.04,1.22.03,1.82,0,.16,0,.31,0,.47,0,.17-.01.33-.02.5-.02.59-.05,1.18-.1,1.77-.54,6.6-2.93,12.72-6.66,17.81ZM221.88,335.26c-16.35,5.13-38.4,9.44-63.23,9.44,3.66-5.14,6.01-11.22,6.6-17.82,13.17-.07,25.93-1.54,38.27-4.54l2.55,10.27c.1.42.7.63,1.33.47l5.81-1.43c.62-.18,1.22,0,1.34.42l.4,1.38c.12.42.73.6,1.36.4l4.64-1.45c.63-.2,1.25-.02,1.39.39l.45,1.36c.14.41-.27.91-.91,1.11ZM215.89,322.47c-.05-.54.39-.95,1.03-1.18,1.57-.56,3.54-1.25,5.09-1.87.63-.25,1.15-.71.98-1.23-.17-.52-.27-.55-.39-1.09-.09-.4.11-.73.51-.99.13-.09.29-.17.46-.24,1.03-.42,2.84-1.17,3.87-1.59.14-.06.27-.1.39-.13.52-.14.93-.08,1.17.29.3.46.26.55.51,1.04.25.49.84.45,1.57.1,1.34-.64,3.49-1.63,4.83-2.27.72-.35,1.26-.36,1.59.09.33.45.29.52.56,1.01.27.49.88.41,1.58.02,1.3-.71,3.45-1.86,4.73-2.58.69-.39,1.24-.43,1.59-.02.35.41.4.49.58,1,.18.51-.17.97-.84,1.33-11.12,6.04-22.93,10.94-34.97,14.81-.72.23-1.3.16-1.55-.32-.26-.48-.25-.58-.33-1.11-.09-.53.45-.93,1.1-1.13,1.59-.48,3.66-1.1,5.24-1.67.64-.23,1.1-.64,1.05-1.18-.05-.55-.29-.56-.34-1.1ZM269.37,308.31c-8.88,8.27-17.95,14.42-28.89,19.72-.64.31-1.12.28-1.43-.17s-.43-.8-.62-1.31c-.18-.51.21-.94.76-1.21,1.36-.66,3.05-1.41,4.39-2.12.55-.29.88-.72.72-1.25-.16-.53-.51-.76-.65-1.3-.14-.54.07-.91.71-1.26,1.17-.65,2.97-1.61,4.13-2.27.63-.36.82-.73.66-1.26-.16-.53-.56-.74-.72-1.27-.15-.53.02-.9.61-1.28,1.1-.71,2.76-1.76,3.86-2.46.6-.38,1.02-.37,1.42,0s.45.79.83,1.18c.38.38.92.31,1.42-.03,1.23-.83,2.59-1.97,3.7-2.92.45-.39.94-.63,1.32-.27.37.36.5.65.9.99.39.34.86.03,1.32-.37,1.14-.98,2.42-2.23,3.53-3.23.45-.41,1-.56,1.41-.22s.68.57.99,1.02c.31.45.15.83-.37,1.31ZM284.13,284.05c-8.61,9.39-18.76,16.67-28.96,24.24-.61.45-1.19.49-1.56.12s-.39-.48-.62-.96c-.23-.48.17-1,.73-1.36,1.38-.89,3.09-2.16,4.42-3.14.54-.4.88-.91.72-1.41s-.39-.42-.55-.93c-.16-.5.18-1.01.73-1.39,1.36-.96,3.06-2.29,4.41-3.27.55-.4.9-.89.72-1.38s-.41-.4-.59-.89c-.18-.49.16-.99.68-1.37,1.01-.74,2.39-1.77,3.35-2.58.49-.41,1.08-.67,1.44-.3.35.37.33.45.69.82.36.37.89.17,1.47-.33,1.07-.93,2.78-2.52,3.76-3.55.53-.56.94-.71,1.41-.46.39.31.45.48.69.68.4.35,1.02.21,1.54-.39,1.23-1.19,2.85-2.86,3.86-4.01.52-.59.98-.61,1.36-.32.35.28.37.3.72.7.34.43.11.94-.4,1.5ZM269.69,286.33c-20.17,16.94-42.59,28.07-66.7,33.89-12.14,2.93-24.71,4.52-37.63,4.84,0-.18.02-.36.02-.55,0-.16,0-.31,0-.46.08-7.54-2.2-14.59-6.23-20.47,28.05.31,42.43-4.34,50.18-6.74.5-.16,1.02.05,1.16.47l.45,1.36c.14.41-.17.88-.68,1.03l-3.78,1.18c-.51.16-.83.63-.71,1.05l.4,1.38c.12.41-.2.9-.73,1.05l-5.08,1.24c-.53.14-.87.59-.77,1.01l.35,1.39,2.71,10.92c30.66-7.56,58.7-23.4,84.1-48.89-5.49,5.95-11.19,11.38-17.07,16.32ZM285.16,115.16c.38-.48.88-1.23.8-1.57-.08-.36-1.89-.77-2.05-1.16.42-.51.9-2.16.81-2.54-.08-.35-2.03-.72-2.17-1.03.46-.52.92-2.18.82-2.59-.1-.34-1.53-.16-2.2-.76-.19-.17-.07.06-.19-.17.5-.53,1.05-2.18.92-2.61-.1-.36-1.72-.07-2.47-.69.53-.54,1.05-2.31.9-2.76-.13-.39-1.94.04-2.76-.61-.09-.07-.11-.18-.16-.28.56-.53,1.39-2.01,1.21-2.49-.13-.41-2.01-.22-3.08-.51.6-.5,1.44-2.28,1.25-2.79-.16-.42-2.09-.1-3.25-.35.63-.56,1.49-2.36,1.28-2.88-.18-.39-2.05.02-3.3-.14.63-.69,1.41-2.48,1.17-3-.18-.39-2.03.13-3.35.05.63-.8,1.33-2.6,1.08-3.1-.19-.39-1.96.22-3.35.25.6-.93,1.19-2.62.91-3.11-.21-.37-1.95.34-3.39.47.56-1.02,1.09-2.75.8-3.22-.23-.37-1.96.46-3.45.67.54-1.11.99-2.87.68-3.33-.24-.37-1.97.57-3.51.89.51-1.18.92-2.99.57-3.46-.26-.36-2.01.7-3.59,1.13.49-1.25.82-3.13.47-3.59-.28-.36-2.03.85-3.65,1.35.46-1.31.74-3.26.35-3.72-.29-.37-2.07,1-3.73,1.6.43-1.39.63-3.41.23-3.87-.32-.37-2.26,1.1-3.95,1.83.29-.84.56-1.72.8-2.62.46-1.7.79-3.35.97-4.94,20.86,12.09,33.67,30.46,39.35,55.89.08.37.51,2.01.59,2.38-1.24-.68-2.01-1.67-2.38-2.63Z"/>
  <polygon class="cls-1" points="109.21 53.56 109.21 53.57 109.21 53.56 109.21 53.56"/>
  <polygon class="cls-1" points="108.22 101.34 108.22 101.34 108.22 101.34 108.22 101.34"/>
  <polygon class="cls-1" points="120.68 63.81 120.68 63.8 120.67 63.8 120.68 63.81"/>
  <path class="cls-1" d="M223.84,254.03l1.29,4.8s20.07-16.25,26.81-25.6l-1.37-4.17-.47.02c-7.13,8.82-17.36,17.59-26.26,24.95Z"/>
  <path class="cls-1" d="M122.43,175.98l-.76-.8c-7.15,6.58-10.76,14.77-10.76,21.88,0,3.04.67,6.28,1.98,9.5.37-.08.73-.17,1.1-.25-1.29-3.09-1.98-6.24-1.98-9.25,0-7.11,3.77-14.97,10.43-21.09Z"/>
  <path class="cls-1" d="M93.28,226.68c-.45.04-.9.07-1.34.11,7.03,8.67,17.23,16.37,30.6,21.33.53-.19,1.06-.38,1.59-.58-10.5-3.72-18.29-8.85-23.78-13.61-2.6-2.26-4.96-4.7-7.07-7.24Z"/>
  <path class="cls-1" d="M170.86,201.9c-.65.27-1.32.55-2.04.86-2.12,2.39-5.65,4.36-10.7,4.64-.81.35-1.65.72-2.51,1.09.43.02.86.05,1.31.05,7.07,0,11.73-3.09,13.94-6.64Z"/>
  <path class="cls-1" d="M179.17,182.78c.46-.11.91-.2,1.35-.27-5.13-4.74-13-8.24-23.6-8.24-20.4,0-30.73,12.96-30.73,22.81,0,1.79.36,3.67,1.03,5.57.35-.11.7-.23,1.05-.34-.64-1.77-.99-3.54-.99-5.23,0-4.77,2.64-10.21,7.47-14.37,4.3-3.7,11.44-7.34,22.17-7.34s17.86,3.64,22.17,7.34c.03.02.05.05.08.07Z"/>
  <path class="cls-1" d="M201.09,206.23c1.22-3.11,1.84-6.23,1.84-9.16,0-14.75-15.46-34.15-46.01-34.15-10.29,0-18.85,2.2-25.7,5.68.15.34.26.69.35,1.06,6.22-3.2,14.53-5.65,25.35-5.65,16.66,0,27.39,5.79,33.64,11.19,7.19,6.22,11.28,14.46,11.28,21.86,0,3.43-.89,7.03-2.54,10.54.62-.47,1.22-.92,1.8-1.38Z"/>
  <path class="cls-1" d="M140.04,216.22c4.53,2.24,10.15,3.65,16.88,3.65,6,0,11.11-1.13,15.36-2.96.09-.45.19-.9.3-1.34-4.03,1.87-9.17,3.21-15.66,3.21-6.91,0-12.32-1.51-16.46-3.58-.11.35-.25.69-.42,1.02Z"/>
  <path class="cls-1" d="M125.97,222.41c7.52,5.24,17.84,8.82,30.95,8.82.83,0,1.64-.02,2.44-.05.05-.38.14-.75.25-1.11-.88.03-1.77.06-2.69.06-13.66,0-23.34-3.9-29.82-8.28-.34.22-.72.41-1.13.56Z"/>
  <path class="cls-1" d="M156.92,186.7c2.85,0,5.24.53,7.22,1.38.47-.19.92-.38,1.38-.57-2.3-1.16-5.16-1.91-8.6-1.91-10.26,0-15.45,6.51-15.45,11.46,0,.16.02.33.03.5.36-.14.71-.28,1.07-.42,0-.03,0-.05,0-.08,0-4.18,4.56-10.37,14.35-10.37Z"/>
  <path class="cls-1" d="M254.08,227.69l.93.6c3.17-5.47,5.52-11.07,7.02-16.59l-.82-.14-.29-.05c-1.51,5.48-3.8,10.94-6.85,16.19Z"/>
  <path class="cls-1" d="M247.35,208.35c.95-3.85,1.43-7.63,1.43-11.28,0-1.66-.1-3.35-.29-5.06-.37.01-.73.03-1.11.04.19,1.68.3,3.36.3,5.02,0,3.71-.51,7.49-1.47,11.27h1.14Z"/>
  <path class="cls-1" d="M90.21,169.58c-6.56,8.93-9.88,18.7-9.88,27.49,0,3.84.65,7.87,1.9,11.93.38.04.78.08,1.17.11-1.29-4.03-1.97-8.09-1.97-12.04,0-8.85,3.42-18.25,9.53-26.64-.28-.26-.53-.54-.74-.85Z"/>
  <path class="cls-1" d="M227.29,177.56l.6-.28.41-.19c-9.86-19.15-33.73-36.86-71.37-36.86-1.68,0-3.34.04-4.96.11l.14,1.09c1.57-.07,3.18-.11,4.82-.11,28.52,0,46.44,10.1,56.57,18.9,5.9,5.11,10.58,11.08,13.8,17.33Z"/>
  <path class="cls-1" d="M234.73,161.25c-8.63-10.6-21.23-19.98-37.79-25.87l-.35,1.02c12.58,4.49,21.86,10.66,28.38,16.33,3.35,2.92,6.37,6.07,9.04,9.37.24-.29.48-.57.72-.85Z"/>
  <path class="cls-1" d="M213.29,213.12c-.44.52-.91,1.06-1.42,1.61-2.49,4.2-5.8,8.2-9.84,11.7-3.86,3.35-9.11,6.87-15.92,9.67.44.22.9.43,1.36.62,12.79-5.48,21.61-14.19,26.42-23.35-.22-.07-.4-.17-.6-.25Z"/>
  <path class="cls-1" d="M109.38,224.16c-.42.09-.86.2-1.28.28,7.49,7.61,18.34,13.85,32.51,16.6.62-.26,1.23-.52,1.83-.77-14.45-2.48-24.36-8.4-30.63-13.84-.85-.73-1.65-1.5-2.43-2.27Z"/>
  <path class="cls-1" d="M219.37,262.01l-.59-.92c-14.6,7.94-34.8,14.42-61.86,14.42-4.12,0-8.06-.15-11.87-.43l-.04,1.08c3.86.29,7.83.44,11.91.44,25.25,0,46.09-5.69,62.44-14.59Z"/>
  <path class="cls-1" d="M200.38,257.45l-.44-.98c-11.29,4.5-25.47,7.67-43.01,7.67-15.29,0-28.03-2.41-38.52-6.02l-.25.56-.19.43c11.22,3.86,24.2,6.13,38.97,6.13,16.77,0,31.26-2.95,43.45-7.8Z"/>
  <path class="cls-1" d="M54.82,217.4c-.27.26-.57.5-.9.7,9.98,25.83,37.96,51.58,83.63,57.31l.05-1.09c-29.29-3.67-48.57-15.3-60.19-25.42-10.45-9.1-18.23-20.12-22.58-31.51Z"/>
  <path class="cls-1" d="M255.31,144.9c14.5,15.49,22.94,34.42,22.94,52.17,0,20.59-11.35,42.77-30.36,59.33-15.95,13.89-44.67,30.45-90.98,30.45s-75.04-16.56-90.98-30.45c-6.7-5.83-12.44-12.37-17.07-19.28l-.93.61c18.13,27.07,54.56,50.22,108.99,50.22,81.29,0,122.43-51.62,122.43-90.87,0-17.06-7.78-36.45-23.24-52.93l-.8.76Z"/>
  <path class="cls-1" d="M77.41,145.24c3.92-3.41,8.71-7,14.46-10.39l-.52-.96c-14.41,8.48-25.09,19.47-32.02,31.08.35.16.68.36.97.58,4.37-7.32,10.14-14.25,17.1-20.31Z"/>
  <path class="cls-1" d="M53.25,151.01l-.83-.73c-11.94,15.03-17.94,31.81-17.94,46.8,0,10.9,3.18,22.76,9.51,34.2l.93-.61c-6.03-10.91-9.35-22.48-9.35-33.6,0-15.48,6.41-31.85,17.67-46.06Z"/>
  <path class="cls-1" d="M213.49,233.92c-.17.15-.35.3-.53.45l2.3-.56c12.13-11,18.24-24.79,18.24-36.74,0-2.72-.34-5.54-.96-8.4l-1.08.18c.63,2.76.95,5.52.95,8.22,0,12.68-6.99,26.49-18.91,36.85Z"/>
  <path class="cls-1" d="M102.43,176.62c-4.53,6.71-6.82,13.92-6.82,20.45,0,3.83.8,7.89,2.35,11.96.38-.04.76-.08,1.14-.11-1.56-3.96-2.38-7.98-2.38-11.85,0-6.51,2.33-13.43,6.58-19.75l-.87-.7Z"/>
  <path class="cls-1" d="M75.58,226.18c-.5-.09-1-.17-1.48-.27,6.98,11.11,18.01,21.46,33.07,28.76l.34-.57.21-.34c-7.88-3.83-14.09-8.23-18.84-12.35-5.28-4.6-9.76-9.77-13.3-15.23Z"/>
  <path class="cls-1" d="M121.67,147.51c6.49-2.54,14.1-4.54,22.95-5.52l-.13-1.07c-8.87,1-16.81,3.02-23.86,5.83l1.04.76Z"/>
  <path class="cls-1" d="M179.91,251.46c-.13-.33-.24-.68-.31-1.03-6.68,1.48-14.21,2.38-22.68,2.38-.59,0-1.18-.01-1.76-.02.05.36.08.72.08,1.08.57,0,1.12.03,1.69.03,8.35,0,16-.88,22.99-2.45Z"/>
  <path class="cls-1" d="M156.92,118.64c40.38,0,65.51,14.4,79.51,26.6,3.5,3.05,6.68,6.32,9.55,9.74.3-.22.63-.41.99-.57-17.18-20.51-47.25-36.87-90.06-36.87-23.5,0-43.16,4.93-58.96,12.77l.51.95c14.29-7.1,33.44-12.63,58.45-12.63Z"/>
  <path class="cls-1" d="M189.43,134.15l.35-1c-9.76-2.7-20.7-4.26-32.86-4.26-60.99,0-91.87,38.74-91.87,68.18,0,2.14.18,4.33.51,6.55.1,0,.19-.01.28-.01.29,0,.56.02.83.06-.33-2.21-.52-4.42-.52-6.59,0-15.32,8.45-31.92,22.73-44.34,12.07-10.49,33.6-22.75,68.04-22.75,12.48,0,23.26,1.61,32.52,4.16Z"/>
  <path class="cls-1" d="M127.85,156.8l1.01.79c7.45-2.9,16.7-4.92,28.06-4.92,19.9,0,33.38,6.17,41.91,12.49l.26-1.17c-10.09-7.35-24.16-12.41-42.17-12.41-11.22,0-20.91,1.97-29.07,5.23Z"/>
  <polygon class="cls-1" points="112.07 165.17 112.87 164.19 112.68 164.05 112.1 163.6 111.72 163.3 103.24 156.72 102.37 156.04 101.76 156.81 94.16 166.36 104.65 174.36 112.07 165.17"/>
  <polygon class="cls-1" points="132.02 161.97 122.37 154.49 121.52 153.83 120.66 154.91 114.76 162.31 114.49 162.65 113.3 164.14 114.67 165.19 123.79 172.14 132.02 161.97"/>
  <path class="cls-1" d="M52.99,209.47c7.32,10.62,19.36,14.69,32.85,14.69,24.36,0,53.44-11.55,68.04-17.9,14.57-6.31,21.31-9.46,25.62-10.22,4.55-.78,6.36.38,3.23,4.29-3.38,4.22-9.09,11.61-8.62,22.59.05,1.07.12,2.09.21,3.1-10.27,6.01-19.83,10.95-25.02,13.09-7.52,3.36-22.66,9.72-36.42,13.98l-2.03.73c-6.78,2.05,29.69.1,39.52-2.48,5.21-1.78,15.58-6.77,26.56-13.24,3.98,10.54,11.65,15.31,20.16,15.39,20.63.21,47.33-24.62,61.94-43.66,2.17-2.81,4.22-6.37,4.76-8.13.11-.36.2-.7.3-1.04.26-.39.5-1.35.7-2.5,1.12-4.54,2.01-15.12-2.54-25.41-2.79-6.32-10.31-15.24-17.29-15.45-5.37.02-13.3,7.51-14.26,18.75-.36,6.03,1.85,11.32,8.61,12.81,3.56.77,10.03.22,13.12.1,4.05-.11,7.75.81,9.55,3.69.16.42.3.82.42,1.19-.54.73-1.24,1.65-2.17,2.83-14.87,19.02-41.8,43.83-62.42,43.63-5.73-.05-11.7-1.73-16.09-5.1,10-6.21,19.97-13.44,26.55-20.42,4.69-4.53,6.55-7.33,8.17-12.5.02-.06.03-.12.05-.18,1.83-4.16,2.02-7.61,1.83-11.09-.25-4.21-1.99-9.12-3.78-12.6-1.39-2.65-2.4-5-3.22-7.12,1.21.32,2.17.61,2.7.85l1.67.68c3.73,1.66-5.47-8.52-12.38-17.47h0s0,0,0,0l-2.46,11.13-.4,1.8s0,0,0,0c1.3,1.3,2.27,2.06,2.55,3.05,1.48,6.28,3.87,12.03,7.97,19.85,1.8,3.48,2.08,4.01,2.34,4.97.11.31.24.64.39.99-1.02,1.22-2.35,2.6-4.32,4.48-7.73,7.31-21.29,16.3-33.96,23.77-1.14-6.59.97-11.58,3.25-14.77,1.5-2.1,3.56-4.81,6.13-7.35,9.13-10.03,7.5-18.51-.15-19.45-4.71-.57-13.82,3.14-28.39,9.46-14.33,6.17-42,17.68-65.84,17.68-14.79,0-27.23-3.48-35.06-14.48-5.1-8.21-1.82-18.43.18-25.29l.53-1.72c-.78-3.71-14.73,19.62-3.08,40.02ZM249.87,175.89c-3.58.3-6.98.75-9.19.34-2.22-.35-3.32-1.33-3.21-1.92.61-2.39,3.39-4.26,7.03-3.81,3.26.4,6.04,2.64,8.41,5.56-.92-.2-1.92-.27-3.04-.17Z"/>
  <polygon class="cls-1" points="112.63 156.3 119.43 147.73 110.72 140.96 103.8 149.54 112.63 156.3"/>
  <path class="cls-1" d="M90.46,292.91c1.63.63,2.04,1.33,2.28,1.75.34.58.26,2.45-.25,5.72,0,.06.03.12.09.13,0,0,.02,0,.03,0,.05,0,.1-.03.11-.08.01-.04,1.16-3.5,1.63-5.25.06-.22.08-.54-.03-.79-.41-.87-1.36-1.16-3.79-1.7-.06-.01-.12.02-.14.08-.02.06.01.12.07.14Z"/>
  <path class="cls-1" d="M42.14,269.29s.05,0,.07-.03c.03-.02,2.89-2.3,4.24-3.5.17-.15.37-.41.41-.68.13-.89-.15-1.18-1.72-2.76-.18-.19-.39-.39-.61-.62-.04-.04-.11-.05-.16,0-.05.04-.06.11-.02.16.97,1.33,1.12,2,1.05,2.58-.03.29-.89,1.94-3.36,4.66-.04.05-.04.12,0,.16.02.02.05.04.09.04Z"/>
  <path class="cls-1" d="M46.27,286.81s-.04.12,0,.16c1.41,1.35,2.33,2.72,2.41,3.27,0,.04.01.07.02.12.08.39.25,1.21-1.39,3.94-.03.05-.02.12.03.15.02.02.05.02.07.02.03,0,.06-.01.09-.04.01-.02,1.5-1.56,2.61-2.99.14-.18.28-.48.26-.77-.09-.99-1.62-2.18-3.95-3.89-.05-.04-.12-.03-.16.02Z"/>
  <path class="cls-1" d="M43.93,274.11s-.05.11,0,.16c1.26,1.46,1.94,2.79,1.94,3.3,0,.04,0,.08,0,.13.02.42.06,1.21-1.83,3.73-.04.05-.03.12.01.16.02.02.05.03.08.03.03,0,.06,0,.08-.03.02-.01,1.63-1.42,2.88-2.74.16-.17.33-.44.34-.72.03-.91-1.15-2.12-3.33-4.02-.05-.04-.12-.04-.16,0Z"/>
  <path class="cls-1" d="M81.15,326.85c-1.16.31-2.15.59-3.11.87-1.41.4-2.73.79-4.38,1.18-1.05.25-1.86.09-2.42-.47-1.42-1.43-1.52-1.39-1.59-1.36-.03,0-.07.04-.08.07-.06.15.28,1.1.59,1.7l.2.4c.63,1.23.92,1.79,1.73,1.94.09.02.18.02.27.02.72,0,1.68-.4,2.22-.63l.11-.05s0,0,0,0c2.5-1.19,6.48-3.41,6.52-3.43.05-.03.08-.1.05-.15-.02-.06-.09-.09-.14-.07Z"/>
  <path class="cls-1" d="M60.75,318.42c-2.34-.05-3.81-.16-6.03-.33l-.73-.06c-.58-.04-1.73-.33-2.35-1.2-.26-.37-1.14-1.57-1.35-1.58-.03,0-.07.03-.09.06-.08.14.08,1.09.3,1.75l.06.18c.47,1.47.71,2.21,1.55,2.3.3.03.65.05,1.02.05,2.64,0,6.72-.76,7.63-.93.06,0,.11-.07.1-.13,0-.06-.06-.11-.12-.11Z"/>
  <path class="cls-1" d="M201.25,304.5c1.08.04,1.98-.81,2.02-1.89.04-1.08-.81-1.98-1.89-2.02-.15,0-.3,0-.46.04-.04,0-.07.05-.07.09s.04.08.08.08c.7.05,1.24.63,1.21,1.34-.02.72-.62,1.28-1.34,1.25-.64-.02-1.18-.52-1.25-1.15,0-.04-.04-.08-.08-.08h0s-.08.03-.09.07c-.01.09-.02.17-.02.24-.04,1.08.81,1.98,1.89,2.02Z"/>
  <path class="cls-1" d="M191.87,302.61c-.15,0-.3,0-.46.04-.04,0-.07.05-.07.09s.04.08.08.08c.7.05,1.24.63,1.21,1.34-.02.72-.62,1.28-1.34,1.25-.64-.02-1.18-.52-1.25-1.15,0-.04-.04-.08-.08-.08h0s-.08.03-.09.07c-.01.09-.02.17-.02.24-.04,1.08.81,1.98,1.89,2.02,1.08.04,1.98-.81,2.02-1.89.04-1.08-.81-1.98-1.89-2.02Z"/>
  <path class="cls-1" d="M182.25,304.16c-.15,0-.3,0-.46.04-.04,0-.07.05-.07.09s.04.08.08.08c.7.05,1.24.63,1.21,1.34-.02.72-.62,1.28-1.34,1.25-.64-.02-1.18-.52-1.25-1.15,0-.04-.04-.08-.08-.08h0s-.08.03-.09.07c-.01.09-.02.17-.02.24-.04,1.08.81,1.98,1.89,2.02,1.08.04,1.98-.81,2.02-1.89.04-1.08-.81-1.98-1.89-2.02Z"/>
  <path class="cls-1" d="M172.57,305.08c-.15,0-.3,0-.46.04-.04,0-.07.05-.07.09,0,.04.04.08.08.08.7.05,1.24.63,1.21,1.34-.02.72-.62,1.28-1.34,1.25-.64-.02-1.18-.52-1.25-1.15,0-.04-.04-.08-.08-.08h0s-.08.03-.09.07c-.01.09-.02.17-.02.24-.04,1.08.81,1.98,1.89,2.02,1.08.04,1.98-.81,2.02-1.89.04-1.08-.81-1.98-1.89-2.02Z"/>
  <path class="cls-1" d="M163.82,305.42c-.15,0-.3,0-.46.04-.04,0-.07.05-.07.09,0,.04.04.08.08.08.7.05,1.24.63,1.21,1.34-.02.72-.63,1.28-1.34,1.26-.64-.02-1.18-.52-1.25-1.15,0-.04-.04-.08-.08-.08h0s-.08.03-.09.07c-.01.09-.02.17-.02.24-.04,1.08.81,1.98,1.89,2.02,1.08.04,1.98-.81,2.02-1.89.04-1.08-.81-1.98-1.89-2.02Z"/>
  <path class="cls-1" d="M210.98,333.28c-.15,0-.3,0-.46.04-.04,0-.07.05-.07.09,0,.04.04.08.08.08.7.05,1.24.63,1.21,1.34-.02.72-.63,1.28-1.34,1.25-.64-.02-1.18-.52-1.25-1.15,0-.04-.04-.08-.08-.08h0s-.08.03-.09.07c-.01.09-.02.17-.02.24-.04,1.08.81,1.98,1.89,2.02,1.08.04,1.98-.81,2.02-1.89.04-1.08-.81-1.98-1.89-2.02Z"/>
  <path class="cls-1" d="M199.77,335.54s-.07.05-.07.09c0,.04.04.08.08.08.7.05,1.24.63,1.21,1.34-.02.72-.62,1.28-1.34,1.25-.64-.02-1.18-.52-1.25-1.15,0-.04-.04-.08-.08-.08h0s-.08.03-.09.07c-.01.09-.02.17-.02.24-.04,1.08.81,1.98,1.89,2.02,1.08.04,1.98-.81,2.02-1.89.04-1.22-1.06-2.24-2.35-1.97Z"/>
  <path class="cls-1" d="M188.86,337.3c-.15,0-.3,0-.46.04-.04,0-.07.05-.07.09,0,.04.04.08.08.08.7.05,1.24.63,1.21,1.34-.02.72-.63,1.28-1.34,1.25-.64-.02-1.18-.52-1.25-1.15,0-.04-.04-.08-.08-.08h0s-.08.03-.09.07c-.01.09-.02.17-.03.24-.04,1.08.81,1.98,1.89,2.02,1.08.04,1.98-.81,2.02-1.89.04-1.08-.81-1.98-1.89-2.02Z"/>
  <path class="cls-1" d="M177.38,338.58c-.15,0-.3,0-.46.04-.04,0-.07.05-.07.09,0,.04.04.08.08.08.7.05,1.24.63,1.21,1.34-.02.72-.62,1.28-1.34,1.25-.64-.02-1.18-.52-1.25-1.15,0-.04-.04-.08-.08-.08h0s-.08.03-.09.07c-.01.09-.02.17-.02.24-.04,1.08.81,1.98,1.89,2.02,1.08.04,1.98-.81,2.02-1.89.04-1.08-.81-1.98-1.89-2.02Z"/>
  <path class="cls-1" d="M166.19,338.95c-.15,0-.3,0-.46.04-.04,0-.07.05-.07.09,0,.04.04.08.08.08.7.05,1.24.63,1.21,1.34-.02.72-.63,1.28-1.34,1.25-.64-.02-1.18-.52-1.25-1.15,0-.04-.04-.08-.08-.08h0s-.08.03-.09.07c-.01.09-.02.17-.02.24-.04,1.08.81,1.98,1.89,2.02,1.08.04,1.98-.81,2.02-1.89.04-1.08-.81-1.98-1.89-2.02Z"/>
  <path class="cls-1" d="M127.86,66.7c0-.17-.01-.34-.02-.51-.12-3.31.21-6.64.94-9.87.17-.76.37-1.51.58-2.25.61-2.11,1.4-4.16,2.36-6.11,1.05-2.14,2.29-4.15,3.71-5.99.94-1.22,1.97-2.37,3.07-3.42,5.65-5.42,13.29-8.42,22.28-6.91,5.25,1.14,9.68,3.57,13.29,6.84,1.16,1.06,2.23,2.2,3.22,3.42,1.68,2.08,3.1,4.38,4.27,6.83.8,1.69,1.48,3.45,2.03,5.26.3.99.56,2,.78,3.01.66,2.98.98,6.05.97,9.11-.01,2.81-.31,5.62-.9,8.35-.23,1.07-.52,2.13-.84,3.18-.25.81-.53,1.6-.83,2.38-1.21,3.1-2.85,6.01-4.92,8.6-1.28,1.6-2.73,3.07-4.35,4.4-1.62,1.32-3.41,2.5-5.37,3.49-2.79,1.33-5.81,2.19-8.92,2.53,5.25-.2,10.21-2.17,14.37-5.27,1.95-1.46,3.73-3.16,5.28-5.05,1.16-1.42,2.19-2.94,3.07-4.54.46-.8.88-1.61,1.27-2.44.61-1.29,1.15-2.62,1.6-3.98.35-1.04.66-2.1.92-3.17.66-2.72,1.01-5.52,1.08-8.33.07-2.76-.15-5.53-.64-8.25-.24-1.31-.54-2.61-.91-3.88-.67-2.36-1.57-4.64-2.67-6.82-.93-1.85-2.02-3.62-3.25-5.28-.61-.82-1.25-1.61-1.93-2.37-.31-.36-.62-.71-.95-1.05-8.59-9.08-23.08-11.87-33.8-4.77-2.15,1.35-4.07,2.98-5.76,4.8-1,1.07-1.92,2.21-2.75,3.41-1.12,1.61-2.1,3.33-2.93,5.12-1.03,2.22-1.83,4.55-2.41,6.94-.2.82-.37,1.64-.51,2.47-.55,3.18-.7,6.43-.45,9.6.01.17.02.34.04.51Z"/>
  <path class="cls-1" d="M151.82,45.35c-1.18,0-2.39.3-3.48.84-.82.41-1.57.96-2.18,1.64-.9,1-1.5,2.28-1.54,3.79l-.02.66.41-.52c.76-.97,1.79-1.69,2.87-2.18.07-.03.13-.07.2-.1,1.16-.49,2.36-.73,3.34-.73.5,0,.95.06,1.35.17-2.2.88-3.5,2.43-4.01,4.06-.24.75-.31,1.51-.23,2.24.03.31.1.61.19.91l.23.73.19-.74c.19-.73.51-1.39.9-1.97.3-.45.65-.85,1.03-1.21,1.34-1.27,2.99-1.96,3.96-1.99v1.95s0,8.31,0,8.31v1.91c-.02.61-.11,1.15-.23,1.62-.25.99-.63,1.65-.8,1.91l-.16.31h5.81l.33-.04-.16-.31c-.15-.23-.53-.89-.77-1.87-.12-.47-.2-1.01-.22-1.62v-12.18c.97.03,2.62.72,3.96,1.99.38.36.73.77,1.03,1.22.39.58.71,1.23.9,1.96l.19.75.22-.74c.09-.3.15-.62.19-.94.07-.72,0-1.47-.24-2.2-.52-1.63-1.82-3.18-4.01-4.06.4-.11.85-.17,1.35-.17.99,0,2.2.24,3.36.74.07.03.13.07.19.09,1.08.49,2.1,1.21,2.86,2.18l.41.52-.02-.66c-.04-1.5-.63-2.77-1.53-3.77-.61-.68-1.35-1.23-2.17-1.64-1.1-.55-2.32-.85-3.51-.85-.06,0-.12.01-.18.01-.24,0-.47.02-.69.05.3-.24.66-.45,1.05-.63.78-.37,1.71-.61,2.7-.68.22-.02.43-.02.65-.02.92,0,1.81.15,2.56.43l.64.24-.38-.56c-1.12-1.65-3.08-2.63-5.25-2.63-1.51,0-2.97.49-4.14,1.39-.21-.59-.55-1.12-.93-1.59-.31-.39-.64-.74-.95-1.07l-.16-.17-.16.16c-.3.31-.64.66-.96,1.07-.37.47-.72,1-.93,1.6-1.17-.9-2.63-1.39-4.14-1.39-2.17,0-4.13.98-5.25,2.63l-.39.57.64-.24c.75-.28,1.64-.43,2.56-.43.23,0,.45.01.68.03.99.08,1.93.32,2.71.69.38.18.72.38,1.01.62-.21-.03-.44-.04-.66-.04-.07,0-.13-.01-.2-.01Z"/>
  <path class="cls-1" d="M163.59,82.42c-.25.44-.45.78-.64,1.03-.62.85-1.78,1.58-2.52,1.59h-.91s.82.41.82.41c.73.35,1.42.53,2.07.53,1.25,0,2.33-.66,3.28-2.01,1.23.85,2.26,1.44,3.14,1.79,1.07.43,2.15.64,3.2.64,2.58,0,4.55-1.31,4.88-3.27l.06-.34-.33.1c-1,.29-1.91.43-2.79.43-.2,0-.39-.01-.58-.03-.35-.02-.7-.07-1.05-.14-1.25-.25-2.54-.8-3.96-1.69-.27-.17-.54-.35-.82-.54.85-1.29,1.63-1.8,2.21-1.99.24-.08.44-.1.6-.1.32,0,.52.09.52.1l.69.34-.41-.65c-.17-.27-.4-.5-.67-.7-.51-.37-1.16-.58-1.83-.58-.86,0-1.67.35-2.27.98-.18.19-.37.41-.55.65-.1.13-.21.26-.31.41-.22-.18-.43-.36-.66-.54-.3-.25-.6-.51-.89-.76-.51-.43-1.02-.86-1.53-1.3-.19-.16-.37-.31-.56-.47-.74-.63-1.48-1.26-2.21-1.88.36-.34.91-.84,1.62-1.39,2.53-1.98,7.16-4.77,13.1-4.77,1.6,0,3.21.21,4.8.61l.77.2-.56-.56c-2.19-2.18-4.76-3.29-7.64-3.29-5.98,0-12.03,4.82-14.73,7.01-2.7-2.19-8.76-7.01-14.73-7.01-2.88,0-5.45,1.11-7.64,3.29l-.56.56.77-.2c1.59-.41,3.2-.61,4.8-.61,5.92,0,10.53,2.77,13.1,4.77.69.54,1.24,1.03,1.62,1.39-.74.62-1.47,1.25-2.21,1.88-.18.16-.37.31-.55.47-.51.43-1.01.86-1.52,1.29-.3.26-.61.52-.91.77-.22.19-.44.37-.66.54-.1-.14-.2-.26-.29-.39-.19-.25-.38-.48-.57-.68-.61-.63-1.42-.98-2.27-.98-.67,0-1.31.21-1.82.57-.28.2-.51.43-.69.71l-.41.65.69-.34s.2-.1.52-.1c.16,0,.38.03.63.11.58.2,1.35.71,2.18,1.98-.27.19-.54.36-.81.53-1.42.89-2.7,1.44-3.95,1.7-.35.07-.7.12-1.05.15-.2.02-.41.03-.61.03-.88,0-1.79-.14-2.79-.43l-.33-.1.06.34c.34,1.96,2.3,3.27,4.88,3.27,1.05,0,2.13-.22,3.2-.64.88-.35,1.91-.94,3.14-1.79.95,1.35,2.03,2.01,3.28,2.01.64,0,1.34-.18,2.07-.53l.82-.4h-.91c-.75-.03-1.9-.75-2.52-1.6-.18-.25-.39-.6-.64-1.03.47-.37.95-.76,1.43-1.16,1.49-1.23,3.02-2.57,4.52-3.88l.73-.64.73.64c1.5,1.32,3.04,2.66,4.53,3.89.48.39.95.78,1.42,1.14Z"/>
  <path class="cls-1" d="M156.4,324.7c-.29-.17-.58-.34-.87-.51-7.07-3.93-16.7-4.83-24.28-2.34-.67.22-1.33.47-1.97.74.69-.38,1.36-.79,2.02-1.24,6.16-4.18,11.08-11.26,12.79-18.38.4-1.68.63-3.37.65-5.02-2.49,1.06-4.85,2.63-7,4.54-1.88,1.67-3.59,3.61-5.05,5.7-2.82,4.03-4.74,8.65-5.27,13.13.21-9.82-5.55-20.94-13.6-25.7-1.15,9.56,3.93,20.98,11.58,26.69-3.29-1.99-7.21-3.3-11.25-3.86-6.28-.88-12.85,0-17.81,2.79,3.43,2.57,7.81,4.26,12.38,5.01,5.68.93,11.66.4,16.52-1.69-8.61,4.73-15.36,15.28-15.45,24.63,8.85-3.79,16.21-13.9,17.33-23.37-.08,3.99.82,8.19,2.45,12.09.75,1.79,1.65,3.52,2.69,5.13,2.27,3.54,5.17,6.54,8.46,8.48.29-2.46.17-5.04-.29-7.61-1.21-6.7-4.78-13.36-9.63-17.72-.54-.48-1.09-.94-1.66-1.36.55.33,1.12.65,1.7.94,7.75,3.91,18.18,4.37,25.72.95.56-.25,1.1-.53,1.63-.82-.39-.29-.79-.56-1.2-.83-.2-.13-.39-.25-.59-.38Z"/>
  <path class="cls-1" d="M146.64,314.26c1.31-2.91,2.24-6.52,2.86-10.97.09-.66.18-1.34.25-2.03,0-.05-.03-.11-.08-.12-.05-.02-.11.01-.13.06,0,0-.19.77-.64,2.06-.96,2.79-3.11,8.01-7.07,13.18-.03.04-.04.09-.02.14.02.05.07.07.12.07,9.53.21,16.72,3.5,16.72,3.5.05.01.11-.01.13-.07.02-.05,0-.11-.04-.14-4.59-2.9-8.55-4.78-12.1-5.7Z"/>
  <path class="cls-1" d="M112.71,330.59s-.07-.07-.12-.07c-2.44-.05-4.73-.31-6.78-.66-5.96-1.02-9.94-2.84-9.94-2.84-.05-.01-.11.01-.13.07-.02.05,0,.11.04.14,3.03,1.91,5.77,3.37,8.31,4.41,1.31.54,2.58.97,3.79,1.28-1.51,3.34-2.51,7.61-3.11,13,0,.05.03.11.08.12.05.01.11-.01.13-.06,0,0,1.92-7.68,7.71-15.25.03-.04.04-.09.02-.14Z"/>
  <path class="cls-1" d="M96.72,315.49s7.61-2.17,17.06-.94c.05,0,.1-.01.13-.06.03-.04.03-.1,0-.14-.34-.63-.66-1.25-.96-1.87-3.73-7.63-4.36-14.37-4.36-14.37-.02-.05-.07-.09-.12-.08-.05,0-.1.05-.1.11-.22,5.43.13,9.79,1.12,13.33-.41.04-.83.1-1.25.16-3.35.5-7.15,1.71-11.57,3.65-.05.02-.08.08-.06.13.01.05.06.09.12.08Z"/>
  <path class="cls-1" d="M157.79,331.68s-7.61,2.17-17.06.94c-.05,0-.1.01-.13.06-.03.04-.03.1,0,.14,2.34,4.27,3.68,8.41,4.43,11.45.72,2.9.9,4.79.9,4.79.02.05.07.09.12.08.05,0,.1-.05.1-.11.07-1.66.07-3.22.03-4.69-.09-3.33-.47-6.19-1.15-8.64,3.65-.37,7.84-1.63,12.82-3.81.05-.02.08-.08.06-.13-.01-.05-.06-.09-.12-.08Z"/>
</svg>