<svg width="24" height="24" viewBox="0 0 24 24" fill="none" xmlns="http://www.w3.org/2000/svg">
<path d="M5.40005 8.1C5.40005 7.38391 5.68451 6.69716 6.19086 6.19081C6.69721 5.68446 7.38396 5.4 8.10005 5.4C8.81613 5.4 9.50289 5.68446 10.0092 6.19081C10.5156 6.69716 10.8 7.38391 10.8 8.1C10.8 8.81608 10.5156 9.50284 10.0092 10.0092C9.50289 10.5155 8.81613 10.8 8.10005 10.8C7.38396 10.8 6.69721 10.5155 6.19086 10.0092C5.68451 9.50284 5.40005 8.81608 5.40005 8.1ZM8.10005 4.2C7.0657 4.2 6.07372 4.61089 5.34233 5.34228C4.61094 6.07367 4.20005 7.06565 4.20005 8.1C4.20005 9.13434 4.61094 10.1263 5.34233 10.8577C6.07372 11.5891 7.0657 12 8.10005 12C9.13439 12 10.1264 11.5891 10.8578 10.8577C11.5892 10.1263 12 9.13434 12 8.1C12 7.06565 11.5892 6.07367 10.8578 5.34228C10.1264 4.61089 9.13439 4.2 8.10005 4.2ZM14.9244 18.174C15.57 18.438 16.3824 18.6 17.4 18.6C19.6572 18.6 20.9052 17.7984 21.5628 16.8792C21.9059 16.3968 22.121 15.8353 22.188 15.2472C22.194 15.1926 22.198 15.1377 22.2 15.0828V15C22.2 14.7636 22.1535 14.5296 22.063 14.3112C21.9726 14.0928 21.84 13.8944 21.6728 13.7272C21.5057 13.5601 21.3073 13.4275 21.0889 13.337C20.8705 13.2466 20.6364 13.2 20.4 13.2H14.844C15.132 13.548 15.348 13.9548 15.474 14.4H20.4C20.5592 14.4 20.7118 14.4632 20.8243 14.5757C20.9368 14.6883 21 14.8409 21 15V15.0648L20.994 15.1248C20.9481 15.5053 20.8078 15.8683 20.586 16.1808C20.1936 16.7316 19.3416 17.4 17.4 17.4C16.5216 17.4 15.8664 17.2632 15.3756 17.0628C15.2772 17.3988 15.1344 17.778 14.9244 18.174ZM1.80005 15.6C1.80005 14.9635 2.05291 14.353 2.50299 13.9029C2.95308 13.4529 3.56353 13.2 4.20005 13.2H12C12.6366 13.2 13.247 13.4529 13.6971 13.9029C14.1472 14.353 14.4 14.9635 14.4 15.6V15.7008C14.4 15.7128 14.4 15.7284 14.3976 15.7488C14.383 15.9864 14.3489 16.2224 14.2956 16.4544C14.1936 16.896 13.9908 17.4864 13.5816 18.0792C12.7404 19.296 11.1156 20.4 8.10005 20.4C5.08445 20.4 3.45965 19.296 2.61845 18.0792C2.17544 17.4339 1.89921 16.6889 1.81445 15.9108C1.80728 15.841 1.80248 15.7709 1.80005 15.7008V15.6ZM3.00005 15.672V15.6936L3.00845 15.7932C3.07347 16.3684 3.27867 16.9189 3.60605 17.3964C4.19045 18.2412 5.41565 19.2 8.10005 19.2C10.7844 19.2 12.0096 18.2412 12.594 17.3964C12.9215 16.919 13.1267 16.3685 13.1916 15.7932C13.1956 15.7601 13.198 15.7269 13.1988 15.6936L13.2 15.6732V15.6C13.2 15.2817 13.0736 14.9765 12.8486 14.7515C12.6235 14.5264 12.3183 14.4 12 14.4H4.20005C3.88179 14.4 3.57656 14.5264 3.35152 14.7515C3.12648 14.9765 3.00005 15.2817 3.00005 15.6V15.672ZM15.6 9C15.6 8.52261 15.7897 8.06477 16.1273 7.72721C16.4648 7.38964 16.9227 7.2 17.4 7.2C17.8774 7.2 18.3353 7.38964 18.6728 7.72721C19.0104 8.06477 19.2 8.52261 19.2 9C19.2 9.47739 19.0104 9.93523 18.6728 10.2728C18.3353 10.6104 17.8774 10.8 17.4 10.8C16.9227 10.8 16.4648 10.6104 16.1273 10.2728C15.7897 9.93523 15.6 9.47739 15.6 9ZM17.4 6C16.6044 6 15.8413 6.31607 15.2787 6.87868C14.7161 7.44129 14.4 8.20435 14.4 9C14.4 9.79565 14.7161 10.5587 15.2787 11.1213C15.8413 11.6839 16.6044 12 17.4 12C18.1957 12 18.9588 11.6839 19.5214 11.1213C20.084 10.5587 20.4 9.79565 20.4 9C20.4 8.20435 20.084 7.44129 19.5214 6.87868C18.9588 6.31607 18.1957 6 17.4 6Z" fill="#1e645c"/>
</svg>
