<?xml version="1.0" encoding="UTF-8"?><svg id="Layer_2" xmlns="http://www.w3.org/2000/svg" viewBox="0 0 1787.83 677.28"><defs><style>.cls-1{fill:#bf2634;}.cls-2{fill:#6e767d;}</style></defs><g id="Layer_1-2"><g><path class="cls-1" d="M1787.83,437.85c-2.64-.68-4.22,1.5-6.12,2.51-9.99,5.27-19.93,10.64-29.7,16.29-3.3,1.91-4.64,1.22-6.3-1.95-5.62-10.74-11.5-21.35-17.36-31.95-1.15-2.08-1.35-3.26,1.17-4.59,11.15-5.9,22.23-11.94,33.21-18.16,2.84-1.61,3.66-.32,4.82,1.85,5.41,10.11,10.87,20.19,16.47,30.19,.98,1.74,1.25,4.25,3.81,4.81v1Z"/><path class="cls-2" d="M517.62,517.77c-128.57,0-257.14,0-385.71,0q-6.37,0-6.37-6.41c0-43.16,.06-86.32-.09-129.47-.01-4.13,1.02-5.56,5.24-5.28,5.47,.36,11,.33,16.48,0,3.89-.23,4.68,1.23,4.67,4.85-.12,36.33,.03,72.65-.2,108.98-.03,4.99,1.45,5.92,6.12,5.92,181.2-.12,362.39-.1,543.59-.1q6.43,0,6.43-6.45c0-20.33,.12-40.66-.1-60.99-.05-4.28,1.29-5.44,5.37-5.2,5.64,.33,11.33,.29,16.98,0,3.6-.18,4.45,1.14,4.42,4.56-.14,20.99,.05,41.99-.17,62.99-.05,4.27,1.28,5.2,5.34,5.17,25.48-.18,50.96-.18,76.44,0,4,.03,5.37-1.06,5.83-5.1,1.01-8.9,.74-17.66-1.61-26.25-3.6-13.13-14.84-20.62-31.53-21.31-8-.33-16.01-.13-23.89,1.33-3.01,.56-3.84-.23-3.74-3.16,.17-4.83,.08-9.66,.03-14.5-.02-1.9,.4-3.09,2.64-3.37,16.43-2.1,32.86-2.8,49.01,1.67,23.41,6.47,33.72,22.9,35.37,46.89,.43,6.3,.47,12.69-.06,18.98-.4,4.73,1.34,5.53,5.52,5.36,7.81-.31,15.67-.37,23.47,.02,4.75,.24,6.18-1.1,6.15-6-.21-35.99-.04-71.99-.21-107.98-.02-4.44,.89-6.29,5.7-5.88,5.29,.45,10.67,.36,15.97,.02,4.07-.26,4.96,1.26,4.94,5.11-.15,31.66-.08,63.32-.08,94.98,0,11.83-.19,23.67,.1,35.49,.11,4.25-1.23,5.23-5.32,5.21-44.63-.14-89.27-.09-133.9-.09h-252.81Z"/><path class="cls-2" d="M1442.04,319.82c-11.38-12.59-14.53-27.35-11.4-43.7,.65-3.39,1.77-6.68,2.68-10.02,.61-.56,1.3-1.13,.44-1.96-.05-.04-.87,.72-1.33,1.12-12.39,11.33-14.84,25.94-13.82,41.85-3.63-5.36-4.94-11.38-5.43-17.59-1.03-13.09,3.12-24.54,11.34-34.63,1.15-1.41,2.23-2.89,3.34-4.33,.38-.42,1.15-1.16,1.11-1.22-.77-.92-1.53-.5-2.23,.18-16.75,6.56-22.45,20.41-24.21,36.89-6.01-15.13-2.22-38.46,24.94-49.27-9.43-2.24-18.11,1.65-31.03,13.89,.38-16.75,16.37-26.72,40.3-25.13-2.99-6.48-12.91-9.1-25.16-6.64,2.34-5.62,11.27-10.14,19.4-9.9,8.27,.25,14.43,4.4,19.58,11.17,4.42-7.45,6.69-15.01,8.77-22.74,1.74,6.35,3.51,12.5,6.22,18.37,1.49,3.22,2.19,4.49,5.38,1.01,9.98-10.9,27.49-9.88,37.24,2.41-5.35-1.99-10.21-1.73-15.01-.83-5.03,.94-9.33,3.3-13.54,8.44,10.27-2.83,19.28-2.2,27.81,1.95,8.78,4.27,14.04,11.26,15.32,21.23-8.22-11.5-19.99-14.43-33.21-14.2,10.59,3.88,19.64,9.73,25.23,19.73,5.56,9.96,5.17,20.44,2.3,30.99-3.76-21.61-14.03-35.91-27.31-36.9,16.09,16.7,20.57,35.46,10.97,56.81-.24-7.52-.26-15.08-2.75-22.36-2.51-7.32-6.11-13.87-12.63-18.79,7.01,19.93,5.48,38.38-8.45,54.89,1.15-5.74,2.32-11.49,2.42-17.35,.16-9.29-.71-18.37-7.17-25.81-1.01-1.16-2.09-3.24-3.9-2.46-1.32,.57-1.11,2.65-1.23,4.13-2.75,31.59-2.93,63.16,.88,94.69,1.29,10.66,1.25,10.68,9.86,4.71,16.43-11.41,33.97-20.31,53.91-23.63,20.14-3.34,39.79-1.68,58.71,6.38,.55,.24,1.29,.49,1.19,1.7-6.39-.31-12.59-2.04-18.95-2.6-20.98-1.85-40.72,2.39-59.44,11.64-14.65,7.24-28.38,16.02-40.91,26.57-1.28,1.08-3.56,1.69-.9,3.97,13.76,11.8,26.8,24.44,41.14,35.57,2.16,1.67,3.96,3.15,6.86,.57,3.81-3.4,8.25-2.92,12.47-.25,4.14,2.63,5.54,6.4,4.81,11.16-.79,5.11-4.08,7.89-8.74,9.14-5.5,1.48-10.51-.24-15.24-3.02-13.05-7.66-23.45-18.52-34.43-28.67-5.37-4.97-10.72-9.97-15.91-15.14-2.17-2.16-3.5-1.79-5.66,.15-13.37,12.01-25.82,25.04-39.92,36.24-5.22,4.15-10.63,8.02-17.22,9.84-4.94,1.37-9.5,1-13.69-2.19-4.74-3.6-5.85-9.05-2.82-14.15,3.09-5.19,9.36-7.69,14.06-4.26,4.97,3.62,7.94,1.52,11.61-1.42,13.25-10.62,25.34-22.53,38.15-33.64,2.12-1.84,1.43-2.71-.34-4.16-22.3-18.28-46.49-32.73-75.52-37.32-15.53-2.45-30.85-1.19-45.96,3.03-1.43,.4-2.8,1.11-5.07,.55,8.5-5.39,17.31-8.48,26.56-10.44,37.04-7.85,68.81,4.21,98.02,25.98,1.37,1.02,2.66,3.2,4.49,2.28,1.43-.72,1.02-2.99,1.25-4.63,2.65-19.16,4.02-38.43,3.73-57.74-.23-15.44-.74-30.93-2.89-46.99-7.81,5.62-10.02,13.38-11.12,21.71-1.13,8.56,.87,16.87,2.04,25.24l.07-.08Z"/><path class="cls-2" d="M618.12,243.86c-18.28-21.87-9.23-65.18,24.67-74.01,14.22-3.71,28.47-4.07,41.93,2.54,16.5,8.09,20.88,23.25,21.3,40,.38,15.49-.09,31,.19,46.49,.08,4.4-1.45,5.09-5.39,5.08-52.97-.12-105.94-.12-158.91-.04-7.84,.01-15.62,.89-23.01,3.82-7.29,2.89-11.71,8.08-12.3,16.04-.57,7.76,2.93,13.44,9.5,17.36,5.87,3.5,12.31,5.04,19.05,5.05,3.62,0,4.63,1.36,4.18,4.82-.56,4.28-.81,8.61-.98,12.93-.1,2.44-.87,3.75-3.51,3.64-12.75-.51-25.28-2.13-36.48-8.8-24.97-14.86-24.67-50.74,.45-65.77,11.62-6.96,24.55-9.09,37.76-9.92,5.14-.32,10.36-.53,15.47-.04,4.93,.47,6.32-1.52,6.5-6.02,.27-6.67,.61-13.3-.5-19.93-2.7-16.19-12.61-25.25-29.06-26.41-9.32-.66-18.63-.64-27.88,.82-2.95,.46-4.33-.21-4.18-3.51,.21-4.66,.09-9.33,.03-14-.03-2.04,.24-3.44,2.81-3.69,16.63-1.62,33.23-2.59,49.6,1.89,21.08,5.77,32.02,20.14,34.96,41.37,1.22,8.81,1.23,17.61,.55,26.41-.19,2.4,.16,3.34,2.69,3.35,10.07,.06,20.15-.42,30.54,.53Zm62.12-17.46c0-3.83,0-7.65,0-11.48,0-4.02-.76-7.95-1.74-11.81-1.99-7.78-6.82-12.93-14.87-14.25-13.38-2.2-23.91,5.04-27.09,18.29-4.15,17.3,3.17,31.73,17.64,34.74,7.73,1.61,15.56,.87,23.36,1.06,2.32,.06,2.77-1.11,2.73-3.09-.07-4.49-.02-8.98-.02-13.47Z"/><path class="cls-2" d="M362.57,265.38c-17.49,0-34.98,.03-52.47-.03-2.81-.01-4.41,.18-4.62,3.88-1.56,28.15-22.06,40.09-43.02,43.49-13.74,2.23-27.49,1.09-41.25-.06-4.25-.36-6.33-1.73-5.42-6.42,.63-3.24,.49-6.63,.81-9.94,.6-6.07,.62-5.94,6.9-5.04,12.36,1.78,24.73,3.42,37.21,.77,12.06-2.56,18.98-10.31,20.02-22.32,.27-3.19-.52-4.46-3.97-4.39-8.65,.18-17.29,.11-25.89-1.3-24.91-4.08-36.97-17.91-37.35-43.16-.44-29.46,18.47-48.67,49.33-49.58,13.2-.39,26.17,1.61,38.86,5.53,3.2,.99,4.01,2.52,3.99,5.66-.13,19.17,.05,38.33-.16,57.5-.04,4,1.12,4.98,5.01,4.96,26.98-.17,53.97-.18,80.95,0,3.98,.03,5.25-1.2,5.19-5.03-.1-7.15,.86-14.35-.79-21.42-3.82-16.32-13.06-23.97-29.83-24.78-8.15-.39-16.31-.58-24.4,.83-3.5,.61-5.3-.1-4.93-4.24,.36-4.13,.09-8.33,.07-12.49,0-1.76,.06-3.4,2.37-3.65,17.27-1.89,34.49-2.92,51.4,2.49,18.36,5.88,27.76,19.16,30.7,37.59,2.52,15.81,.76,31.54-1.32,47.25-.42,3.2-1.91,4-4.93,3.98-17.49-.12-34.98-.06-52.47-.06Zm-81.81-45.52c0-6.99,.04-13.98-.03-20.96-.01-1.53,.47-3.09-1.54-4.27-9.52-5.66-26.83-3.42-33.74,4.76-7.17,8.48-7.02,18.25-4.44,28.32,1.99,7.76,7.06,12.67,14.57,15.01,7.41,2.31,15.09,1.99,22.74,1.99,2.54,0,2.44-1.66,2.43-3.38,0-7.15,0-14.31,0-21.46Z"/><path class="cls-2" d="M870.38,220.22c0-14.99,.11-29.98-.08-44.97-.05-3.76,.71-5.41,4.88-5.15,5.8,.36,11.65,.27,17.47,.02,3.53-.15,4.52,1.09,4.49,4.56-.14,20.98,.09,41.97-.19,62.95-.06,4.61,1.35,5.57,5.6,5.39,8.14-.33,16.33-.43,24.46,.03,4.86,.27,5.64-1.56,5.6-5.88-.2-20.48,.03-40.97-.19-61.45-.04-4.21,.73-5.99,5.38-5.64,5.96,.44,11.98,.19,17.97,.07,2.57-.05,3.48,.82,3.47,3.45-.07,28.98-.1,57.96,.02,86.93,.02,3.78-2.15,3.34-4.51,3.34-17.31-.01-34.62,.13-51.93-.11-4.34-.06-6.02,.82-5.99,5.58,.04,6.99-1.36,13.92-3.98,20.45-3.92,9.74-10.83,16.71-20.65,20.44-12.42,4.72-25.19,5.49-38.23,2.89-2.74-.55-3.6-1.59-3.23-4.28,.64-4.61,1.18-9.24,1.47-13.88,.2-3.07,1.58-3.53,4.21-2.85,4.03,1.05,8.13,1.68,12.33,1.67,12.85-.03,19.72-6.41,20.93-19.16,1.17-12.3,.5-24.62,.68-36.93,.09-5.83,.01-11.66,.02-17.49Z"/><path class="cls-2" d="M734.54,193.77c0-21.82,.09-43.64-.09-65.46-.03-3.78,1.02-4.91,4.76-4.71,5.81,.31,11.66,.33,17.47,0,3.91-.23,4.65,1.23,4.64,4.84-.13,36.14,.04,72.29-.21,108.43-.04,5.16,1.35,6.4,6.31,6.2,9.97-.41,19.97-.24,29.96-.05,3.25,.06,4.2-.88,4.18-4.18-.15-21.15,.03-42.31-.17-63.46-.04-4.12,1.05-5.51,5.24-5.27,5.97,.35,11.98,.21,17.97,.04,2.84-.08,3.69,.91,3.69,3.74-.09,28.81-.09,57.63,0,86.44,0,2.93-1.01,3.62-3.75,3.61-28.8-.08-57.6-.11-86.39,.02-3.44,.02-3.64-1.54-3.64-4.23,.07-21.99,.04-43.97,.04-65.96Z"/><path class="cls-2" d="M94.5,235.16c0,9.85-.05,18.01,.03,26.16,.02,2.47-.23,4.19-3.39,4.09-18.92-.64-37.95,1.55-56.77-1.74-15.48-2.71-28.19-10.12-32-26.14-3.18-13.37-3.84-27.47,2.43-40.55,5.27-10.99,13.9-18.67,25.5-22.5,12.62-4.17,25.49-4.59,38.26-.6,15.19,4.74,22.82,15.78,25.03,31.07,1.53,10.6,.68,21.27,.92,30.22Zm-25.44-8.42c-.06-4.59,.01-10.56-.89-16.53-1.59-10.5-6.23-16.28-15.04-18.08-9.71-1.98-19.51,2.37-24.28,10.83-3.89,6.91-3.63,14.3-2.47,21.82,1.66,10.78,8.35,16.76,18.54,18.88,7.01,1.46,14.23,1.13,21.38,1.07,2.26-.02,2.81-1.13,2.78-3.12-.06-4.49-.02-8.99-.02-14.87Z"/><path class="cls-2" d="M96.37,490.43c0,7.66-.11,15.33,.05,22.99,.06,3.02-.9,4.1-3.99,4.02-16.8-.42-33.66,.96-50.41-.77-17.37-1.8-32.22-8.25-38-26.53-7.68-24.28,.53-51.78,25.03-61.87,14.54-5.98,29.62-6.17,44.3-.51,13.79,5.32,20.34,16.55,22.2,30.71,1.39,10.6,.71,21.29,.82,31.95Zm-25.89-8.73h-.55c0-6.14,.45-12.32-.09-18.42-1.43-16.21-18.02-24.03-31.75-15.21-9.26,5.95-13.02,18.4-9.8,31.61,2.25,9.24,8.14,14.48,17.13,16.73,7.37,1.84,14.87,1.1,22.33,1.33,2.35,.07,2.77-1.13,2.75-3.07-.05-4.32-.02-8.65-.02-12.97Z"/><path class="cls-2" d="M156.86,265.59c-12.16,0-24.32-.16-36.47,.09-3.87,.08-4.94-1.18-4.65-4.85,.3-3.81,.35-7.69-.01-11.48-.38-4,1.34-4.64,4.87-4.6,16.15,.17,32.31-.03,48.46,.15,3.81,.04,4.7-.89,4.25-4.81-2.73-24.19-16.12-40.35-40.16-47.24-4.49-1.29-5.37-2.78-3.72-7.03,1.67-4.32,2.44-8.98,3.74-13.45,.43-1.48,.6-3.24,3.26-2.49,20.16,5.71,38.46,14.34,50.14,32.82,9.46,14.97,12.43,31.71,12.09,49.19-.02,1.16-.17,2.32-.19,3.49q-.16,10.22-10.62,10.22c-10.32,0-20.65,0-30.97,0Z"/><path class="cls-2" d="M938.41,448.37c0-21.99,.1-43.97-.09-65.96-.04-3.98,1.11-5.18,5.01-4.98,5.81,.3,11.65,.18,17.47,.03,2.81-.07,4.2,.49,4.2,3.79-.09,44.47-.08,88.95-.02,133.42,0,2.87-1.05,3.77-3.81,3.71-6.16-.14-12.33-.26-18.47,.04-3.67,.17-4.38-1.24-4.36-4.58,.13-21.82,.07-43.64,.07-65.46Z"/><path class="cls-1" d="M1622.74,600.69c1.57-12.88,3.18-25.6,4.62-38.34,.28-2.45,1.19-2.99,3.52-2.68,12.53,1.65,25.08,3.23,37.64,4.64,3.01,.34,3.47,1.77,3.14,4.3-1.62,12.37-3.24,24.73-4.72,37.12-.27,2.27-.86,3.23-3.36,2.9-12.85-1.7-25.71-3.33-38.59-4.82-2.42-.28-2.75-1.32-2.24-3.11Z"/><path class="cls-1" d="M1254.05,68.16c12.67,1.34,24.9,2.69,37.14,3.89,2.24,.22,2.73,1.07,2.49,3.18-1.44,12.56-2.85,25.12-4.05,37.7-.29,3.07-1.39,3.88-4.36,3.54-12.22-1.41-24.45-2.72-36.69-3.88-2.95-.28-3.56-1.63-3.27-4.22,1.38-12.56,2.75-25.11,3.99-37.68,.39-3.96,3.17-2.35,4.76-2.53Z"/><path class="cls-1" d="M1268.25,617.46c-2.21,.58-2.45-1.11-2.73-2.55-2.5-12.55-4.9-25.13-7.47-37.67-.49-2.38,.1-3.16,2.49-3.62,12.55-2.4,25.07-4.98,37.59-7.55,2.25-.46,3.32,.12,3.78,2.51,2.41,12.56,4.95,25.1,7.47,37.64,.31,1.55,.76,2.95-1.5,3.39-13.21,2.59-26.42,5.23-39.62,7.85Z"/><path class="cls-1" d="M1625.19,110.44c-2.26,.52-2.35-1.17-2.62-2.64-2.31-12.72-4.55-25.45-6.98-38.14-.42-2.22,.12-2.99,2.22-3.36,12.75-2.24,25.5-4.5,38.22-6.91,2.2-.42,2.91,.14,3.29,2.24,2.35,12.9,4.79,25.78,7.25,38.65,.31,1.63-.08,2.42-1.81,2.74-13.2,2.43-26.38,4.94-39.57,7.42Z"/><path class="cls-1" d="M1157.54,411.38c.94,.37,1.88,.7,2.78,1.11,11.18,5.07,22.32,10.22,33.55,15.17,2.74,1.21,3.2,2.4,1.9,5.15-5.26,11.09-10.32,22.28-15.36,33.47-1.13,2.51-1.93,3.5-5.05,1.99-11.34-5.47-22.88-10.51-34.4-15.6-2.15-.95-2.61-1.88-1.57-4.11,5.41-11.57,10.66-23.22,15.98-34.83,.46-1,.63-2.34,2.17-2.35Z"/><path class="cls-1" d="M1763.75,267.1c-.87-.43-1.75-.89-2.64-1.32-10.95-5.21-21.89-10.42-32.84-15.63-1.97-.94-3.8-1.46-2.21-4.61,5.71-11.27,11.17-22.66,16.45-34.14,1.31-2.84,2.5-2.65,4.83-1.51,11.19,5.47,22.43,10.85,33.71,16.12,2.53,1.18,2.88,2.3,1.61,4.84-5.47,11.01-10.67,22.16-16.04,33.23-.59,1.21-.77,3.04-2.86,3.02Z"/><path class="cls-1" d="M1191.93,257.4c.23,1.59-1.14,1.89-2.07,2.43-11.09,6.36-22.25,12.61-33.27,19.07-2.21,1.3-3.09,.76-4.19-1.21-6.33-11.3-12.7-22.57-19.18-33.77-1.14-1.97-.76-2.81,1.1-3.85,11.31-6.29,22.57-12.69,33.84-19.05,1.22-.69,2.23-1.26,3.23,.52,6.64,11.7,13.36,23.34,20.06,35,.17,.29,.33,.58,.49,.87Z"/><path class="cls-1" d="M1465.46,615.69c.89,.7,1.7,1.26,2.42,1.92,9.02,8.34,17.94,16.79,27.07,25,2.48,2.23,2.43,3.56,.18,5.93-8.59,9.03-17.01,18.22-25.36,27.47-1.51,1.68-2.42,1.63-3.94,.23-9.65-8.9-19.34-17.75-29.05-26.58-1.32-1.2-1.73-2.04-.25-3.59,9.04-9.51,17.97-19.13,26.95-28.7,.55-.59,1.24-1.05,1.98-1.66Z"/><path class="cls-1" d="M1459.5,0c.83,.72,1.59,1.35,2.32,2.02,9.14,8.45,18.23,16.95,27.46,25.3,2.05,1.85,2.36,3,.3,5.16-8.57,9.01-17.03,18.13-25.34,27.39-2.05,2.28-3.24,1.83-5.14,.04-9.07-8.52-18.19-16.98-27.4-25.35-1.93-1.76-1.93-2.98-.22-4.8,8.64-9.19,17.2-18.46,25.8-27.69,.67-.72,1.44-1.35,2.22-2.08Z"/><path class="cls-1" d="M1745.51,284.57c-.43,1.14-.66,1.95-1.02,2.69-4.23,8.65-8.59,17.25-12.67,25.98-1.18,2.52-2.37,2.56-4.57,1.49-8.65-4.22-17.33-8.37-26.06-12.41-2.29-1.06-2.83-2.01-1.62-4.49,4.25-8.62,8.3-17.35,12.21-26.13,1.24-2.79,2.46-3.2,5.19-1.8,8.71,4.46,17.56,8.65,26.38,12.92,.97,.47,2.42,.39,2.16,1.75Z"/><path class="cls-1" d="M1604.47,558.28c-1.22,9.83-2.5,19.54-3.59,29.28-.26,2.33-1.03,3.22-3.42,2.9-10.03-1.34-20.08-2.63-30.13-3.84-2.06-.25-2.3-1.19-2.06-3,1.29-9.88,2.51-19.78,3.65-29.68,.26-2.26,.97-3.2,3.43-2.86,9.69,1.32,19.41,2.51,29.12,3.66,2.34,.28,4.03,.77,2.99,3.55Z"/><path class="cls-1" d="M1664.45,541.02c-10.6-1.39-19.96-2.65-29.33-3.82-2.45-.31-3.65-.78-3.18-3.93,1.39-9.18,2.36-18.43,3.3-27.67,.34-3.29,1.27-4.39,4.94-3.8,9,1.43,18.09,2.29,27.16,3.24,2.98,.31,4.3,1.03,3.73,4.61-1.44,9.17-2.4,18.42-3.4,27.65-.32,2.94-1.36,4.37-3.24,3.73Z"/><path class="cls-1" d="M1357.47,555.5c1.45-.6,1.73,1.05,2.04,2.54,2.02,9.89,3.98,19.8,6.07,29.68,.42,1.99-.21,2.66-2.06,3.03-9.76,1.93-19.5,3.94-29.25,5.94-2.59,.53-3.69-.15-4.2-3.1-1.59-9.14-3.69-18.2-5.55-27.3-.39-1.89-1.24-4.05,1.84-4.65,10.1-1.98,20.2-3.98,31.11-6.14Z"/><path class="cls-1" d="M1284.97,144.58c-1.03,9.63-2.08,18.86-2.95,28.11-.19,2.06-.94,2.43-2.82,2.21-10.22-1.15-20.44-2.23-30.67-3.23-2.13-.21-2.39-1.4-2.21-3.05,1.08-10.06,2.22-20.12,3.25-30.19,.24-2.3,1.54-2.6,3.42-2.4,9.89,1.05,19.79,2.08,29.68,3.11,4.57,.48,1.37,3.91,2.3,5.43Z"/><path class="cls-1" d="M1719.27,206.24c-.35,.85-.7,1.78-1.12,2.67-4.09,8.52-8.3,16.99-12.21,25.59-1.06,2.33-1.61,2.98-4.2,1.68-8.73-4.36-17.63-8.39-26.51-12.44-2.32-1.06-3.21-1.95-1.79-4.68,4.51-8.68,8.72-17.51,12.91-26.35,1.02-2.16,1.98-2.5,4.13-1.45,8.78,4.31,17.65,8.42,26.47,12.64,.98,.47,2.31,.7,2.33,2.33Z"/><path class="cls-1" d="M1567.19,119.94c-2.01,.52-2.38-1-2.7-2.82-1.71-9.63-3.48-19.25-5.25-28.87-.34-1.84-.31-3.04,2.12-3.46,9.96-1.75,19.88-3.71,29.79-5.65,2.12-.42,2.96,.34,3.33,2.41,1.78,9.97,3.66,19.92,5.52,29.88,.27,1.44,.29,2.69-1.55,3.02-10.3,1.81-20.6,3.63-31.27,5.5Z"/><path class="cls-1" d="M1350.58,93.2c-1.02,9.47-2.07,18.89-3.01,28.32-.23,2.29-.91,2.98-3.43,2.67-9.56-1.17-19.16-2.09-28.76-2.9-2.75-.23-3.69-.99-3.33-3.93,1.19-9.73,2.17-19.5,3.06-29.26,.24-2.6,1.51-2.9,3.65-2.65,9.41,1.08,18.82,2.22,28.26,3.07,3.35,.3,4.49,1.58,3.57,4.7Z"/><path class="cls-1" d="M1222.03,378.3c-.17,.36-.45,.95-.72,1.55-4.07,8.89-8.23,17.74-12.13,26.7-1.01,2.33-1.87,2.5-4.03,1.49-9-4.21-18.09-8.24-27.15-12.32-2.01-.9-2.49-1.79-1.37-4.12,4.25-8.8,8.2-17.74,12.09-26.7,1.03-2.38,2.05-2.89,4.46-1.75,8.83,4.18,17.76,8.16,26.63,12.26,1.09,.51,2.77,.67,2.23,2.9Z"/><path class="cls-1" d="M1525.43,74c-.79,.89-1.41,1.64-2.08,2.35-6.63,6.97-13.3,13.89-19.87,20.91-1.61,1.72-2.75,2.31-4.75,.35-6.99-6.84-14.08-13.59-21.32-20.16-1.98-1.8-2.06-2.92-.25-4.73,7.02-7.06,13.98-14.18,20.91-21.33,1.28-1.32,2.19-1.61,3.67-.2,7.43,7.11,14.95,14.13,22.43,21.2,.45,.43,.77,.98,1.26,1.62Z"/><path class="cls-1" d="M1297.81,540.99c.4,1.87-.85,2.25-2.25,2.54-9.75,1.96-19.51,3.91-29.25,5.92-2.13,.44-3.41,.08-3.88-2.37-1.88-9.78-3.85-19.55-5.92-29.29-.46-2.15,.18-3,2.22-3.4,10.07-2,20.13-4.04,30.18-6.15,1.54-.32,2.08,.19,2.37,1.59,2.15,10.39,4.35,20.78,6.52,31.17Z"/><path class="cls-1" d="M1667.19,160.61c.24,.77-.74,1.49-2.53,1.81-9.96,1.76-19.93,3.52-29.86,5.42-2.53,.49-3.21-.62-3.58-2.75-1.61-9.33-3.17-18.68-5.03-27.96-.61-3.04,.14-4.09,3.16-4.57,9.51-1.51,18.98-3.21,28.44-5,2.01-.38,3.05-.25,3.47,2,1.84,9.96,3.79,19.9,5.94,31.05Z"/><path class="cls-1" d="M1506.24,573.11c.88,.73,1.64,1.32,2.35,1.97,7.1,6.52,14.15,13.09,21.32,19.54,1.82,1.63,2.36,2.78,.4,4.8-6.83,7.04-13.53,14.2-20.18,21.41-1.71,1.86-2.62,2.06-4.65,.08-6.9-6.72-14.08-13.17-21.28-19.57-1.87-1.66-2.33-2.58-.34-4.63,6.94-7.16,13.63-14.55,20.43-21.83,.55-.59,1.2-1.09,1.95-1.76Z"/><path class="cls-1" d="M1442.8,73.83c-.56,.68-1.02,1.33-1.57,1.89-7.02,7.29-14.11,14.52-21.05,21.88-1.7,1.8-2.73,1.59-4.38-.03-6.87-6.72-13.85-13.34-20.83-19.94-1.6-1.51-2.63-2.61-.49-4.73,6.93-6.91,13.66-14.02,20.43-21.08,1.37-1.43,2.52-2.57,4.47-.67,7.26,7.05,14.6,14.01,21.91,21.02,.47,.45,.87,.96,1.5,1.66Z"/><path class="cls-1" d="M1717.08,398.61c-1.41-.09-1.74-1.11-2.2-1.97-4.71-8.76-9.32-17.58-14.18-26.26-1.34-2.39-.29-3.16,1.49-4.13,8.73-4.76,17.45-9.53,26.12-14.4,1.81-1.02,2.66-1.06,3.75,1.04,4.58,8.83,9.37,17.56,14.15,26.28,.98,1.78,.99,2.97-.97,4.04-9.01,4.93-17.99,9.93-26.98,14.89-.42,.23-.89,.38-1.19,.5Z"/><path class="cls-1" d="M1189.88,326.92c-.48-.63-1.03-1.2-1.42-1.87-5.03-8.77-9.98-17.58-15.08-26.31-1.11-1.9-.77-2.85,1.04-3.87,8.81-4.95,17.62-9.93,26.34-15.05,1.8-1.06,2.59-.62,3.49,.98,5.04,8.97,10.13,17.9,15.19,26.85,.7,1.24,1.12,2.26-.64,3.23-9.15,5.03-18.24,10.18-27.35,15.28-.43,.24-.88,.43-1.57,.76Z"/><path class="cls-1" d="M1704.97,429.99c1.47,.22,1.83,1.45,2.37,2.42,4.71,8.39,9.3,16.85,14.11,25.18,1.32,2.29,1.01,3.31-1.33,4.55-8.78,4.68-17.47,9.51-26.12,14.43-2.01,1.15-2.78,.47-3.71-1.25-4.83-8.9-9.69-17.78-14.7-26.58-1.03-1.81-.62-2.75,.92-3.57,9.06-4.85,18.14-9.68,27.21-14.51,.43-.23,.86-.46,1.24-.67Z"/><path class="cls-1" d="M1218.33,440.24c1.93,.84,3.61,1.54,5.27,2.3,7.69,3.53,15.32,7.2,23.08,10.55,2.89,1.25,3.09,2.4,1.75,5.17-4.12,8.51-7.92,17.18-11.71,25.85-1.1,2.52-2.16,3.08-4.84,1.76-8.47-4.18-17.09-8.06-25.68-11.97-1.99-.91-3.41-1.46-2.08-4.28,4.25-8.99,8.16-18.14,12.21-27.23,.45-1.01,.63-2.37,2-2.14Z"/><path class="cls-1" d="M1243.56,229.51c.19,1.53-1.04,1.83-2.03,2.4-8.66,4.95-17.32,9.87-25.92,14.92-1.84,1.08-2.78,.97-3.88-.99-4.87-8.71-9.85-17.36-14.9-25.97-1.28-2.18-.57-3.16,1.4-4.27,8.56-4.8,17.06-9.69,25.52-14.65,1.75-1.02,2.84-1.21,3.97,.8,4.97,8.84,10.05,17.62,15.08,26.42,.25,.43,.49,.87,.74,1.32Z"/><path class="cls-1" d="M1425.26,624.49c-.87-.72-1.52-1.21-2.12-1.76-7.21-6.63-14.36-13.32-21.64-19.86-1.98-1.78-1.84-2.93-.08-4.78,6.61-6.98,13.15-14.03,19.53-21.22,1.75-1.97,2.87-2.1,4.75-.32,7.11,6.73,14.31,13.37,21.52,19.99,1.44,1.32,2,2.32,.36,4.05-6.94,7.36-13.74,14.85-20.6,22.29-.53,.58-1.15,1.07-1.72,1.61Z"/><path class="cls-1" d="M1657.31,242.97c-.29,.65-.62,1.42-.98,2.17-2.96,6.13-6.05,12.19-8.84,18.4-1.28,2.86-2.72,3.07-5.35,1.77-6.11-3-12.31-5.82-18.55-8.54-2.43-1.06-3.28-1.93-1.81-4.72,3.32-6.32,6.22-12.86,9.17-19.36,.9-1.98,1.68-2.97,4.06-1.78,6.82,3.41,13.74,6.63,20.64,9.88,.95,.45,1.85,.78,1.65,2.19Z"/><path class="cls-1" d="M1385.85,522.98c.21,1.55-.18,2.44-1.95,2.78-7.5,1.46-14.99,2.98-22.44,4.66-2.3,.52-2.9-.4-3.26-2.37-1.32-7.19-2.69-14.37-4.15-21.54-.44-2.17-.13-3.27,2.4-3.72,7.18-1.3,14.31-2.92,21.46-4.41,1.57-.33,3.02-.44,3.43,1.66,1.5,7.65,3,15.29,4.5,22.94Z"/><path class="cls-1" d="M1685.84,317.32c.35,.17,.96,.44,1.55,.73,6.41,3.15,12.75,6.45,19.25,9.4,2.63,1.19,2.43,2.39,1.39,4.57-3.01,6.28-5.83,12.66-8.68,19.02-.91,2.04-1.73,3.34-4.42,1.96-6.49-3.35-13.16-6.36-19.74-9.54-1.39-.67-3.19-.83-1.84-3.45,3.58-6.93,6.78-14.06,10.15-21.09,.41-.86,.68-1.99,2.34-1.6Z"/><path class="cls-1" d="M1390.03,134.51c-6.61-.67-13.22-1.41-19.85-1.94-2.39-.19-3.21-1.19-2.92-3.48,.97-7.41,1.95-14.83,2.78-22.26,.22-2,1.07-2.5,2.91-2.28,7.6,.92,15.19,1.84,22.81,2.62,2.62,.27,2.21,1.9,2.01,3.57-.77,6.44-1.54,12.89-2.34,19.32-.59,4.76-.61,4.75-5.41,4.44Z"/><path class="cls-1" d="M1449.97,533.86c-.67,.79-1.16,1.42-1.7,2.01-4.96,5.36-10.08,10.59-14.83,16.14-1.89,2.21-2.92,1.81-4.7,.12-5.19-4.91-10.49-9.71-15.82-14.47-1.63-1.45-2.24-2.48-.39-4.38,5.09-5.23,10.04-10.61,14.88-16.08,1.72-1.93,2.78-2.05,4.7-.17,5.11,4.99,10.47,9.72,15.71,14.57,.71,.66,1.33,1.4,2.15,2.27Z"/><path class="cls-1" d="M1519.18,563.73c.86-7.21,1.8-14.47,2.57-21.75,.24-2.29,1.3-2.6,3.33-2.32,7.08,.98,14.18,1.89,21.29,2.64,2.87,.31,3.47,1.46,3.03,4.26-1.07,6.89-1.85,13.83-2.53,20.78-.23,2.33-.92,3.29-3.36,2.94-7.24-1.03-14.49-2.03-21.76-2.84-2.53-.28-3.07-1.49-2.57-3.7Z"/><path class="cls-1" d="M1532.33,136.83c-1.32,.08-1.78-.92-2.49-1.6-5.28-5.07-10.46-10.24-15.9-15.13-2.01-1.81-1.46-2.86,.06-4.4,5.15-5.21,10.37-10.36,15.27-15.8,1.81-2,2.76-1.47,4.26,0,5.23,5.13,10.52,10.2,15.81,15.27,1.12,1.07,2.37,1.93,.72,3.62-5.57,5.72-11.07,11.51-16.61,17.26-.33,.34-.8,.55-1.13,.76Z"/><path class="cls-1" d="M1492.8,119.93c.79,.68,1.44,1.18,2.03,1.74,5.28,5.05,10.47,10.2,15.86,15.13,1.97,1.8,1.91,2.8,0,4.68-5.08,4.99-9.98,10.18-14.74,15.49-1.81,2.02-2.89,1.95-4.72,.1-5.03-5.07-10.23-9.97-15.41-14.88-1.5-1.42-2.41-2.57-.51-4.48,5.4-5.41,10.67-10.96,16-16.45,.43-.44,.92-.82,1.51-1.32Z"/><path class="cls-1" d="M1613.79,512.68c-.82,6.84-1.63,13.26-2.35,19.7-.26,2.37-.95,3.47-3.78,3.02-7.05-1.11-14.15-1.9-21.24-2.63-2.36-.24-3.13-1.07-2.8-3.46,1-7.24,1.89-14.5,2.65-21.78,.24-2.25,1.3-2.79,3.27-2.54,7.4,.97,14.79,2.04,22.21,2.82,4.66,.49,.85,3.7,2.04,4.87Z"/><path class="cls-1" d="M1235.12,359.71c-.43-.2-1.03-.47-1.63-.74-6.65-3.01-13.26-6.13-19.99-8.95-2.13-.89-2.39-1.7-1.46-3.65,3.15-6.6,6.21-13.24,9.17-19.92,1.04-2.34,2.15-2.78,4.57-1.62,6.29,3.01,12.69,5.8,19.13,8.48,2.61,1.08,3.02,2.16,1.71,4.76-3.14,6.23-5.84,12.68-8.85,18.98-.49,1.04-.54,2.8-2.65,2.68Z"/><path class="cls-1" d="M1637.01,216.81c-.91,.26-1.7-.24-2.01-2.01-1.31-7.52-2.72-15.02-4.17-22.52-.35-1.81,0-2.74,2.01-3.09,7.53-1.29,15.04-2.69,22.54-4.13,2.03-.39,2.66,.6,2.96,2.32,1.29,7.36,2.6,14.71,3.97,22.06,.34,1.84-.16,2.82-2.07,3.16-7.51,1.32-15.01,2.71-23.24,4.2Z"/><path class="cls-1" d="M1283.14,494.56c-1.37-.53-2.15-.8-2.9-1.14-6.2-2.81-12.34-5.76-18.62-8.39-2.56-1.07-3.32-2.11-2.02-4.79,3.04-6.27,5.93-12.62,8.64-19.04,1.13-2.67,2.41-2.96,4.89-1.76,6.42,3.1,12.94,6.02,19.46,8.92,1.8,.8,2.56,1.51,1.53,3.66-3.23,6.73-6.2,13.59-9.31,20.38-.45,.98-.65,2.38-1.67,2.16Z"/><path class="cls-1" d="M1426.07,117.67c.87,.69,1.83,1.31,2.63,2.09,5.14,4.96,10.19,10.02,15.4,14.9,1.74,1.63,1.79,2.61,.03,4.34-5.18,5.12-10.24,10.37-15.14,15.77-1.76,1.94-2.79,1.56-4.39-.01-5.21-5.11-10.51-10.12-15.8-15.15-1.11-1.06-2.37-2.02-.78-3.67,5.55-5.72,11.08-11.46,16.63-17.18,.33-.34,.76-.59,1.41-1.09Z"/><path class="cls-1" d="M1390.83,536.94c1.5,1.19,2.3,1.74,3.01,2.39,5.38,4.92,10.66,9.95,16.15,14.74,1.95,1.7,1.64,2.63,.04,4.3-4.93,5.14-9.74,10.41-14.48,15.73-1.58,1.78-2.77,2.5-4.83,.51-5.12-4.95-10.38-9.76-15.66-14.54-1.75-1.58-2.44-2.7-.4-4.77,4.99-5.09,9.73-10.43,14.52-15.71,.66-.73,1.07-1.69,1.65-2.65Z"/><path class="cls-1" d="M1696.72,257.64c-.37,.74-.75,1.48-1.11,2.22-2.97,6.1-6.1,12.14-8.84,18.35-1.3,2.95-2.76,3-5.32,1.76-6.12-2.96-12.31-5.78-18.53-8.51-2.41-1.06-3.28-2.05-1.84-4.8,3.23-6.17,6.18-12.5,8.96-18.89,1.26-2.89,2.65-3.04,5.24-1.74,6.22,3.13,12.58,6,18.87,9,1.14,.54,2.63,.82,2.57,2.6Z"/><path class="cls-1" d="M1615.71,470.56c-.82,6.81-1.68,13.39-2.36,19.99-.26,2.49-1.14,3.44-3.79,3.06-6.89-.99-13.82-1.82-20.74-2.54-2.68-.28-3.71-1.1-3.26-4.06,1.07-7.05,1.86-14.15,2.58-21.25,.22-2.2,1.13-2.88,3.19-2.61,7.56,.98,15.13,1.89,22.68,2.89,3.54,.47,1.01,3.19,1.7,4.52Z"/><path class="cls-1" d="M1536.95,523.8c1.02-7.74,2.03-14.82,2.85-21.91,.25-2.17,1.02-2.76,3.17-2.46,7.24,1.01,14.49,1.92,21.76,2.68,2.36,.25,3.07,.94,2.7,3.43-1.06,7.06-1.86,14.16-2.64,21.26-.26,2.4-.89,3.49-3.71,3.06-6.9-1.04-13.85-1.76-20.79-2.47-2.76-.29-3.93-1.47-3.34-3.59Z"/><path class="cls-1" d="M1276.79,410.06c.54,.24,1.14,.52,1.74,.79,6.51,2.89,12.98,5.88,19.56,8.61,2.6,1.08,3.04,2.23,1.78,4.77-3.15,6.37-6.1,12.85-8.95,19.36-.94,2.15-1.9,2.69-4.12,1.65-6.59-3.09-13.24-6.07-19.94-8.91-2.2-.93-2.59-1.91-1.56-4.06,3.24-6.7,6.3-13.49,9.44-20.25,.41-.88,.7-1.92,2.04-1.96Z"/><path class="cls-1" d="M1662.17,350.88c1.21,.25,1.49,1.27,1.96,2.12,3.57,6.55,7.04,13.15,10.77,19.61,1.2,2.07,.5,2.9-1.21,3.81-6.57,3.51-13.14,7.01-19.64,10.65-1.85,1.04-2.86,.93-3.9-1.04-3.4-6.44-6.91-12.82-10.47-19.18-.95-1.7-1.31-2.85,.82-3.99,6.86-3.67,13.63-7.5,20.44-11.27,.43-.24,.85-.49,1.24-.72Z"/><path class="cls-1" d="M1274.32,187.87c1.62-.28,1.86,1.13,2.4,2.06,3.63,6.33,7.11,12.74,10.86,19,1.13,1.89,1.03,2.77-.92,3.84-6.67,3.68-13.3,7.45-19.87,11.32-1.94,1.14-2.62,.14-3.43-1.3-3.66-6.5-7.36-12.98-11.03-19.47-.65-1.15-1.5-2.32,.29-3.32,6.93-3.9,13.85-7.85,20.77-11.76,.29-.16,.61-.25,.92-.36Z"/><path class="cls-1" d="M1248.97,431.88c-.49-.22-1.09-.5-1.7-.77-6.49-2.95-12.97-5.95-19.49-8.83-2.26-1-2.92-2.05-1.71-4.53,3.13-6.4,6.07-12.9,8.81-19.48,.92-2.2,1.61-2.79,3.9-1.69,6.72,3.23,13.53,6.3,20.36,9.31,2.1,.93,2.1,2.02,1.24,3.89-3.05,6.62-5.95,13.32-8.92,19.98-.46,1.03-.8,2.26-2.48,2.13Z"/><path class="cls-1" d="M1280.57,364.99c-.28,.7-.49,1.33-.76,1.94-2.95,6.48-5.92,12.96-8.87,19.44-.82,1.81-1.56,3.13-4.05,1.94-6.73-3.22-13.56-6.24-20.4-9.23-2.05-.9-2.15-1.89-1.23-3.82,3.15-6.58,6.17-13.22,9.07-19.92,.94-2.18,1.9-2.59,4.09-1.56,6.74,3.2,13.58,6.18,20.39,9.25,.91,.41,1.9,.74,1.76,1.96Z"/><path class="cls-1" d="M1459.57,126.28c-.74-.51-1.47-.89-2.04-1.43-5.4-5.13-10.71-10.37-16.21-15.4-1.88-1.73-1.51-2.9,.02-4.46,5.11-5.21,10.21-10.42,15.18-15.75,1.64-1.75,2.69-1.73,4.37-.04,5.14,5.17,10.39,10.23,15.7,15.22,1.46,1.37,2.05,2.3,.37,4-5.22,5.3-10.3,10.75-15.44,16.13-.56,.59-1.22,1.08-1.96,1.73Z"/><path class="cls-1" d="M1562.93,144.84c1.34-.35,1.89,.68,2.19,2.47,1.27,7.37,2.58,14.73,4.06,22.06,.47,2.33-.53,2.94-2.47,3.27-7.04,1.22-14.07,2.47-21.08,3.83-2.46,.48-3.59-.12-4.01-2.78-1.13-7.23-2.47-14.42-3.9-21.6-.32-1.59-.38-2.52,1.46-2.86,7.69-1.4,15.38-2.84,23.73-4.39Z"/><path class="cls-1" d="M1666.53,475.02c.41,1.49-.78,1.78-1.58,2.23-6.68,3.72-13.4,7.34-20.05,11.11-1.77,1-2.54,.58-3.43-1.1-3.51-6.6-7.1-13.15-10.79-19.65-1.04-1.83-1.03-2.79,1.03-3.87,6.62-3.48,13.15-7.12,19.65-10.82,1.93-1.1,2.83-.65,3.82,1.23,3.4,6.45,6.97,12.81,10.47,19.21,.32,.58,.62,1.18,.89,1.67Z"/><path class="cls-1" d="M1593.11,211.96c-1.45,.42-1.94-1.1-2.26-2.9-1.34-7.35-2.64-14.71-4.09-22.04-.46-2.33,1.03-2.42,2.52-2.7,7.17-1.32,14.37-2.54,21.5-4.02,2.44-.51,3.3,.28,3.66,2.54,1.16,7.21,2.41,14.41,3.68,21.6,.24,1.35,.8,2.8-1.14,3.16-7.65,1.44-15.31,2.8-23.88,4.35Z"/><path class="cls-1" d="M1281.42,311.72c0,1.28-1.22,1.47-1.98,1.91-6.46,3.74-13,7.32-19.43,11.11-1.96,1.16-2.87,.69-3.87-1.13-3.52-6.39-7.07-12.77-10.8-19.05-1.22-2.05-1.07-3.08,1.07-4.24,6.41-3.48,12.72-7.13,19.06-10.74,1.4-.8,2.65-1.47,3.73,.45,3.91,6.93,7.85,13.83,11.78,20.75,.16,.28,.28,.59,.43,.94Z"/><path class="cls-1" d="M1234.45,291c-1.41-.03-1.61-1.25-2.06-2.02-3.75-6.46-7.38-12.99-11.15-19.44-.99-1.69-.78-2.55,.95-3.51,6.54-3.61,13.02-7.32,19.49-11.06,1.71-.99,2.89-1.17,4.01,.87,3.67,6.7,7.45,13.33,11.23,19.97,.8,1.4,.76,2.25-.84,3.13-6.83,3.76-13.58,7.65-20.37,11.49-.42,.24-.89,.41-1.26,.57Z"/><path class="cls-1" d="M1345.31,535.05c.48,1.95-1.01,2.28-2.28,2.54-7.32,1.47-14.68,2.75-21.96,4.37-2.36,.52-2.97-.37-3.34-2.3-1.42-7.36-2.88-14.71-4.34-22.05-.31-1.53-.13-2.43,1.74-2.79,7.66-1.49,15.29-3.14,22.92-4.74,1.32-.27,2.34,.01,2.64,1.49,1.56,7.82,3.1,15.65,4.64,23.48Z"/><path class="cls-1" d="M1380.07,151.68c-.76,7.31-1.57,14.08-2.13,20.86-.22,2.64-1.34,3.36-3.83,3.06-7.09-.84-14.19-1.57-21.29-2.26-2.04-.2-2.94-1-2.69-3.17,.84-7.42,1.61-14.85,2.31-22.29,.26-2.8,2.12-2.5,3.96-2.3,6.77,.73,13.52,1.64,20.31,2.18,3.18,.25,4.12,1.56,3.37,3.92Z"/><path class="cls-1" d="M1310.42,140.76c7.33,.8,13.76,1.6,20.2,2.15,2.41,.2,3.15,1.1,2.87,3.45-.85,7.09-1.64,14.19-2.28,21.31-.24,2.68-1.54,3.3-3.93,3.03-6.92-.79-13.85-1.55-20.79-2.2-2.51-.23-3.42-1.21-3.09-3.82,.79-6.26,1.41-12.54,1.92-18.83,.31-3.85,1.27-6.57,5.08-5.08Z"/><path class="cls-1" d="M1634.2,445.46c-1.43,.04-1.81-1.01-2.27-1.84-3.62-6.52-7.12-13.11-10.84-19.58-1.21-2.1-.34-2.79,1.37-3.69,6.46-3.39,12.88-6.85,19.25-10.4,2.19-1.22,3.19-1.01,4.43,1.47,3.13,6.21,6.69,12.21,10.19,18.22,1.25,2.15,1.19,3.28-1.32,4.54-6.5,3.28-12.81,6.94-19.2,10.44-.58,.32-1.17,.6-1.63,.83Z"/><path class="cls-1" d="M1603.13,133.8c1.98-.61,2.09,1.34,2.35,2.65,1.44,7.33,2.7,14.69,4.13,22.02,.41,2.09-.63,2.58-2.32,2.89-7.51,1.36-15.03,2.74-22.52,4.2-2.23,.43-2.48-.97-2.77-2.51-1.31-7.19-2.65-14.37-3.93-21.57-.26-1.47-.56-3.04,1.67-3.44,7.67-1.36,15.34-2.77,23.39-4.24Z"/><path class="cls-1" d="M1332.07,191.32c-.72,6.24-1.47,12.17-2.04,18.11-.2,2.12-.52,3.41-3.2,3.04-7.22-.99-14.46-1.85-21.72-2.53-2.4-.23-3.08-1.06-2.81-3.39,.83-7.25,1.51-14.51,2.22-21.77,.2-2.1,1.22-2.79,3.33-2.53,7.24,.87,14.5,1.59,21.75,2.41,5.68,.64,.82,4.89,2.48,6.67Z"/><path class="cls-1" d="M1652.89,287.7c.48,.25,1.06,.58,1.66,.87,6.43,3.06,12.8,6.28,19.34,9.09,2.67,1.15,2.57,2.46,1.55,4.56-3.12,6.4-6.26,12.79-9.22,19.27-.99,2.16-1.98,2.65-4.16,1.57-6.38-3.17-12.83-6.19-19.29-9.21-2.06-.96-3.11-1.87-1.81-4.43,3.3-6.49,6.26-13.16,9.41-19.73,.46-.96,.78-2.33,2.52-1.98Z"/><path class="cls-1" d="M1685.12,386.07c1.4,.07,1.58,1.18,2.05,2.02,3.51,6.4,6.89,12.87,10.61,19.15,1.48,2.5,.62,3.37-1.51,4.5-6.16,3.26-12.24,6.65-18.31,10.08-1.97,1.12-3.23,1.65-4.59-1.05-3.21-6.37-6.83-12.54-10.3-18.78-.92-1.66-1.84-3.05,.72-4.37,6.63-3.43,13.12-7.11,19.67-10.69,.58-.32,1.17-.61,1.66-.86Z"/><path class="cls-1" d="M1298.39,253.6c.01,1.47-1.35,1.74-2.27,2.27-6.31,3.65-12.71,7.15-18.98,10.86-1.9,1.13-2.81,.81-3.84-1.06-3.6-6.54-7.23-13.06-11.08-19.45-1.27-2.1-.46-2.87,1.21-3.81,6.36-3.56,12.67-7.2,19.02-10.79,1.28-.73,2.61-1.73,3.75,.28,3.91,6.92,7.85,13.82,11.77,20.73,.16,.28,.26,.6,.41,.96Z"/><path class="cls-1" d="M1490.86,514.79c.54,.44,1.2,.92,1.81,1.48,5.4,4.91,10.74,9.88,16.2,14.72,1.85,1.64,1.62,2.66-.07,4.35-5.04,5.04-9.96,10.21-14.72,15.51-1.94,2.16-3.15,1.99-5.13,.03-4.93-4.91-10.07-9.61-15.2-14.32-1.51-1.39-2.46-2.33-.49-4.31,5.02-5.04,9.77-10.35,14.68-15.51,.75-.79,1.34-1.95,2.91-1.93Z"/><path class="cls-1" d="M1310.95,496.02c-1.56,.5-1.92-1.23-2.27-2.91-1.44-6.96-2.84-13.93-4.3-20.89-.46-2.19,.17-3.38,2.5-3.82,7.14-1.37,14.25-2.88,21.38-4.32,1.79-.36,3.13-.2,3.56,2.15,1.27,7.01,2.68,14,4.18,20.97,.62,2.89-.18,4.08-3.23,4.58-7.02,1.14-13.97,2.69-21.82,4.26Z"/><path class="cls-1" d="M1484.47,566c-.73,.92-1.29,1.72-1.95,2.43-4.77,5.1-9.62,10.12-14.32,15.29-1.63,1.79-2.78,2.4-4.79,.4-5.07-5.04-10.27-9.94-15.55-14.75-1.74-1.58-2-2.59-.23-4.38,5.01-5.09,9.84-10.36,14.7-15.6,1.24-1.34,2.34-2.42,4.1-.74,5.53,5.28,11.09,10.53,16.63,15.8,.46,.43,.86,.93,1.42,1.54Z"/><path class="cls-2" d="M815.11,158.37c-7.43,.11-14.14-6.3-14.38-13.73-.24-7.67,6.32-14.47,14.03-14.54,7.79-.07,14.38,6.44,14.39,14.21,0,7.33-6.6,13.95-14.04,14.06Z"/><path class="cls-2" d="M353.72,293.9c.04-7.62,6.36-13.75,14.07-13.65,7.27,.09,13.53,6.47,13.55,13.81,.02,7.14-6.46,13.57-13.79,13.69-7.71,.13-13.86-6.04-13.82-13.85Z"/><path class="cls-2" d="M958.41,290.64c-.1,7.69-6.03,13.62-13.63,13.63-7.49,.02-13.85-6.5-13.83-14.16,.03-7.81,6.07-13.42,14.31-13.28,7.8,.13,13.26,5.86,13.15,13.81Z"/><path class="cls-2" d="M557.3,276.83c8.26,.07,13.51,5.53,13.4,13.94-.1,7.65-6.21,13.71-13.64,13.52-7.7-.2-13.72-6.55-13.56-14.3,.17-7.9,5.76-13.24,13.8-13.17Z"/><path class="cls-2" d="M77.36,146.18c.05,7.08-5.79,13.23-12.68,13.36-7.13,.13-13.34-5.93-13.48-13.16-.15-7.45,6.18-14.11,13.32-14.02,7.11,.09,12.79,6.21,12.85,13.82Z"/><path class="cls-2" d="M31.9,159.53c-7.09-.12-13-6.55-12.72-13.82,.29-7.48,6.37-13.55,13.36-13.35,6.98,.2,12.76,6.56,12.71,13.98-.06,7.24-6.2,13.32-13.35,13.19Z"/><path class="cls-2" d="M47.16,398.92c.1,7.46-5.67,13.62-12.85,13.73-7.13,.11-12.95-5.92-13-13.47-.06-7.62,5.6-13.72,12.73-13.72,7.17,0,13.03,6.01,13.13,13.46Z"/><path class="cls-2" d="M53.39,399.47c-.12-7.69,5.44-13.87,12.61-14,7.31-.14,13.12,5.77,13.2,13.42,.08,7.63-5.73,13.85-12.84,13.77-7.09-.08-12.86-5.95-12.97-13.19Z"/><path class="cls-2" d="M737.2,532.05c7.18,.12,13.24,6.41,13.14,13.64-.09,6.8-6.49,12.8-13.52,12.67-7.17-.13-13.15-6.08-13.09-13.03,.06-7.19,6.35-13.39,13.47-13.28Z"/><path class="cls-2" d="M704.6,558.33c-7.15-.43-13.12-6.66-12.82-13.37,.33-7.27,7.22-13.46,14.38-12.9,6.97,.54,12.57,6.96,12.12,13.92-.45,7.07-6.77,12.77-13.68,12.35Z"/><path class="cls-1" d="M1412.53,174.19c-.54,3.42,.02,7.86-1.94,9.96-1.91,2.04-6.24-.29-9.54-.45-9.7-.46-9.7-.56-8.73-10.28q1.03-10.36,11.2-9.39c.33,.03,.66,.07,.99,.11q8.9,1.03,8.02,10.06Z"/><path class="cls-1" d="M1476.53,510.23c-1.22,1.4-1.73,2.01-2.27,2.6-3.23,3.54-6.5,7.05-9.7,10.63-1.34,1.5-2.34,1.82-3.98,.18-3.26-3.29-6.7-6.4-10.21-9.42-1.89-1.62-2.25-2.76-.25-4.69,3.21-3.09,6.16-6.47,9.12-9.82,1.6-1.81,2.8-2.27,4.75-.22,3.07,3.23,6.49,6.14,9.82,9.12,.73,.65,1.7,1.02,2.72,1.61Z"/><path class="cls-1" d="M1639.36,392.75c.35,1.89-.89,2.11-1.66,2.54-4.32,2.43-8.75,4.67-13.02,7.18-1.94,1.14-2.65,.14-3.41-1.29-2.27-4.23-4.46-8.5-6.85-12.66-1.09-1.9-.85-2.79,1.18-3.79,4.29-2.11,8.43-4.53,12.65-6.78,.82-.44,2.04-1.43,2.66-.37,3.01,5.13,5.82,10.38,8.46,15.16Z"/><path class="cls-1" d="M1574.96,201.85c.37,2.13-.98,2.58-2.6,2.83-2.61,.41-5.23,.83-7.83,1.3q-8.98,1.65-10.48-7.61-1.73-10.65,8.96-12.25,8.67-1.3,10.39,7.46c.54,2.75,1.04,5.52,1.57,8.27Z"/><path class="cls-1" d="M1299.79,337.34c-2.2,4.6-4.63,9.87-7.27,15.05-.55,1.08-1.78,.34-2.68-.06-4.4-1.95-8.79-3.95-13.22-5.85-1.86-.8-2.51-1.62-1.41-3.74,2.14-4.12,3.9-8.44,5.88-12.65,.7-1.49,1.33-3.24,3.64-2.11,4.48,2.19,8.98,4.34,13.47,6.51,.91,.44,1.88,.83,1.6,2.85Z"/><path class="cls-1" d="M1365.03,191.76c-.25,2.15-.23,3.52-.59,4.77-1.11,3.93,1.04,10.71-2.03,11.47-5.44,1.35-11.69-.51-17.59-1.17-2.01-.22-1.38-1.91-1.24-3.15,.52-4.61,1.21-9.2,1.6-13.82,.18-2.11,.75-2.93,3.01-2.63,4.43,.59,8.89,1.04,13.34,1.34,2.71,.18,4.07,1.14,3.5,3.19Z"/><path class="cls-1" d="M1461.31,148.31c.92,.75,1.72,1.33,2.43,2.01,3.23,3.08,6.28,6.38,9.71,9.23,2.23,1.86,1.7,3.06,.04,4.72-3.17,3.15-6.39,6.25-9.32,9.62-1.83,2.1-2.96,1.78-4.71-.03-2.87-2.97-5.92-5.78-9.04-8.48-2.26-1.96-3.05-3.44-.32-5.84,3.21-2.83,5.95-6.19,8.93-9.29,.67-.69,1.47-1.25,2.28-1.93Z"/><path class="cls-1" d="M1422.83,501.02c-.78,.88-1.42,1.61-2.08,2.34-3.02,3.31-6.1,6.57-9.06,9.93-1.34,1.52-2.45,1.93-4.09,.36-3.46-3.33-7.01-6.58-10.6-9.77-1.57-1.39-1.73-2.44-.15-4.04,3.37-3.42,6.58-7,9.78-10.58,1.2-1.34,2.17-1.78,3.67-.35,3.72,3.56,7.55,6.99,11.31,10.5,.46,.43,.77,1.01,1.22,1.62Z"/><path class="cls-1" d="M1333.53,446.21c.46,1.72-.37,2.35-1.97,2.66-4.88,.94-9.74,1.96-14.58,3.04-1.84,.41-2.67,0-3.02-2-.85-4.89-1.84-9.77-2.99-14.6-.49-2.05,.34-2.65,2.08-2.99,4.88-.94,9.76-1.88,14.6-2.96,1.72-.38,2.4,.11,2.73,1.78,.99,5.04,2.09,10.05,3.15,15.07Z"/><path class="cls-1" d="M1525.83,496.28c-.28,2.51-.88,6.64-1.14,10.78-.21,3.31-1.74,4.12-4.8,3.58-4.26-.75-8.55-1.35-12.86-1.75-2.29-.21-2.79-1.26-2.53-3.26,.64-4.78,1.34-9.57,1.79-14.37,.25-2.61,1.78-2.27,3.51-2.04,4.45,.59,8.91,1.12,13.36,1.7,2.98,.39,2.98,.42,2.66,5.35Z"/><path class="cls-1" d="M1514.51,186.98c-1.34-1.2-1.95-1.72-2.54-2.28-1.44-1.37-2.95-2.67-4.28-4.14-2.41-2.66-7.26-4.68-6.89-7.81,.34-2.9,4.46-5.39,7-7.98q5.94-6.07,12.22,.11,8,7.88,.08,15.8c-1.95,1.96-3.67,4.13-5.58,6.3Z"/><path class="cls-1" d="M1574.48,472.04c-.58,4.43-1.29,8.85-1.69,13.3-.21,2.31-1.25,2.62-3.26,2.39-4.44-.52-8.89-.96-13.35-1.21-2.36-.13-3.34-1.06-2.99-3.39,.05-.33,.03-.66,.08-.99,.78-5.2-.2-12.7,2.81-15.03,3.78-2.93,10.59,.97,16.18,1.01,2.75,.02,2.51,2.05,2.23,3.91Z"/><path class="cls-1" d="M1629.72,323.32c5.14,2.48,10.41,4.91,15.55,7.59,1.24,.64,.46,2.08-.04,3.13-1.99,4.19-4.09,8.34-5.93,12.6-.99,2.3-2.15,2.43-4.21,1.38-4.14-2.11-8.4-3.98-12.59-5.99-1.31-.63-2.81-1.04-1.68-3.23,2.36-4.57,4.46-9.27,6.66-13.92,.43-.91,.84-1.85,2.23-1.56Z"/><path class="cls-1" d="M1594.74,246.38c-2.12,.61-2.58-.5-2.85-1.99-.88-4.91-1.74-9.83-2.73-14.72-.41-2.05,.47-2.55,2.29-2.85,4.75-.78,9.48-1.72,14.19-2.7,2.16-.45,2.91,.3,3.22,2.46,.67,4.6,1.61,9.16,2.52,13.73,.33,1.65,.42,2.98-1.7,3.36-5.08,.9-10.15,1.84-14.94,2.72Z"/><path class="cls-1" d="M1370.97,485.21c.41,1.42-.71,2.02-2.44,2.34-4.74,.88-9.47,1.79-14.18,2.8-1.8,.38-2.79,.12-3.16-1.92-.85-4.72-1.89-9.42-2.85-14.12-.39-1.89-.08-3.13,2.22-3.52,4.57-.79,9.09-1.92,13.65-2.73,1.3-.23,3.13-.89,3.59,1.4,1.02,5.05,2.03,10.1,3.16,15.75Z"/><path class="cls-1" d="M1598.11,449.83c-1.64,.3-1.94-1.02-2.48-1.98-2.35-4.2-4.62-8.44-7.02-12.61-.98-1.71-.6-2.6,1.12-3.48,4.28-2.19,8.54-4.44,12.67-6.9,1.89-1.13,2.92-.92,3.93,.97,2.27,4.25,4.67,8.42,6.94,12.67,.5,.94,1.6,2.22,.13,3.05-5.05,2.86-10.2,5.55-15.29,8.28Z"/><path class="cls-1" d="M1639.11,279.07c-1.22,2.55-2.61,5.38-3.94,8.22q-4.03,8.63-12.53,4.53-9.33-4.49-4.78-13.92,3.91-8.08,12.06-4.35c2.41,1.1,4.81,2.23,7.24,3.29,.9,.4,1.96,.56,1.95,2.22Z"/><path class="cls-1" d="M1298.87,405.83c-5.47-2.43-10.96-4.81-16.39-7.33-.87-.4-.42-1.46-.04-2.22,2.25-4.64,4.55-9.26,6.69-13.95,.76-1.67,1.7-1.77,3.13-1.08,5.07,2.44,12.68,3.67,14.52,7.61,1.87,4.02-3.84,9.88-5.78,15.12-.35,.95-.88,1.77-2.13,1.84Z"/><path class="cls-1" d="M1295.96,273.16c1.42,.03,1.74,1.26,2.29,2.24,2.57,4.62,7.67,9.67,6.99,13.76-.71,4.29-8.34,5.46-12.63,8.5-2.15,1.52-3.67,1.51-5.07-1.12-2.1-3.95-4.55-7.72-6.85-11.57-.8-1.33-1.65-2.64,.35-3.73,4.66-2.54,9.31-5.11,13.96-7.66,.29-.16,.6-.27,.95-.43Z"/><path class="cls-1" d="M1330.97,241.81c-.03,1.39-1.17,1.53-1.99,2-4.02,2.3-8.13,4.46-12.04,6.93-2.16,1.37-3.11,.67-4.18-1.24-2.27-4.04-4.56-8.08-7.14-11.93-1.49-2.22-.86-3.19,1.28-4.02,.77-.3,1.43-.85,2.19-1.18,4.33-1.91,9.34-7.63,12.36-5.75,4.22,2.63,6.06,9.1,8.91,13.93,.25,.42,.43,.89,.61,1.27Z"/><path class="cls-2" d="M1441.97,319.9l.48,.26c-.08,0-.2,.02-.24-.02-.08-.09-.12-.21-.18-.32l-.07,.08Z"/></g></g></svg>