<svg width="21" height="21" viewBox="0 0 21 21" fill="none" xmlns="http://www.w3.org/2000/svg">
<path d="M12.25 5.75H12.75V5.25V3.5V3H12.25H8.75H8.25V3.5V5.25V5.75H8.75H12.25ZM3.5 6.5H3V7V16.625V17.125H3.5H17.5H18V16.625V7V6.5H17.5H3.5ZM2.25875 7.00046V7C2.25875 6.30161 2.80816 5.75 3.5 5.75H7H7.5V5.25V3.5C7.5 2.80489 8.05489 2.25 8.75 2.25H12.25C12.9451 2.25 13.5 2.80489 13.5 3.5V5.25V5.75H14H17.5C18.1951 5.75 18.75 6.30489 18.75 7V16.625C18.75 17.3201 18.1951 17.875 17.5 17.875H3.5C2.80496 17.875 2.25011 17.3202 2.25 16.6252C2.25 16.6251 2.25 16.6251 2.25 16.625L2.25875 7.00046Z" stroke="#1e645c"/>
</svg>
