<?xml version="1.0" encoding="UTF-8"?>
<svg id="Layer_1" data-name="Layer 1" xmlns="http://www.w3.org/2000/svg" viewBox="0 0 412.3 584.17">
  <defs>
    <style>
      .cls-1 {
        stroke-width: 0px;
      }
    </style>
  </defs>
  <g>
    <path class="cls-1" d="M303.59,153.56c0-2.07,0-33.16,0-33.16,0-27.51-7.2-47.11-22.03-59.92-3.18-2.75-6.74-5.2-10.68-7.38-.18-4.69-2.65-8.36-8.91-10.03-5.08-1.36-8.65-.33-11.15,2.23-7.61-2-16.12-3.38-25.56-4.15-4.39-6.63-11.13-10.46-19.1-10.46s-14.71,3.83-19.1,10.46c-9.44.77-17.95,2.15-25.56,4.15-2.5-2.56-6.07-3.59-11.15-2.23-6.26,1.68-8.73,5.34-8.91,10.03-3.94,2.18-7.5,4.63-10.68,7.38-14.83,12.81-22.03,32.41-22.03,59.92,0,0,0,31.9,0,33.23,0,.02,0,.03,0,.05v33.31c0,27.51,7.21,47.1,22.03,59.92,8.77,7.58,20.4,12.97,35.12,16.24,9.53,2.12,20.36,3.35,32.56,3.71,2.52.07,5.09.11,7.73.11,35.12,0,59.78-6.56,75.41-20.06,14.82-12.81,22.03-32.41,22.03-59.92v-33.31s0-.07,0-.11ZM268.44,63.62c6.88,3.9,12.57,8.71,17.13,14.45,6.52,8.22,10.38,17.97,12.64,28.22.03.13.32,1.29.35,1.42-.68-.37-1.33-1.17-1.69-1.55.19-.13,1.01-1.17.9-1.44-.08-.24-1.57-.59-1.76-.87-.02-.04-.02-.07-.04-.1.22-.19,1.08-1.27.97-1.55-.1-.23-1.58-.5-1.92-.8,0,0,0-.02-.02-.04.27-.24,1.15-1.37,1.02-1.66-.11-.22-1.58-.4-2.06-.69.31-.3,1.21-1.47,1.06-1.77-.12-.22-1.53-.31-2.15-.58.36-.39,1.22-1.56,1.05-1.85-.12-.22-1.5-.23-2.22-.46.4-.48,1.22-1.65,1.03-1.94-.13-.22-1.5-.15-2.29-.34.43-.55,1.22-1.74,1.02-2.02-.15-.21-1.5-.08-2.36-.21.45-.62,1.2-1.83.98-2.12-.15-.2-1.5,0-2.42-.08.46-.68,1.18-1.93.94-2.21-.16-.2-1.5.08-2.47.06.46-.75,1.13-2.02.88-2.29-.17-.19-1.47.15-2.49.19.45-.8,1.04-2.05.78-2.31-.18-.19-1.49.23-2.54.35.44-.87,1-2.15.72-2.4-.19-.18-1.51.31-2.59.49.43-.93.95-2.24.66-2.49-.21-.17-1.53.4-2.65.65.41-.97.9-2.34.58-2.59-.22-.16-1.55.49-2.7.81.39-1.03.84-2.45.5-2.69-.23-.16-1.58.59-2.76.98.37-1.09.79-2.56.42-2.8-.25-.15-1.6.7-2.81,1.16.35-1.14.73-2.69.35-2.91-.26-.15-1.63.81-2.86,1.34.32-1.2.66-2.82.25-3.03-.28-.15-1.24.71-2.5,1.32.39-.99.83-2.56.41-2.76-.26-.12-1.47,1.06-2.91,1.5,1.48-1.06,2.65-2.57,3.58-4.41ZM293.84,194.13c.23.33.53.38.75.73.22.35.14.67-.23,1.09-.67.77-1.74,1.99-2.44,2.75-.37.41-.47.71-.27,1.07.2.36.51.4.71.76.2.37.11.68-.28,1.08-.72.74-1.85,1.91-2.57,2.63-.39.39-.68.48-1.03.27-.35-.21-.37-.52-.72-.74-.35-.21-.65-.13-1.04.24-.73.68-1.88,1.77-2.61,2.44-.4.37-.69.44-1.02.22-.33-.22-.35-.53-.68-.75-.33-.22-.62-.13-1.01.21-.72.64-1.87,1.68-2.62,2.27-.4.32-.74.41-1.03.14-.28-.27-.44-.47-.64-.8-.2-.34-.04-.66.33-.98,6.21-5.47,11.91-11.61,17.35-17.85.32-.36.66-.5.99-.3s.52.39.79.68c.27.29.13.68-.16,1.02-.72.84-1.61,1.9-2.36,2.74-.3.34-.44.72-.21,1.06ZM286.73,210.9c.21.32.27.3.48.62.21.32.03.68-.41,1.02-.81.64-2.16,1.65-2.98,2.25-.45.33-.67.66-.48.98.18.32.22.3.41.61s-.1.69-.45.97c-.7.55-1.69,1.24-2.41,1.77-.37.27-.77.38-1.05.15s-.18-.36-.46-.6c-.28-.23-.67-.13-1.05.14-.91.66-2.07,1.49-3.02,2.11-.38.25-.83.36-1.05.07s-.21-.35-.44-.63c-.23-.28-.67-.19-1.05.06-.94.6-2.1,1.37-3.04,1.95-.38.24-.83.29-1.05,0-.22-.29-.28-.34-.41-.68-.13-.34.07-.65.49-.91,7.05-4.32,13.75-9.12,19.84-14.72.37-.34.74-.46,1.03-.23.29.23.34.28.54.59s.07.67-.34,1.03c-.75.67-2,1.74-2.73,2.45-.4.38-.59.7-.39,1.02ZM266.87,219.31c.17.36.31.54.5.89.19.35-.05.65-.52.92-.85.5-2.2,1.29-3.06,1.78-.47.27-.83.28-1.07-.05-.23-.33-.3-.56-.52-.9-.22-.34-.58-.31-1.06-.07-.88.44-2.22,1.15-3.09,1.6-.47.24-.85.27-1.04-.08-.19-.35-.27-.58-.48-.92-.21-.34-.57-.34-1.04-.12-.87.39-2.22,1.04-3.09,1.43-.47.21-.8.2-1.01-.13-.21-.33-.31-.58-.42-.94-.11-.37.12-.66.54-.86,7.21-3.38,14.36-7.24,21.07-11.52.39-.25.75-.32,1.02-.03.26.29.4.49.58.83.18.34-.06.68-.42.92-.89.6-2.01,1.34-2.94,1.88-.38.22-.61.53-.47.89.13.36.38.49.51.85s-.1.67-.48.9c-.94.57-2.07,1.28-3.02,1.84-.38.23-.66.54-.5.9ZM259.62,228.57c.16.34.18.39.33.74.15.35-.11.65-.61.88-.92.42-2.35,1.1-3.27,1.53-.5.23-.77.54-.63.89.14.36.13.4.3.75.17.35-.1.65-.67.88-.56.23-2.08.85-2.64,1.08s-.93.21-1.09-.14c-.17-.35-.17-.39-.33-.74-.15-.35-.62-.33-1.05-.15-1.05.43-2.36.86-3.42,1.25-.43.16-.9.14-1.04-.21-.14-.35-.17-.4-.29-.75-.12-.35-.6-.37-1.02-.21-1.04.39-2.36.75-3.42,1.08-.43.13-.86.08-1.01-.26-.14-.34-.18-.41-.23-.77-.05-.37.23-.63.69-.77,7.66-2.45,15.11-5.62,22.25-9.32.43-.22.83-.23,1.05.07.22.3.27.36.39.71.12.35-.08.66-.56.9-.88.45-2.28,1.2-3.17,1.66-.48.25-.74.57-.58.91ZM274.32,199.07c-11.95,10.64-33.47,23.32-68.17,23.32-2.03,0-4.02-.04-5.96-.13-8.6-.37-16.34-1.53-23.26-3.24-18.21-4.49-30.81-12.7-38.96-19.95-14.23-12.67-22.7-29.66-22.7-45.4h-.02s.01,0,.01,0c.1-10.62,3.05-20.87,8.24-30.11,6.47-11.65,15.98-20.22,27.08-26.31,2.16.91,4.84,1.04,8.16.15,4.92-1.32,7.5-3.86,8.46-7.17,7.46-2.35,15.25-3.89,23.05-4.74,1.52,1.55,3.21,2.86,5.02,3.9-27.34,2.3-47.4,13.21-60.08,26.87l.59.52c1.73-1.86,3.57-3.66,5.54-5.37,10.21-8.9,27.8-19.33,55.22-21.34,2.95,1.45,6.2,2.23,9.6,2.23s6.65-.77,9.6-2.23c27.42,2.02,45,12.44,55.22,21.34.5.43.99.87,1.47,1.32l.57-.54c-12.73-11.72-31.42-20.73-55.98-22.8,1.81-1.04,3.48-2.35,5-3.89,7.79.85,15.58,2.38,23.04,4.74.97,3.31,3.54,5.85,8.46,7.17,3.33.89,6.01.76,8.16-.15,11.1,6.08,20.61,14.65,27.08,26.31,5.19,9.24,8.14,19.49,8.24,30.11h.02s-.02,0-.02,0c0,15.74-8.48,32.72-22.7,45.4ZM143.86,63.62c.93,1.84,2.1,3.35,3.58,4.41-1.44-.44-2.65-1.63-2.91-1.5-.42.2.02,1.78.41,2.76-1.26-.61-2.22-1.46-2.5-1.32-.4.21-.06,1.82.25,3.03-1.24-.53-2.6-1.49-2.86-1.34-.38.22,0,1.77.35,2.91-1.21-.46-2.56-1.31-2.81-1.16-.36.23.05,1.71.42,2.8-1.18-.39-2.53-1.14-2.76-.98-.34.24.12,1.66.5,2.69-1.15-.32-2.48-.97-2.7-.81-.32.25.17,1.61.58,2.59-1.12-.25-2.44-.82-2.65-.65-.29.25.22,1.57.66,2.49-1.09-.19-2.4-.67-2.59-.49-.29.25.28,1.53.72,2.4-1.05-.12-2.36-.53-2.54-.35-.26.26.33,1.51.78,2.31-1.01-.05-2.32-.39-2.49-.19-.25.27.42,1.54.88,2.29-.97.02-2.31-.26-2.47-.06-.24.28.49,1.53.94,2.21-.93.08-2.28-.12-2.42.08-.22.29.53,1.5.98,2.12-.87.13-2.22,0-2.36.21-.2.29.59,1.48,1.02,2.02-.8.19-2.16.12-2.29.34-.19.29.63,1.46,1.03,1.94-.72.22-2.09.24-2.22.46-.17.29.69,1.46,1.05,1.85-.62.27-2.03.36-2.15.58-.15.3.75,1.47,1.06,1.77-.49.29-1.95.47-2.06.69-.13.29.75,1.42,1.02,1.66,0,.02-.02.03-.02.04-.34.3-1.82.57-1.92.8-.12.28.74,1.36.97,1.55-.02.03-.02.06-.04.1-.19.28-1.68.63-1.76.87-.11.27.72,1.31.9,1.44-.36.38-1.01,1.18-1.69,1.55.03-.13.32-1.29.35-1.42,2.26-10.25,6.12-20,12.64-28.22,4.55-5.74,10.25-10.55,17.12-14.45ZM143.46,55.91c.39-.75.88-1.43,1.44-2.04,1.36-1.47,3.14-2.5,4.95-3.04-.66.58-1.33,1.11-1.99,1.62-.4.31-.8.62-1.2.93-.96.74-2.27,1.74-3.2,2.52ZM145.9,81.15c-.33.32-.65.65-.98.99.05-.16.1-.32.16-.48.73-1.92,2.52-3.42,4.44-4.07-1.2,1.3-2.41,2.38-3.62,3.57ZM148.54,81.2c-.85,1.07-1.74,1.79-2.62,2.73-.11.11-.21.23-.32.35,0-.11,0-.22.02-.33.18-1.45,1.51-2.52,2.92-2.76ZM145.23,78.86c-.26.27-.51.55-.76.83.07-.17.14-.35.21-.51,1.21-2.63,3.9-4.67,6.73-5.19-2.29,1.4-4.35,2.97-6.18,4.87ZM144.76,90.68c.68,1.62,1.51,3.03,2.54,4.17-1.19-.45-2.45-1.35-2.73-1.2-.39.22-.09,1.74.43,3.02-1.26-.29-2.82-1.35-3.11-1.17-.36.23-.04,1.68.5,2.89-1.22-.25-2.75-1.17-3.03-.98-.35.23,0,1.62.56,2.76-1.18-.19-2.67-1.01-2.93-.82-.32.25.05,1.58.61,2.64-1.13-.15-2.59-.85-2.84-.66-.3.25.09,1.52.66,2.53-1.1-.1-2.52-.71-2.75-.51-.29.25.13,1.47.7,2.4-1.06-.05-2.44-.56-2.66-.36-.26.25.16,1.42.73,2.29-1.01-.02-2.36-.44-2.55-.24-.25.25.2,1.41.77,2.22-.97.03-2.29-.32-2.47-.12-.23.25.24,1.37.8,2.14-.92.06-2.2-.21-2.37,0-.04.05-.05.11-.05.19,0,.42.4,1.24.86,1.83-.87.09-2.1-.1-2.25.1-.03.04-.05.1-.05.18,0,.39.4,1.2.85,1.74-.83.12-2,0-2.15.19-.18.25.29,1.21.8,1.81-.77.14-1.88.08-2.02.27-.16.25.29,1.16.77,1.71-.72.16-1.77.16-1.89.36-.15.23.29,1.1.75,1.61-.67.18-1.66.22-1.77.41-.13.23.29,1.05.72,1.51-.63.19-1.54.29-1.64.47-.1.19.17.76.49,1.19-.51.78-1.14,1.46-1.79,1.68.07-.22.43-1.38.51-1.6,3.22-9.57,8.29-18.02,15.13-25.01,3.53-3.61,7.49-6.82,11.88-9.63ZM141.19,89.89c-1.1-.42-2.41-1.33-2.71-1.14-.26.17.06,1.8.48,2.71-1.07-.35-2.38-1.17-2.67-.97-.25.17.12,1.75.55,2.61-1.04-.28-2.36-1.02-2.63-.82-.23.18.17,1.72.6,2.52-1-.22-2.32-.87-2.58-.66-.22.19.22,1.68.66,2.42-.97-.15-2.29-.73-2.53-.51-.22.19.27,1.66.72,2.33-.93-.09-2.27-.59-2.49-.37-.21.19.32,1.64.76,2.24-.89-.02-2.23-.45-2.44-.22-.19.2.37,1.64.81,2.16-.83.04-2.19-.32-2.39-.09-.19.22.49,1.77.92,2.12-.76.12-2.2-.18-2.39.06-.18.23.55,1.75.93,2.02-.66.18-2.13-.04-2.31.21-.17.23.6,1.77.95,1.91h0c-.56.24-2.07.11-2.23.36-.15.22.55,1.55.88,1.75-.02.04-.04.08-.06.12-.54.21-1.86.2-2.01.44-.12.21.49,1.35.81,1.61-.05.08-.07.17-.14.23-.42.35-1.64.28-1.76.5-.11.19.43,1.19.73,1.47-.06.12-.09.27-.19.36-.38.34-1.44.35-1.54.55-.08.19.36.98.63,1.3-.48.73-1.22,1.46-1.9,1.69.05-.17.41-1.12.47-1.29,3.38-10.17,8.51-18.81,15.4-25.85,3.1-3.17,6.57-6.03,10.4-8.57.1,1.41.37,2.89.78,4.43.05.19.1.37.15.55.02.11.05.22.07.34-1.11-.48-2.81-1.47-3.13-1.29-.27.16.02,1.84.42,2.81ZM180.33,58.74s-.02,0,0,0c-1.46-1.34-2.85-3.76-3.28-3.7-.63.09-.99,2.64-1.03,4.37-1.42-1.27-2.8-3.49-3.2-3.42-.6.11-.89,2.51-.89,4.19-1.4-1.21-2.76-3.24-3.15-3.17-.52.11-.58,1.91-.56,3.45-1.31-1.03-2.59-2.75-2.9-2.67-.49.11-.52,1.76-.47,3.22-1.5-1.94-1.48-5,.5-5.73,5.31-1.33,11.04-2.36,17.2-3.08-.18.82-.33,1.66-.46,2.52-.28-.35-.5-.57-.63-.56-.66.08-1.04,2.78-1.12,4.56.02,0,.04,0,0,0ZM182.28,69.21c.29,1.59.67,3.11,1.13,4.57,0,.15,0,.31,0,.45-1.49-1.31-2.81-3.28-3.42-3.19-.53.08-.87,2.79-.57,4.39-1.65-1.19-3.21-3.47-3.86-3.35-.51.09-.77,2.69-.47,4.25-1.63-1.14-3.2-3.28-3.83-3.16-.37.07-.57,1.53-.5,2.89.02.43.06.86.15,1.22-1.61-1.07-3.2-3.07-3.8-2.94-.47.1-.6,2.51-.25,3.98-1.58-1.01-3.19-2.89-3.77-2.76-.44.11-.51,2.27-.18,3.7-1.97-1.61-1.91-5.03.01-5.69,5.94-1.92,12.4-3.38,19.36-4.37ZM184.39,82.95c-1.64-.82-3.2-3.69-3.7-3.61-.59.08-.97,2.3-.83,4.33-1.58-.82-3.14-3.43-3.61-3.34-.57.11-.87,2.25-.69,4.19-1.54-.8-3.1-3.18-3.56-3.08-.55.12-.77,2.18-.54,4.05.01,0,.03,0,0,0-.03,0-.02,0,0,0-1.95-.63-3.55-2.93-3.86-2.88-.38.05-.75,2.21.11,3.92,0,0-.02,0-.03,0h0c-3.32-.04-4.23-4.48-1.2-5.58,5.65-1.68,11.73-2.95,18.21-3.8.2.45.41.89.62,1.32-.6.16-1,2.4-.91,4.48ZM246.99,57.8c-.32-.08-1.59,1.64-2.9,2.67.02-1.54-.04-3.34-.56-3.45-.39-.08-1.75,1.95-3.15,3.17,0-1.68-.29-4.09-.89-4.19-.41-.07-1.78,2.15-3.2,3.42-.04-1.73-.39-4.28-1.03-4.37-.42-.06-1.82,2.35-3.28,3.7.02,0,.03,0,0,0-.04,0-.02,0,0,0-.08-1.78-.46-4.48-1.12-4.56-.13-.02-.35.21-.62.55-.13-.86-.29-1.69-.46-2.51,6.16.72,11.89,1.74,17.2,3.08,1.98.74,2,3.8.5,5.73.05-1.46.01-3.11-.47-3.22ZM230.03,69.21c6.96.99,13.42,2.45,19.36,4.37,1.93.66,1.98,4.08.01,5.69.33-1.43.26-3.59-.18-3.7-.58-.14-2.19,1.75-3.77,2.76.35-1.47.22-3.88-.25-3.98-.6-.13-2.2,1.87-3.8,2.94.08-.37.12-.79.15-1.22.07-1.36-.13-2.81-.5-2.89-.63-.12-2.2,2.02-3.83,3.16.3-1.56.04-4.17-.47-4.25-.65-.12-2.21,2.16-3.86,3.35.3-1.6-.04-4.31-.57-4.39-.6-.09-1.93,1.88-3.42,3.19,0-.14,0-.29,0-.44.46-1.46.84-2.98,1.14-4.58ZM245.83,80.95c3.03,1.09,2.12,5.54-1.2,5.57,0,0,0,0,0,.01,0,0-.02,0-.03,0,.85-1.7.49-3.87.11-3.92-.32-.04-1.91,2.25-3.86,2.88.02,0,.03,0,0,0-.02,0-.01,0,0,0,.23-1.87,0-3.92-.54-4.05-.46-.1-2.02,2.29-3.56,3.08.19-1.95-.12-4.09-.69-4.19-.48-.08-2.03,2.53-3.61,3.34.13-2.03-.24-4.25-.83-4.33-.5-.08-2.05,2.8-3.7,3.61.08-2.08-.31-4.32-.91-4.48.22-.43.42-.87.62-1.32,6.48.86,12.55,2.12,18.2,3.8ZM256.05,76.01c2.28-.37,4.72,0,6.79.89-1.78-.14-3.52-.25-5.26-.24-1.54,0-3.07.11-4.62.39.96-.53,2.01-.86,3.09-1.04ZM253.34,75.22c.09-.06.18-.11.27-.17,1.04-.62,2.22-1,3.44-1.14,1.75-.2,3.56.09,5.12.84-1.17-.1-2.32-.14-3.45-.13-1.64.02-3.26.17-4.9.5-.16.03-.31.06-.47.09ZM259.28,78.83c-1.21.04-2.36.06-3.51.12-.43.02-.86.05-1.29.08-.56.04-1.12.09-1.69.16-.28.03-.55.07-.84.11.27-.18.55-.33.85-.47,2-.92,4.47-.87,6.47,0ZM294.4,115.78c-.1-.2-1.16-.2-1.54-.55-.1-.09-.12-.23-.19-.36.3-.28.84-1.27.73-1.47-.12-.22-1.34-.15-1.76-.5-.07-.06-.09-.15-.14-.23.32-.25.93-1.4.81-1.61-.15-.24-1.47-.23-2.01-.44-.02-.04-.04-.08-.06-.12.33-.2,1.03-1.53.88-1.75-.16-.25-1.67-.12-2.23-.35h0c.35-.15,1.12-1.68.95-1.92-.18-.25-1.64-.03-2.31-.21.39-.26,1.11-1.78.93-2.02-.19-.24-1.64.06-2.39-.06.42-.35,1.1-1.9.92-2.12-.2-.23-1.56.12-2.39.09.44-.53,1-1.96.81-2.16-.21-.22-1.55.2-2.44.22.45-.59.97-2.05.76-2.24-.22-.22-1.56.29-2.49.37.45-.67.93-2.14.72-2.33-.24-.22-1.56.36-2.53.51.44-.73.88-2.23.66-2.42-.25-.21-1.58.45-2.58.66.43-.8.83-2.34.6-2.52-.28-.2-1.59.54-2.63.82.43-.86.8-2.44.55-2.61-.29-.2-1.61.63-2.67.97.42-.91.74-2.54.48-2.71-.3-.19-1.61.72-2.71,1.14.41-.97.69-2.65.42-2.81-.32-.19-2.02.81-3.13,1.29.02-.11.04-.23.07-.34.05-.18.1-.36.15-.55.41-1.54.68-3.02.78-4.43,3.83,2.55,7.3,5.4,10.4,8.57,6.88,7.04,12.02,15.69,15.4,25.85.06.17.41,1.12.47,1.29-.69-.23-1.42-.96-1.9-1.69.28-.32.72-1.11.63-1.3ZM279.42,100.32c6.84,7,11.91,15.44,15.13,25.01.07.22.43,1.38.51,1.6-.65-.21-1.29-.9-1.79-1.68.32-.43.59-1,.49-1.19-.1-.19-1.02-.28-1.64-.47.42-.46.85-1.28.72-1.51-.11-.19-1.1-.23-1.77-.41.46-.51.9-1.37.75-1.61-.12-.19-1.17-.19-1.89-.36.48-.55.93-1.46.77-1.71-.14-.19-1.25-.13-2.02-.27.51-.6.97-1.57.8-1.81-.15-.19-1.32-.07-2.15-.19.45-.54.85-1.35.85-1.74,0-.08-.02-.14-.05-.18-.15-.2-1.38,0-2.25-.1.46-.59.86-1.41.86-1.83,0-.08-.02-.15-.05-.19-.17-.2-1.45.07-2.37,0,.56-.76,1.03-1.88.8-2.14-.19-.2-1.51.15-2.47.12.57-.81,1.03-1.97.77-2.22-.19-.2-1.54.22-2.55.24.57-.87,1-2.05.73-2.29-.22-.2-1.6.31-2.66.36.57-.93.99-2.15.7-2.4-.23-.2-1.65.41-2.75.51.56-1,.96-2.28.66-2.53-.25-.19-1.71.51-2.84.66.56-1.07.93-2.39.61-2.64-.26-.19-1.75.63-2.93.82.56-1.14.91-2.53.56-2.76-.28-.19-1.81.73-3.03.98.54-1.21.87-2.66.5-2.89-.29-.19-1.85.87-3.11,1.17.53-1.28.83-2.8.43-3.02-.27-.16-1.54.75-2.73,1.2,1.03-1.14,1.86-2.55,2.54-4.17,4.38,2.82,8.35,6.03,11.88,9.63ZM254.09,46.21c2.39-1.03,5.29-.93,7.61.19-2.3-.19-4.49-.2-6.7.09-.71.09-1.41.21-2.13.37.38-.25.79-.46,1.21-.65ZM253.69,48.47c1.64-.67,3.63-.51,5.18.31-1.36.04-2.61.03-3.88.09-.76.03-1.54.08-2.35.18.33-.24.68-.43,1.05-.58ZM257.28,50.48c-1.77.51-3.33.49-5.15.69,1.41-1.21,3.46-1.26,5.15-.69ZM254.98,69.14c2.53.68,4.68.76,6.52.36,8.04,3.85,14.75,8.8,20.18,14.89,6.44,7.24,11.23,16.12,14.46,27.03-.96-.55-1.68-2.12-1.8-2.48-.02-.05-.04-.09-.05-.14v.02c-3.28-7.14-7.56-13.43-12.83-18.82-3.57-3.66-7.61-6.91-12.11-9.76-.51-4.15-3.07-7.37-8.82-8.91-3.74-1-6.65-.71-8.93.54-6.47-2.2-13.54-3.86-21.21-4.95.22-1.74.33-3.55.33-5.42,0-.2,0-.4-.01-.6,6.05.81,11.67,1.95,16.88,3.42,1.37,2.16,3.73,3.83,7.4,4.82ZM249.3,47.26c1.71.48,1.71,4.42-1.25,5.93h0c.15-1.34-.5-3.4-1.04-3.79-.42-.29-1.58,1.78-2.97,2.84.13-1.39-.36-3.45-.91-3.82-.43-.29-1.58,1.9-2.98,3.03.03,0,.05,0,0,0-.05-.01-.03,0,0,0,.11-1.43-.49-3.57-1.06-3.94-.47-.31-1.61,2.05-3.03,3.24.11-1.47-.57-3.71-1.18-4.09-.49-.31-1.64,2.24-3.1,3.48.12-1.51-.64-3.88-1.28-4.26-.35-.21-1,1-1.86,2.2-.55-1.59-1.19-3.1-1.92-4.5,8.27.73,15.79,1.95,22.6,3.67ZM188.34,43.36c.53-.85,1.11-1.67,1.73-2.43,3.95-4.89,9.56-7.93,16.08-7.93s12.13,3.04,16.08,7.93c.62.77,1.2,1.58,1.73,2.43.47.75.91,1.54,1.32,2.35.96,1.94,1.7,4.04,2.22,6.26.4,1.71.66,3.49.78,5.33.04.7.07,1.41.07,2.13,0,.39-.01.78-.02,1.17-.07,2.05-.33,4.04-.75,5.95-.17.77-.37,1.52-.59,2.26-.51,1.68-1.16,3.27-1.93,4.77-.55,1.07-1.17,2.1-1.85,3.06-.29.41-.58.81-.89,1.19-.71.89-1.48,1.72-2.29,2.49-.62.58-1.26,1.12-1.93,1.61-1.66,1.23-3.49,2.2-5.46,2.88-2.03.7-4.2,1.08-6.49,1.08s-4.46-.38-6.49-1.08c-1.96-.67-3.79-1.65-5.46-2.88-.68-.5-1.32-1.05-1.94-1.63-.81-.76-1.57-1.59-2.28-2.47-.31-.39-.6-.78-.89-1.19-.68-.96-1.29-1.99-1.85-3.06-.77-1.49-1.41-3.08-1.92-4.76-.22-.74-.42-1.49-.59-2.26-.42-1.9-.68-3.89-.75-5.95-.01-.39-.02-.78-.02-1.17,0-.72.03-1.42.07-2.13.12-1.84.38-3.62.78-5.33.52-2.22,1.27-4.32,2.22-6.26.4-.82.85-1.6,1.32-2.36ZM163.01,47.26c6.81-1.72,14.33-2.94,22.6-3.67-.74,1.4-1.38,2.91-1.93,4.51-.86-1.2-1.51-2.41-1.86-2.21-.64.38-1.4,2.75-1.28,4.26-1.47-1.24-2.62-3.79-3.1-3.48-.61.38-1.29,2.62-1.18,4.09-1.43-1.19-2.56-3.55-3.04-3.24-.57.37-1.17,2.51-1.06,3.94.03,0,.05,0,0,0h0c-.05,0-.03,0,0,0-1.4-1.14-2.55-3.32-2.98-3.03-.56.38-1.04,2.43-.91,3.82-1.38-1.07-2.55-3.13-2.97-2.84-.54.39-1.2,2.45-1.04,3.79h0c-2.97-1.51-2.96-5.45-1.25-5.92ZM157.32,69.14c3.68-.98,6.04-2.66,7.4-4.82,5.21-1.47,10.83-2.61,16.88-3.42,0,.2-.01.4-.01.6,0,1.88.12,3.68.33,5.42-7.67,1.09-14.74,2.75-21.21,4.95-2.28-1.24-5.2-1.54-8.93-.54-5.75,1.54-8.31,4.76-8.82,8.91-4.49,2.85-8.54,6.1-12.11,9.76-5.27,5.39-9.54,11.68-12.83,18.82v-.02s-.04.09-.05.14c-.12.36-.84,1.92-1.8,2.48,3.23-10.9,8.02-19.79,14.46-27.03,5.43-6.09,12.13-11.04,20.18-14.89,1.84.4,3.99.31,6.52-.36ZM151.03,45.41c-2.75,1.41-5.19,3-7.43,5.22,1.39-2.98,4.4-4.98,7.43-5.22ZM144.94,51.28c2.09-2.29,4.95-3.85,7.84-4.31-1.83.94-3.59,1.97-5.28,3.13-1.41.97-2.78,2.02-4.08,3.19.44-.72.95-1.39,1.52-2ZM113.51,95.51c4.05-18.12,13.17-31.21,28.03-39.82.13,1.13.37,2.31.69,3.52.17.65.36,1.27.57,1.87-1.21-.52-2.59-1.57-2.81-1.3-.29.32-.15,1.77.16,2.76-1.18-.43-2.45-1.41-2.66-1.14-.28.32-.08,1.71.25,2.65-1.16-.36-2.41-1.22-2.6-.97-.25.32-.02,1.67.33,2.56-1.13-.3-2.37-1.06-2.56-.8-.24.34.05,1.62.41,2.46-1.1-.22-2.33-.9-2.5-.63-.22.32.1,1.58.49,2.37-1.06-.15-2.29-.75-2.46-.48-.21.34.17,1.57.57,2.29-1.03-.09-2.27-.6-2.42-.33-.2.35.22,1.55.65,2.22-.99-.02-2.25-.46-2.39-.18-.17.36.32,1.64.77,2.21-.94.05-2.26-.32-2.39-.04-.17.37.39,1.64.83,2.14-.89.12-2.22-.18-2.35.1-.15.37.46,1.65.91,2.05-.83.18-2.2-.05-2.32.25-.14.36.46,1.63.89,1.98-.76.21-2.1.07-2.19.36-.13.35.46,1.4.87,1.78-.04.07-.05.15-.12.2-.59.46-1.88.15-1.97.43-.1.32.26,1.58.64,1.97-.54.44-1.69.24-1.76.49-.09.3.3,1.48.66,1.86-.08.16,0,0-.13.12-.47.43-1.5.3-1.57.54-.07.29.26,1.47.59,1.84-.1.22-1.49.48-1.54.74-.06.27.28,1.45.58,1.81-.11.28-1.4.57-1.46.82-.06.24.3.78.57,1.12-.27.69-.81,1.39-1.7,1.88.06-.27.36-1.43.42-1.7ZM111.39,197.13c.83.58,1.84.33,2.22.07l1.34-.92c1.08-.74,2.02-.32,2.66.54.75,1,1.45,2.06,2.22,3.02,1.01,1.3,2.04.84,2.58.41l1.96-1.56c.98-.77,1.95-.51,2.6.23l1.49,1.78c.65.72.71,1.72-.2,2.56l-1.85,1.69c-.5.46-1.13,1.41-.03,2.59.86.85,1.7,1.74,2.57,2.57.76.7.98,1.68.11,2.65l-1.09,1.2c-.45.49-.99,1.56.29,2.64.99.82,1.94,1.68,2.98,2.44.87.67,1.23,1.67.46,2.72l-1.03,1.4c-.41.55-.79,1.64.69,2.66l.89.7c.82.59,1.69,1.08,2.53,1.63,1.51.97,2.39.15,2.72-.43l.87-1.5c.66-1.12,1.72-1.18,2.67-.64,1.11.63,2.28,1.17,3.42,1.77,1.52.71,2.27-.17,2.54-.79l.67-1.48c.54-1.19,1.52-1.36,2.47-.95,1.13.43,2.23.91,3.37,1.31,1.52.53,2.13-.42,2.35-1.07l.8-2.37c.4-1.18,1.33-1.5,2.26-1.24l2.19.67c.95.24,1.56,1.06,1.26,2.26l-.63,2.42c-.17.65-.18,1.78,1.38,2.18-2.95,3.73-4.89,8.25-5.43,13.19-9.18-2.78-18.08-6.66-26.21-11.89-4.03-2.45-7.72-5.43-11.15-8.64-2.18-2.03-4.21-4.19-6.17-6.41-1.38-5.34-2.3-11.14-2.77-17.42ZM159.39,254.55c-1.38-2.09-2.95-4.59-4.54-7.37-.3-.52-.94-.68-1.46-.4-2.51,1.37-5.12,2.71-7.84,3.88-.57.25-1.25,0-1.53-.54-1.23-2.41-2.29-4.74-3.58-8.04-.22-.56-.81-.71-1.41-.64-2.08.26-4.62.73-7.51.75-.62,0-1.13-.26-1.42-.8-1.24-2.34-2.15-4.22-3.23-6.81-.28-.68-.68-.99-1.28-.89-.98.17-1.97.31-2.96.43-3.34-5.04-5.92-10.74-7.8-17.13,1.53,1.63,3.11,3.23,4.76,4.76,3.49,3.23,7.27,6.17,11.17,8.93,4.65,3.11,9.67,5.65,14.86,7.61,3.94,1.49,7.96,2.65,12.02,3.53-.03.31-.06.63-.08.94-.26,4.34.58,8.49,2.29,12.18-.19-.09-.35-.22-.47-.4ZM178.71,263.04c2.13-1.29,3.84-2.59,5.16-3.94,1.16,1.62,2.77,3.25,4.84,4.95-3.46-.26-6.8-.59-10.01-1.01ZM205.26,258.86c-1.61,2.2-3.58,4.14-5.82,5.72-3.39-.09-6.67-.24-9.85-.46-1.41-1.67-3.68-4.73-5.36-8.76-.01-.03-.04-.06-.08-.06-.04,0-.07.02-.09.05-2.13,3.5-4.64,6.08-6.3,7.57-3.95-.54-7.72-1.2-11.29-1.99-1.81-1.99-3.29-4.27-4.39-6.77-.13-.31-.26-.61-.39-.93-.17-.42-.32-.85-.47-1.29-.7-2.12-1.13-4.37-1.24-6.71-.05-.99-.03-1.96.03-2.92,0-.04,0-.09,0-.13.34-4.53,1.89-8.74,4.34-12.3.05-.07.1-.14.14-.21.22-.31.45-.62.68-.92,2.62-3.38,6.09-6.09,10.11-7.78,5.22,1.34,10.9,2.39,17.07,3.02-2.63,1.5-4.68,2.99-6.21,4.55-1.53-2.12-3.8-4.26-6.92-6.55-.03-.02-.08-.02-.1,0-.03.03-.03.07,0,.1,0,0,4.05,3.92,6.66,10.19.01.03.04.06.08.06.04,0,.07-.02.09-.05,2.49-4.11,5.52-6.94,7.08-8.25,2.5.24,5.07.42,7.72.52,1.77,1.43,3.33,3.09,4.66,4.94,2.72,3.8,4.41,8.39,4.64,13.4.02.44.03.87.02,1.3,0,.11,0,.22,0,.33,0,.12,0,.24-.01.36-.01.42-.03.84-.07,1.26-.39,4.7-2.09,9.06-4.74,12.69ZM252.43,252.14c-11.65,3.65-27.36,6.72-45.05,6.73,2.61-3.66,4.28-7.99,4.7-12.7,9.38-.05,18.47-1.09,27.27-3.23l1.82,7.32c.07.3.5.45.95.34l4.14-1.02c.44-.13.87,0,.96.3l.28.98c.09.3.52.43.97.29l3.31-1.03c.45-.14.89-.02.99.28l.32.97c.1.29-.19.65-.65.79ZM248.17,243.03c-.04-.39.28-.68.74-.84,1.12-.4,2.52-.89,3.63-1.33.45-.18.82-.5.7-.87-.12-.37-.2-.39-.28-.78-.06-.29.08-.52.37-.7.09-.06.21-.12.33-.17.73-.3,2.02-.83,2.76-1.13.1-.04.19-.07.28-.09.37-.1.66-.06.83.21.21.33.18.39.36.74.18.35.6.32,1.12.07.95-.45,2.49-1.16,3.44-1.62.52-.25.9-.26,1.13.06.24.32.21.37.4.72.19.35.62.29,1.13.02.93-.51,2.46-1.33,3.37-1.84.49-.28.88-.3,1.13-.01.25.29.28.35.41.71.13.36-.12.69-.6.95-7.92,4.3-16.34,7.8-24.92,10.55-.52.17-.92.11-1.11-.23-.18-.34-.17-.41-.24-.79-.06-.38.32-.67.78-.8,1.14-.34,2.61-.78,3.73-1.19.46-.16.79-.45.75-.84-.04-.39-.21-.4-.25-.79ZM286.27,232.94c-6.32,5.89-12.79,10.27-20.58,14.05-.46.22-.8.2-1.02-.12s-.31-.57-.44-.94c-.13-.36.15-.67.54-.86.97-.47,2.17-1.01,3.13-1.51.39-.21.63-.51.51-.89-.11-.38-.36-.54-.46-.93-.1-.38.05-.65.5-.9.83-.46,2.12-1.15,2.95-1.62.45-.25.59-.52.47-.9-.12-.38-.4-.53-.51-.9-.11-.38.01-.64.44-.91.78-.5,1.97-1.25,2.75-1.75.42-.27.73-.26,1.01,0s.32.57.59.84c.27.27.65.22,1.01-.02.88-.59,1.85-1.4,2.64-2.08.32-.28.67-.45.94-.19.27.25.36.46.64.7.28.24.61.02.94-.26.81-.69,1.73-1.59,2.51-2.3.32-.29.71-.4,1-.16s.49.41.7.73c.22.32.1.59-.26.94ZM296.79,215.65c-6.14,6.69-13.37,11.88-20.63,17.27-.44.32-.85.35-1.11.08s-.28-.34-.44-.68c-.16-.34.12-.71.52-.97.98-.64,2.2-1.54,3.15-2.24.38-.28.63-.65.51-1.01s-.28-.3-.39-.66c-.11-.36.13-.72.52-.99.97-.68,2.18-1.63,3.14-2.33.39-.28.64-.64.51-.99s-.29-.29-.42-.63c-.13-.35.12-.71.48-.98.72-.53,1.7-1.26,2.39-1.84.35-.29.77-.48,1.03-.22.25.26.23.32.49.58.26.26.63.12,1.04-.24.76-.66,1.98-1.8,2.68-2.53.38-.4.67-.51,1-.33.28.22.32.34.49.48.28.25.73.15,1.09-.28.87-.85,2.03-2.04,2.75-2.86.37-.42.7-.43.97-.23.25.2.26.21.51.5.24.31.08.67-.29,1.07ZM286.5,217.28c-14.37,12.07-30.35,20-47.52,24.15-8.65,2.09-17.6,3.22-26.81,3.45,0-.13.01-.26.01-.39,0-.11,0-.22,0-.33.06-5.37-1.57-10.4-4.44-14.59,19.98.22,30.23-3.09,35.75-4.8.36-.11.73.04.83.33l.32.97c.1.29-.12.62-.48.74l-2.69.84c-.36.11-.59.45-.5.75l.28.98c.09.3-.14.64-.52.75l-3.62.88c-.38.1-.62.42-.55.72l.25.99,1.93,7.78c21.84-5.39,41.82-16.67,59.92-34.83-3.91,4.24-7.97,8.11-12.16,11.63ZM297.52,95.33c.27-.34.63-.88.57-1.12-.06-.26-1.35-.55-1.46-.82.3-.36.64-1.54.58-1.81-.05-.25-1.45-.51-1.54-.74.32-.37.66-1.55.59-1.84-.07-.24-1.09-.11-1.57-.54-.13-.12-.05.04-.13-.12.36-.38.75-1.56.66-1.86-.07-.25-1.23-.05-1.76-.49.38-.39.75-1.64.64-1.97-.09-.28-1.38.03-1.97-.43-.06-.05-.08-.13-.12-.2.4-.38.99-1.43.86-1.78-.09-.29-1.43-.15-2.19-.36.42-.36,1.03-1.63.89-1.98-.12-.3-1.49-.07-2.32-.25.45-.4,1.06-1.68.91-2.05-.13-.28-1.46.02-2.35-.1.45-.49,1.01-1.77.83-2.14-.13-.28-1.44.09-2.39.04.45-.57.95-1.85.77-2.21-.14-.28-1.4.15-2.39.18.42-.66.85-1.87.65-2.22-.15-.27-1.39.24-2.42.33.4-.73.78-1.96.57-2.29-.16-.27-1.4.32-2.46.48.39-.79.71-2.05.49-2.37-.17-.27-1.41.41-2.5.63.36-.84.65-2.13.41-2.46-.19-.25-1.43.5-2.56.8.35-.89.59-2.23.33-2.56-.2-.25-1.44.6-2.6.97.32-.93.53-2.32.25-2.65-.21-.27-1.47.71-2.66,1.14.31-.99.45-2.43.16-2.76-.23-.26-1.61.78-2.82,1.3.21-.6.4-1.22.57-1.87.32-1.21.56-2.39.69-3.52,14.86,8.61,23.99,21.7,28.03,39.82.06.27.36,1.43.42,1.7-.89-.49-1.43-1.19-1.7-1.88Z"/>
    <polygon class="cls-1" points="172.16 51.44 172.16 51.44 172.16 51.44 172.16 51.44"/>
    <polygon class="cls-1" points="171.46 85.48 171.46 85.48 171.46 85.48 171.46 85.48"/>
    <polygon class="cls-1" points="180.33 58.74 180.33 58.74 180.33 58.74 180.33 58.74"/>
    <path class="cls-1" d="M253.83,194.27l.92,3.42s14.3-11.58,19.1-18.24l-.98-2.97h-.33c-5.08,6.29-12.37,12.54-18.71,17.79Z"/>
    <path class="cls-1" d="M181.58,138.66l-.54-.57c-5.1,4.69-7.67,10.52-7.67,15.59,0,2.17.48,4.47,1.41,6.77.26-.06.52-.12.78-.18-.92-2.2-1.41-4.44-1.41-6.59,0-5.06,2.69-10.66,7.43-15.02Z"/>
    <path class="cls-1" d="M160.81,174.78c-.32.03-.64.05-.96.08,5.01,6.18,12.27,11.66,21.8,15.19.38-.14.76-.27,1.13-.41-7.48-2.65-13.03-6.31-16.94-9.7-1.85-1.61-3.53-3.35-5.04-5.16Z"/>
    <path class="cls-1" d="M216.09,157.13c-.46.19-.94.39-1.45.61-1.51,1.7-4.03,3.11-7.62,3.3-.58.25-1.18.51-1.79.78.31.02.61.04.93.04,5.04,0,8.36-2.2,9.93-4.73Z"/>
    <path class="cls-1" d="M222.01,143.5c.33-.07.65-.14.96-.19-3.65-3.38-9.26-5.87-16.81-5.87-14.54,0-21.89,9.23-21.89,16.25,0,1.27.25,2.62.74,3.97.25-.08.5-.16.75-.24-.46-1.26-.7-2.52-.7-3.72,0-3.4,1.88-7.28,5.32-10.24,3.07-2.64,8.15-5.23,15.79-5.23s12.73,2.59,15.79,5.23c.02.02.04.04.06.05Z"/>
    <path class="cls-1" d="M237.63,160.21c.87-2.22,1.31-4.44,1.31-6.53,0-10.51-11.02-24.33-32.78-24.33-7.33,0-13.43,1.57-18.31,4.05.1.24.19.49.25.75,4.43-2.28,10.35-4.02,18.06-4.02,11.87,0,19.52,4.13,23.97,7.97,5.12,4.43,8.04,10.3,8.04,15.58,0,2.44-.63,5.01-1.81,7.51.44-.33.87-.66,1.28-.98Z"/>
    <path class="cls-1" d="M194.13,167.33c3.23,1.6,7.23,2.6,12.02,2.6,4.27,0,7.92-.8,10.94-2.11.07-.32.13-.64.21-.96-2.87,1.33-6.54,2.29-11.15,2.29-4.92,0-8.78-1.08-11.73-2.55-.08.25-.18.49-.3.73Z"/>
    <path class="cls-1" d="M184.1,171.74c5.36,3.73,12.71,6.28,22.05,6.28.59,0,1.17-.01,1.74-.03.04-.27.1-.53.18-.79-.63.02-1.26.04-1.92.04-9.73,0-16.63-2.78-21.25-5.9-.24.16-.51.3-.8.4Z"/>
    <path class="cls-1" d="M206.15,146.3c2.03,0,3.73.38,5.15.98.33-.14.66-.27.98-.41-1.64-.83-3.67-1.36-6.13-1.36-7.31,0-11,4.64-11,8.17,0,.12.01.24.02.35.26-.1.51-.2.76-.3,0-.02,0-.04,0-.06,0-2.98,3.25-7.39,10.22-7.39Z"/>
    <path class="cls-1" d="M275.38,175.5l.66.42c2.25-3.9,3.93-7.88,5-11.82l-.58-.1-.21-.04c-1.07,3.91-2.71,7.79-4.88,11.54Z"/>
    <path class="cls-1" d="M270.58,161.72c.68-2.74,1.02-5.44,1.02-8.04,0-1.18-.07-2.39-.21-3.61-.26,0-.52.02-.79.03.14,1.2.22,2.39.22,3.58,0,2.64-.36,5.34-1.05,8.03h.81Z"/>
    <path class="cls-1" d="M158.63,134.1c-4.68,6.36-7.04,13.33-7.04,19.58,0,2.73.46,5.6,1.35,8.5.27.03.55.05.83.08-.92-2.87-1.41-5.76-1.41-8.58,0-6.3,2.43-13,6.79-18.98-.2-.18-.38-.39-.53-.6Z"/>
    <path class="cls-1" d="M256.29,139.79l.43-.2.29-.13c-7.03-13.65-24.03-26.26-50.85-26.26-1.2,0-2.38.03-3.54.08l.1.78c1.12-.05,2.26-.08,3.44-.08,20.32,0,33.09,7.2,40.3,13.47,4.2,3.64,7.54,7.89,9.83,12.35Z"/>
    <path class="cls-1" d="M261.59,128.17c-6.15-7.55-15.12-14.24-26.92-18.43l-.25.73c8.96,3.2,15.58,7.6,20.22,11.63,2.39,2.08,4.54,4.32,6.44,6.68.17-.21.34-.41.51-.61Z"/>
    <path class="cls-1" d="M246.31,165.12c-.31.37-.65.75-1.01,1.14-1.77,2.99-4.13,5.84-7.01,8.34-2.75,2.38-6.49,4.9-11.34,6.89.32.16.64.3.97.44,9.11-3.91,15.4-10.11,18.82-16.64-.15-.05-.29-.12-.43-.18Z"/>
    <path class="cls-1" d="M172.28,172.98c-.3.07-.61.14-.91.2,5.34,5.42,13.06,9.87,23.16,11.83.44-.18.88-.37,1.3-.55-10.3-1.76-17.35-5.99-21.83-9.86-.6-.52-1.17-1.07-1.73-1.62Z"/>
    <path class="cls-1" d="M250.64,199.95l-.42-.66c-10.4,5.66-24.8,10.27-44.07,10.27-2.93,0-5.75-.11-8.46-.31l-.03.77c2.75.21,5.58.32,8.49.32,17.99,0,32.84-4.05,44.49-10.39Z"/>
    <path class="cls-1" d="M237.11,196.71l-.32-.69c-8.05,3.2-18.15,5.47-30.64,5.47-10.9,0-19.97-1.71-27.45-4.29l-.18.4-.14.31c7.99,2.75,17.24,4.37,27.76,4.37,11.95,0,22.27-2.1,30.96-5.56Z"/>
    <path class="cls-1" d="M133.41,168.17c-.19.19-.41.36-.64.5,7.11,18.4,27.04,36.75,59.58,40.83l.03-.78c-20.86-2.62-34.61-10.9-42.88-18.11-7.44-6.48-12.99-14.34-16.09-22.45Z"/>
    <path class="cls-1" d="M276.25,116.52c10.33,11.04,16.35,24.52,16.35,37.17,0,14.67-8.09,30.47-21.63,42.27-11.36,9.9-31.83,21.69-64.82,21.69s-53.46-11.8-64.82-21.69c-4.77-4.16-8.86-8.81-12.16-13.74l-.67.43c12.92,19.29,38.87,35.78,77.65,35.78,57.92,0,87.23-36.78,87.23-64.74,0-12.15-5.54-25.97-16.56-37.71l-.57.54Z"/>
    <path class="cls-1" d="M149.5,116.76c2.79-2.43,6.21-4.99,10.31-7.4l-.37-.68c-10.26,6.04-17.88,13.87-22.81,22.14.25.12.48.25.69.41,3.11-5.21,7.22-10.15,12.19-14.47Z"/>
    <path class="cls-1" d="M132.3,120.87l-.59-.52c-8.5,10.71-12.78,22.67-12.78,33.34,0,7.77,2.27,16.22,6.78,24.37l.66-.43c-4.3-7.77-6.66-16.02-6.66-23.94,0-11.03,4.57-22.69,12.59-32.82Z"/>
    <path class="cls-1" d="M246.46,179.94c-.12.11-.25.22-.38.32l1.64-.4c8.64-7.84,13-17.66,13-26.18,0-1.94-.24-3.95-.69-5.98l-.77.13c.45,1.97.68,3.93.68,5.85,0,9.04-4.98,18.87-13.48,26.26Z"/>
    <path class="cls-1" d="M167.33,139.11c-3.23,4.78-4.86,9.92-4.86,14.57,0,2.73.57,5.62,1.68,8.52.27-.03.54-.05.81-.08-1.11-2.82-1.7-5.68-1.7-8.44,0-4.64,1.66-9.57,4.69-14.07l-.62-.5Z"/>
    <path class="cls-1" d="M148.2,174.43c-.36-.06-.71-.12-1.06-.19,4.97,7.92,12.83,15.29,23.56,20.49l.25-.4.15-.25c-5.61-2.73-10.04-5.86-13.42-8.8-3.76-3.27-6.95-6.96-9.48-10.85Z"/>
    <path class="cls-1" d="M181.04,118.38c4.63-1.81,10.05-3.24,16.35-3.93l-.09-.76c-6.32.71-11.98,2.15-17,4.15l.74.54Z"/>
    <path class="cls-1" d="M222.53,192.44c-.09-.24-.17-.48-.22-.73-4.76,1.06-10.12,1.7-16.16,1.7-.42,0-.84,0-1.26-.01.04.25.06.51.05.77.4,0,.8.02,1.2.02,5.95,0,11.4-.63,16.38-1.74Z"/>
    <path class="cls-1" d="M206.15,97.81c28.77,0,46.67,10.26,56.65,18.95,2.49,2.17,4.76,4.5,6.81,6.94.21-.16.45-.29.71-.4-12.24-14.61-33.67-26.27-64.16-26.27-16.74,0-30.75,3.51-42.01,9.1l.37.68c10.18-5.06,23.83-9,41.64-9Z"/>
    <path class="cls-1" d="M229.32,108.86l.25-.71c-6.95-1.92-14.75-3.03-23.41-3.03-43.46,0-65.45,27.6-65.45,48.58,0,1.52.13,3.09.36,4.67.07,0,.13-.01.2-.01.21,0,.4.02.59.04-.24-1.58-.37-3.15-.37-4.7,0-10.91,6.02-22.74,16.19-31.59,8.6-7.48,23.94-16.21,48.48-16.21,8.89,0,16.57,1.15,23.17,2.97Z"/>
    <path class="cls-1" d="M185.44,125l.72.56c5.31-2.07,11.9-3.5,19.99-3.5,14.18,0,23.79,4.39,29.86,8.9l.18-.84c-7.19-5.23-17.21-8.84-30.04-8.84-8,0-14.9,1.4-20.71,3.72Z"/>
    <polygon class="cls-1" points="174.2 130.96 174.77 130.26 174.64 130.16 174.22 129.84 173.95 129.63 167.91 124.94 167.29 124.46 166.85 125 161.44 131.8 168.91 137.5 174.2 130.96"/>
    <polygon class="cls-1" points="188.41 128.68 181.54 123.35 180.93 122.88 180.32 123.65 176.12 128.92 175.92 129.17 175.08 130.22 176.05 130.97 182.55 135.92 188.41 128.68"/>
    <path class="cls-1" d="M132.11,162.52c5.22,7.57,13.8,10.47,23.41,10.47,17.36,0,38.08-8.23,48.47-12.76,10.38-4.49,15.18-6.74,18.25-7.28,3.24-.56,4.53.27,2.3,3.05-2.41,3-6.48,8.27-6.14,16.09.03.76.09,1.49.15,2.21-7.32,4.28-14.13,7.8-17.83,9.32-5.35,2.39-16.15,6.92-25.94,9.96l-1.45.52c-4.83,1.46,21.15.07,28.16-1.77,3.71-1.27,11.1-4.82,18.92-9.43,2.84,7.51,8.3,10.91,14.37,10.97,14.7.15,33.72-17.54,44.13-31.11,1.54-2,3.01-4.54,3.39-5.79.08-.25.15-.5.21-.74.19-.28.35-.96.5-1.78.8-3.24,1.43-10.77-1.81-18.1-1.99-4.5-7.35-10.86-12.32-11.01-3.83.02-9.48,5.35-10.16,13.36-.26,4.29,1.32,8.07,6.13,9.13,2.53.55,7.15.16,9.34.07,2.88-.08,5.52.58,6.81,2.63.11.3.22.58.3.85-.39.52-.88,1.18-1.54,2.01-10.59,13.55-29.78,31.23-44.47,31.08-4.08-.04-8.33-1.24-11.46-3.63,7.13-4.42,14.23-9.57,18.92-14.55,3.34-3.23,4.67-5.22,5.82-8.91.01-.04.02-.08.04-.13,1.3-2.96,1.44-5.42,1.3-7.9-.18-3-1.42-6.5-2.7-8.98-.99-1.89-1.71-3.56-2.29-5.07.86.23,1.54.43,1.93.61l1.19.49c2.66,1.18-3.9-6.07-8.82-12.45h0s0,0,0,0l-1.75,7.93-.29,1.29s0,0,0,0c.93.93,1.62,1.47,1.82,2.17,1.05,4.48,2.76,8.57,5.68,14.14,1.29,2.48,1.48,2.85,1.67,3.54.08.22.17.46.28.71-.72.87-1.67,1.86-3.08,3.19-5.5,5.2-15.17,11.61-24.2,16.93-.81-4.69.69-8.25,2.32-10.53,1.07-1.5,2.53-3.43,4.36-5.24,6.51-7.15,5.35-13.19-.11-13.85-3.36-.41-9.84,2.24-20.22,6.74-10.21,4.4-29.92,12.6-46.91,12.6-10.53,0-19.4-2.48-24.98-10.32-3.63-5.85-1.29-13.13.13-18.02l.37-1.22c-.55-2.65-10.5,13.98-2.2,28.51ZM272.38,138.59c-2.55.22-4.97.54-6.55.24-1.58-.25-2.37-.95-2.28-1.37.44-1.7,2.42-3.04,5.01-2.72,2.32.29,4.3,1.88,5.99,3.96-.65-.14-1.37-.19-2.16-.12Z"/>
    <polygon class="cls-1" points="174.6 124.64 179.44 118.53 173.24 113.71 168.3 119.82 174.6 124.64"/>
    <path class="cls-1" d="M158.8,221.97c1.16.45,1.45.95,1.62,1.24.24.42.19,1.75-.18,4.07,0,.04.02.08.06.09,0,0,.01,0,.02,0,.04,0,.07-.02.08-.06,0-.02.82-2.5,1.16-3.74.04-.16.06-.39-.02-.56-.29-.62-.97-.83-2.7-1.21-.04-.01-.09.02-.1.06-.01.04,0,.09.05.1Z"/>
    <path class="cls-1" d="M124.38,205.14s.04,0,.05-.02c.02-.02,2.06-1.64,3.02-2.49.12-.11.26-.29.29-.48.1-.64-.11-.84-1.22-1.97-.13-.13-.28-.28-.43-.44-.03-.03-.08-.03-.11,0-.03.03-.04.08-.01.11.69.95.8,1.42.75,1.84-.02.21-.64,1.38-2.39,3.32-.03.03-.03.08,0,.11.02.02.04.03.06.03Z"/>
    <path class="cls-1" d="M127.32,217.62s-.03.08,0,.12c1,.96,1.66,1.94,1.72,2.33,0,.03,0,.05.02.08.06.28.18.86-.99,2.81-.02.04-.01.08.02.11.02.01.03.02.05.02.02,0,.04,0,.06-.03.01-.01,1.07-1.11,1.86-2.13.1-.13.2-.34.18-.55-.07-.7-1.16-1.55-2.81-2.77-.04-.03-.09-.02-.11.01Z"/>
    <path class="cls-1" d="M125.65,208.57s-.03.08,0,.11c.9,1.04,1.38,1.99,1.38,2.35,0,.03,0,.06,0,.09.02.3.04.86-1.3,2.65-.03.03-.02.08,0,.11.02.02.04.02.06.02.02,0,.04,0,.06-.02.01-.01,1.16-1.01,2.05-1.95.11-.12.23-.32.24-.52.02-.65-.82-1.51-2.37-2.87-.03-.03-.08-.03-.12,0Z"/>
    <path class="cls-1" d="M152.17,246.15c-.83.22-1.53.42-2.21.62-1,.29-1.95.56-3.12.84-.75.18-1.33.06-1.72-.34-1.01-1.02-1.08-.99-1.13-.97-.02,0-.05.03-.06.05-.05.11.2.78.42,1.21l.15.28c.45.88.65,1.28,1.24,1.38.06.01.13.02.19.02.51,0,1.2-.29,1.59-.45l.08-.03s0,0,0,0c1.78-.85,4.62-2.43,4.65-2.45.04-.02.06-.07.04-.11-.02-.04-.06-.06-.1-.05Z"/>
    <path class="cls-1" d="M137.64,240.14c-1.67-.04-2.71-.11-4.29-.23l-.52-.04c-.41-.03-1.23-.24-1.67-.86-.19-.26-.81-1.12-.96-1.13-.02,0-.05.02-.06.04-.06.1.06.77.21,1.24l.04.13c.34,1.05.51,1.57,1.1,1.64.22.02.46.04.73.04,1.88,0,4.79-.54,5.43-.66.04,0,.08-.05.07-.09,0-.04-.04-.08-.09-.08Z"/>
    <path class="cls-1" d="M237.74,230.22c.77.03,1.41-.58,1.44-1.34.03-.77-.58-1.41-1.34-1.44-.11,0-.22,0-.33.03-.03,0-.05.03-.05.06s.03.05.06.06c.5.03.88.45.86.95-.02.51-.45.91-.95.89-.46-.02-.84-.37-.89-.82,0-.03-.03-.05-.06-.05h0s-.06.02-.06.05c0,.06-.02.12-.02.17-.03.77.58,1.41,1.34,1.44Z"/>
    <path class="cls-1" d="M231.05,228.88c-.11,0-.22,0-.33.03-.03,0-.05.03-.05.06s.03.05.06.06c.5.03.88.45.86.95-.02.51-.45.91-.96.89-.46-.02-.84-.37-.89-.82,0-.03-.03-.05-.06-.05h0s-.06.02-.06.05c-.01.06-.02.12-.02.17-.03.77.58,1.41,1.34,1.44.77.03,1.41-.58,1.44-1.34.03-.77-.58-1.41-1.34-1.44Z"/>
    <path class="cls-1" d="M224.2,229.98c-.11,0-.22,0-.33.03-.03,0-.05.03-.05.06s.03.05.06.06c.5.03.88.45.86.95-.02.51-.44.91-.95.89-.46-.02-.84-.37-.89-.82,0-.03-.03-.05-.06-.05h0s-.06.02-.06.05c-.01.06-.02.12-.02.17-.03.77.58,1.41,1.34,1.44.77.03,1.41-.58,1.44-1.34.03-.77-.58-1.41-1.34-1.44Z"/>
    <path class="cls-1" d="M217.31,230.64c-.11,0-.22,0-.33.03-.03,0-.05.03-.05.06,0,.03.03.05.06.06.5.03.88.45.86.95-.02.51-.45.91-.95.89-.46-.02-.84-.37-.89-.82,0-.03-.03-.05-.06-.05h0s-.06.02-.06.05c-.01.06-.02.12-.02.17-.03.77.58,1.41,1.34,1.44.77.03,1.41-.58,1.44-1.34.03-.77-.58-1.41-1.34-1.44Z"/>
    <path class="cls-1" d="M211.07,230.88c-.11,0-.22,0-.33.03-.03,0-.05.03-.05.06,0,.03.03.05.06.06.5.03.88.45.86.95-.02.51-.45.91-.95.89-.46-.01-.84-.37-.89-.82,0-.03-.03-.05-.06-.05h0s-.06.02-.06.05c0,.06-.02.12-.02.17-.03.77.58,1.41,1.34,1.44s1.41-.58,1.44-1.34c.03-.77-.58-1.41-1.34-1.44Z"/>
    <path class="cls-1" d="M244.67,250.73c-.1,0-.21,0-.33.03-.03,0-.05.03-.05.06,0,.03.03.06.06.06.5.03.88.45.86.95-.02.51-.45.91-.95.89-.46-.02-.84-.37-.89-.82,0-.03-.03-.05-.06-.05h0s-.06.02-.06.05c0,.06-.02.12-.02.17-.03.77.58,1.41,1.34,1.44.77.03,1.41-.58,1.44-1.34.03-.77-.58-1.41-1.34-1.44Z"/>
    <path class="cls-1" d="M236.68,252.34s-.05.03-.05.06c0,.03.03.05.06.06.5.03.88.45.86.95-.02.51-.45.91-.95.89-.46-.02-.84-.37-.89-.82,0-.03-.03-.05-.06-.05h0s-.06.02-.06.05c0,.06-.02.12-.02.17-.03.77.58,1.41,1.34,1.44.77.03,1.41-.58,1.44-1.34.03-.87-.75-1.6-1.67-1.41Z"/>
    <path class="cls-1" d="M228.91,253.59c-.11,0-.22,0-.33.03-.03,0-.05.03-.05.06,0,.03.03.05.06.06.5.03.88.45.86.95-.02.51-.45.91-.96.89-.46-.02-.84-.37-.89-.82,0-.03-.03-.05-.06-.05h0s-.06.02-.06.05c-.01.06-.02.12-.02.17-.03.77.58,1.41,1.34,1.44.77.03,1.41-.58,1.44-1.34.03-.77-.58-1.41-1.34-1.44Z"/>
    <path class="cls-1" d="M220.73,254.51c-.1,0-.21,0-.33.03-.03,0-.05.03-.05.06,0,.03.03.06.06.06.5.03.88.45.86.95-.02.51-.44.91-.95.89-.46-.02-.84-.37-.89-.82,0-.03-.03-.05-.06-.05h0s-.06.02-.06.05c-.01.06-.02.12-.02.17-.03.77.58,1.41,1.34,1.44.77.03,1.41-.58,1.44-1.34.03-.77-.58-1.41-1.34-1.44Z"/>
    <path class="cls-1" d="M212.76,254.77c-.11,0-.22,0-.33.03-.03,0-.05.03-.05.06,0,.03.03.05.06.06.5.03.88.45.86.95-.02.51-.45.91-.95.89-.46-.02-.84-.37-.89-.82,0-.03-.03-.05-.06-.05h0s-.06.02-.06.05c0,.06-.02.12-.02.17-.03.77.58,1.41,1.34,1.44.77.03,1.41-.58,1.44-1.34.03-.77-.58-1.41-1.34-1.44Z"/>
    <path class="cls-1" d="M185.45,60.8c0-.12,0-.24-.01-.36-.08-2.36.15-4.73.67-7.03.12-.54.26-1.07.42-1.6.44-1.5,1-2.96,1.68-4.35.74-1.52,1.63-2.96,2.64-4.27.67-.87,1.4-1.69,2.18-2.44,4.03-3.86,9.47-6,15.87-4.92,3.74.81,6.9,2.54,9.47,4.88.83.75,1.59,1.57,2.29,2.43,1.2,1.48,2.21,3.12,3.04,4.86.57,1.2,1.06,2.46,1.45,3.75.21.71.4,1.42.56,2.15.47,2.12.7,4.31.69,6.49-.01,2-.22,4-.64,5.95-.17.77-.37,1.52-.6,2.26-.18.57-.38,1.14-.59,1.7-.86,2.21-2.03,4.28-3.51,6.13-.91,1.14-1.94,2.19-3.1,3.13-1.15.94-2.43,1.78-3.83,2.49-1.99.95-4.14,1.56-6.35,1.8,3.74-.15,7.27-1.55,10.24-3.75,1.39-1.04,2.66-2.25,3.76-3.6.83-1.01,1.56-2.09,2.18-3.23.33-.57.63-1.15.91-1.74.44-.92.82-1.87,1.14-2.83.25-.74.47-1.5.65-2.26.47-1.94.72-3.94.77-5.94.05-1.97-.11-3.94-.46-5.88-.17-.93-.38-1.86-.65-2.77-.48-1.68-1.12-3.31-1.9-4.86-.67-1.32-1.44-2.58-2.32-3.76-.43-.58-.89-1.15-1.37-1.69-.22-.26-.44-.5-.67-.75-6.12-6.47-16.44-8.45-24.08-3.4-1.53.96-2.9,2.12-4.1,3.42-.71.76-1.36,1.58-1.96,2.43-.8,1.15-1.5,2.37-2.09,3.65-.73,1.58-1.31,3.24-1.72,4.95-.14.58-.26,1.17-.36,1.76-.39,2.27-.5,4.58-.32,6.84,0,.12.02.24.03.36Z"/>
    <path class="cls-1" d="M202.52,45.59c-.84,0-1.7.21-2.48.6-.59.29-1.12.68-1.56,1.17-.64.72-1.07,1.63-1.1,2.7v.47s.28-.37.28-.37c.54-.69,1.28-1.2,2.05-1.56.05-.02.09-.05.14-.07.82-.35,1.68-.52,2.38-.52.35,0,.68.04.96.12-1.57.63-2.49,1.73-2.86,2.89-.17.53-.22,1.08-.16,1.59.02.22.07.44.13.65l.16.52.14-.53c.13-.52.36-.99.64-1.41.22-.32.46-.61.73-.86.95-.91,2.13-1.4,2.82-1.42v1.39s0,5.92,0,5.92v1.36c-.01.44-.08.82-.16,1.16-.18.7-.45,1.18-.57,1.36l-.11.22h4.14l.23-.03-.11-.22c-.11-.16-.38-.63-.55-1.33-.08-.33-.15-.72-.15-1.15v-8.68c.69.02,1.87.51,2.82,1.42.27.26.52.55.74.87.28.41.51.88.64,1.4l.14.54.16-.53c.07-.22.11-.44.13-.67.05-.51,0-1.04-.17-1.57-.37-1.16-1.3-2.27-2.86-2.89.28-.08.61-.12.96-.12.7,0,1.56.17,2.39.53.05.02.09.05.14.07.77.35,1.5.86,2.04,1.55l.29.37v-.47c-.05-1.07-.46-1.97-1.1-2.69-.43-.48-.96-.87-1.55-1.17-.78-.39-1.66-.61-2.5-.61-.04,0-.08,0-.13,0-.17,0-.33.01-.49.03.21-.17.47-.32.75-.45.56-.26,1.22-.43,1.92-.49.15-.01.31-.02.47-.02.66,0,1.29.11,1.82.31l.45.17-.27-.4c-.79-1.17-2.19-1.88-3.74-1.88-1.08,0-2.12.35-2.95.99-.15-.42-.39-.8-.67-1.14-.22-.28-.46-.53-.67-.76l-.11-.12-.11.12c-.21.22-.45.47-.68.76-.27.33-.51.71-.67,1.14-.83-.64-1.87-.99-2.95-.99-1.54,0-2.94.7-3.74,1.87l-.28.4.46-.17c.54-.2,1.17-.31,1.82-.31.16,0,.32,0,.48.02.71.05,1.37.23,1.93.49.27.13.51.27.72.44-.15-.02-.31-.03-.47-.03-.05,0-.09,0-.14,0Z"/>
    <path class="cls-1" d="M210.9,72c-.18.31-.32.56-.45.74-.44.61-1.27,1.12-1.8,1.13h-.65s.59.29.59.29c.52.25,1.01.38,1.47.38.89,0,1.66-.47,2.34-1.43.88.61,1.61,1.03,2.24,1.28.76.3,1.53.46,2.28.46,1.84,0,3.24-.94,3.48-2.33l.04-.24-.24.07c-.71.2-1.36.3-1.99.3-.14,0-.28,0-.42-.02-.25-.02-.5-.05-.75-.1-.89-.18-1.81-.57-2.82-1.2-.19-.12-.39-.25-.59-.38.6-.92,1.16-1.28,1.58-1.42.17-.06.31-.07.43-.07.23,0,.37.07.37.07l.49.24-.29-.46c-.12-.19-.29-.36-.48-.5-.36-.26-.83-.42-1.31-.42-.61,0-1.19.25-1.62.7-.13.13-.26.29-.4.47-.07.09-.15.19-.22.3-.15-.12-.31-.25-.47-.39-.21-.18-.42-.36-.64-.54-.36-.31-.72-.61-1.09-.92-.13-.11-.26-.22-.4-.34-.53-.45-1.05-.9-1.58-1.34.26-.25.65-.59,1.15-.99,1.8-1.41,5.1-3.4,9.34-3.4,1.14,0,2.29.15,3.42.44l.55.14-.4-.4c-1.56-1.55-3.39-2.34-5.44-2.34-4.26,0-8.57,3.43-10.49,4.99-1.92-1.56-6.24-4.99-10.49-4.99-2.05,0-3.88.79-5.44,2.34l-.4.4.55-.14c1.13-.29,2.28-.44,3.42-.44,4.22,0,7.5,1.97,9.33,3.4.49.38.89.73,1.16.99-.52.44-1.05.89-1.58,1.34-.13.11-.26.22-.39.33-.36.31-.72.61-1.08.92-.22.18-.43.37-.65.55-.16.13-.31.26-.47.39-.07-.1-.14-.19-.21-.28-.14-.18-.27-.34-.41-.48-.43-.45-1.01-.7-1.62-.7-.48,0-.93.15-1.3.41-.2.14-.37.31-.49.51l-.29.47.49-.24s.14-.07.37-.07c.12,0,.27.02.45.08.41.14.96.51,1.55,1.41-.2.13-.39.26-.57.38-1.01.63-1.93,1.03-2.82,1.21-.25.05-.5.09-.75.1-.14.01-.29.02-.43.02-.63,0-1.28-.1-1.99-.3l-.24-.07.04.24c.24,1.39,1.64,2.33,3.48,2.33.75,0,1.51-.15,2.28-.46.63-.25,1.36-.67,2.24-1.28.68.96,1.45,1.43,2.34,1.43.46,0,.95-.13,1.47-.38l.59-.28h-.65c-.53-.02-1.35-.54-1.8-1.14-.13-.18-.28-.42-.45-.74.34-.26.68-.54,1.02-.83,1.06-.87,2.15-1.83,3.22-2.77l.52-.46.52.46c1.07.94,2.17,1.9,3.23,2.77.34.28.68.55,1.01.82Z"/>
    <path class="cls-1" d="M205.78,244.62c-.2-.12-.41-.24-.62-.36-5.04-2.8-11.9-3.44-17.3-1.67-.48.16-.95.33-1.4.53.49-.27.97-.56,1.44-.88,4.39-2.98,7.9-8.03,9.11-13.09.29-1.2.45-2.4.46-3.57-1.77.76-3.46,1.87-4.99,3.23-1.34,1.19-2.56,2.57-3.6,4.06-2.01,2.87-3.38,6.16-3.76,9.36.15-7-3.96-14.92-9.69-18.31-.82,6.81,2.8,14.95,8.25,19.02-2.35-1.42-5.14-2.35-8.02-2.75-4.47-.63-9.15,0-12.69,1.99,2.45,1.83,5.56,3.03,8.82,3.57,4.05.66,8.31.29,11.77-1.2-6.13,3.37-10.94,10.88-11.01,17.55,6.31-2.7,11.55-9.9,12.34-16.65-.06,2.84.58,5.83,1.75,8.61.54,1.28,1.18,2.51,1.92,3.66,1.62,2.52,3.69,4.66,6.03,6.04.21-1.75.12-3.59-.21-5.42-.86-4.77-3.41-9.52-6.86-12.62-.38-.34-.78-.67-1.18-.97.39.24.8.46,1.21.67,5.52,2.79,12.95,3.11,18.33.67.4-.18.79-.37,1.16-.59-.28-.21-.56-.4-.85-.59-.14-.09-.28-.18-.42-.27Z"/>
    <path class="cls-1" d="M198.83,237.18c.93-2.08,1.6-4.65,2.04-7.82.07-.47.13-.95.18-1.45,0-.04-.02-.08-.06-.09-.04-.01-.08,0-.09.04,0,0-.14.55-.46,1.47-.69,1.99-2.22,5.71-5.04,9.39-.02.03-.03.07-.01.1.01.03.05.05.09.05,6.79.15,11.91,2.5,11.91,2.5.04,0,.08,0,.09-.05.02-.04,0-.08-.03-.1-3.27-2.07-6.09-3.41-8.62-4.06Z"/>
    <path class="cls-1" d="M174.65,248.81s-.05-.05-.09-.05c-1.74-.04-3.37-.22-4.83-.47-4.25-.73-7.08-2.02-7.08-2.03-.04,0-.08,0-.09.05-.01.04,0,.08.03.1,2.16,1.36,4.11,2.4,5.92,3.14.94.38,1.84.69,2.7.91-1.07,2.38-1.79,5.42-2.22,9.27,0,.04.02.08.06.09.04.01.08,0,.09-.04,0,0,1.37-5.47,5.49-10.86.02-.03.03-.07.01-.1Z"/>
    <path class="cls-1" d="M163.27,238.05s5.42-1.55,12.16-.67c.04,0,.07,0,.09-.04.02-.03.02-.07,0-.1-.24-.45-.47-.89-.69-1.33-2.65-5.43-3.11-10.24-3.11-10.24-.01-.04-.05-.06-.09-.06-.04,0-.07.04-.07.08-.16,3.87.09,6.98.8,9.49-.29.03-.59.07-.89.12-2.39.36-5.09,1.22-8.24,2.6-.04.02-.06.06-.05.09,0,.04.05.06.08.06Z"/>
    <path class="cls-1" d="M206.77,249.59s-5.42,1.55-12.16.67c-.04,0-.07,0-.09.04-.02.03-.02.07,0,.1,1.67,3.04,2.62,5.99,3.16,8.16.51,2.07.64,3.41.64,3.41.01.04.05.06.09.06.04,0,.07-.04.07-.08.05-1.19.05-2.29.02-3.34-.07-2.37-.33-4.41-.82-6.15,2.6-.26,5.59-1.16,9.13-2.71.04-.02.05-.06.05-.09-.01-.04-.05-.06-.08-.06Z"/>
  </g>
  <g>
    <g>
      <g>
        <path class="cls-1" d="M33.27,498.63v-.1c1.51-2.9,1.89-4.66,1.89-8.52v-25.41l-5.15.19c-2.08.14-5.57,5.47-7.98,8.94l-.38-.14,1.79-9.8h28.84l1.79,9.8-.38.14c-2.55-3.47-5.85-8.8-7.98-8.94l-5.15-.19v25.41c0,3.95.33,5.57,1.89,8.52v.1h-9.21Z"/>
        <path class="cls-1" d="M56.83,498.54c.85-2.62,1.04-4.95,1.04-9.14v-19.03c0-3.09-.99-4.9-2.12-6.19v-.09l6.85-2.47v17.98c2.03-2.47,4.25-4.38,7.6-4.38,4.34,0,6.7,2.66,6.7,6.9v7.28c0,4.19.05,6.52,1.04,9.14v.1h-6.85v-.1c.9-2.66,1.09-5.14,1.09-9.14v-6.18c0-2.71-1.27-5.09-4.34-5.09-2.03,0-3.78.9-5.24,2.43v8.85c0,4.09.09,6.52,1.09,9.14v.1h-6.85v-.1Z"/>
        <path class="cls-1" d="M91.76,499.35c-6.28,0-10.62-5-10.62-11.66,0-7.61,5.71-12.47,10.91-12.47,5.52,0,9.25,5.09,9.02,9.28h-15.15v.9c0,6.71,3.3,9.9,8.26,9.9,2.88,0,5-1.14,6.66-3.19l.28.19c-1.27,3.95-4.44,7.04-9.35,7.04ZM86,483.74l10.24-.24v-.52c0-4.76-1.42-6.9-4.39-6.9-3.59,0-5.48,3.33-5.85,7.66Z"/>
        <path class="cls-1" d="M114.14,490.02v-17.6c0-3.85-.38-5.61-1.89-8.52v-.1h12.04c8.54,0,11.94,3.33,11.94,8.33,0,4-2.12,7.28-6.85,8.8l5.62,11.09c1.98,4,3.02,5.04,5.48,6.28v.33h-8.31l-8.5-16.8h-4.11v8.18c0,3.95.33,5.57,1.89,8.52v.1h-9.21v-.1c1.51-2.9,1.89-4.66,1.89-8.52ZM121.83,464.76c-.61,0-1.37,0-2.27.05v16.08h3.68c5.9,0,7.46-4.09,7.46-8.8,0-4.33-1.65-7.33-7.46-7.33h-1.42Z"/>
        <path class="cls-1" d="M141.42,487.31c0-6.33,5.52-12.08,12.09-12.08s12.13,5.76,12.13,12.08-5.52,12.04-12.13,12.04-12.09-5.61-12.09-12.04ZM160.45,487.31c0-5.71-2.12-11.13-6.94-11.13s-6.89,5.42-6.89,11.13,2.03,11.09,6.89,11.09,6.94-5.33,6.94-11.09Z"/>
        <path class="cls-1" d="M176.41,499.77l.05-.19-6.7-17.99c-1.13-3.09-1.89-4.38-2.88-5.57v-.1h7.93v.1c-.52.9-.94,3.05.19,6.09l3.97,10.71,4.01-10.8c.94-2.62.09-4.9-.71-5.99v-.1h5.33v.1c-1.6,1.71-2.5,3.09-3.49,5.85l-7.32,19.08c-2.55,6.52-5,7.99-8.21,8.37l-.09-4.57c1.65,0,6.18-.19,7.93-5Z"/>
        <path class="cls-1" d="M200.81,496.21c-1.46,1.67-3.78,3.14-6.8,3.14-2.83,0-5.05-1.33-5.05-4.04,0-4.81,6.8-7.18,11.76-7.95v-5.19c0-2.47-.99-4.09-4.34-4.09-1.84,0-4.25.48-6.28,2.14l-.24-.29c1.94-2.81,5.24-4.71,9.39-4.71,4.72,0,6.18,2.76,6.18,5.66v13.56c0,1.19.47,2.09,1.84,2.09.71,0,1.42-.19,2.31-.9l.09.09c-.76,1.52-2.08,3.47-4.96,3.47-2.41,0-3.59-1.33-3.92-3ZM200.72,495.4v-7.23c-3.73.86-7.32,2.43-7.32,5.57,0,1.86,1.23,3.05,3.45,3.05,1.65,0,3.07-.62,3.87-1.38Z"/>
        <path class="cls-1" d="M212.99,492.02v-21.65c0-3.09-.99-4.85-2.12-6.14v-.09l6.85-2.52v30.36c0,3.57.38,5.28,1.09,6.57v.1h-6.85v-.1c.61-1.33,1.04-2.95,1.04-6.52Z"/>
        <path class="cls-1" d="M232.82,490.02v-17.6c0-3.95-.33-5.57-1.89-8.52v-.1h9.21v.1c-1.56,2.95-1.89,4.57-1.89,8.52v17.6c0,3.95.33,5.57,1.89,8.52v.1h-9.21v-.1c1.56-2.95,1.89-4.57,1.89-8.52Z"/>
        <path class="cls-1" d="M244.67,498.63v-.1c.9-2.66,1.09-4.9,1.09-9.14v-5.61c0-3.19-.99-4.9-2.12-6.18v-.1l6.66-2.52v4.57l.19.05c2.03-2.47,4.25-4.38,7.6-4.38,4.34,0,6.66,2.66,6.66,6.9v7.23c0,4.33.09,6.52,1.09,9.18v.1h-6.85v-.1c.8-2.62,1.04-5.14,1.04-9.14v-6.18c0-2.71-1.18-5.09-4.34-5.09-2.03,0-3.82.9-5.19,2.38v8.85c0,4.14.09,6.57,1.04,9.18v.1h-6.85Z"/>
        <path class="cls-1" d="M283.85,481.46c-2.41-4.14-5.1-5.38-7.32-5.38-2.45,0-3.87,1.57-3.87,3.52,0,2.71,2.97,3.9,6.09,5.14,3.26,1.38,6.7,3.24,6.7,7.76s-3.92,6.85-8.83,6.85c-2.45,0-4.91-.52-6.94-1.24l-.47-6.09.28-.09c2.41,4.62,4.72,6.57,7.74,6.57s4.34-2.14,4.34-4.09c0-2.47-1.79-3.62-5-5-3.21-1.43-6.99-2.9-6.99-7.71s4.06-6.47,8.21-6.47c2.27,0,4.58.43,5.85.95l.47,5.19-.28.1Z"/>
        <path class="cls-1" d="M289.84,493.59v-16.8h-2.55v-.29l6.85-5.95h.47v5.38h6.09v.86h-6.09v16.65c0,2.33,1.09,3.52,3.3,3.52,1.65,0,2.88-.67,3.12-.81l.14.19c-1.32,1.86-3.4,3-6.04,3-2.83,0-5.29-1.28-5.29-5.76Z"/>
        <path class="cls-1" d="M305.14,489.4v-5.42c0-3.05-.99-4.85-2.12-6.14v-.33l6.85-2.52v14.37c0,4.04.05,6.57,1.04,9.18v.1h-6.85v-.1c.61-2.62,1.09-5,1.09-9.14ZM307.26,470.18c-1.56,0-2.83-1.28-2.83-2.85s1.27-2.9,2.83-2.9,2.83,1.33,2.83,2.9-1.27,2.85-2.83,2.85Z"/>
        <path class="cls-1" d="M316.28,493.59v-16.8h-2.55v-.29l6.85-5.95h.47v5.38h6.09v.86h-6.09v16.65c0,2.33,1.09,3.52,3.3,3.52,1.65,0,2.88-.67,3.12-.81l.14.19c-1.32,1.86-3.4,3-6.04,3-2.83,0-5.29-1.28-5.29-5.76Z"/>
        <path class="cls-1" d="M336.96,499.35c-4.01,0-6.09-3.14-6.09-8.09v-10.13c0-2.43-.8-4-1.98-5.09v-.1h6.7v14.56c0,3.38,1.51,5.04,4.15,5.04,2.27,0,3.68-1.28,4.58-3v-11.42c0-2.43-.76-4-2.08-5.09v-.1h6.8v14.61c0,5.04.61,5.9,2.12,7.04v.09l-6.61,1.52v-5.9c-1.65,3.09-3.73,6.04-7.6,6.04Z"/>
        <path class="cls-1" d="M356.03,493.59v-16.8h-2.55v-.29l6.85-5.95h.47v5.38h6.09v.86h-6.09v16.65c0,2.33,1.09,3.52,3.3,3.52,1.65,0,2.88-.67,3.12-.81l.14.19c-1.32,1.86-3.4,3-6.04,3-2.83,0-5.29-1.28-5.29-5.76Z"/>
        <path class="cls-1" d="M379.63,499.35c-6.28,0-10.62-5-10.62-11.66,0-7.61,5.71-12.47,10.91-12.47,5.52,0,9.25,5.09,9.02,9.28h-15.15v.9c0,6.71,3.3,9.9,8.26,9.9,2.88,0,5-1.14,6.66-3.19l.28.19c-1.27,3.95-4.44,7.04-9.35,7.04ZM373.87,483.74l10.24-.24v-.52c0-4.76-1.42-6.9-4.39-6.9-3.59,0-5.48,3.33-5.85,7.66Z"/>
      </g>
      <g>
        <path class="cls-1" d="M26.95,541.45c0-6.33,5.52-12.08,12.09-12.08s12.13,5.76,12.13,12.08-5.52,12.04-12.13,12.04-12.09-5.61-12.09-12.04ZM45.97,541.45c0-5.71-2.12-11.13-6.94-11.13s-6.89,5.42-6.89,11.13,2.03,11.09,6.89,11.09,6.94-5.33,6.94-11.09Z"/>
        <path class="cls-1" d="M56.64,546.16v-15.23h-2.97v-.86h2.97v-3.14c0-7.04,4.44-11.18,9.49-11.18,1.46,0,2.93.33,3.64.67l.52,5-.28.1c-.99-1.62-2.88-4.9-5.1-4.9-1.89,0-3.54,2.85-3.54,8.23v5.23h5.57v.86h-5.57v15.23c0,3.62.38,5.23,1.09,6.52v.1h-6.94v-.1c.8-1.28,1.13-2.9,1.13-6.52Z"/>
        <path class="cls-1" d="M88.13,552.78v-.1c1.51-2.9,1.89-4.66,1.89-8.52v-25.41l-5.15.19c-2.08.14-5.57,5.47-7.98,8.94l-.38-.14,1.79-9.8h28.84l1.79,9.8-.38.14c-2.55-3.47-5.85-8.8-7.98-8.94l-5.15-.19v25.41c0,3.95.33,5.57,1.89,8.52v.1h-9.21Z"/>
        <path class="cls-1" d="M110.46,552.68c.9-2.66,1.09-4.9,1.09-9.14v-5.61c0-3.19-.99-4.9-2.12-6.18v-.1l6.66-2.52v5.8h.19c1.89-2.28,4.44-5.57,7.51-5.57l-.09,5.8h-.19c-.85-.76-3.21-1.43-4.2-1.43-.76,0-1.94.67-3.02,2.14v7.61c0,4.14.09,6.57,1.04,9.18v.1h-6.85v-.1Z"/>
        <path class="cls-1" d="M138.36,550.35c-1.46,1.67-3.78,3.14-6.8,3.14-2.83,0-5.05-1.33-5.05-4.04,0-4.81,6.8-7.18,11.76-7.95v-5.19c0-2.47-.99-4.09-4.34-4.09-1.84,0-4.25.48-6.28,2.14l-.24-.29c1.94-2.81,5.24-4.71,9.39-4.71,4.72,0,6.18,2.76,6.18,5.66v13.56c0,1.19.47,2.09,1.84,2.09.71,0,1.42-.19,2.31-.9l.09.09c-.76,1.52-2.08,3.47-4.96,3.47-2.41,0-3.59-1.33-3.92-3ZM138.26,549.54v-7.23c-3.73.86-7.32,2.43-7.32,5.57,0,1.86,1.23,3.05,3.45,3.05,1.65,0,3.07-.62,3.87-1.38Z"/>
        <path class="cls-1" d="M157.62,553.49c-5.52,0-9.06-4.71-9.06-11.04,0-6.9,4.2-13.08,12.32-13.08,1.84,0,3.45.33,4.77.86v-5.66c0-3.19-.99-4.9-2.12-6.19v-.09l6.85-2.52v26.88c0,6.42.57,7.71,2.17,9.09v.09l-6.7,1.52v-4.66h-.14c-1.37,2.47-4.2,4.81-8.07,4.81ZM165.64,547.73v-12.23c-.9-4.04-3.21-5.28-5.38-5.28-4.15,0-6.75,4.38-6.75,10.61,0,5.71,2.17,9.47,6.56,9.47,2.46,0,4.3-1.05,5.57-2.57Z"/>
        <path class="cls-1" d="M177.73,543.55v-5.42c0-3.05-.99-4.85-2.12-6.14v-.33l6.85-2.52v14.37c0,4.04.05,6.57,1.04,9.18v.1h-6.85v-.1c.61-2.62,1.09-5,1.09-9.14ZM179.85,524.32c-1.56,0-2.83-1.28-2.83-2.85s1.27-2.9,2.83-2.9,2.83,1.33,2.83,2.9-1.27,2.85-2.83,2.85Z"/>
        <path class="cls-1" d="M188.96,547.73v-16.8h-2.55v-.29l6.85-5.95h.47v5.38h6.09v.86h-6.09v16.65c0,2.33,1.09,3.52,3.3,3.52,1.65,0,2.88-.67,3.12-.81l.14.19c-1.32,1.86-3.4,3-6.04,3-2.83,0-5.29-1.28-5.29-5.76Z"/>
        <path class="cls-1" d="M204.77,543.55v-5.42c0-3.05-.99-4.85-2.12-6.14v-.33l6.85-2.52v14.37c0,4.04.05,6.57,1.04,9.18v.1h-6.85v-.1c.61-2.62,1.09-5,1.09-9.14ZM206.9,524.32c-1.56,0-2.83-1.28-2.83-2.85s1.27-2.9,2.83-2.9,2.83,1.33,2.83,2.9-1.27,2.85-2.83,2.85Z"/>
        <path class="cls-1" d="M214.22,541.45c0-6.33,5.52-12.08,12.09-12.08s12.13,5.76,12.13,12.08-5.52,12.04-12.13,12.04-12.09-5.61-12.09-12.04ZM233.24,541.45c0-5.71-2.12-11.13-6.94-11.13s-6.89,5.42-6.89,11.13,2.03,11.09,6.89,11.09,6.94-5.33,6.94-11.09Z"/>
        <path class="cls-1" d="M242.35,552.78v-.1c.9-2.66,1.09-4.9,1.09-9.14v-5.61c0-3.19-.99-4.9-2.12-6.18v-.1l6.66-2.52v4.57l.19.05c2.03-2.47,4.25-4.38,7.6-4.38,4.34,0,6.66,2.66,6.66,6.9v7.23c0,4.33.09,6.52,1.09,9.18v.1h-6.85v-.1c.8-2.62,1.04-5.14,1.04-9.14v-6.18c0-2.71-1.18-5.09-4.34-5.09-2.03,0-3.82.9-5.19,2.38v8.85c0,4.14.09,6.57,1.04,9.18v.1h-6.85Z"/>
        <path class="cls-1" d="M279.17,550.35c-1.46,1.67-3.78,3.14-6.8,3.14-2.83,0-5.05-1.33-5.05-4.04,0-4.81,6.8-7.18,11.76-7.95v-5.19c0-2.47-.99-4.09-4.34-4.09-1.84,0-4.25.48-6.28,2.14l-.24-.29c1.94-2.81,5.24-4.71,9.39-4.71,4.72,0,6.18,2.76,6.18,5.66v13.56c0,1.19.47,2.09,1.84,2.09.71,0,1.42-.19,2.31-.9l.09.09c-.76,1.52-2.08,3.47-4.96,3.47-2.41,0-3.59-1.33-3.92-3ZM279.08,549.54v-7.23c-3.73.86-7.32,2.43-7.32,5.57,0,1.86,1.23,3.05,3.45,3.05,1.65,0,3.07-.62,3.87-1.38Z"/>
        <path class="cls-1" d="M291.21,546.16v-21.65c0-3.09-.99-4.85-2.12-6.14v-.09l6.85-2.52v30.36c0,3.57.38,5.28,1.09,6.57v.1h-6.85v-.1c.61-1.33,1.04-2.95,1.04-6.52Z"/>
        <path class="cls-1" d="M307.78,552.78v-.1c2.27-2.43,3.12-4.47,4.49-8.18l10.15-26.93h.94l10.34,27.45c1.51,4.14,2.64,5.99,4.3,7.66v.1h-9.39v-.1c.8-1.38.8-4.33-.52-7.9l-1.94-5.14h-11.09l-.99,2.66c-2.12,5.52-.9,8.85.09,10.37v.1h-6.37ZM315.43,538.69h10.34l-5.15-13.75-5.19,13.75Z"/>
        <path class="cls-1" d="M340.64,552.68c.9-2.66,1.09-4.9,1.09-9.14v-5.61c0-3.19-.99-4.9-2.12-6.18v-.1l6.66-2.52v5.8h.19c1.89-2.28,4.44-5.57,7.51-5.57l-.09,5.8h-.19c-.85-.76-3.21-1.43-4.2-1.43-.76,0-1.94.67-3.02,2.14v7.61c0,4.14.09,6.57,1.04,9.18v.1h-6.85v-.1Z"/>
        <path class="cls-1" d="M358.77,547.73v-16.8h-2.55v-.29l6.85-5.95h.47v5.38h6.09v.86h-6.09v16.65c0,2.33,1.09,3.52,3.3,3.52,1.65,0,2.88-.67,3.12-.81l.14.19c-1.32,1.86-3.4,3-6.04,3-2.83,0-5.29-1.28-5.29-5.76Z"/>
        <path class="cls-1" d="M387.14,535.6c-2.41-4.14-5.1-5.38-7.32-5.38-2.45,0-3.87,1.57-3.87,3.52,0,2.71,2.97,3.9,6.09,5.14,3.26,1.38,6.7,3.24,6.7,7.76s-3.92,6.85-8.83,6.85c-2.45,0-4.91-.52-6.94-1.24l-.47-6.09.28-.09c2.41,4.62,4.72,6.57,7.74,6.57s4.34-2.14,4.34-4.09c0-2.47-1.79-3.62-5-5-3.21-1.43-6.99-2.9-6.99-7.71s4.06-6.47,8.21-6.47c2.27,0,4.58.43,5.85.95l.47,5.19-.28.1Z"/>
      </g>
    </g>
    <path class="cls-1" d="M181.44,364.44c3.27,0,5.34-1.88,6.32-4.82,0,0,0-.02.01-.03,1.11-5,.87-7.59.68-31.47l2.31,2.36.25-.18-4.01-11.7h-.18l-3.48,3.12c.43.46.83,1.57.88,2.51.29,5.07,1.06,22.58,1.3,32.89-.34,1.55-2.46,1.35-4.58,1.35h-1.78c-2.56,0-5.24-1.34-5.6-4.75-.24-2.8-1.34-8.29-6.34-8.29-4.63,0-7.55,4.02-10.96,9.63-1.83,2.97-4.4,3.37-7.93,3.41-.17,0-.35,0-.53,0h-53.81c-3.17,0-4.87-1.71-4.87-4.88v-35.08h-.24l-4.03,3.05,1.46,33.02c0,2.44-1.34,3.66-5.85,3.66-3.29,0-6.21-2.56-9.01-5.48-6.58-6.94-14.25-12.43-22.9-18.03l29.12-9.86,2.68-5.97-.12-.12-30.58,12.18c-.49.24-2.8,6.09-2.56,6.33,8.53,6.46,15.23,12.79,15.47,16.2,0,3.17-10.72,4.14-20.34,3.78l-.12.24c1.83,2.19,4.63,4.63,9.99,5.24-2.56,5.11-7.92,7.67-14.74,7.67-12.79,0-16.81-10.84-11.33-24.24h-.36c-5.24,10.84-6.09,30.46,11.09,30.46,7.92,0,15.35-4.51,15.96-13.89,7.34.24,11.23-4.76,10.26-12.28,5.35,4.51,10.95,13.37,18.37,13.5,3.05-.09,4.69-1.51,5.63-4.21,1,2.36,3.42,4.21,6.8,4.21h53.7c.38,0,.75-.01,1.1-.04h0c4.2-.35,6.27-2.34,7.71-5.38.81,3.18,4.56,6.88,9.51,6.88,2.73,0,5.65-.31,7.55-4.31.96,1.56,2.96,3.33,6.36,3.33h1.78ZM198.67,365.43h.16l1.8-5.07c.64-1.79.97-3.68.97-5.59l.05-26.45,2.31,2.36.25-.18-4.2-11.88h-.2l-3.11,3.19c.43.46.56,2.1.61,3.04.35,6.05,1.36,32.45,1.36,40.58ZM166.49,350.19c3.53,0,6.45,2.8,6.45,5.48,0,3.17-2.8,4.26-6.45,4.26-2.68,0-6.46-.49-9.38-3.77,3.78-5.6,7.07-5.97,9.38-5.97Z"/>
    <path class="cls-1" d="M236.52,401.87h-.24l-3.53,5.6c2.68,2.56,7.55,7.92,7.55,13.04s-4.87,10.72-14.01,11.09c-13.28.49-17.42-10.23-11.82-23.88h-.37c-5.48,11.09-7.07,30.33,11.09,29.72,9.5-.24,15.23-7.55,15.84-16.93,0-7.07-.85-12.06-4.51-18.64Z"/>
    <rect class="cls-1" x="321.38" y="395.63" width="5.12" height="5.12" transform="translate(-186.69 345.74) rotate(-45.01)"/>
    <rect class="cls-1" x="221.73" y="399.21" width="5.12" height="5.12" transform="translate(-218.4 276.28) rotate(-45)"/>
    <rect class="cls-1" x="350.73" y="393.84" width="5.12" height="5.12" transform="translate(-176.82 365.92) rotate(-45)"/>
    <polygon class="cls-1" points="66.3 376.32 69.92 372.7 66.3 369.07 62.67 372.7 59.05 369.07 55.43 372.7 59.05 376.32 62.67 372.7 66.3 376.32"/>
    <path class="cls-1" d="M367.88,364.44c3.27,0,5.34-1.88,6.32-4.82,0,0,0-.02.01-.03,1.12-5,.87-7.59.68-31.47l2.31,2.36.25-.18-4.01-11.7h-.18l-3.48,3.12c.43.46.83,1.58.88,2.51.29,5.07,1.06,22.58,1.3,32.89-.34,1.55-2.46,1.35-4.58,1.35h-1.78c-2.56,0-5.24-1.34-5.6-4.75-.24-2.8-1.34-8.29-6.34-8.29-4.63,0-7.55,4.02-10.96,9.63-1.83,2.97-4.4,3.37-7.93,3.4-.17,0,2.21,0,2.04,0h-3.8s0,0-.01,0c-2.89,0-6.04-.25-9.13-.92,2.59-2.22,4.13-5.08,4.13-8.7,0-5.48-4.14-7.92-9.01-7.92-5.24,0-11.08,2.8-13.4,8.04l.12.24c.65-.62,1.4-1.16,2.21-1.63,1.52,3.67,4.16,6.91,7.33,9.52-3.64.88-7.76,1.37-11.85,1.37h-46.01c-1.33,0-2.39.09-3.33.26,1.38-1.47,2.23-3.17,2.23-5.01,0-5.11-3.66-8.29-7.07-11.57l.98-1.7-.25-.24c-4.51,7.49-7.58,13.83-8.68,18.58-3.99-.01-7.76-1.06-9.71-3.97-.3-.44-.52-.93-.71-1.43l-7.33-18.91h-.24l-3.05,3.78c2.64,5.17,5.43,11.14,8.13,16.73-2.28,1.16-6.6,2.52-11.54,2.52-3.54,0-7.07-1.95-5.36-6.58h-.24c-3.78,8.89.49,12.79,5.85,12.79,3.41,0,7.19-.36,11.33-2.8l.71-3.54c2.1,5.04,7.74,6.65,11.8,6.56.61,7,5.01,10.99,9.42,10.99,3.41,0,7.43-2.07,7.43-7.43,0-1.29-.23-2.51-.53-3.58.78.03,1.57.05,2.36.05h38.82c8.01,0,15.77-1.11,21.34-3.77,4.23,2.4,8.86,3.77,12.9,3.77.13,0,.25,0,.38-.01h0s3.43,0,3.43,0c.38,0-1.81-.01-1.46-.04h0c4.19-.35,6.27-2.34,7.71-5.38.81,3.18,4.56,6.88,9.51,6.88,2.73,0,5.65-.31,7.54-4.31.96,1.56,2.96,3.33,6.36,3.33h1.78ZM385.11,365.42h.16l1.8-5.07c.64-1.79.97-3.68.97-5.59l.05-26.45,2.31,2.36.25-.18-4.2-11.88h-.2l-3.11,3.19c.43.46.56,2.1.61,3.04.35,6.05,1.36,32.45,1.36,40.58ZM352.93,350.19c3.53,0,6.46,2.8,6.46,5.48,0,3.17-2.8,4.26-6.46,4.26-2.68,0-6.46-.49-9.38-3.77,3.78-5.6,7.07-5.97,9.38-5.97ZM308.61,347.2c3.22-1.63,7.28-2.25,10.37-2.25,5.24,0,8.29,1.83,8.29,3.9,0,2.92-3.41,5.45-8.39,7.19-4.23-1.71-7.98-4.49-10.27-8.84ZM247.52,345.43c2.56,1.83,8.04,5.97,8.04,8.41,0,1.89-7.13,4.82-13.83,4.93.98-3.98,3.19-9.12,5.79-13.34ZM247.93,362.57c1.94.53,3.88.88,5.81,1.09,1.95,1.1,3.19,2.12,3.28,3.7,0,1.59-3.9,2.56-6.82,2.56-3.86,0-8.11-1.71-8.88-6.01,2.25-.1,4.53-.57,6.61-1.34Z"/>
    <path class="cls-1" d="M386.46,382.78l-3.48,3.12c.43.46.83,1.58.88,2.51.29,5.07,1.06,22.65,1.3,32.96-.33,1.48-2.27,1.36-4.28,1.35h0c-.57,0-1.45-.02-2.12-.02-3.17,0-4.87-1.7-4.87-4.88v-34.84h-.24l-4.03,3.05,1.46,33.01c0,2.44-1.34,3.66-5.85,3.66-2.35,0-4.62,0-6.94-.32,4.51-4.57,3.47-16.98-4.64-16.98-7.05.11-12.29,9.77-7.42,17.3-4.62,0-11.21-.1-13.17-2.07l.85-9.38h-.36l-2.56,10.6c-2.19.73-3.9.85-8.28.98h-59.14c-.63-6.08-3.75-13.4-8.41-13.4s-8.04,6.82-8.04,10.48c0,3.29.62,8.41,9.14,8.41h6.53c-2.48,8.36-15.89,9.84-23.59,7.31l-.13.24c3.54,2.43,8.16,5.48,11.33,5.36,7.24-.42,12.11-6.71,13.25-12.91h58.45c4.68,0,8.06.24,10.07-3.8,3.02,5.67,14.58,5.24,20.28,1.67,2.53,1.7,6.34,2.66,10.1,2.66,4.95,0,7.89-1.5,9.29-4.36.91,2.61,3.39,4.85,6.92,4.85.76,0,2.66-.01,4.08-.33.82-.15,1.63-.72,2.34-1.42,1.68-1.63,2.45-4.35,2.75-6.67.51-3.99.32-9.44.17-28.61l2.31,2.36.25-.18-4.01-11.7h-.18ZM254.67,422.82c-6.09,0-6.82-1.7-6.82-2.92,0-.85,1.71-5.36,6.58-5.36s7.64,4.36,8.33,8.29h-8.09ZM345,416c.24-3.17,4.39-5.85,8.16-5.85s7.31,2.92,6.94,6.21c-.12,2.93-3.17,4.63-7.55,5.6-4.99-.97-7.67-3.05-7.55-5.97Z"/>
    <g>
      <path class="cls-1" d="M54.09,405.9l-3.53,5.6c1.46,1.34,6.21,6.21,6.94,9.26-2.92,1.22-6.33,1.71-9.14,1.71-7.43,0-6.82-5.73-7.43-14.62-.12-1.34-.36-6.46-.36-7.19h-.24l-3.66,2.68c.16,1.21.31,2.34.45,3.42-5.1,1.81-12.32,5.13-13.24,9.74-2.07,9.75,12.43,7.92,14.01,7.43l1.26-2.52c1.04,7.42,9.93,8.8,18.23,4.59,2.31-7.67.61-13.52-3.05-20.1h-.24ZM24.6,416.37c.43-2.17,8.41-3.96,13.16-4.83.43,3.14.76,5.46.99,7.03-5.15.54-14.79.89-14.15-2.19Z"/>
      <polygon class="cls-1" points="31.26 394.68 34.88 398.3 38.51 394.68 34.88 391.05 31.26 394.68 27.64 391.05 24.02 394.68 27.64 398.3 31.26 394.68"/>
      <polygon class="cls-1" points="47.62 436.58 44 432.96 40.37 436.58 44 440.21 47.62 436.59 51.24 440.21 54.86 436.58 51.24 432.96 47.62 436.58"/>
      <polygon class="cls-1" points="91.06 436.58 87.44 432.96 83.81 436.58 87.44 440.21 91.06 436.59 94.68 440.21 98.3 436.58 94.68 432.96 91.06 436.58"/>
      <polygon class="cls-1" points="153.89 394.68 150.27 391.05 146.64 394.68 150.27 398.3 153.89 394.68 157.51 398.3 161.13 394.68 157.51 391.05 153.89 394.68"/>
      <polygon class="cls-1" points="172.29 391.27 168.66 394.89 172.29 398.51 168.66 402.13 172.29 405.75 175.91 402.13 172.29 398.51 175.91 394.89 172.29 391.27"/>
      <path class="cls-1" d="M199.03,382.8l-3.11,3.19c.43.46.56,2.1.61,3.04.35,6.05,1.36,32.45,1.36,40.58h.16l1.8-5.07c.64-1.79.97-3.68.97-5.59l.05-26.45,2.31,2.36.25-.18-4.2-11.88h-.2Z"/>
      <path class="cls-1" d="M125.61,428.74c3.04.02,6.09-1.47,7.95-5.36,2.51,6.24,13.23,6.41,19.75,2.32,2.53,1.87,6.38,3.09,10.17,3.09s7.34-.25,9.45-4.49c1.36,2.51,4.29,4.1,7.56,4.26.11,0,.22.03.3.03.22,0,.43,0,.64-.03.04,0,.08,0,.12,0,1.41-.14,2.54-.65,3.44-1.47.9-.81,1.55-1.93,1.99-3.29,0,0,0-.02,0-.03,1.12-5,.88-7.59.68-31.47l2.3,2.35.26-.18-4.01-11.7h-.18l-3.48,3.12c.43.46.83,1.58.88,2.51.29,5.08,1.06,22.64,1.3,32.96-.26,1.21-1.61,1.35-3.19,1.36h-.13c-.56,0-1.12-.02-1.62-.02-1.47,0-4.27-.25-5.72-1.7l.85-9.38h-.36l-2.56,10.23c-1.59.49-3.04.73-5.35.86-2.36,0-4.8,0-7.18-.33,4.51-4.57,3.46-16.97-4.65-16.97-7.05.11-12.28,9.77-7.41,17.3-5.83.1-11.23,1.22-11.46-4.76v-35.09h-.25l-4.03,3.05,1.47,32.52c.13,3.33-3.6,4.22-7.33,4.03h-19.95c-3.1-.16-6.19-1.07-7.08-1.96l.85-9.38h-.36l-2.56,9.99c-3.77,1.58-10.81,2.38-13.16-2.07l-7.55-19.49h-.24l-3.05,3.78c2.64,5.17,5.66,10.98,8.36,16.57-2.28,1.16-6.83,2.67-11.78,2.67-3.53,0-7.07-1.95-5.36-6.58h-.25c-3.77,8.9.49,12.79,5.85,12.79,3.41,0,7.19-.36,11.33-2.8l.7-3.91c2.88,7.89,9.96,7.54,13.62,5.35.8-.49,1.57-1.91,2.17-2.93,1.69,2.41,4.98,4.22,8.29,4.24h19.95ZM146.18,416c.24-3.16,4.39-5.84,8.16-5.84s7.32,2.92,6.95,6.21c-.12,2.93-3.17,4.64-7.56,5.6-4.99-.97-7.67-3.04-7.55-5.97Z"/>
    </g>
  </g>
</svg>