<svg width="1080" height="1250" viewBox="0 0 1080 1250" fill="none" xmlns="http://www.w3.org/2000/svg">
<g clip-path="url(#clip0_4822_51408)">
<path d="M127.62 1119.15V1118.92C131.22 1112 132.12 1107.8 132.12 1098.61V1038L119.85 1038.45C114.9 1038.79 106.56 1051.5 100.82 1059.79L99.9199 1059.45L104.2 1036.07H173L177.28 1059.45L176.38 1059.79C170.3 1051.51 162.42 1038.79 157.35 1038.45L145.08 1038V1098.6C145.08 1108.02 145.87 1111.88 149.58 1118.91V1119.14H127.62V1119.15Z" fill="white"/>
<path d="M183.811 1118.92C185.841 1112.68 186.291 1107.12 186.291 1097.13V1051.73C186.291 1044.35 183.931 1040.04 181.221 1036.98V1036.75L197.551 1030.85V1073.75C202.391 1067.85 207.691 1063.31 215.681 1063.31C226.041 1063.31 231.671 1069.66 231.671 1079.77V1097.13C231.671 1107.12 231.781 1112.68 234.151 1118.92V1119.15H217.821V1118.92C219.961 1112.57 220.411 1106.66 220.411 1097.13V1082.38C220.411 1075.91 217.371 1070.24 210.051 1070.24C205.211 1070.24 201.041 1072.4 197.551 1076.03V1097.14C197.551 1106.9 197.781 1112.69 200.141 1118.93V1119.16H183.811V1118.92Z" fill="white"/>
<path d="M267.141 1120.85C252.161 1120.85 241.801 1108.93 241.801 1093.04C241.801 1074.88 255.431 1063.31 267.811 1063.31C280.991 1063.31 289.881 1075.45 289.321 1085.44H253.171V1087.6C253.171 1103.6 261.051 1111.21 272.881 1111.21C279.751 1111.21 284.821 1108.49 288.761 1103.61L289.441 1104.06C286.401 1113.47 278.851 1120.85 267.141 1120.85ZM253.401 1083.63L277.841 1083.06V1081.81C277.841 1070.46 274.461 1065.35 267.371 1065.35C258.811 1065.36 254.301 1073.3 253.401 1083.63Z" fill="white"/>
<path d="M320.52 1098.61V1056.62C320.52 1047.43 319.62 1043.23 316.02 1036.31V1036.08H344.74C365.12 1036.08 373.23 1044.02 373.23 1055.94C373.23 1065.47 368.16 1073.3 356.9 1076.94L370.3 1103.38C375.03 1112.91 377.51 1115.41 383.36 1118.36V1119.15H363.54L343.27 1079.09H333.47V1098.61C333.47 1108.03 334.26 1111.89 337.98 1118.92V1119.15H316.02V1118.92C319.61 1112 320.52 1107.8 320.52 1098.61ZM338.87 1038.34C337.41 1038.34 335.6 1038.34 333.46 1038.45V1076.81H342.24C356.32 1076.81 360.03 1067.05 360.03 1055.81C360.03 1045.48 356.09 1038.33 342.24 1038.33H338.87V1038.34Z" fill="white"/>
<path d="M385.6 1092.14C385.6 1077.05 398.77 1063.31 414.43 1063.31C430.2 1063.31 443.37 1077.04 443.37 1092.14C443.37 1107.46 430.19 1120.85 414.43 1120.85C398.55 1120.85 385.6 1107.46 385.6 1092.14ZM430.98 1092.14C430.98 1078.52 425.91 1065.58 414.43 1065.58C403.06 1065.58 397.99 1078.52 397.99 1092.14C397.99 1105.87 402.83 1118.58 414.43 1118.58C426.03 1118.58 430.98 1105.87 430.98 1092.14Z" fill="white"/>
<path d="M469.039 1121.87L469.149 1121.42L453.159 1078.52C450.459 1071.14 448.659 1068.08 446.289 1065.24V1065.01H465.209V1065.24C463.969 1067.4 462.959 1072.5 465.659 1079.77L475.119 1105.31L484.689 1079.55C486.939 1073.31 484.919 1067.86 482.999 1065.25V1065.02H495.729V1065.25C491.899 1069.34 489.759 1072.63 487.399 1079.21L469.949 1124.72C463.869 1140.27 458.009 1143.79 450.359 1144.69L450.129 1133.79C454.069 1133.79 464.879 1133.34 469.039 1121.87Z" fill="white"/>
<path d="M527.26 1113.36C523.77 1117.33 518.25 1120.85 511.04 1120.85C504.28 1120.85 498.99 1117.67 498.99 1111.2C498.99 1099.74 515.21 1094.06 527.03 1092.25V1079.88C527.03 1073.98 524.67 1070.12 516.67 1070.12C512.28 1070.12 506.54 1071.25 501.69 1075.23L501.13 1074.55C505.75 1067.85 513.63 1063.31 523.54 1063.31C534.8 1063.31 538.29 1069.89 538.29 1076.82V1109.16C538.29 1112 539.42 1114.15 542.68 1114.15C544.37 1114.15 546.06 1113.7 548.2 1111.99L548.43 1112.22C546.63 1115.85 543.48 1120.5 536.61 1120.5C530.86 1120.51 528.05 1117.33 527.26 1113.36ZM527.03 1111.43V1094.18C518.13 1096.22 509.58 1099.97 509.58 1107.46C509.58 1111.89 512.51 1114.72 517.8 1114.72C521.74 1114.72 525.12 1113.25 527.03 1111.43Z" fill="white"/>
<path d="M556.31 1103.37V1051.73C556.31 1044.35 553.95 1040.15 551.24 1037.09V1036.86L567.57 1030.84V1103.25C567.57 1111.76 568.47 1115.85 570.16 1118.91V1119.14H553.83V1118.91C555.3 1115.74 556.31 1111.89 556.31 1103.37Z" fill="white"/>
<path d="M603.61 1098.61V1056.62C603.61 1047.2 602.82 1043.34 599.11 1036.31V1036.08H621.07V1036.31C617.35 1043.35 616.56 1047.21 616.56 1056.62V1098.61C616.56 1108.03 617.35 1111.89 621.07 1118.92V1119.15H599.1V1118.92C602.82 1111.89 603.61 1108.03 603.61 1098.61Z" fill="white"/>
<path d="M631.871 1119.15V1118.92C634.011 1112.57 634.461 1107.23 634.461 1097.13V1083.74C634.461 1076.14 632.101 1072.05 629.391 1068.99V1068.76L645.271 1062.75V1073.65L645.721 1073.76C650.561 1067.86 655.861 1063.32 663.851 1063.32C674.211 1063.32 679.731 1069.67 679.731 1079.78V1097.03C679.731 1107.36 679.961 1112.58 682.321 1118.93V1119.16H665.991V1118.93C667.911 1112.69 668.471 1106.67 668.471 1097.14V1082.39C668.471 1075.92 665.661 1070.25 658.111 1070.25C653.271 1070.25 648.991 1072.41 645.721 1075.92V1097.03C645.721 1106.9 645.951 1112.69 648.201 1118.93V1119.16H631.871V1119.15Z" fill="white"/>
<path d="M725.33 1078.18C719.59 1068.31 713.17 1065.36 707.88 1065.36C702.02 1065.36 698.65 1069.1 698.65 1073.76C698.65 1080.23 705.74 1083.07 713.18 1086.02C720.95 1089.31 729.17 1093.74 729.17 1104.52C729.17 1115.76 719.82 1120.86 708.11 1120.86C702.25 1120.86 696.4 1119.61 691.56 1117.91L690.43 1103.38L691.1 1103.15C696.84 1114.16 702.36 1118.81 709.57 1118.81C717.11 1118.81 719.93 1113.7 719.93 1109.05C719.93 1103.15 715.65 1100.43 707.99 1097.13C700.33 1093.73 691.32 1090.21 691.32 1078.75C691.32 1067.29 701 1063.32 710.91 1063.32C716.32 1063.32 721.83 1064.34 724.87 1065.59L726 1077.96L725.33 1078.18Z" fill="white"/>
<path d="M739.631 1107.12V1067.06H733.551V1066.38L749.881 1052.19H751.011V1065.01H765.541V1067.05H751.011V1106.77C751.011 1112.33 753.601 1115.17 758.891 1115.17C762.831 1115.17 765.761 1113.58 766.321 1113.24L766.661 1113.69C763.511 1118.12 758.551 1120.84 752.251 1120.84C745.491 1120.85 739.631 1117.79 739.631 1107.12Z" fill="white"/>
<path d="M776.121 1097.13V1084.19C776.121 1076.93 773.761 1072.61 771.051 1069.55V1068.75L787.381 1062.74V1097.01C787.381 1106.66 787.491 1112.67 789.861 1118.91V1119.14H773.531V1118.91C774.991 1112.68 776.121 1107.01 776.121 1097.13ZM781.181 1051.28C777.461 1051.28 774.421 1048.22 774.421 1044.47C774.421 1040.72 777.461 1037.55 781.181 1037.55C784.901 1037.55 787.941 1040.73 787.941 1044.47C787.941 1048.22 784.901 1051.28 781.181 1051.28Z" fill="white"/>
<path d="M802.689 1107.12V1067.06H796.609V1066.38L812.939 1052.19H814.069V1065.01H828.599V1067.05H814.069V1106.77C814.069 1112.33 816.659 1115.17 821.949 1115.17C825.889 1115.17 828.819 1113.58 829.379 1113.24L829.719 1113.69C826.569 1118.12 821.609 1120.84 815.309 1120.84C808.549 1120.85 802.689 1117.79 802.689 1107.12Z" fill="white"/>
<path d="M852.01 1120.85C842.44 1120.85 837.48 1113.36 837.48 1101.56V1077.39C837.48 1071.6 835.57 1067.86 832.75 1065.25V1065.02H848.74V1099.75C848.74 1107.81 852.34 1111.78 858.65 1111.78C864.06 1111.78 867.43 1108.72 869.57 1104.63V1077.39C869.57 1071.6 867.77 1067.86 864.62 1065.25V1065.02H880.84V1099.86C880.84 1111.89 882.3 1113.93 885.91 1116.66V1116.89L870.14 1120.52V1106.45C866.2 1113.81 861.25 1120.85 852.01 1120.85Z" fill="white"/>
<path d="M897.5 1107.12V1067.06H891.42V1066.38L907.75 1052.19H908.88V1065.01H923.41V1067.05H908.88V1106.77C908.88 1112.33 911.47 1115.17 916.76 1115.17C920.7 1115.17 923.63 1113.58 924.19 1113.24L924.53 1113.69C921.38 1118.12 916.42 1120.84 910.12 1120.84C903.36 1120.85 897.5 1117.79 897.5 1107.12Z" fill="white"/>
<path d="M953.811 1120.85C938.831 1120.85 928.471 1108.93 928.471 1093.04C928.471 1074.88 942.101 1063.31 954.481 1063.31C967.661 1063.31 976.551 1075.45 975.991 1085.44H939.841V1087.6C939.841 1103.6 947.721 1111.21 959.551 1111.21C966.421 1111.21 971.491 1108.49 975.431 1103.61L976.111 1104.06C973.061 1113.47 965.521 1120.85 953.811 1120.85ZM940.071 1083.63L964.511 1083.06V1081.81C964.511 1070.46 961.131 1065.35 954.041 1065.35C945.471 1065.36 940.971 1073.3 940.071 1083.63Z" fill="white"/>
<path d="M112.529 1221.29C112.529 1206.2 125.699 1192.46 141.359 1192.46C157.119 1192.46 170.299 1206.19 170.299 1221.29C170.299 1236.61 157.119 1250 141.359 1250C125.479 1250 112.529 1236.61 112.529 1221.29ZM157.909 1221.29C157.909 1207.67 152.839 1194.73 141.359 1194.73C129.989 1194.73 124.919 1207.67 124.919 1221.29C124.919 1235.02 129.759 1247.73 141.359 1247.73C152.959 1247.73 157.909 1235.02 157.909 1221.29Z" fill="white"/>
<path d="M183.36 1232.52V1196.2H176.27V1194.16H183.36V1186.67C183.36 1169.87 193.94 1160 205.99 1160C209.48 1160 212.97 1160.79 214.66 1161.59L215.9 1173.51L215.23 1173.74C212.87 1169.88 208.36 1162.05 203.07 1162.05C198.56 1162.05 194.62 1168.86 194.62 1181.68V1194.16H207.91V1196.2H194.62V1232.52C194.62 1241.15 195.52 1245 197.21 1248.07V1248.3H180.66V1248.07C182.57 1245.01 183.36 1241.15 183.36 1232.52Z" fill="white"/>
<path d="M258.47 1248.3V1248.07C262.07 1241.15 262.97 1236.95 262.97 1227.76V1167.16L250.7 1167.61C245.75 1167.95 237.41 1180.66 231.67 1188.95L230.77 1188.61L235.05 1165.23H303.85L308.13 1188.61L307.23 1188.95C301.15 1180.67 293.27 1167.95 288.2 1167.61L275.93 1167.16V1227.76C275.93 1237.18 276.72 1241.04 280.43 1248.07V1248.3H258.47Z" fill="white"/>
<path d="M311.73 1248.07C313.87 1241.72 314.32 1236.38 314.32 1226.28V1212.89C314.32 1205.29 311.96 1201.2 309.25 1198.14V1197.91L325.13 1191.9V1205.75H325.58C330.08 1200.3 336.16 1192.47 343.48 1192.47L343.25 1206.32H342.8C340.77 1204.5 335.14 1202.92 332.78 1202.92C330.98 1202.92 328.16 1204.51 325.57 1208.03V1226.19C325.57 1236.06 325.8 1241.85 328.05 1248.09V1248.32H311.72V1248.07H311.73Z" fill="white"/>
<path d="M378.28 1242.51C374.79 1246.48 369.27 1250 362.06 1250C355.3 1250 350.01 1246.82 350.01 1240.35C350.01 1228.89 366.23 1223.21 378.05 1221.4V1209.03C378.05 1203.13 375.69 1199.27 367.69 1199.27C363.3 1199.27 357.56 1200.41 352.71 1204.38L352.15 1203.7C356.77 1197 364.65 1192.46 374.56 1192.46C385.82 1192.46 389.31 1199.04 389.31 1205.97V1238.31C389.31 1241.15 390.44 1243.3 393.7 1243.3C395.39 1243.3 397.08 1242.85 399.22 1241.14L399.45 1241.37C397.65 1245 394.5 1249.65 387.63 1249.65C381.88 1249.66 379.07 1246.48 378.28 1242.51ZM378.06 1240.58V1223.33C369.16 1225.37 360.61 1229.12 360.61 1236.61C360.61 1241.04 363.54 1243.87 368.83 1243.87C372.76 1243.87 376.14 1242.4 378.06 1240.58Z" fill="white"/>
<path d="M424.22 1250C411.04 1250 402.6 1238.76 402.6 1223.67C402.6 1207.21 412.62 1192.46 431.99 1192.46C436.38 1192.46 440.21 1193.25 443.36 1194.5V1181C443.36 1173.4 441 1169.31 438.29 1166.25V1166.02L454.62 1160V1224.12C454.62 1239.44 455.97 1242.5 459.8 1245.8V1246.03L443.81 1249.66V1238.54H443.47C440.21 1244.44 433.46 1250 424.22 1250ZM443.37 1236.27V1207.1C441.23 1197.45 435.71 1194.5 430.53 1194.5C420.62 1194.5 414.43 1204.94 414.43 1219.81C414.43 1233.43 419.61 1242.39 430.08 1242.39C435.94 1242.4 440.33 1239.9 443.37 1236.27Z" fill="white"/>
<path d="M472.189 1226.28V1213.34C472.189 1206.08 469.829 1201.76 467.119 1198.7V1197.9L483.449 1191.89V1226.16C483.449 1235.81 483.559 1241.82 485.929 1248.06V1248.29H469.599V1248.06C471.069 1241.83 472.189 1236.15 472.189 1226.28ZM477.259 1180.43C473.539 1180.43 470.499 1177.37 470.499 1173.62C470.499 1169.87 473.539 1166.7 477.259 1166.7C480.979 1166.7 484.019 1169.88 484.019 1173.62C484.019 1177.37 480.979 1180.43 477.259 1180.43Z" fill="white"/>
<path d="M498.99 1236.27V1196.21H492.91V1195.53L509.24 1181.34H510.37V1194.16H524.9V1196.2H510.37V1235.92C510.37 1241.48 512.96 1244.32 518.25 1244.32C522.19 1244.32 525.12 1242.73 525.68 1242.39L526.02 1242.84C522.87 1247.27 517.91 1249.99 511.61 1249.99C504.85 1250 498.99 1246.94 498.99 1236.27Z" fill="white"/>
<path d="M536.709 1226.28V1213.34C536.709 1206.08 534.349 1201.76 531.639 1198.7V1197.9L547.969 1191.89V1226.16C547.969 1235.81 548.079 1241.82 550.449 1248.06V1248.29H534.119V1248.06C535.589 1241.83 536.709 1236.15 536.709 1226.28ZM541.779 1180.43C538.059 1180.43 535.019 1177.37 535.019 1173.62C535.019 1169.87 538.059 1166.7 541.779 1166.7C545.499 1166.7 548.539 1169.88 548.539 1173.62C548.539 1177.37 545.499 1180.43 541.779 1180.43Z" fill="white"/>
<path d="M559.229 1221.29C559.229 1206.2 572.399 1192.46 588.059 1192.46C603.829 1192.46 616.999 1206.19 616.999 1221.29C616.999 1236.61 603.819 1250 588.059 1250C572.179 1250 559.229 1236.61 559.229 1221.29ZM604.619 1221.29C604.619 1207.67 599.549 1194.73 588.069 1194.73C576.699 1194.73 571.629 1207.67 571.629 1221.29C571.629 1235.02 576.469 1247.73 588.069 1247.73C599.659 1247.73 604.619 1235.02 604.619 1221.29Z" fill="white"/>
<path d="M626.349 1248.3V1248.07C628.489 1241.72 628.939 1236.38 628.939 1226.28V1212.89C628.939 1205.29 626.579 1201.2 623.869 1198.14V1197.91L639.749 1191.9V1202.8L640.199 1202.91C645.039 1197.01 650.339 1192.47 658.329 1192.47C668.689 1192.47 674.209 1198.82 674.209 1208.93V1226.18C674.209 1236.51 674.439 1241.73 676.799 1248.08V1248.31H660.469V1248.08C662.389 1241.84 662.949 1235.82 662.949 1226.29V1211.54C662.949 1205.07 660.139 1199.4 652.589 1199.4C647.749 1199.4 643.469 1201.56 640.199 1205.07V1226.18C640.199 1236.05 640.429 1241.84 642.679 1248.08V1248.31H626.349V1248.3Z" fill="white"/>
<path d="M714.18 1242.51C710.69 1246.48 705.17 1250 697.96 1250C691.2 1250 685.91 1246.82 685.91 1240.35C685.91 1228.89 702.13 1223.21 713.95 1221.4V1209.03C713.95 1203.13 711.59 1199.27 703.59 1199.27C699.2 1199.27 693.46 1200.41 688.61 1204.38L688.05 1203.7C692.67 1197 700.55 1192.46 710.46 1192.46C721.72 1192.46 725.21 1199.04 725.21 1205.97V1238.31C725.21 1241.15 726.34 1243.3 729.6 1243.3C731.29 1243.3 732.98 1242.85 735.12 1241.14L735.35 1241.37C733.55 1245 730.4 1249.65 723.53 1249.65C717.78 1249.66 714.97 1246.48 714.18 1242.51ZM713.96 1240.58V1223.33C705.06 1225.37 696.51 1229.12 696.51 1236.61C696.51 1241.04 699.44 1243.87 704.73 1243.87C708.66 1243.87 712.04 1242.4 713.96 1240.58Z" fill="white"/>
<path d="M742.89 1232.52V1180.88C742.89 1173.5 740.53 1169.3 737.82 1166.24V1166.01L754.15 1159.99V1232.4C754.15 1240.91 755.05 1245 756.74 1248.06V1248.29H740.41V1248.06C741.88 1244.89 742.89 1241.03 742.89 1232.52Z" fill="white"/>
<path d="M782.42 1248.3V1248.07C787.83 1242.28 789.85 1237.4 793.12 1228.55L817.33 1164.31H819.58L844.24 1229.79C847.84 1239.66 850.55 1244.09 854.49 1248.06V1248.29H832.08V1248.06C834 1244.77 834 1237.73 830.84 1229.22L826.22 1216.96H799.76L797.4 1223.32C792.33 1236.49 795.26 1244.43 797.63 1248.06V1248.29H782.42V1248.3ZM800.66 1214.7H825.32L813.05 1181.9L800.66 1214.7Z" fill="white"/>
<path d="M860.789 1248.07C862.929 1241.72 863.379 1236.38 863.379 1226.28V1212.89C863.379 1205.29 861.019 1201.2 858.309 1198.14V1197.91L874.189 1191.9V1205.75H874.639C879.139 1200.3 885.219 1192.47 892.539 1192.47L892.309 1206.32H891.859C889.829 1204.5 884.199 1202.92 881.839 1202.92C880.039 1202.92 877.219 1204.51 874.629 1208.03V1226.19C874.629 1236.06 874.859 1241.85 877.109 1248.09V1248.32H860.779V1248.07H860.789Z" fill="white"/>
<path d="M904.029 1236.27V1196.21H897.949V1195.53L914.279 1181.34H915.409V1194.16H929.939V1196.2H915.399V1235.92C915.399 1241.48 917.989 1244.32 923.279 1244.32C927.219 1244.32 930.149 1242.73 930.709 1242.39L931.049 1242.84C927.899 1247.27 922.939 1249.99 916.639 1249.99C909.889 1250 904.029 1246.94 904.029 1236.27Z" fill="white"/>
<path d="M971.709 1207.33C965.969 1197.46 959.549 1194.51 954.259 1194.51C948.399 1194.51 945.029 1198.25 945.029 1202.91C945.029 1209.38 952.119 1212.22 959.559 1215.17C967.329 1218.46 975.549 1222.89 975.549 1233.67C975.549 1244.91 966.199 1250.01 954.489 1250.01C948.629 1250.01 942.779 1248.76 937.939 1247.06L936.809 1232.53L937.479 1232.3C943.219 1243.31 948.739 1247.96 955.949 1247.96C963.489 1247.96 966.309 1242.85 966.309 1238.2C966.309 1232.3 962.029 1229.58 954.369 1226.28C946.709 1222.88 937.699 1219.36 937.699 1207.9C937.699 1196.44 947.379 1192.47 957.289 1192.47C962.699 1192.47 968.209 1193.49 971.249 1194.74L972.379 1207.11L971.709 1207.33Z" fill="white"/>
<path d="M481.059 799.05C488.869 799.05 493.799 794.57 496.129 787.54C496.139 787.52 496.149 787.5 496.159 787.47C498.819 775.55 498.239 769.37 497.779 712.41L503.279 718.03L503.889 717.61L494.339 689.71H493.909L485.599 697.15C486.629 698.24 487.579 700.91 487.699 703.14C488.399 715.24 490.229 757 490.799 781.6C489.979 785.3 484.919 784.81 479.869 784.81H475.639C469.539 784.81 463.149 781.61 462.279 773.48C461.699 766.8 459.079 753.72 447.159 753.72C436.119 753.72 429.149 763.31 421.009 776.68C416.639 783.76 410.509 784.71 402.099 784.8C401.679 784.8 401.269 784.81 400.839 784.81H272.469C264.919 784.81 260.849 780.73 260.849 773.18V689.49H260.269L250.649 696.75L254.139 775.5C254.139 781.31 250.939 784.22 240.189 784.22C232.349 784.22 225.369 778.12 218.689 771.14C202.989 754.57 184.689 741.5 164.059 728.13L233.509 704.6L239.899 690.36L239.609 690.07L166.669 719.13C165.499 719.71 159.989 733.66 160.569 734.24C180.909 749.65 196.899 764.75 197.479 772.89C197.479 780.44 171.899 782.77 148.949 781.9L148.659 782.48C153.019 787.71 159.699 793.52 172.479 794.98C166.379 807.18 153.599 813.28 137.319 813.28C106.819 813.28 97.2194 787.41 110.289 755.45H109.419C96.9294 781.32 94.8894 828.1 135.869 828.1C154.749 828.1 172.479 817.35 173.939 794.98C191.449 795.55 200.719 783.63 198.409 765.69C211.179 776.46 224.529 797.59 242.219 797.88C249.479 797.66 253.409 794.27 255.649 787.85C258.039 793.48 263.809 797.88 271.859 797.88H399.949C400.859 797.88 401.739 797.85 402.589 797.79V797.75C412.599 796.95 417.539 792.2 420.969 784.96C422.889 792.55 431.839 801.38 443.649 801.38C450.169 801.38 457.129 800.65 461.649 791.1C463.939 794.83 468.719 799.05 476.819 799.05H481.059ZM522.159 801.41H522.539L526.829 789.32C528.349 785.04 529.139 780.54 529.149 776L529.269 712.9L534.769 718.52L535.379 718.1L525.369 689.76H524.889L517.469 697.37C518.499 698.46 518.799 702.39 518.919 704.62C519.759 719.05 522.159 782.01 522.159 801.41ZM445.399 765.06C453.819 765.06 460.799 771.74 460.799 778.13C460.799 785.69 454.119 788.3 445.399 788.3C439.009 788.3 429.989 787.14 423.019 779.3C432.029 765.93 439.879 765.06 445.399 765.06Z" fill="white"/>
<path d="M612.441 888.33H611.861L603.431 901.7C609.821 907.8 621.451 920.59 621.451 932.79C621.451 944.7 609.831 958.36 588.031 959.23C556.351 960.39 546.481 934.82 559.841 902.28H558.971C545.891 928.72 542.121 974.64 585.411 973.18C608.081 972.6 621.731 955.16 623.191 932.79C623.191 915.94 621.151 904.02 612.441 888.33Z" fill="white"/>
<path d="M820.96 870.878L812.32 879.52L820.962 888.159L829.602 879.517L820.96 870.878Z" fill="white"/>
<path d="M583.266 879.462L574.625 888.103L583.266 896.743L591.907 888.103L583.266 879.462Z" fill="white"/>
<path d="M890.969 866.67L882.328 875.311L890.969 883.952L899.61 875.311L890.969 866.67Z" fill="white"/>
<path d="M206.4 827.4L215.04 818.75L206.4 810.11L197.76 818.75L189.12 810.11L180.48 818.75L189.12 827.4L197.76 818.76L206.4 827.4Z" fill="white"/>
<path d="M925.771 799.05C933.581 799.05 938.511 794.57 940.841 787.54C940.851 787.52 940.861 787.5 940.871 787.47C943.531 775.55 942.951 769.37 942.491 712.41L947.991 718.03L948.601 717.61L939.041 689.7H938.611L930.301 697.14C931.331 698.23 932.281 700.9 932.401 703.13C933.101 715.23 934.931 756.99 935.501 781.59C934.681 785.29 929.621 784.8 924.571 784.8H920.341C914.241 784.8 907.851 781.6 906.981 773.47C906.401 766.79 903.781 753.71 891.861 753.71C880.821 753.71 873.851 763.3 865.711 776.67C861.341 783.75 855.211 784.7 846.801 784.79C846.391 784.8 852.081 784.8 851.661 784.8H842.601V784.81C842.591 784.81 842.581 784.81 842.571 784.81C835.681 784.81 828.171 784.2 820.801 782.61C826.981 777.32 830.651 770.5 830.651 761.86C830.651 748.78 820.781 742.97 809.151 742.97C796.661 742.97 782.711 749.65 777.191 762.15L777.481 762.73C779.031 761.25 780.811 759.95 782.741 758.84C786.381 767.6 792.671 775.32 800.231 781.54C791.551 783.63 781.721 784.82 771.961 784.82H662.221C659.061 784.82 656.521 785.03 654.291 785.44C657.591 781.94 659.601 777.89 659.601 773.49C659.601 761.29 650.881 753.73 642.741 745.88L645.071 741.81L644.481 741.23C633.721 759.1 626.401 774.23 623.781 785.54C614.271 785.51 605.261 783.02 600.611 776.07C599.901 775.02 599.361 773.85 598.911 772.67L581.431 727.57H580.851L573.591 736.58C579.901 748.91 586.551 763.15 592.981 776.48C587.531 779.24 577.241 782.49 565.451 782.49C557.021 782.49 548.591 777.83 552.661 766.79H552.081C543.071 788 553.241 797.3 566.031 797.3C574.161 797.3 583.181 796.43 593.061 790.62L594.751 782.17C599.761 794.19 613.201 798.04 622.891 797.81C624.351 814.51 634.841 824.03 645.371 824.03C653.501 824.03 663.091 819.09 663.091 806.3C663.091 803.23 662.551 800.31 661.831 797.76C663.701 797.83 665.581 797.87 667.451 797.87H760.051C779.141 797.87 797.661 795.22 810.941 788.87C821.031 794.6 832.061 797.87 841.711 797.87C842.021 797.87 842.301 797.85 842.611 797.84V797.85H850.801C851.711 797.85 846.481 797.82 847.321 797.76V797.72C857.321 796.92 862.281 792.17 865.701 784.93C867.621 792.52 876.571 801.35 888.381 801.35C894.901 801.35 901.861 800.62 906.381 791.07C908.671 794.8 913.451 799.02 921.551 799.02H925.771V799.05ZM966.871 801.4H967.251L971.541 789.31C973.061 785.03 973.851 780.53 973.861 775.99L973.981 712.89L979.481 718.51L980.091 718.09L970.081 689.75H969.601L962.181 697.36C963.211 698.45 963.511 702.38 963.631 704.61C964.461 719.05 966.871 782.01 966.871 801.4ZM890.111 765.06C898.531 765.06 905.511 771.74 905.511 778.13C905.511 785.69 898.831 788.3 890.111 788.3C883.721 788.3 874.701 787.14 867.731 779.3C876.741 765.93 884.591 765.06 890.111 765.06ZM784.401 757.93C792.091 754.03 801.761 752.56 809.141 752.56C821.641 752.56 828.901 756.92 828.901 761.86C828.901 768.82 820.761 774.87 808.891 779.01C798.801 774.93 789.881 768.31 784.401 757.93ZM638.681 753.72C644.781 758.09 657.851 767.96 657.851 773.77C657.851 778.28 640.851 785.28 624.871 785.54C627.201 776.06 632.471 763.79 638.681 753.72ZM639.641 794.6C644.261 795.87 648.891 796.7 653.511 797.19C658.161 799.82 661.121 802.24 661.341 806.03C661.341 809.82 652.051 812.13 645.071 812.13C635.861 812.13 625.721 808.05 623.881 797.79C629.251 797.55 634.691 796.43 639.641 794.6Z" fill="white"/>
<path d="M970.089 842.8L961.779 850.24C962.809 851.33 963.759 854 963.879 856.23C964.579 868.33 966.409 910.26 966.979 934.86C966.199 938.38 961.569 938.11 956.769 938.08V938.07C955.409 938.09 953.319 938.02 951.709 938.02C944.159 938.02 940.089 933.95 940.089 926.39V843.29H939.509L929.889 850.55L933.379 929.29C933.379 935.1 930.179 938.01 919.429 938.01C913.829 938.01 908.419 937.99 902.879 937.25C913.649 926.35 911.149 896.75 891.819 896.75C875.009 897.02 862.509 920.06 874.129 938.01C863.099 937.99 847.399 937.76 842.709 933.06L844.739 910.69H843.869L837.769 935.97C832.539 937.72 828.479 938.01 818.019 938.3H676.949C675.439 923.81 668.009 906.34 656.899 906.34C645.269 906.34 637.719 922.61 637.719 931.33C637.719 939.17 639.189 951.39 659.529 951.39H675.099C669.179 971.34 637.199 974.86 618.829 968.82L618.529 969.4C626.959 975.21 637.999 982.48 645.559 982.19C662.839 981.18 674.449 966.18 677.169 951.39H816.589C827.759 951.39 835.829 951.97 840.609 942.33C847.819 955.86 875.379 954.83 888.979 946.31C895.019 950.37 904.109 952.66 913.059 952.66C924.869 952.66 931.869 949.09 935.209 942.25C937.389 948.48 943.289 953.82 951.709 953.82C953.529 953.82 958.039 953.79 961.449 953.04C963.399 952.68 965.329 951.32 967.029 949.66C971.029 945.77 972.869 939.29 973.579 933.75C974.799 924.23 974.349 911.23 973.969 865.5L979.469 871.12L980.079 870.7L970.519 842.79H970.089V842.8ZM655.729 938.31C641.199 938.31 639.449 934.24 639.449 931.34C639.449 929.3 643.529 918.55 655.149 918.55C667.319 918.55 673.379 928.96 675.019 938.31H655.729ZM871.189 922.04C871.769 914.49 881.649 908.09 890.659 908.09C899.659 908.09 908.089 915.06 907.219 922.91C906.929 929.89 899.669 933.96 889.209 936.28C877.299 933.96 870.899 929.01 871.189 922.04Z" fill="white"/>
<path d="M177.271 897.94L168.841 911.31C172.331 914.51 183.661 926.13 185.401 933.39C178.431 936.3 170.291 937.46 163.611 937.46C145.881 937.46 147.341 923.8 145.881 902.59C145.591 899.39 145.011 887.19 145.011 885.44H144.431L135.711 891.83C136.091 894.71 136.451 897.42 136.791 899.98C124.631 904.29 107.401 912.21 105.201 923.22C100.261 946.47 134.841 942.11 138.621 940.95L141.631 934.94C144.121 952.65 165.321 955.93 185.121 945.89C190.641 927.58 186.571 913.63 177.861 897.94H177.271ZM106.951 922.93C107.991 917.75 127.021 913.5 138.351 911.4C139.381 918.89 140.171 924.42 140.711 928.16C128.431 929.46 105.431 930.28 106.951 922.93Z" fill="white"/>
<path d="M122.831 871.19L131.471 879.82L140.111 871.18L131.471 862.54L122.831 871.18L114.191 862.54L105.551 871.18L114.191 879.82L122.831 871.19Z" fill="white"/>
<path d="M161.841 971.14L153.201 962.5L144.561 971.14L153.201 979.79L161.841 971.15L170.481 979.79L179.121 971.14L170.481 962.5L161.841 971.14Z" fill="white"/>
<path d="M265.46 971.14L256.83 962.5L248.18 971.14L256.83 979.79L265.46 971.15L274.1 979.79L282.74 971.14L274.1 962.5L265.46 971.14Z" fill="white"/>
<path d="M415.331 871.18L406.701 862.54L398.051 871.18L406.701 879.82L415.331 871.19L423.971 879.82L432.611 871.18L423.971 862.54L415.331 871.18Z" fill="white"/>
<path d="M459.22 863.04L450.58 871.68L459.22 880.32L450.58 888.96L459.22 897.6L467.86 888.96L459.22 880.32L467.86 871.68L459.22 863.04Z" fill="white"/>
<path d="M523.022 842.85L515.602 850.46C516.632 851.55 516.932 855.48 517.052 857.71C517.892 872.15 520.302 935.11 520.302 954.5H520.682L524.972 942.41C526.492 938.13 527.282 933.63 527.292 929.09L527.412 865.99L532.912 871.61L533.522 871.19L523.512 842.85H523.022Z" fill="white"/>
<path d="M347.881 952.44C355.131 952.49 362.411 948.94 366.841 939.64C372.831 954.53 398.401 954.93 413.961 945.18C420.001 949.65 429.181 952.55 438.221 952.55C447.071 952.55 455.721 951.96 460.771 941.85C464.001 947.84 471.001 951.63 478.801 952.01C479.061 952.03 479.321 952.08 479.511 952.08C480.031 952.08 480.531 952.06 481.031 952.01C481.131 952.01 481.221 952.01 481.321 951.99C484.671 951.66 487.381 950.44 489.531 948.49C491.671 946.56 493.221 943.88 494.291 940.64C494.311 940.62 494.311 940.59 494.311 940.57C496.971 928.65 496.401 922.47 495.931 865.51L501.421 871.12L502.041 870.69L492.481 842.79H492.051L483.751 850.23C484.771 851.32 485.721 853.99 485.841 856.22C486.531 868.33 488.361 910.23 488.931 934.85C488.311 937.73 485.101 938.06 481.321 938.08H481.011C479.681 938.06 478.351 938.03 477.161 938.03C473.661 938.03 466.981 937.44 463.511 933.96L465.531 911.58H464.671L458.561 935.98C454.781 937.15 451.311 937.72 445.791 938.03C440.151 938.03 434.351 938.01 428.671 937.24C439.421 926.35 436.921 896.76 417.591 896.76C400.781 897.02 388.291 920.07 399.921 938.02C386.011 938.26 373.141 940.92 372.591 926.68V842.99H372.001L362.391 850.27L365.891 927.85C366.201 935.79 357.301 937.91 348.411 937.46L300.831 937.45C293.441 937.07 286.061 934.9 283.951 932.78L285.981 910.41H285.111L279.011 934.24C270.011 938.02 253.231 939.92 247.631 929.29L229.611 882.8H229.001L221.741 891.81C228.051 904.15 235.251 918.01 241.691 931.34C236.241 934.11 225.391 937.72 213.601 937.72C205.181 937.72 196.741 933.06 200.821 922.02H200.231C191.231 943.24 201.401 952.53 214.181 952.53C222.321 952.53 231.331 951.66 241.211 945.85L242.871 936.51C249.731 955.33 266.641 954.51 275.351 949.28C277.261 948.1 279.091 944.72 280.521 942.28C284.551 948.03 292.401 952.34 300.301 952.4L347.881 952.44ZM396.941 922.05C397.511 914.51 407.401 908.11 416.401 908.11C425.411 908.11 433.861 915.08 432.981 922.93C432.691 929.92 425.421 933.99 414.951 936.3C403.051 933.99 396.661 929.04 396.941 922.05Z" fill="white"/>
<path d="M768.46 295.85C768.46 290.99 768.45 218.09 768.45 218.09C768.45 153.59 751.56 107.64 716.79 77.6002C709.34 71.1602 700.99 65.4002 691.75 60.3002C691.34 49.3002 685.54 40.7002 670.86 36.7702C658.94 33.5802 650.57 35.9902 644.71 42.0002C626.87 37.3102 606.92 34.0802 584.78 32.2802C574.49 16.7302 558.69 7.74023 540 7.74023C521.31 7.74023 505.51 16.7302 495.22 32.2702C473.08 34.0702 453.13 37.3102 435.28 41.9902C429.42 35.9802 421.04 33.5702 409.12 36.7602C394.44 40.6902 388.64 49.2902 388.23 60.2902C378.99 65.3902 370.65 71.1502 363.19 77.5902C328.42 107.63 311.53 153.58 311.53 218.08C311.53 218.08 311.52 292.88 311.52 295.99C311.52 296.03 311.52 296.06 311.52 296.1V374.19C311.52 438.69 328.42 484.64 363.18 514.67C383.75 532.44 411 545.08 445.52 552.76C467.87 557.73 493.26 560.61 521.86 561.46C527.77 561.63 533.8 561.72 539.99 561.72C622.33 561.72 680.16 546.33 716.8 514.68C751.56 484.64 768.46 438.69 768.46 374.2L768.47 296.11C768.47 296.02 768.47 295.93 768.46 295.85ZM686.04 84.9602C702.16 94.1002 715.51 105.38 726.19 118.83C741.48 138.11 750.54 160.95 755.83 185C755.9 185.3 756.58 188.03 756.65 188.33C755.04 187.46 753.53 185.59 752.68 184.71C753.12 184.4 755.05 181.96 754.8 181.32C754.6 180.76 751.11 179.93 750.67 179.27C750.63 179.18 750.62 179.11 750.58 179.03C751.11 178.58 753.11 176.04 752.84 175.39C752.6 174.85 749.13 174.21 748.33 173.51C748.33 173.49 748.31 173.46 748.29 173.42C748.92 172.86 750.99 170.22 750.68 169.53C750.43 169.01 746.99 168.59 745.84 167.9C746.57 167.19 748.68 164.46 748.32 163.75C748.05 163.24 744.74 163.03 743.29 162.39C744.14 161.47 746.15 158.73 745.75 158.04C745.46 157.53 742.24 157.5 740.55 156.97C741.49 155.85 743.41 153.1 742.98 152.43C742.67 151.92 739.47 152.07 737.6 151.63C738.61 150.34 740.46 147.56 739.99 146.89C739.65 146.4 736.48 146.71 734.45 146.4C735.5 144.95 737.26 142.11 736.75 141.44C736.41 140.97 733.24 141.44 731.07 141.26C732.14 139.67 733.84 136.73 733.28 136.08C732.9 135.61 729.77 136.26 727.49 136.23C728.56 134.47 730.15 131.5 729.55 130.87C729.15 130.42 726.09 131.21 723.72 131.32C724.77 129.44 726.16 126.52 725.55 125.91C725.13 125.48 722.06 126.45 719.59 126.72C720.62 124.67 721.94 121.69 721.27 121.09C720.82 120.67 717.74 121.81 715.19 122.25C716.2 120.08 717.42 117 716.73 116.4C716.24 116 713.14 117.34 710.52 117.92C711.48 115.64 712.62 112.43 711.88 111.85C711.36 111.47 708.24 113.01 705.54 113.75C706.45 111.34 707.51 108.01 706.72 107.45C706.18 107.07 703.03 108.84 700.26 109.75C701.13 107.2 702.11 103.74 701.26 103.2C700.68 102.84 697.51 104.83 694.67 105.92C695.49 103.24 696.37 99.6202 695.49 99.0902C694.87 98.7502 691.67 100.99 688.77 102.24C689.51 99.4202 690.31 95.6302 689.37 95.1402C688.72 94.8002 686.47 96.8002 683.52 98.2302C684.43 95.9202 685.48 92.2302 684.48 91.7502C683.87 91.4602 681.03 94.2402 677.65 95.2802C681.12 92.8002 683.87 89.2702 686.04 84.9602ZM745.6 390.98C746.14 391.76 746.83 391.87 747.35 392.7C747.87 393.52 747.67 394.26 746.81 395.24C745.23 397.06 742.72 399.91 741.1 401.69C740.22 402.65 740 403.35 740.47 404.2C740.94 405.06 741.67 405.13 742.14 405.99C742.61 406.85 742.39 407.58 741.48 408.52C739.8 410.25 737.15 412.99 735.45 414.68C734.53 415.6 733.84 415.81 733.02 415.32C732.2 414.83 732.15 414.09 731.34 413.6C730.52 413.11 729.82 413.3 728.89 414.16C727.17 415.76 724.48 418.3 722.76 419.89C721.83 420.75 721.15 420.92 720.36 420.41C719.58 419.9 719.54 419.16 718.76 418.65C717.98 418.13 717.31 418.34 716.4 419.15C714.71 420.65 712.01 423.08 710.27 424.48C709.32 425.24 708.53 425.44 707.86 424.82C707.19 424.2 706.83 423.73 706.37 422.94C705.91 422.15 706.28 421.4 707.13 420.65C721.7 407.81 735.06 393.42 747.8 378.79C748.54 377.94 749.34 377.61 750.12 378.1C750.9 378.59 751.34 379.02 751.97 379.69C752.6 380.36 752.29 381.28 751.6 382.09C749.9 384.07 747.82 386.55 746.07 388.52C745.37 389.3 745.05 390.2 745.6 390.98ZM728.93 430.3C729.42 431.05 729.57 431.01 730.06 431.76C730.55 432.51 730.14 433.34 729.11 434.15C727.21 435.64 724.05 438.01 722.11 439.42C721.06 440.19 720.55 440.96 720.98 441.71C721.41 442.46 721.5 442.42 721.94 443.14C722.39 443.86 721.71 444.76 720.88 445.42C719.24 446.71 716.91 448.33 715.24 449.57C714.38 450.2 713.43 450.47 712.78 449.92C712.13 449.37 712.36 449.07 711.71 448.52C711.06 447.97 710.13 448.21 709.26 448.84C707.11 450.39 704.4 452.34 702.19 453.8C701.29 454.39 700.25 454.65 699.73 453.96C699.21 453.27 699.24 453.13 698.69 452.48C698.14 451.82 697.13 452.04 696.24 452.61C694.04 454.01 691.32 455.82 689.1 457.17C688.2 457.72 687.15 457.84 686.63 457.16C686.11 456.48 685.98 456.36 685.67 455.55C685.36 454.74 685.83 454.03 686.82 453.42C703.36 443.28 719.06 432.04 733.35 418.9C734.21 418.11 735.08 417.82 735.77 418.36C736.45 418.9 736.57 419.01 737.04 419.75C737.51 420.49 737.21 421.32 736.25 422.17C734.48 423.74 731.56 426.26 729.85 427.91C728.91 428.79 728.44 429.55 728.93 430.3ZM682.37 450.01C682.76 450.85 683.09 451.27 683.53 452.09C683.98 452.91 683.4 453.61 682.32 454.25C680.32 455.42 677.17 457.26 675.14 458.42C674.04 459.05 673.19 459.07 672.64 458.3C672.09 457.53 671.95 456.99 671.42 456.2C670.89 455.41 670.05 455.48 668.94 456.04C666.88 457.08 663.74 458.74 661.69 459.8C660.58 460.37 659.71 460.43 659.25 459.6C658.79 458.77 658.63 458.25 658.13 457.45C657.63 456.65 656.8 456.66 655.69 457.16C653.64 458.09 650.47 459.59 648.46 460.52C647.37 461.02 646.59 460.98 646.1 460.22C645.61 459.45 645.38 458.87 645.12 458.01C644.86 457.15 645.4 456.46 646.38 456C663.28 448.08 680.05 439.03 695.78 428.98C696.7 428.39 697.54 428.23 698.16 428.9C698.78 429.57 699.1 430.05 699.53 430.85C699.96 431.64 699.38 432.44 698.53 433.01C696.45 434.42 693.82 436.15 691.64 437.43C690.75 437.95 690.22 438.66 690.53 439.51C690.84 440.35 691.41 440.66 691.73 441.5C692.05 442.35 691.5 443.07 690.61 443.61C688.42 444.94 685.75 446.6 683.53 447.92C682.63 448.44 681.98 449.16 682.37 450.01ZM665.37 471.71C665.75 472.52 665.79 472.62 666.14 473.44C666.49 474.26 665.88 474.97 664.72 475.51C662.57 476.5 659.21 478.09 657.05 479.09C655.88 479.63 655.25 480.35 655.58 481.18C655.91 482.02 655.89 482.12 656.28 482.95C656.67 483.77 656.04 484.48 654.71 485.01C653.39 485.54 649.83 487.01 648.53 487.55C647.23 488.09 646.36 488.04 645.97 487.23C645.57 486.42 645.57 486.3 645.21 485.49C644.85 484.68 643.76 484.72 642.76 485.13C640.3 486.14 637.22 487.16 634.73 488.07C633.72 488.44 632.63 488.4 632.3 487.59C631.97 486.78 631.9 486.65 631.63 485.82C631.36 485 630.23 484.96 629.23 485.33C626.78 486.24 623.69 487.1 621.22 487.86C620.22 488.17 619.19 488.04 618.86 487.25C618.53 486.46 618.44 486.3 618.33 485.44C618.22 484.58 618.86 483.97 619.94 483.62C637.9 477.87 655.37 470.44 672.1 461.76C673.1 461.24 674.04 461.22 674.56 461.92C675.07 462.61 675.19 462.76 675.46 463.58C675.74 464.4 675.27 465.12 674.15 465.69C672.09 466.75 668.8 468.49 666.72 469.57C665.61 470.16 664.99 470.91 665.37 471.71ZM699.84 402.55C671.83 427.5 621.37 457.24 540 457.24C535.23 457.24 530.59 457.14 526.04 456.93C505.87 456.07 487.74 453.33 471.51 449.33C428.82 438.81 399.27 419.56 380.17 402.55C346.81 372.84 326.94 333.02 326.94 296.11H326.9H326.93C327.17 271.21 334.08 247.17 346.25 225.52C361.42 198.2 383.73 178.1 409.75 163.84C414.81 165.98 421.09 166.28 428.89 164.19C440.42 161.1 446.47 155.13 448.73 147.38C466.23 141.87 484.5 138.27 502.77 136.27C506.34 139.9 510.29 142.97 514.53 145.41C450.41 150.81 403.38 176.37 373.65 208.41L375.03 209.63C379.08 205.26 383.41 201.04 388.02 197.03C411.97 176.17 453.19 151.72 517.49 146.99C524.41 150.39 532.02 152.21 540.01 152.21C548 152.21 555.61 150.39 562.53 146.99C626.82 151.72 668.05 176.17 692 197.03C693.17 198.05 694.31 199.08 695.44 200.12L696.77 198.85C666.91 171.37 623.11 150.24 565.52 145.39C569.75 142.95 573.69 139.89 577.25 136.26C595.52 138.25 613.79 141.85 631.28 147.36C633.54 155.11 639.59 161.08 651.12 164.17C658.92 166.26 665.2 165.95 670.26 163.82C696.28 178.09 718.59 198.18 733.76 225.5C745.93 247.16 752.84 271.19 753.08 296.09C753.06 333.02 733.18 372.83 699.84 402.55ZM393.95 84.9602C396.12 89.2702 398.87 92.8102 402.34 95.2902C398.97 94.2502 396.12 91.4702 395.51 91.7602C394.51 92.2302 395.56 95.9202 396.47 98.2402C393.52 96.8102 391.27 94.8102 390.62 95.1502C389.68 95.6402 390.47 99.4202 391.22 102.25C388.32 101 385.12 98.7602 384.5 99.1002C383.61 99.6202 384.5 103.25 385.32 105.93C382.48 104.84 379.31 102.85 378.73 103.21C377.88 103.75 378.86 107.21 379.73 109.76C376.96 108.85 373.81 107.08 373.27 107.46C372.47 108.02 373.54 111.35 374.45 113.76C371.75 113.02 368.64 111.48 368.11 111.86C367.37 112.44 368.51 115.64 369.47 117.93C366.84 117.35 363.75 116.01 363.26 116.41C362.57 117.01 363.78 120.09 364.8 122.26C362.25 121.83 359.17 120.68 358.72 121.1C358.05 121.7 359.37 124.69 360.4 126.73C357.94 126.46 354.86 125.48 354.44 125.92C353.82 126.54 355.22 129.45 356.27 131.33C353.9 131.22 350.84 130.42 350.44 130.88C349.84 131.51 351.44 134.48 352.5 136.24C350.22 136.28 347.09 135.62 346.71 136.09C346.15 136.74 347.85 139.68 348.92 141.27C346.75 141.45 343.58 140.98 343.24 141.45C342.73 142.12 344.49 144.96 345.54 146.41C343.51 146.72 340.34 146.41 340 146.9C339.53 147.57 341.38 150.36 342.39 151.64C340.53 152.07 337.32 151.93 337.01 152.44C336.58 153.11 338.5 155.86 339.44 156.98C337.76 157.51 334.53 157.54 334.24 158.05C333.84 158.74 335.85 161.47 336.7 162.4C335.25 163.03 331.94 163.25 331.67 163.76C331.31 164.47 333.43 167.2 334.15 167.91C333.01 168.6 329.57 169.01 329.31 169.54C329 170.23 331.07 172.87 331.7 173.43C331.68 173.47 331.66 173.5 331.66 173.52C330.86 174.23 327.39 174.86 327.15 175.4C326.88 176.05 328.89 178.59 329.41 179.04C329.37 179.11 329.36 179.18 329.32 179.28C328.88 179.93 325.39 180.76 325.19 181.33C324.94 181.96 326.87 184.41 327.31 184.72C326.46 185.61 324.94 187.48 323.34 188.34C323.4 188.04 324.09 185.31 324.16 185.01C329.46 160.97 338.51 138.12 353.8 118.84C364.48 105.37 377.83 94.1002 393.95 84.9602ZM393 66.8802C393.91 65.1102 395.06 63.5202 396.38 62.0902C399.56 58.6502 403.74 56.2202 408 54.9702C406.45 56.3402 404.89 57.5702 403.32 58.7802C402.38 59.5102 401.43 60.2302 400.5 60.9702C398.25 62.7102 395.17 65.0402 393 66.8802ZM398.72 126.07C397.95 126.82 397.19 127.58 396.42 128.39C396.53 128 396.66 127.63 396.8 127.26C398.51 122.75 402.71 119.25 407.21 117.71C404.41 120.75 401.56 123.28 398.72 126.07ZM404.91 126.18C402.91 128.68 400.83 130.37 398.76 132.58C398.51 132.85 398.26 133.12 398.01 133.41C398.01 133.15 398.03 132.89 398.06 132.64C398.49 129.23 401.6 126.72 404.91 126.18ZM397.16 120.7C396.55 121.33 395.96 121.98 395.37 122.65C395.52 122.24 395.69 121.84 395.87 121.44C398.7 115.27 405.03 110.5 411.64 109.28C406.28 112.56 401.44 116.24 397.16 120.7ZM396.04 148.42C397.63 152.22 399.59 155.53 401.99 158.21C399.21 157.16 396.24 155.04 395.6 155.4C394.68 155.93 395.38 159.47 396.61 162.48C393.66 161.79 390 159.31 389.31 159.75C388.46 160.29 389.22 163.68 390.49 166.52C387.63 165.94 384.04 163.77 383.39 164.22C382.57 164.76 383.41 168.02 384.71 170.68C381.94 170.23 378.45 168.31 377.83 168.76C377.07 169.34 377.96 172.45 379.26 174.95C376.6 174.61 373.18 172.96 372.6 173.41C371.89 173.99 372.82 176.98 374.14 179.33C371.57 179.09 368.24 177.66 367.69 178.14C367.02 178.72 368 181.58 369.34 183.77C366.86 183.64 363.62 182.45 363.11 182.92C362.49 183.5 363.49 186.25 364.83 188.3C362.46 188.26 359.31 187.27 358.85 187.74C358.25 188.34 359.32 191.05 360.66 192.95C358.4 193.02 355.3 192.21 354.87 192.68C354.33 193.28 355.43 195.9 356.75 197.7C354.6 197.85 351.59 197.21 351.19 197.68C351.1 197.79 351.06 197.93 351.06 198.13C351.06 199.11 352 201.05 353.07 202.42C351.02 202.64 348.15 202.18 347.78 202.66C347.71 202.75 347.67 202.9 347.67 203.08C347.67 203.99 348.61 205.89 349.66 207.15C347.72 207.42 344.97 207.13 344.63 207.58C344.21 208.16 345.3 210.42 346.49 211.83C344.68 212.16 342.07 212.01 341.75 212.46C341.37 213.04 342.44 215.18 343.56 216.46C341.88 216.84 339.41 216.84 339.12 217.29C338.78 217.83 339.81 219.86 340.88 221.06C339.3 221.48 336.99 221.58 336.73 222.02C336.42 222.56 337.42 224.48 338.41 225.57C336.94 226.02 334.79 226.24 334.55 226.67C334.31 227.1 334.95 228.44 335.71 229.46C334.52 231.28 333.04 232.89 331.51 233.39C331.68 232.87 332.52 230.16 332.7 229.65C340.25 207.2 352.13 187.41 368.17 171C376.48 162.55 385.77 155.02 396.04 148.42ZM387.68 146.55C385.11 145.57 382.03 143.44 381.33 143.89C380.71 144.29 381.47 148.11 382.45 150.25C379.95 149.44 376.87 147.5 376.19 147.97C375.61 148.37 376.46 152.08 377.48 154.09C375.04 153.44 371.96 151.7 371.31 152.17C370.77 152.59 371.71 156.21 372.72 158.07C370.37 157.56 367.27 156.02 366.67 156.51C366.14 156.94 367.18 160.46 368.21 162.18C365.93 161.84 362.83 160.48 362.27 160.99C361.76 161.44 362.9 164.88 363.95 166.46C361.76 166.26 358.63 165.07 358.1 165.59C357.61 166.04 358.84 169.45 359.89 170.84C357.81 170.79 354.66 169.79 354.17 170.31C353.72 170.78 355.04 174.15 356.07 175.38C354.11 175.47 350.93 174.64 350.46 175.18C350.03 175.69 351.62 179.33 352.61 180.14C350.84 180.43 347.45 179.72 347 180.28C346.58 180.82 348.29 184.39 349.19 185.01C347.63 185.43 344.19 184.92 343.78 185.5C343.38 186.04 345.19 189.65 346.01 189.97C346.01 189.99 346.01 189.99 346.01 189.99C344.69 190.53 341.16 190.23 340.78 190.8C340.44 191.33 342.07 194.44 342.84 194.91C342.79 195 342.75 195.09 342.69 195.18C341.42 195.67 338.33 195.65 337.98 196.21C337.69 196.7 339.14 199.38 339.88 199.98C339.77 200.16 339.72 200.39 339.55 200.52C338.55 201.35 335.69 201.17 335.42 201.7C335.17 202.15 336.43 204.49 337.14 205.14C336.99 205.43 336.93 205.77 336.71 205.97C335.81 206.78 333.32 206.78 333.09 207.26C332.89 207.69 333.92 209.56 334.57 210.3C333.44 212.02 331.72 213.72 330.11 214.27C330.24 213.88 331.08 211.64 331.21 211.24C339.13 187.4 351.17 167.13 367.31 150.62C374.58 143.18 382.72 136.49 391.69 130.52C391.92 133.82 392.55 137.3 393.51 140.9C393.63 141.34 393.75 141.76 393.87 142.19C393.92 142.45 393.98 142.71 394.03 142.98C391.42 141.86 387.44 139.52 386.68 139.96C386.05 140.34 386.72 144.27 387.68 146.55ZM479.46 73.5202C479.41 73.5202 479.38 73.5302 479.46 73.5202C476.03 70.3602 472.76 64.7002 471.76 64.8502C470.28 65.0702 469.44 71.0402 469.35 75.1002C466.02 72.1102 462.8 66.9202 461.84 67.0802C460.43 67.3302 459.76 72.9602 459.76 76.9102C456.48 74.0702 453.3 69.3102 452.37 69.4902C451.16 69.7502 451.01 73.9602 451.06 77.5802C447.98 75.1702 444.99 71.1402 444.25 71.3302C443.11 71.6002 443.02 75.4502 443.14 78.8902C439.61 74.3502 439.67 67.1802 444.31 65.4502C456.76 62.3202 470.19 59.9202 484.64 58.2302C484.23 60.1602 483.86 62.1202 483.56 64.1402C482.91 63.3202 482.4 62.7902 482.09 62.8302C480.53 63.0002 479.64 69.3302 479.46 73.5202C479.55 73.5002 479.51 73.5102 479.46 73.5202ZM484.02 98.0702C484.7 101.8 485.59 105.37 486.68 108.78C486.67 109.14 486.66 109.5 486.66 109.85C483.17 106.78 480.07 102.16 478.65 102.38C477.41 102.57 476.61 108.92 477.31 112.67C473.44 109.87 469.78 104.53 468.26 104.8C467.07 105.01 466.45 111.11 467.16 114.77C463.34 112.1 459.65 107.08 458.18 107.37C457.31 107.54 456.85 110.95 457.01 114.14C457.06 115.15 457.15 116.15 457.35 117.01C453.59 114.5 449.84 109.81 448.44 110.12C447.33 110.36 447.03 116.01 447.86 119.45C444.15 117.08 440.38 112.67 439.01 112.99C437.99 113.25 437.82 118.32 438.6 121.67C433.98 117.89 434.12 109.88 438.63 108.33C452.55 103.81 467.69 100.39 484.02 98.0702ZM488.98 130.29C485.12 128.37 481.48 121.63 480.31 121.82C478.92 122.02 478.05 127.22 478.35 131.98C474.64 130.06 471 123.94 469.88 124.14C468.54 124.39 467.83 129.41 468.27 133.97C464.65 132.11 460.99 126.51 459.92 126.75C458.63 127.04 458.11 131.85 458.65 136.24C458.71 136.23 458.68 136.23 458.65 136.24C458.61 136.25 458.57 136.26 458.65 136.24C454.07 134.77 450.34 129.38 449.6 129.49C448.71 129.61 447.85 134.68 449.86 138.67C449.84 138.68 449.81 138.68 449.79 138.69V138.66C442.01 138.6 439.88 128.17 446.97 125.6C460.22 121.67 474.46 118.69 489.67 116.69C490.14 117.75 490.62 118.78 491.13 119.79C489.71 120.15 488.79 125.41 488.98 130.29ZM635.74 71.3202C635 71.1402 632.01 75.1602 628.93 77.5702C628.98 73.9502 628.83 69.7402 627.62 69.4802C626.7 69.3002 623.51 74.0602 620.23 76.9002C620.23 72.9502 619.56 67.3202 618.15 67.0702C617.19 66.9102 613.97 72.1002 610.64 75.0902C610.55 71.0302 609.72 65.0602 608.23 64.8402C607.23 64.7002 603.96 70.3602 600.54 73.5102C600.58 73.5202 600.62 73.5202 600.53 73.5202C600.44 73.5002 600.48 73.5102 600.53 73.5102C600.35 69.3302 599.46 63.0002 597.91 62.8202C597.6 62.7802 597.09 63.3002 596.45 64.1202C596.15 62.1102 595.78 60.1502 595.37 58.2202C609.82 59.9002 623.25 62.3102 635.69 65.4302C640.32 67.1602 640.38 74.3302 636.86 78.8702C636.97 75.4502 636.88 71.5902 635.74 71.3202ZM595.99 98.0702C612.31 100.4 627.45 103.81 641.38 108.31C645.9 109.86 646.03 117.88 641.42 121.65C642.19 118.31 642.03 113.24 641 112.97C639.64 112.65 635.86 117.06 632.15 119.43C632.98 115.99 632.67 110.34 631.57 110.1C630.16 109.79 626.42 114.48 622.66 116.99C622.86 116.13 622.95 115.14 623 114.12C623.16 110.94 622.7 107.52 621.83 107.35C620.36 107.06 616.66 112.08 612.85 114.75C613.56 111.09 612.95 104.98 611.75 104.78C610.23 104.5 606.57 109.85 602.7 112.65C603.39 108.9 602.6 102.55 601.36 102.36C599.94 102.14 596.84 106.76 593.35 109.83C593.35 109.49 593.34 109.14 593.33 108.79C594.41 105.39 595.3 101.8 595.99 98.0702ZM633.03 125.59C640.13 128.16 638 138.58 630.21 138.65C630.21 138.66 630.21 138.67 630.21 138.68C630.19 138.67 630.16 138.67 630.14 138.66C632.14 134.67 631.29 129.6 630.4 129.48C629.66 129.38 625.93 134.76 621.35 136.23C621.42 136.25 621.39 136.24 621.35 136.23C621.32 136.22 621.29 136.21 621.35 136.23C621.89 131.85 621.37 127.03 620.08 126.74C619.01 126.5 615.35 132.1 611.73 133.96C612.17 129.4 611.46 124.38 610.12 124.13C609 123.93 605.36 130.05 601.65 131.97C601.96 127.21 601.09 122.01 599.69 121.81C598.51 121.63 594.87 128.36 591.02 130.28C591.22 125.41 590.3 120.16 588.89 119.77C589.4 118.76 589.89 117.72 590.35 116.67C605.54 118.68 619.78 121.66 633.03 125.59ZM656.99 114.02C662.34 113.16 668.05 114.01 672.91 116.1C668.75 115.78 664.66 115.52 660.58 115.55C656.98 115.57 653.38 115.81 649.75 116.46C651.99 115.22 654.45 114.43 656.99 114.02ZM650.65 112.17C650.86 112.03 651.08 111.91 651.29 111.78C653.73 110.32 656.5 109.43 659.35 109.11C663.44 108.65 667.7 109.33 671.35 111.09C668.6 110.87 665.92 110.75 663.26 110.78C659.42 110.82 655.62 111.18 651.76 111.95C651.39 112.03 651.02 112.09 650.65 112.17ZM664.56 120.63C661.73 120.71 659.03 120.77 656.34 120.9C655.33 120.95 654.33 121.01 653.31 121.08C652 121.17 650.69 121.29 649.36 121.45C648.71 121.53 648.06 121.61 647.4 121.7C648.03 121.28 648.7 120.92 649.38 120.61C654.08 118.45 659.87 118.58 664.56 120.63ZM746.91 207.26C746.67 206.79 744.19 206.78 743.29 205.97C743.06 205.76 743 205.43 742.86 205.14C743.57 204.49 744.83 202.15 744.58 201.7C744.31 201.18 741.45 201.35 740.45 200.52C740.29 200.39 740.23 200.16 740.12 199.98C740.86 199.38 742.31 196.7 742.02 196.21C741.68 195.65 738.58 195.67 737.31 195.18C737.26 195.09 737.22 195 737.16 194.91C737.94 194.44 739.57 191.32 739.22 190.8C738.84 190.22 735.31 190.53 733.99 189.99C733.99 189.99 733.99 189.99 733.99 189.97C734.81 189.64 736.62 186.04 736.22 185.5C735.8 184.92 732.36 185.43 730.81 185.01C731.72 184.39 733.42 180.83 733 180.28C732.55 179.72 729.16 180.42 727.39 180.14C728.39 179.33 729.98 175.69 729.54 175.18C729.07 174.64 725.88 175.47 723.93 175.38C724.96 174.15 726.28 170.78 725.83 170.31C725.34 169.79 722.19 170.78 720.11 170.84C721.16 169.45 722.39 166.04 721.9 165.59C721.37 165.06 718.24 166.26 716.05 166.46C717.1 164.88 718.24 161.44 717.73 160.99C717.17 160.48 714.07 161.84 711.79 162.18C712.82 160.46 713.85 156.95 713.33 156.51C712.73 156.02 709.64 157.56 707.28 158.07C708.29 156.21 709.24 152.58 708.69 152.17C708.04 151.7 704.96 153.44 702.52 154.09C703.53 152.08 704.38 148.37 703.81 147.97C703.12 147.5 700.04 149.44 697.55 150.25C698.53 148.11 699.29 144.29 698.67 143.89C697.96 143.44 694.89 145.57 692.32 146.55C693.28 144.27 693.95 140.34 693.32 139.96C692.56 139.53 688.58 141.86 685.97 142.98C686.02 142.72 686.07 142.45 686.13 142.19C686.25 141.76 686.37 141.34 686.49 140.9C687.46 137.3 688.09 133.82 688.31 130.52C697.28 136.49 705.42 143.19 712.69 150.62C728.83 167.13 740.87 187.4 748.79 211.24C748.92 211.63 749.76 213.87 749.89 214.27C748.28 213.72 746.56 212.02 745.43 210.3C746.08 209.56 747.11 207.69 746.91 207.26ZM711.8 171.01C727.84 187.42 739.72 207.22 747.27 229.66C747.44 230.18 748.29 232.89 748.46 233.4C746.92 232.9 745.44 231.29 744.26 229.47C745.02 228.46 745.65 227.12 745.42 226.68C745.18 226.25 743.03 226.03 741.56 225.58C742.56 224.49 743.55 222.57 743.24 222.03C742.99 221.6 740.67 221.49 739.09 221.07C740.16 219.87 741.19 217.85 740.85 217.3C740.56 216.85 738.1 216.85 736.41 216.47C737.53 215.18 738.6 213.05 738.22 212.47C737.89 212.02 735.29 212.16 733.48 211.84C734.68 210.43 735.76 208.16 735.34 207.59C735 207.14 732.24 207.43 730.31 207.16C731.36 205.89 732.3 203.99 732.3 203.09C732.3 202.91 732.26 202.76 732.19 202.67C731.83 202.2 728.95 202.65 726.9 202.43C727.97 201.05 728.91 199.12 728.91 198.14C728.91 197.94 728.87 197.8 728.78 197.69C728.38 197.22 725.38 197.85 723.22 197.71C724.54 195.92 725.65 193.29 725.1 192.69C724.67 192.22 721.57 193.03 719.31 192.96C720.65 191.06 721.72 188.34 721.12 187.75C720.67 187.28 717.52 188.27 715.14 188.31C716.48 186.26 717.48 183.51 716.86 182.93C716.35 182.46 713.11 183.65 710.63 183.78C711.97 181.59 712.95 178.73 712.28 178.15C711.74 177.68 708.41 179.11 705.83 179.34C707.15 176.99 708.07 174 707.37 173.42C706.79 172.97 703.37 174.62 700.71 174.96C702.01 172.46 702.9 169.35 702.14 168.77C701.52 168.32 698.03 170.24 695.26 170.69C696.56 168.03 697.4 164.77 696.58 164.23C695.93 163.78 692.34 165.95 689.48 166.53C690.75 163.69 691.51 160.3 690.66 159.76C689.97 159.33 686.31 161.81 683.36 162.49C684.59 159.48 685.3 155.94 684.37 155.41C683.73 155.04 680.76 157.16 677.98 158.22C680.39 155.54 682.35 152.23 683.93 148.43C694.23 155.02 703.52 162.55 711.8 171.01ZM652.4 44.1502C658.01 41.7402 664.8 41.9602 670.25 44.5902C664.86 44.1502 659.72 44.1202 654.53 44.8002C652.88 45.0202 651.22 45.3002 649.55 45.6702C650.45 45.0702 651.41 44.5802 652.4 44.1502ZM651.47 49.4402C655.32 47.8802 659.98 48.2402 663.62 50.1702C660.43 50.2602 657.5 50.2502 654.52 50.3702C652.73 50.4402 650.92 50.5702 649.01 50.7902C649.77 50.2402 650.6 49.7902 651.47 49.4402ZM659.89 54.1502C655.75 55.3502 652.08 55.3002 647.8 55.7702C651.1 52.9402 655.91 52.8102 659.89 54.1502ZM654.49 97.9002C660.42 99.4902 665.47 99.6902 669.78 98.7602C688.63 107.78 704.36 119.39 717.09 133.68C732.19 150.65 743.42 171.49 750.99 197.05C748.73 195.75 747.05 192.09 746.77 191.24C746.73 191.13 746.68 191.02 746.64 190.91V190.95C738.94 174.2 728.91 159.46 716.57 146.82C708.19 138.25 698.72 130.62 688.18 123.94C686.97 114.21 680.98 106.67 667.5 103.05C658.74 100.7 651.9 101.39 646.56 104.31C631.39 99.1402 614.81 95.2602 596.83 92.7002C597.34 88.6202 597.61 84.3802 597.61 79.9802C597.61 79.5102 597.59 79.0502 597.59 78.5802C611.77 80.4802 624.95 83.1502 637.16 86.6002C640.34 91.6702 645.87 95.5902 654.49 97.9002ZM641.16 46.6002C645.16 47.7202 645.18 56.9602 638.23 60.4902H638.22C638.58 57.3402 637.05 52.5102 635.78 51.6002C634.8 50.9202 632.07 55.7602 628.83 58.2602C629.14 55.0002 628 50.1802 626.69 49.3002C625.68 48.6202 622.98 53.7502 619.71 56.4102C619.77 56.4202 619.82 56.4302 619.7 56.4202C619.57 56.3902 619.64 56.4002 619.7 56.4102C619.97 53.0602 618.55 48.0402 617.22 47.1602C616.11 46.4402 613.45 51.9802 610.1 54.7602C610.35 51.3202 608.76 46.0602 607.33 45.1802C606.19 44.4602 603.49 50.4302 600.05 53.3502C600.32 49.8202 598.54 44.2502 597.04 43.3702C596.22 42.8802 594.69 45.7202 592.68 48.5302C591.4 44.7902 589.9 41.2602 588.17 37.9702C607.56 39.7002 625.2 42.5602 641.16 46.6002ZM498.24 37.4602C499.49 35.4602 500.85 33.5502 502.3 31.7502C511.56 20.2702 524.71 13.1502 540 13.1502C555.29 13.1502 568.44 20.2802 577.7 31.7502C579.15 33.5502 580.51 35.4502 581.76 37.4602C582.87 39.2302 583.9 41.0702 584.85 42.9802C587.09 47.5202 588.84 52.4502 590.06 57.6602C591 61.6702 591.62 65.8502 591.89 70.1502C591.99 71.8002 592.06 73.4602 592.06 75.1502C592.06 76.0702 592.04 76.9802 592.01 77.8902C591.84 82.7002 591.24 87.3702 590.25 91.8302C589.85 93.6302 589.39 95.4002 588.86 97.1302C587.66 101.06 586.14 104.8 584.34 108.31C583.04 110.83 581.6 113.22 580.01 115.48C579.34 116.44 578.64 117.37 577.92 118.27C576.25 120.36 574.45 122.31 572.54 124.11C571.1 125.46 569.59 126.73 568.01 127.89C564.11 130.77 559.82 133.05 555.22 134.63C550.46 136.26 545.36 137.15 540 137.15C534.64 137.15 529.54 136.26 524.78 134.63C520.17 133.05 515.88 130.77 511.98 127.88C510.39 126.71 508.87 125.43 507.42 124.06C505.52 122.28 503.74 120.34 502.08 118.26C501.36 117.36 500.67 116.43 499.99 115.47C498.4 113.21 496.95 110.81 495.65 108.28C493.85 104.78 492.33 101.05 491.14 97.1202C490.61 95.3902 490.15 93.6202 489.75 91.8202C488.76 87.3502 488.15 82.6902 487.99 77.8802C487.96 76.9702 487.94 76.0602 487.94 75.1502C487.94 73.4702 488.01 71.8102 488.11 70.1602C488.38 65.8502 489 61.6702 489.94 57.6602C491.16 52.4502 492.91 47.5302 495.15 42.9902C496.1 41.0702 497.13 39.2302 498.24 37.4602ZM438.83 46.6002C454.79 42.5602 472.44 39.7102 491.83 37.9802C490.1 41.2702 488.6 44.8102 487.31 48.5502C485.3 45.7402 483.77 42.8902 482.95 43.3802C481.45 44.2602 479.67 49.8302 479.94 53.3602C476.5 50.4402 473.8 44.4802 472.66 45.1902C471.23 46.0702 469.64 51.3302 469.89 54.7702C466.54 51.9802 463.88 46.4502 462.77 47.1702C461.43 48.0502 460.02 53.0702 460.29 56.4202C460.35 56.4102 460.42 56.4002 460.29 56.4302C460.17 56.4502 460.22 56.4402 460.28 56.4202C457.01 53.7602 454.31 48.6302 453.3 49.3102C452 50.1902 450.86 55.0102 451.16 58.2702C447.92 55.7702 445.18 50.9202 444.21 51.6102C442.94 52.5202 441.41 57.3502 441.77 60.5002H441.76C434.82 56.9502 434.83 47.7202 438.83 46.6002ZM425.5 97.9002C434.12 95.5902 439.66 91.6702 442.86 86.6002C455.07 83.1502 468.25 80.4802 482.44 78.5802C482.43 79.0502 482.42 79.5102 482.42 79.9802C482.42 84.3802 482.7 88.6202 483.2 92.7002C465.22 95.2702 448.63 99.1502 433.46 104.32C428.12 101.41 421.28 100.71 412.52 103.06C399.04 106.67 393.04 114.22 391.84 123.95C381.3 130.63 371.83 138.25 363.45 146.83C351.1 159.47 341.07 174.21 333.37 190.96V190.92C333.33 191.03 333.28 191.14 333.24 191.25C332.96 192.1 331.28 195.76 329.02 197.06C336.59 171.49 347.81 150.65 362.92 133.69C375.64 119.41 391.37 107.79 410.23 98.7702C414.52 99.6902 419.57 99.4902 425.5 97.9002ZM410.75 42.2702C404.3 45.5702 398.57 49.3102 393.32 54.5102C396.57 47.5202 403.65 42.8302 410.75 42.2702ZM396.48 56.0402C401.39 50.6702 408.1 47.0102 414.87 45.9402C410.58 48.1502 406.45 50.5702 402.49 53.2702C399.18 55.5302 395.98 58.0002 392.92 60.7402C393.96 59.0502 395.16 57.4902 396.48 56.0402ZM322.77 159.73C332.26 117.24 353.65 86.5602 388.5 66.3702C388.81 69.0302 389.37 71.7902 390.13 74.6202C390.53 76.1302 390.98 77.5902 391.47 79.0002C388.64 77.7802 385.4 75.3302 384.87 75.9502C384.19 76.7102 384.53 80.1002 385.25 82.4102C382.48 81.4002 379.51 79.1102 379.02 79.7302C378.37 80.4902 378.84 83.7502 379.6 85.9402C376.88 85.0902 373.96 83.0802 373.5 83.6802C372.9 84.4402 373.46 87.5902 374.28 89.6702C371.64 88.9602 368.72 87.1902 368.29 87.7902C367.72 88.5802 368.4 91.5902 369.25 93.5702C366.68 93.0502 363.79 91.4602 363.38 92.0902C362.86 92.8502 363.62 95.8002 364.52 97.6502C362.04 97.2902 359.14 95.9002 358.76 96.5302C358.27 97.3202 359.16 100.21 360.1 101.91C357.69 101.69 354.79 100.51 354.43 101.13C353.97 101.94 354.96 104.77 355.95 106.33C353.63 106.28 350.68 105.26 350.36 105.91C349.95 106.75 351.12 109.75 352.17 111.09C349.96 111.22 346.87 110.35 346.57 111C346.16 111.87 347.48 114.86 348.53 116.02C346.45 116.29 343.32 115.6 343.03 116.26C342.68 117.13 344.12 120.13 345.17 121.08C343.23 121.5 340.01 120.95 339.74 121.66C339.41 122.5 340.83 125.48 341.82 126.31C340.03 126.8 336.9 126.48 336.68 127.16C336.38 127.97 337.77 130.44 338.71 131.32C338.62 131.48 338.58 131.68 338.44 131.79C337.07 132.87 334.04 132.15 333.82 132.8C333.58 133.56 334.44 136.51 335.32 137.42C334.06 138.46 331.35 137.98 331.19 138.58C330.97 139.29 331.9 142.05 332.73 142.93C332.53 143.31 332.73 142.93 332.42 143.21C331.31 144.22 328.91 143.91 328.74 144.48C328.58 145.16 329.35 147.93 330.11 148.8C329.88 149.33 326.62 149.94 326.49 150.52C326.35 151.14 327.14 153.91 327.85 154.76C327.58 155.41 324.57 156.09 324.43 156.69C324.29 157.26 325.14 158.52 325.77 159.32C325.14 160.93 323.87 162.58 321.79 163.72C321.93 163.08 322.63 160.36 322.77 159.73ZM317.81 398.01C319.77 399.38 322.13 398.78 323.01 398.17L326.15 396.02C328.69 394.28 330.89 395.28 332.39 397.28C334.14 399.63 335.78 402.1 337.6 404.36C339.98 407.41 342.39 406.33 343.64 405.33L348.23 401.68C350.52 399.87 352.81 400.49 354.32 402.22L357.82 406.39C359.34 408.08 359.49 410.43 357.35 412.4L353.02 416.35C351.84 417.42 350.37 419.65 352.94 422.43C354.96 424.43 356.92 426.5 358.97 428.45C360.74 430.08 361.28 432.4 359.23 434.67L356.67 437.49C355.62 438.64 354.35 441.15 357.36 443.68C359.68 445.6 361.92 447.63 364.34 449.4C366.37 450.96 367.23 453.31 365.43 455.78L363.02 459.05C362.06 460.35 361.18 462.89 364.63 465.29L366.71 466.93C368.62 468.31 370.67 469.47 372.65 470.75C376.19 473.02 378.24 471.1 379.03 469.74L381.08 466.23C382.63 463.59 385.12 463.46 387.35 464.73C389.96 466.22 392.7 467.48 395.37 468.87C398.93 470.53 400.69 468.46 401.33 467.01L402.89 463.54C404.16 460.74 406.46 460.36 408.67 461.3C411.31 462.31 413.89 463.44 416.57 464.38C420.14 465.62 421.56 463.41 422.07 461.88L423.95 456.32C424.9 453.56 427.06 452.8 429.25 453.42L434.39 454.98C436.62 455.55 438.06 457.47 437.34 460.28L435.87 465.96C435.47 467.49 435.44 470.14 439.1 471.08C432.19 479.83 427.64 490.42 426.36 502.02C404.84 495.51 383.96 486.4 364.91 474.15C355.46 468.41 346.81 461.41 338.76 453.9C333.64 449.15 328.88 444.08 324.3 438.86C321.05 426.33 318.89 412.73 317.81 398.01ZM430.35 532.64C427.11 527.75 423.44 521.88 419.7 515.35C419.01 514.14 417.5 513.75 416.28 514.4C410.4 517.61 404.27 520.76 397.89 523.5C396.56 524.09 394.95 523.52 394.3 522.24C391.42 516.58 388.92 511.12 385.91 503.39C385.39 502.07 384.02 501.72 382.61 501.9C377.74 502.51 371.77 503.62 365 503.67C363.55 503.68 362.36 503.07 361.68 501.79C358.77 496.31 356.65 491.9 354.1 485.82C353.43 484.23 352.51 483.5 351.11 483.74C348.8 484.14 346.49 484.46 344.17 484.76C336.34 472.95 330.29 459.58 325.88 444.6C329.47 448.43 333.18 452.17 337.04 455.76C345.23 463.34 354.08 470.22 363.24 476.7C374.13 483.99 385.91 489.95 398.08 494.55C407.31 498.04 416.75 500.75 426.27 502.82C426.2 503.55 426.14 504.29 426.09 505.03C425.47 515.21 427.45 524.93 431.47 533.6C431.03 533.39 430.64 533.07 430.35 532.64ZM475.65 552.54C480.65 549.51 484.66 546.47 487.75 543.31C490.48 547.1 494.24 550.92 499.11 554.91C491 554.31 483.18 553.52 475.65 552.54ZM537.91 542.73C534.13 547.9 529.52 552.44 524.27 556.14C516.32 555.94 508.63 555.57 501.18 555.06C497.87 551.14 492.55 543.97 488.62 534.53C488.59 534.45 488.52 534.39 488.43 534.39C488.35 534.38 488.27 534.43 488.22 534.5C483.24 542.71 477.34 548.76 473.44 552.26C464.17 551 455.35 549.44 446.97 547.59C442.74 542.93 439.25 537.58 436.67 531.72C436.35 531 436.05 530.28 435.77 529.55C435.38 528.56 435.01 527.55 434.67 526.53C433.03 521.56 432.03 516.29 431.77 510.81C431.66 508.5 431.69 506.21 431.85 503.96C431.86 503.85 431.86 503.75 431.87 503.64C432.66 493.02 436.3 483.15 442.05 474.8C442.16 474.64 442.28 474.47 442.39 474.31C442.9 473.58 443.44 472.87 443.98 472.16C450.12 464.22 458.25 457.88 467.68 453.91C479.92 457.06 493.25 459.5 507.7 460.99C501.53 464.5 496.72 468 493.14 471.66C489.56 466.69 484.23 461.68 476.92 456.3C476.85 456.25 476.74 456.25 476.68 456.32C476.61 456.39 476.6 456.49 476.66 456.56C476.66 456.56 486.16 465.75 492.28 480.45C492.31 480.53 492.38 480.59 492.47 480.59C492.55 480.6 492.63 480.55 492.68 480.48C498.52 470.85 505.61 464.21 509.27 461.14C515.12 461.71 521.15 462.13 527.38 462.37C531.52 465.71 535.19 469.62 538.3 473.96C544.67 482.86 548.64 493.63 549.19 505.37C549.24 506.39 549.25 507.4 549.25 508.41C549.25 508.67 549.25 508.93 549.25 509.19C549.25 509.47 549.23 509.75 549.22 510.02C549.19 511.01 549.14 512 549.06 512.98C548.13 524.01 544.14 534.23 537.91 542.73ZM648.52 526.99C621.2 535.56 584.38 542.76 542.9 542.77C549.01 534.19 552.94 524.03 553.92 513C575.92 512.88 597.23 510.43 617.85 505.42L622.11 522.57C622.28 523.28 623.28 523.63 624.33 523.36L634.04 520.97C635.08 520.67 636.08 520.96 636.28 521.67L636.95 523.97C637.15 524.67 638.17 524.97 639.22 524.64L646.97 522.22C648.02 521.89 649.05 522.18 649.29 522.87L650.05 525.14C650.26 525.82 649.58 526.65 648.52 526.99ZM638.51 505.63C638.42 504.72 639.17 504.04 640.23 503.66C642.86 502.72 646.14 501.57 648.74 500.54C649.79 500.12 650.65 499.36 650.37 498.49C650.09 497.63 649.91 497.56 649.72 496.67C649.57 496 649.91 495.45 650.58 495.02C650.8 494.88 651.06 494.74 651.35 494.62C653.07 493.91 656.09 492.66 657.81 491.96C658.04 491.87 658.25 491.8 658.46 491.74C659.32 491.51 660.01 491.6 660.42 492.22C660.92 492.99 660.85 493.13 661.27 493.95C661.7 494.77 662.68 494.7 663.89 494.12C666.12 493.06 669.73 491.4 671.96 490.32C673.17 489.74 674.06 489.72 674.62 490.46C675.17 491.2 675.11 491.33 675.55 492.14C676 492.95 677.01 492.82 678.19 492.18C680.36 490.99 683.95 489.07 686.09 487.87C687.25 487.22 688.16 487.16 688.74 487.84C689.32 488.53 689.41 488.66 689.7 489.51C690 490.36 689.42 491.12 688.3 491.73C669.73 501.81 650 510.01 629.88 516.47C628.67 516.86 627.71 516.74 627.29 515.94C626.86 515.14 626.88 514.97 626.74 514.09C626.6 513.21 627.49 512.53 628.58 512.2C631.24 511.4 634.69 510.36 637.33 509.42C638.4 509.04 639.18 508.36 639.09 507.45C639 506.56 638.6 506.54 638.51 505.63ZM727.85 481.96C713.02 495.77 697.87 506.05 679.6 514.9C678.53 515.42 677.73 515.36 677.21 514.61C676.68 513.86 676.49 513.27 676.18 512.42C675.87 511.57 676.53 510.85 677.45 510.4C679.71 509.29 682.54 508.04 684.79 506.86C685.71 506.38 686.26 505.65 686 504.76C685.74 503.87 685.15 503.48 684.91 502.59C684.67 501.69 685.03 501.07 686.09 500.49C688.05 499.41 691.05 497.8 693 496.7C694.05 496.1 694.37 495.48 694.1 494.6C693.83 493.71 693.16 493.36 692.9 492.48C692.64 491.6 692.93 490.98 693.93 490.35C695.77 489.17 698.54 487.42 700.38 486.24C701.38 485.6 702.08 485.62 702.75 486.24C703.42 486.86 703.49 487.57 704.14 488.21C704.78 488.85 705.67 488.72 706.51 488.16C708.57 486.77 710.84 484.88 712.69 483.27C713.44 482.62 714.26 482.22 714.89 482.82C715.51 483.42 715.73 483.9 716.39 484.47C717.05 485.04 717.83 484.51 718.6 483.85C720.51 482.22 722.65 480.13 724.5 478.45C725.25 477.77 726.18 477.51 726.85 478.07C727.52 478.64 727.99 479.02 728.5 479.77C728.98 480.52 728.72 481.16 727.85 481.96ZM752.52 441.44C738.13 457.12 721.18 469.29 704.14 481.93C703.12 482.69 702.15 482.75 701.53 482.13C700.91 481.51 700.87 481.33 700.49 480.53C700.11 479.74 700.78 478.86 701.71 478.26C704.01 476.77 706.88 474.65 709.1 473.02C710 472.36 710.57 471.5 710.29 470.66C710.01 469.82 709.63 469.95 709.37 469.11C709.11 468.27 709.67 467.43 710.6 466.78C712.88 465.17 715.71 462.95 717.96 461.32C718.88 460.66 719.46 459.83 719.16 459.01C718.86 458.19 718.48 458.34 718.18 457.53C717.87 456.72 718.45 455.87 719.31 455.24C721 454 723.31 452.28 724.91 450.93C725.72 450.24 726.72 449.81 727.31 450.42C727.9 451.03 727.86 451.16 728.46 451.78C729.07 452.4 729.94 452.06 730.91 451.22C732.7 449.67 735.56 447.01 737.19 445.28C738.07 444.35 738.77 444.09 739.54 444.51C740.2 445.03 740.3 445.3 740.69 445.65C741.35 446.23 742.4 445.99 743.26 444.99C745.31 443 748.01 440.2 749.71 438.3C750.58 437.32 751.35 437.28 751.99 437.77C752.58 438.23 752.6 438.27 753.19 438.93C753.76 439.65 753.38 440.5 752.52 441.44ZM728.38 445.24C694.68 473.54 657.23 492.13 616.96 501.86C596.68 506.76 575.69 509.42 554.1 509.94C554.11 509.64 554.13 509.33 554.13 509.03C554.14 508.77 554.13 508.51 554.14 508.25C554.27 495.65 550.46 483.87 543.73 474.05C590.58 474.56 614.61 466.8 627.56 462.79C628.4 462.53 629.26 462.88 629.49 463.57L630.25 465.84C630.48 466.53 629.97 467.3 629.12 467.57L622.8 469.54C621.95 469.81 621.42 470.59 621.62 471.29L622.29 473.59C622.49 474.28 621.95 475.09 621.08 475.34L612.59 477.41C611.71 477.64 611.13 478.39 611.31 479.1L611.89 481.42L616.42 499.66C667.63 487.03 714.48 460.57 756.91 417.99C747.73 427.91 738.22 436.98 728.38 445.24ZM754.22 159.31C754.85 158.51 755.7 157.25 755.56 156.68C755.42 156.08 752.41 155.4 752.14 154.75C752.85 153.9 753.64 151.13 753.5 150.51C753.37 149.92 750.11 149.31 749.88 148.79C750.64 147.92 751.42 145.15 751.25 144.47C751.09 143.9 748.69 144.21 747.57 143.2C747.26 142.92 747.46 143.3 747.26 142.92C748.09 142.03 749.02 139.27 748.8 138.57C748.64 137.97 745.93 138.45 744.67 137.41C745.56 136.5 746.42 133.55 746.17 132.79C745.95 132.14 742.93 132.86 741.55 131.78C741.4 131.66 741.37 131.47 741.28 131.31C742.22 130.42 743.61 127.96 743.31 127.15C743.09 126.47 739.96 126.79 738.17 126.3C739.17 125.47 740.58 122.49 740.25 121.65C739.98 120.94 736.75 121.49 734.82 121.07C735.87 120.13 737.31 117.12 736.96 116.25C736.66 115.6 733.54 116.29 731.46 116.01C732.51 114.85 733.82 111.86 733.42 110.99C733.12 110.34 730.03 111.21 727.82 111.08C728.87 109.74 730.04 106.74 729.63 105.9C729.3 105.25 726.35 106.26 724.04 106.32C725.04 104.76 726.02 101.94 725.56 101.12C725.21 100.5 722.3 101.68 719.89 101.9C720.83 100.2 721.72 97.3102 721.23 96.5202C720.85 95.9002 717.95 97.2802 715.47 97.6402C716.38 95.7902 717.13 92.8402 716.61 92.0802C716.2 91.4602 713.31 93.0402 710.74 93.5602C711.59 91.5902 712.27 88.5702 711.7 87.7802C711.27 87.1802 708.35 88.9602 705.71 89.6602C706.53 87.5802 707.09 84.4302 706.49 83.6702C706.03 83.0702 703.1 85.0802 700.39 85.9302C701.15 83.7402 701.62 80.4802 700.97 79.7202C700.48 79.1002 697.51 81.3902 694.74 82.4002C695.46 80.0802 695.8 76.7002 695.12 75.9402C694.59 75.3302 691.35 77.7802 688.52 79.0002C689.01 77.5902 689.45 76.1302 689.86 74.6202C690.62 71.7802 691.17 69.0202 691.49 66.3702C726.34 86.5602 747.73 117.25 757.22 159.73C757.36 160.36 758.07 163.08 758.2 163.71C756.12 162.57 754.85 160.93 754.22 159.31Z" fill="white"/>
<path d="M458.65 136.23H458.66V136.22L458.65 136.23Z" fill="white"/>
<path d="M651.789 391.29L653.949 399.31C653.949 399.31 687.479 372.16 698.729 356.54L696.439 349.57L695.659 349.6C683.759 364.33 666.659 378.98 651.789 391.29Z" fill="white"/>
<path d="M482.381 260.91L481.111 259.58C469.161 270.57 463.131 284.25 463.131 296.14C463.131 301.22 464.251 306.62 466.441 312.01C467.051 311.87 467.671 311.73 468.281 311.59C466.131 306.42 464.971 301.17 464.971 296.14C464.971 284.27 471.271 271.14 482.381 260.91Z" fill="white"/>
<path d="M433.689 345.6C432.939 345.67 432.189 345.72 431.449 345.78C443.189 360.26 460.229 373.13 482.559 381.41C483.449 381.09 484.329 380.77 485.219 380.45C467.669 374.24 454.659 365.66 445.499 357.71C441.139 353.92 437.209 349.85 433.689 345.6Z" fill="white"/>
<path d="M563.29 304.21C562.21 304.66 561.08 305.13 559.89 305.64C556.35 309.64 550.45 312.92 542.02 313.39C540.67 313.98 539.26 314.59 537.82 315.21C538.54 315.25 539.25 315.3 540 315.3C551.81 315.29 559.59 310.13 563.29 304.21Z" fill="white"/>
<path d="M577.17 272.26C577.95 272.08 578.7 271.93 579.42 271.81C570.86 263.89 557.71 258.04 540 258.04C505.92 258.04 488.66 279.69 488.66 296.14C488.66 299.12 489.25 302.28 490.39 305.44C490.98 305.25 491.56 305.06 492.14 304.87C491.07 301.92 490.49 298.96 490.49 296.14C490.49 288.17 494.9 279.08 502.96 272.13C510.15 265.94 522.08 259.87 539.99 259.87C557.9 259.87 569.83 265.95 577.02 272.13C577.08 272.18 577.13 272.22 577.17 272.26Z" fill="white"/>
<path d="M613.801 311.44C615.841 306.24 616.871 301.04 616.871 296.14C616.871 271.5 591.041 239.09 540.001 239.09C522.821 239.09 508.511 242.77 497.061 248.59C497.311 249.16 497.501 249.75 497.651 250.36C508.031 245.02 521.921 240.93 540.001 240.93C567.821 240.93 585.761 250.6 596.191 259.63C608.201 270.03 615.031 283.78 615.031 296.15C615.031 301.88 613.551 307.9 610.781 313.75C611.821 312.96 612.821 312.2 613.801 311.44Z" fill="white"/>
<path d="M511.811 328.14C519.371 331.88 528.771 334.24 540.001 334.24C550.021 334.24 558.561 332.36 565.661 329.29C565.811 328.54 565.971 327.78 566.151 327.04C559.421 330.16 550.821 332.4 540.001 332.4C528.461 332.4 519.411 329.87 512.511 326.42C512.331 327.02 512.091 327.59 511.811 328.14Z" fill="white"/>
<path d="M488.301 338.46C500.871 347.22 518.111 353.19 540.001 353.19C541.381 353.19 542.731 353.16 544.081 353.11C544.171 352.48 544.311 351.86 544.501 351.26C543.031 351.32 541.541 351.36 540.001 351.36C517.181 351.36 501.021 344.85 490.181 337.53C489.611 337.91 488.991 338.22 488.301 338.46Z" fill="white"/>
<path d="M539.999 278.82C544.759 278.82 548.759 279.71 552.059 281.13C552.839 280.8 553.599 280.49 554.359 280.18C550.519 278.24 545.749 276.99 539.989 276.99C522.859 276.99 514.189 287.87 514.189 296.14C514.189 296.41 514.219 296.69 514.239 296.97C514.849 296.73 515.429 296.5 516.029 296.27C516.029 296.23 516.019 296.18 516.019 296.14C516.029 289.16 523.649 278.82 539.999 278.82Z" fill="white"/>
<path d="M702.311 347.29L703.871 348.29C709.161 339.15 713.091 329.8 715.601 320.57L714.241 320.33L713.761 320.25C711.241 329.4 707.401 338.51 702.311 347.29Z" fill="white"/>
<path d="M691.07 314.99C692.66 308.56 693.46 302.24 693.46 296.14C693.46 293.37 693.3 290.55 692.97 287.68C692.35 287.7 691.76 287.73 691.12 287.75C691.45 290.56 691.63 293.36 691.63 296.13C691.63 302.32 690.78 308.64 689.17 314.96L691.07 314.99Z" fill="white"/>
<path d="M428.57 250.22C417.61 265.14 412.07 281.47 412.07 296.14C412.07 302.55 413.15 309.28 415.25 316.07C415.89 316.14 416.55 316.2 417.2 316.25C415.04 309.52 413.9 302.74 413.9 296.14C413.9 281.36 419.61 265.66 429.81 251.64C429.35 251.21 428.93 250.73 428.57 250.22Z" fill="white"/>
<path d="M657.551 263.55L658.551 263.09L659.231 262.77C642.751 230.78 602.881 201.19 540.001 201.19C537.191 201.19 534.421 201.26 531.711 201.37L531.941 203.2C534.571 203.09 537.251 203.02 540.001 203.02C587.641 203.02 617.591 219.9 634.501 234.6C644.351 243.12 652.181 253.1 657.551 263.55Z" fill="white"/>
<path d="M669.98 236.31C655.56 218.6 634.52 202.93 606.85 193.09L606.26 194.8C627.28 202.29 642.78 212.61 653.67 222.08C659.27 226.95 664.31 232.21 668.77 237.74C669.17 237.24 669.57 236.77 669.98 236.31Z" fill="white"/>
<path d="M634.16 322.95C633.43 323.83 632.64 324.72 631.79 325.63C627.63 332.65 622.1 339.32 615.35 345.18C608.9 350.77 600.14 356.66 588.76 361.34C589.5 361.71 590.26 362.05 591.03 362.38C612.39 353.22 627.13 338.67 635.17 323.37C634.81 323.26 634.49 323.09 634.16 322.95Z" fill="white"/>
<path d="M460.591 341.39C459.881 341.54 459.161 341.72 458.461 341.86C470.971 354.57 489.091 365 512.771 369.6C513.801 369.17 514.831 368.74 515.831 368.31C491.691 364.17 475.141 354.28 464.661 345.18C463.241 343.95 461.901 342.68 460.591 341.39Z" fill="white"/>
<path d="M644.319 404.62L643.339 403.08C618.949 416.35 585.199 427.16 540.009 427.16C533.129 427.16 526.539 426.91 520.179 426.44L520.109 428.25C526.559 428.74 533.179 428.99 540.009 428.99C582.189 428.99 616.999 419.48 644.319 404.62Z" fill="white"/>
<path d="M612.6 397.01L611.86 395.38C592.99 402.89 569.31 408.2 540.01 408.2C514.46 408.2 493.19 404.18 475.66 398.15L475.24 399.08L474.92 399.8C493.66 406.25 515.35 410.05 540.01 410.05C568.02 410.05 592.23 405.12 612.6 397.01Z" fill="white"/>
<path d="M369.449 330.09C368.999 330.53 368.499 330.93 367.939 331.26C384.619 374.4 431.349 417.42 507.639 427.01L507.719 425.18C458.799 419.05 426.579 399.62 407.169 382.72C389.719 367.53 376.719 349.12 369.449 330.09Z" fill="white"/>
<path d="M704.369 208.99C728.599 234.87 742.699 266.49 742.699 296.14C742.699 330.53 723.739 367.58 691.989 395.24C665.349 418.44 617.359 446.1 540.009 446.1C462.659 446.1 414.659 418.44 388.029 395.24C376.839 385.49 367.249 374.58 359.509 363.03L357.949 364.04C388.239 409.27 449.089 447.93 540.009 447.93C675.809 447.93 744.539 361.69 744.539 296.13C744.539 267.63 731.549 235.23 705.719 207.71L704.369 208.99Z" fill="white"/>
<path d="M407.18 209.55C413.73 203.85 421.73 197.86 431.34 192.19L430.48 190.59C406.41 204.75 388.56 223.11 376.99 242.51C377.57 242.78 378.12 243.1 378.61 243.48C385.91 231.26 395.54 219.69 407.18 209.55Z" fill="white"/>
<path d="M366.83 219.19L365.45 217.96C345.51 243.07 335.48 271.11 335.48 296.13C335.48 314.34 340.79 334.15 351.37 353.27L352.93 352.26C342.85 334.04 337.32 314.7 337.32 296.14C337.31 270.29 348.02 242.93 366.83 219.19Z" fill="white"/>
<path d="M634.499 357.7C634.209 357.95 633.919 358.21 633.619 358.46L637.459 357.52C657.719 339.14 667.929 316.11 667.929 296.14C667.929 291.6 667.369 286.89 666.319 282.11L664.509 282.42C665.559 287.04 666.099 291.64 666.099 296.14C666.099 317.32 654.419 340.39 634.499 357.7Z" fill="white"/>
<path d="M448.98 261.97C441.41 273.18 437.59 285.22 437.59 296.14C437.59 302.53 438.93 309.32 441.52 316.11C442.15 316.04 442.79 315.98 443.42 315.93C440.81 309.32 439.44 302.6 439.44 296.14C439.44 285.26 443.33 273.71 450.43 263.15L448.98 261.97Z" fill="white"/>
<path d="M404.121 344.77C403.291 344.63 402.451 344.48 401.641 344.32C413.301 362.88 431.731 380.17 456.881 392.36L457.451 391.41L457.801 390.84C444.641 384.45 434.261 377.1 426.331 370.22C417.511 362.54 410.041 353.9 404.121 344.77Z" fill="white"/>
<path d="M481.121 213.36C491.971 209.12 504.681 205.77 519.451 204.14L519.231 202.35C504.421 204.02 491.151 207.4 479.381 212.09L481.121 213.36Z" fill="white"/>
<path d="M578.411 387C578.191 386.44 578.021 385.87 577.891 385.28C566.741 387.76 554.151 389.26 540.001 389.26C539.011 389.26 538.031 389.24 537.051 389.23C537.141 389.83 537.181 390.43 537.181 391.04C538.121 391.05 539.051 391.1 540.001 391.1C553.941 391.09 566.731 389.61 578.411 387Z" fill="white"/>
<path d="M540 165.12C607.45 165.12 649.43 189.18 672.83 209.55C678.68 214.64 683.99 220.11 688.79 225.82C689.29 225.45 689.85 225.14 690.45 224.88C661.76 190.62 611.51 163.29 540.01 163.29C500.75 163.29 467.91 171.53 441.51 184.63L442.37 186.22C466.23 174.36 498.23 165.12 540 165.12Z" fill="white"/>
<path d="M594.321 191.03L594.901 189.35C578.601 184.84 560.321 182.24 540.011 182.24C438.121 182.24 386.551 246.95 386.551 296.14C386.551 299.71 386.861 303.38 387.401 307.08C387.561 307.07 387.711 307.06 387.871 307.06C388.351 307.06 388.811 307.1 389.251 307.15C388.691 303.45 388.381 299.77 388.381 296.14C388.381 270.55 402.491 242.82 426.341 222.07C446.491 204.54 482.461 184.07 540.011 184.07C560.851 184.07 578.861 186.77 594.321 191.03Z" fill="white"/>
<path d="M491.439 228.87L493.129 230.18C505.569 225.33 521.019 221.96 539.999 221.96C573.239 221.96 595.769 232.26 610.009 242.82L610.439 240.86C593.579 228.59 570.079 220.13 539.989 220.13C521.249 220.14 505.069 223.43 491.439 228.87Z" fill="white"/>
<path d="M465.08 242.85L466.41 241.21L466.1 240.97L465.13 240.22L464.49 239.73L450.32 228.73L448.87 227.6L447.86 228.88L435.17 244.83L452.68 258.2L465.08 242.85Z" fill="white"/>
<path d="M498.401 237.51L482.281 225L480.871 223.9L479.431 225.71L469.571 238.08L469.121 238.65L467.141 241.13L469.431 242.88L484.661 254.49L498.401 237.51Z" fill="white"/>
<path d="M366.389 316.85C378.619 334.6 398.739 341.39 421.269 341.39C461.959 341.39 510.549 322.1 534.929 311.48C559.269 300.94 570.529 295.68 577.719 294.41C585.319 293.11 588.339 295.05 583.119 301.57C577.479 308.61 567.939 320.96 568.729 339.3C568.809 341.08 568.93 342.8 569.09 344.48C551.93 354.52 535.969 362.77 527.289 366.34C514.729 371.95 489.429 382.57 466.459 389.69L463.069 390.91C451.749 394.33 512.66 391.07 529.09 386.76C537.79 383.78 555.109 375.45 573.449 364.64C580.109 382.25 592.909 390.22 607.129 390.35C641.599 390.7 686.189 349.22 710.609 317.41C714.229 312.71 717.659 306.77 718.559 303.82C718.749 303.23 718.899 302.66 719.059 302.09C719.489 301.44 719.889 299.84 720.229 297.92C722.109 290.33 723.589 272.67 715.979 255.48C711.309 244.92 698.759 230.01 687.099 229.67C678.119 229.71 664.879 242.22 663.289 260.99C662.679 271.06 666.389 279.91 677.669 282.39C683.609 283.67 694.429 282.76 699.579 282.55C706.339 282.37 712.529 283.9 715.539 288.72C715.809 289.42 716.049 290.08 716.249 290.7C715.339 291.92 714.179 293.46 712.629 295.42C687.789 327.19 642.799 368.65 608.359 368.3C598.789 368.21 588.819 365.4 581.479 359.79C598.189 349.41 614.84 337.34 625.84 325.68C633.67 318.11 636.779 313.44 639.479 304.79C639.509 304.69 639.529 304.6 639.569 304.49C642.629 297.54 642.949 291.78 642.619 285.97C642.199 278.93 639.289 270.74 636.299 264.92C633.979 260.49 632.289 256.57 630.919 253.02C632.939 253.56 634.539 254.04 635.429 254.45L638.21 255.59C644.45 258.36 629.069 241.35 617.539 226.4V226.41C617.539 226.4 617.53 226.4 617.53 226.39L613.419 244.98L612.749 247.99C612.759 247.99 612.76 247.99 612.77 248C614.94 250.17 616.57 251.45 617.03 253.09C619.5 263.59 623.5 273.19 630.34 286.24C633.35 292.06 633.809 292.93 634.249 294.54C634.429 295.06 634.66 295.61 634.9 296.2C633.2 298.24 630.979 300.55 627.679 303.68C614.769 315.88 592.109 330.9 570.939 343.38C569.029 332.37 572.559 324.03 576.369 318.7C578.879 315.19 582.309 310.67 586.599 306.42C601.859 289.66 599.129 275.5 586.349 273.94C578.479 272.98 563.269 279.19 538.929 289.74C514.999 300.05 468.769 319.28 428.949 319.28C404.249 319.28 383.459 313.46 370.369 295.09C361.849 281.38 367.339 264.29 370.659 252.84L371.539 249.97C370.239 243.78 346.929 282.76 366.389 316.85ZM695.28 260.75C689.3 261.26 683.619 262.01 679.919 261.32C676.219 260.73 674.369 259.1 674.559 258.11C675.589 254.12 680.229 250.99 686.299 251.74C691.749 252.41 696.389 256.14 700.349 261.03C698.819 260.7 697.14 260.59 695.28 260.75Z" fill="white"/>
<path d="M466.01 228.03L477.37 213.71L462.83 202.4L451.26 216.74L466.01 228.03Z" fill="white"/>
<path d="M428.979 456.24C431.699 457.28 432.379 458.46 432.789 459.16C433.359 460.14 433.229 463.26 432.379 468.71C432.359 468.81 432.429 468.91 432.529 468.93C432.549 468.93 432.559 468.94 432.579 468.94C432.659 468.94 432.739 468.89 432.769 468.8C432.789 468.74 434.699 462.95 435.489 460.02C435.589 459.65 435.629 459.11 435.429 458.7C434.749 457.24 433.159 456.76 429.099 455.87C428.999 455.85 428.899 455.91 428.869 456.01C428.829 456.1 428.879 456.2 428.979 456.24Z" fill="white"/>
<path d="M348.271 416.78C348.311 416.78 348.361 416.77 348.391 416.74C348.441 416.7 353.221 412.9 355.481 410.89C355.761 410.64 356.091 410.21 356.161 409.76C356.381 408.27 355.911 407.79 353.291 405.14C352.981 404.83 352.641 404.49 352.281 404.11C352.211 404.03 352.091 404.03 352.011 404.1C351.931 404.17 351.921 404.28 351.981 404.37C353.601 406.6 353.851 407.7 353.741 408.68C353.681 409.17 352.251 411.91 348.131 416.46C348.061 416.54 348.061 416.65 348.131 416.73C348.161 416.76 348.211 416.78 348.271 416.78Z" fill="white"/>
<path d="M355.159 446.04C355.089 446.12 355.099 446.24 355.169 446.31C357.519 448.56 359.059 450.85 359.199 451.77C359.209 451.83 359.219 451.89 359.239 451.96C359.369 452.62 359.649 453.98 356.919 458.55C356.869 458.64 356.889 458.75 356.969 458.81C357.009 458.84 357.049 458.85 357.089 458.85C357.139 458.85 357.189 458.83 357.229 458.79C357.249 458.76 359.729 456.19 361.589 453.79C361.829 453.49 362.059 452.99 362.019 452.51C361.869 450.86 359.309 448.87 355.429 446.01C355.339 445.95 355.219 445.97 355.159 446.04Z" fill="white"/>
<path d="M351.249 424.83C351.179 424.9 351.169 425.02 351.239 425.1C353.349 427.55 354.479 429.76 354.479 430.61C354.479 430.68 354.479 430.75 354.489 430.83C354.529 431.53 354.599 432.85 351.439 437.05C351.379 437.13 351.389 437.24 351.459 437.31C351.499 437.35 351.549 437.36 351.589 437.36C351.639 437.36 351.679 437.34 351.719 437.31C351.749 437.29 354.439 434.95 356.519 432.74C356.779 432.46 357.069 432 357.079 431.53C357.129 430.01 355.159 427.99 351.509 424.81C351.449 424.76 351.329 424.76 351.249 424.83Z" fill="white"/>
<path d="M413.429 512.93C411.489 513.44 409.839 513.92 408.239 514.38C405.889 515.06 403.67 515.69 400.92 516.35C399.17 516.77 397.81 516.5 396.88 515.56C394.51 513.17 394.34 513.24 394.23 513.29C394.17 513.31 394.12 513.36 394.1 513.41C393.99 513.66 394.569 515.24 395.079 516.25L395.42 516.91C396.47 518.97 396.95 519.9 398.32 520.14C398.46 520.17 398.619 520.18 398.779 520.18C399.979 520.18 401.589 519.5 402.499 519.12L402.689 519.04H402.7C406.88 517.05 413.53 513.34 413.6 513.31C413.69 513.26 413.729 513.15 413.689 513.06C413.639 512.96 413.529 512.91 413.429 512.93Z" fill="white"/>
<path d="M379.35 498.85C375.43 498.77 372.99 498.58 369.28 498.3L368.07 498.21C367.1 498.15 365.18 497.66 364.15 496.21C363.71 495.59 362.25 493.58 361.9 493.57C361.84 493.58 361.78 493.62 361.76 493.67C361.62 493.91 361.89 495.49 362.26 496.59L362.36 496.89C363.15 499.34 363.55 500.58 364.94 500.73C365.45 500.79 366.02 500.81 366.65 500.81C371.06 500.81 377.88 499.54 379.39 499.25C379.49 499.23 379.57 499.14 379.56 499.03C379.55 498.94 379.46 498.85 379.35 498.85Z" fill="white"/>
<path d="M614.05 475.6C615.85 475.66 617.36 474.25 617.42 472.45C617.48 470.65 616.07 469.14 614.27 469.08C614.02 469.07 613.76 469.1 613.5 469.15C613.43 469.16 613.38 469.23 613.39 469.3C613.4 469.37 613.45 469.43 613.52 469.43C614.7 469.51 615.59 470.49 615.55 471.66C615.51 472.86 614.51 473.8 613.31 473.76C612.24 473.72 611.35 472.9 611.23 471.83C611.22 471.76 611.16 471.7 611.09 471.7C611.02 471.7 610.96 471.75 610.94 471.82C610.92 471.97 610.9 472.1 610.9 472.22C610.84 474.03 612.26 475.54 614.05 475.6Z" fill="white"/>
<path d="M598.389 472.44C598.139 472.43 597.879 472.46 597.619 472.51C597.549 472.52 597.499 472.59 597.509 472.66C597.519 472.73 597.569 472.79 597.639 472.79C598.819 472.87 599.709 473.85 599.669 475.02C599.629 476.22 598.629 477.16 597.429 477.12C596.359 477.08 595.469 476.26 595.349 475.19C595.339 475.12 595.279 475.06 595.209 475.06C595.139 475.06 595.079 475.11 595.059 475.18C595.039 475.33 595.019 475.46 595.019 475.58C594.959 477.38 596.369 478.89 598.169 478.95C599.969 479.01 601.479 477.6 601.539 475.8C601.599 474.01 600.179 472.5 598.389 472.44Z" fill="white"/>
<path d="M582.319 475.03C582.069 475.02 581.809 475.04 581.549 475.1C581.479 475.11 581.429 475.18 581.439 475.25C581.449 475.32 581.499 475.38 581.569 475.38C582.749 475.46 583.639 476.44 583.599 477.61C583.559 478.81 582.559 479.75 581.359 479.71C580.289 479.67 579.399 478.85 579.279 477.78C579.269 477.71 579.209 477.65 579.139 477.65C579.069 477.65 579.009 477.7 578.989 477.77C578.969 477.92 578.949 478.05 578.949 478.17C578.889 479.97 580.299 481.48 582.099 481.54C583.899 481.6 585.409 480.19 585.469 478.39C585.539 476.6 584.119 475.09 582.319 475.03Z" fill="white"/>
<path d="M566.149 476.57C565.899 476.56 565.639 476.59 565.379 476.64C565.309 476.65 565.259 476.72 565.269 476.79C565.269 476.86 565.329 476.92 565.399 476.92C566.569 477 567.469 477.98 567.429 479.15C567.389 480.35 566.389 481.29 565.189 481.25C564.119 481.21 563.229 480.39 563.109 479.32C563.099 479.25 563.039 479.19 562.969 479.19C562.899 479.19 562.839 479.24 562.819 479.31C562.799 479.46 562.779 479.59 562.779 479.71C562.719 481.51 564.129 483.02 565.929 483.08C567.729 483.14 569.239 481.73 569.299 479.93C569.359 478.14 567.949 476.63 566.149 476.57Z" fill="white"/>
<path d="M551.53 477.13C551.28 477.12 551.02 477.15 550.76 477.2C550.69 477.21 550.64 477.28 550.65 477.35C550.65 477.42 550.71 477.48 550.78 477.48C551.95 477.56 552.85 478.54 552.81 479.71C552.77 480.91 551.77 481.85 550.57 481.81C549.5 481.77 548.61 480.95 548.49 479.88C548.48 479.81 548.42 479.75 548.35 479.75C548.28 479.75 548.22 479.8 548.2 479.87C548.18 480.02 548.16 480.15 548.16 480.27C548.1 482.07 549.51 483.58 551.31 483.64C553.11 483.7 554.62 482.29 554.68 480.49C554.74 478.7 553.32 477.19 551.53 477.13Z" fill="white"/>
<path d="M630.309 523.68C630.059 523.67 629.809 523.7 629.539 523.75C629.469 523.76 629.419 523.83 629.429 523.9C629.429 523.97 629.489 524.03 629.559 524.03C630.739 524.11 631.629 525.09 631.589 526.26C631.549 527.46 630.549 528.4 629.349 528.36C628.279 528.32 627.389 527.5 627.269 526.43C627.259 526.36 627.199 526.3 627.129 526.3C627.059 526.3 626.999 526.35 626.979 526.42C626.959 526.57 626.939 526.7 626.939 526.82C626.879 528.62 628.289 530.13 630.089 530.19C631.889 530.25 633.399 528.84 633.459 527.04C633.519 525.25 632.109 523.74 630.309 523.68Z" fill="white"/>
<path d="M611.58 527.45C611.51 527.46 611.46 527.53 611.47 527.6C611.48 527.67 611.53 527.73 611.6 527.73C612.78 527.81 613.67 528.79 613.63 529.96C613.59 531.16 612.59 532.1 611.39 532.06C610.32 532.02 609.43 531.2 609.31 530.13C609.3 530.06 609.24 530 609.17 530C609.1 530 609.04 530.05 609.02 530.12C609 530.27 608.98 530.4 608.98 530.52C608.92 532.32 610.33 533.83 612.13 533.89C613.93 533.95 615.44 532.54 615.5 530.74C615.56 528.7 613.73 527.01 611.58 527.45Z" fill="white"/>
<path d="M593.36 530.39C593.11 530.38 592.85 530.41 592.59 530.46C592.52 530.47 592.47 530.54 592.48 530.61C592.48 530.68 592.54 530.74 592.61 530.74C593.79 530.82 594.68 531.8 594.64 532.97C594.6 534.17 593.6 535.11 592.4 535.07C591.33 535.03 590.44 534.21 590.32 533.14C590.31 533.07 590.25 533.01 590.18 533.01C590.11 533.01 590.05 533.06 590.03 533.13C590.01 533.28 589.99 533.41 589.99 533.53C589.93 535.33 591.34 536.84 593.14 536.9C594.94 536.96 596.45 535.55 596.51 533.75C596.57 531.96 595.15 530.45 593.36 530.39Z" fill="white"/>
<path d="M574.19 532.54C573.94 532.53 573.69 532.56 573.43 532.61C573.36 532.62 573.31 532.69 573.31 532.76C573.31 532.83 573.37 532.89 573.44 532.89C574.62 532.97 575.51 533.95 575.47 535.12C575.43 536.32 574.43 537.26 573.23 537.22C572.16 537.18 571.27 536.36 571.15 535.29C571.14 535.22 571.08 535.16 571.01 535.16C570.94 535.16 570.88 535.21 570.86 535.28C570.84 535.43 570.82 535.56 570.82 535.68C570.76 537.48 572.17 538.99 573.97 539.05C575.77 539.11 577.28 537.7 577.34 535.9C577.4 534.11 575.99 532.6 574.19 532.54Z" fill="white"/>
<path d="M555.489 533.16C555.239 533.15 554.979 533.18 554.719 533.23C554.649 533.24 554.599 533.31 554.609 533.38C554.609 533.45 554.669 533.51 554.739 533.51C555.919 533.59 556.809 534.57 556.769 535.74C556.729 536.94 555.729 537.88 554.529 537.84C553.459 537.8 552.569 536.98 552.449 535.91C552.439 535.84 552.379 535.78 552.309 535.78C552.239 535.78 552.179 535.83 552.159 535.9C552.139 536.05 552.119 536.18 552.119 536.3C552.059 538.1 553.469 539.61 555.269 539.67C557.069 539.73 558.579 538.32 558.639 536.52C558.699 534.72 557.289 533.21 555.489 533.16Z" fill="white"/>
<path d="M491.45 78.3599C491.44 78.0799 491.43 77.7899 491.42 77.5099C491.22 71.9899 491.77 66.4199 493 61.0299C493.29 59.7699 493.61 58.5099 493.98 57.2699C495.01 53.7499 496.32 50.3199 497.92 47.0699C499.67 43.4999 501.74 40.1399 504.12 37.0599C505.7 35.0199 507.41 33.1099 509.24 31.3499C518.68 22.2899 531.44 17.2899 546.46 19.8099C555.23 21.7199 562.64 25.7699 568.65 31.2399C570.59 32.9999 572.38 34.9099 574.02 36.9499C576.83 40.4299 579.21 44.2699 581.15 48.3599C582.49 51.1799 583.62 54.1199 584.54 57.1399C585.04 58.7999 585.47 60.4799 585.85 62.1699C586.95 67.1499 587.49 72.2699 587.46 77.3899C587.44 82.0899 586.94 86.7799 585.95 91.3399C585.56 93.1299 585.09 94.8999 584.54 96.6499C584.12 97.9999 583.66 99.3199 583.15 100.63C581.13 105.81 578.4 110.67 574.92 115C572.78 117.67 570.36 120.13 567.66 122.34C564.95 124.55 561.97 126.52 558.69 128.17C554.03 130.4 548.98 131.83 543.79 132.4C552.56 132.06 560.85 128.77 567.79 123.6C571.06 121.17 574.02 118.32 576.61 115.16C578.55 112.79 580.27 110.25 581.73 107.58C582.5 106.25 583.2 104.89 583.86 103.51C584.89 101.35 585.78 99.1299 586.54 96.8699C587.13 95.1299 587.64 93.3599 588.08 91.5799C589.18 87.0299 589.77 82.3499 589.89 77.6599C590 73.0499 589.64 68.4199 588.82 63.8799C588.42 61.6899 587.92 59.5299 587.31 57.3899C586.18 53.4599 584.69 49.6299 582.85 45.9899C581.29 42.8999 579.48 39.9499 577.41 37.1699C576.4 35.8099 575.33 34.4799 574.19 33.2099C573.68 32.6099 573.15 32.0299 572.61 31.4599C558.26 16.2899 534.06 11.6399 516.14 23.4999C512.55 25.7599 509.35 28.4699 506.52 31.5099C504.86 33.2999 503.32 35.2099 501.92 37.2099C500.04 39.8999 498.41 42.7699 497.02 45.7699C495.3 49.4799 493.96 53.3799 493 57.3699C492.67 58.7299 492.39 60.1099 492.15 61.4899C491.23 66.8099 490.97 72.2199 491.39 77.5299C491.41 77.7899 491.43 78.0799 491.45 78.3599Z" fill="white"/>
<path d="M531.48 42.7C529.51 42.7 527.48 43.2 525.66 44.1C524.28 44.78 523.03 45.7 522.01 46.83C520.5 48.51 519.51 50.64 519.43 53.16L519.4 54.27L520.08 53.39C521.34 51.76 523.07 50.57 524.88 49.74C524.99 49.69 525.1 49.62 525.22 49.58C527.15 48.76 529.15 48.36 530.79 48.36C531.62 48.36 532.38 48.46 533.04 48.65C529.37 50.12 527.2 52.71 526.34 55.44C525.95 56.69 525.82 57.96 525.96 59.18C526.02 59.7 526.12 60.21 526.27 60.69L526.65 61.92L526.97 60.68C527.28 59.46 527.82 58.36 528.48 57.39C528.99 56.64 529.57 55.96 530.19 55.37C532.42 53.24 535.18 52.09 536.81 52.04V55.3V69.19V72.38C536.78 73.41 536.63 74.31 536.43 75.09C536.01 76.74 535.37 77.85 535.1 78.27L534.84 78.79H544.54L545.09 78.73L544.83 78.21C544.58 77.83 543.95 76.73 543.54 75.09C543.35 74.31 543.2 73.41 543.18 72.39V52.01C544.81 52.06 547.56 53.21 549.8 55.34C550.43 55.94 551.01 56.62 551.52 57.38C552.17 58.35 552.71 59.44 553.02 60.66L553.34 61.92L553.72 60.68C553.87 60.17 553.98 59.65 554.03 59.11C554.15 57.91 554.02 56.66 553.62 55.44C552.75 52.71 550.58 50.13 546.92 48.66C547.58 48.47 548.34 48.37 549.17 48.37C550.82 48.37 552.84 48.77 554.78 49.61C554.89 49.66 554.99 49.72 555.1 49.77C556.9 50.59 558.61 51.78 559.87 53.4L560.55 54.28L560.52 53.17C560.45 50.67 559.46 48.54 557.97 46.87C556.96 45.74 555.71 44.82 554.34 44.14C552.5 43.22 550.46 42.72 548.48 42.72C548.38 42.72 548.28 42.74 548.18 42.74C547.79 42.75 547.39 42.77 547.02 42.82C547.52 42.42 548.12 42.07 548.77 41.76C550.08 41.15 551.63 40.75 553.28 40.62C553.64 40.59 554 40.58 554.37 40.58C555.91 40.58 557.39 40.83 558.64 41.3L559.71 41.7L559.07 40.76C557.21 38.01 553.93 36.36 550.3 36.36C547.77 36.36 545.34 37.18 543.39 38.68C543.04 37.7 542.47 36.81 541.83 36.02C541.31 35.37 540.76 34.78 540.25 34.24L539.99 33.96L539.73 34.23C539.24 34.74 538.67 35.34 538.13 36.01C537.51 36.79 536.93 37.68 536.57 38.68C534.62 37.18 532.18 36.36 529.66 36.36C526.04 36.36 522.76 38 520.89 40.76L520.24 41.71L521.31 41.31C522.57 40.84 524.04 40.59 525.58 40.59C525.96 40.59 526.34 40.61 526.71 40.64C528.37 40.77 529.93 41.18 531.24 41.8C531.87 42.1 532.44 42.44 532.93 42.83C532.57 42.78 532.2 42.77 531.82 42.76C531.71 42.71 531.6 42.7 531.48 42.7Z" fill="white"/>
<path d="M551.14 104.61C550.73 105.34 550.38 105.92 550.08 106.34C549.04 107.76 547.11 108.98 545.86 109L544.34 109.02L545.71 109.68C546.93 110.27 548.09 110.57 549.16 110.57C551.26 110.57 553.05 109.47 554.65 107.21C556.7 108.63 558.42 109.62 559.9 110.21C561.69 110.92 563.49 111.29 565.24 111.29C569.56 111.29 572.84 109.1 573.4 105.83L573.5 105.26L572.94 105.42C571.28 105.9 569.75 106.13 568.28 106.13C567.95 106.13 567.63 106.11 567.3 106.08C566.72 106.04 566.13 105.96 565.55 105.84C563.46 105.42 561.31 104.5 558.94 103.02C558.49 102.74 558.03 102.44 557.56 102.12C558.98 99.9699 560.29 99.1099 561.25 98.7999C561.65 98.6699 561.99 98.6299 562.25 98.6299C562.79 98.6299 563.11 98.7799 563.13 98.7899L564.28 99.3499L563.6 98.2699C563.31 97.8199 562.93 97.4299 562.47 97.0999C561.62 96.4899 560.53 96.1199 559.41 96.1199C557.98 96.1199 556.63 96.6999 555.61 97.7599C555.31 98.0799 555 98.4499 554.68 98.8499C554.51 99.0699 554.34 99.2899 554.16 99.5399C553.8 99.2499 553.43 98.9499 553.06 98.6299C552.56 98.2099 552.06 97.7799 551.57 97.3599C550.72 96.6399 549.87 95.9199 549.02 95.1999C548.71 94.9299 548.4 94.6699 548.09 94.4099C546.86 93.3599 545.62 92.2999 544.39 91.2699C544.99 90.6899 545.91 89.8699 547.09 88.9599C551.32 85.6599 559.04 80.9899 568.98 80.9899C571.65 80.9899 574.34 81.3399 576.99 82.0199L578.28 82.3499L577.34 81.4099C573.69 77.7699 569.39 75.9199 564.58 75.9199C554.6 75.9199 544.49 83.9699 539.97 87.6299C535.46 83.9799 525.34 75.9199 515.36 75.9199C510.55 75.9199 506.25 77.7699 502.6 81.4099L501.66 82.3499L502.95 82.0199C505.6 81.3399 508.29 80.9899 510.96 80.9899C520.84 80.9899 528.54 85.6099 532.84 88.9599C533.99 89.8599 534.92 90.6699 535.55 91.2699C534.32 92.2999 533.09 93.3599 531.85 94.4099C531.54 94.6699 531.24 94.9299 530.93 95.1899C530.08 95.9099 529.24 96.6199 528.4 97.3399C527.89 97.7699 527.38 98.2099 526.88 98.6299C526.51 98.9499 526.14 99.2499 525.78 99.5399C525.61 99.2999 525.45 99.0999 525.29 98.8899C524.97 98.4699 524.65 98.0799 524.33 97.7599C523.31 96.6999 521.96 96.1199 520.53 96.1199C519.42 96.1199 518.34 96.4799 517.49 97.0799C517.03 97.4099 516.63 97.8099 516.34 98.2699L515.65 99.3599L516.81 98.7899C516.81 98.7899 517.14 98.6299 517.68 98.6299C517.95 98.6299 518.31 98.6699 518.73 98.8199C519.69 99.1499 520.98 100.01 522.37 102.13C521.91 102.45 521.47 102.74 521.02 103.01C518.65 104.5 516.51 105.42 514.42 105.84C513.83 105.96 513.25 106.04 512.67 106.08C512.33 106.11 511.99 106.13 511.65 106.13C510.18 106.13 508.66 105.9 506.99 105.42L506.44 105.26L506.54 105.83C507.1 109.1 510.38 111.29 514.7 111.29C516.45 111.29 518.25 110.93 520.04 110.21C521.52 109.62 523.24 108.64 525.29 107.21C526.88 109.47 528.68 110.57 530.78 110.57C531.85 110.57 533.01 110.27 534.23 109.68L535.6 109.02L534.08 109C532.83 108.98 530.9 107.76 529.86 106.34C529.56 105.92 529.21 105.34 528.79 104.61C529.58 103.99 530.38 103.34 531.19 102.68C533.67 100.63 536.24 98.3899 538.74 96.1999L539.96 95.1299L541.18 96.1999C543.69 98.3999 546.26 100.65 548.75 102.71C549.57 103.36 550.36 104 551.14 104.61Z" fill="white"/>
<path d="M539.129 509.35C538.649 509.06 538.169 508.78 537.679 508.5C525.869 501.93 509.789 500.44 497.119 504.58C495.999 504.95 494.899 505.36 493.839 505.82C494.989 505.19 496.109 504.5 497.209 503.75C507.509 496.77 515.719 484.93 518.569 473.05C519.239 470.24 519.619 467.42 519.649 464.67C515.499 466.45 511.539 469.06 507.959 472.25C504.819 475.04 501.969 478.27 499.519 481.78C494.809 488.51 491.599 496.23 490.709 503.72C491.049 487.31 481.429 468.74 467.979 460.79C466.069 476.76 474.549 495.84 487.319 505.38C481.819 502.05 475.279 499.88 468.519 498.93C458.029 497.46 447.059 498.93 438.779 503.6C444.519 507.9 451.829 510.71 459.459 511.96C468.949 513.51 478.949 512.63 487.059 509.14C472.679 517.05 461.409 534.66 461.239 550.29C476.019 543.97 488.309 527.08 490.179 511.24C490.039 517.9 491.539 524.92 494.279 531.43C495.529 534.42 497.039 537.3 498.779 540C502.579 545.91 507.419 550.92 512.909 554.16C513.399 550.06 513.199 545.75 512.419 541.44C510.399 530.25 504.429 519.13 496.339 511.85C495.439 511.04 494.519 510.28 493.569 509.57C494.489 510.13 495.439 510.65 496.419 511.15C509.359 517.68 526.789 518.44 539.389 512.73C540.319 512.31 541.229 511.85 542.109 511.36C541.459 510.88 540.789 510.42 540.109 509.97C539.789 509.77 539.459 509.55 539.129 509.35Z" fill="white"/>
<path d="M522.83 491.9C525.02 487.03 526.57 481 527.6 473.57C527.75 472.47 527.89 471.34 528.02 470.17C528.03 470.08 527.97 469.99 527.88 469.97C527.79 469.94 527.7 469.99 527.66 470.07C527.66 470.07 527.34 471.36 526.59 473.52C524.98 478.18 521.39 486.9 514.78 495.54C514.73 495.61 514.71 495.7 514.75 495.77C514.79 495.85 514.86 495.89 514.95 495.89C530.87 496.24 542.89 501.74 542.89 501.74C542.98 501.76 543.07 501.72 543.11 501.63C543.15 501.55 543.11 501.45 543.04 501.4C535.37 496.56 528.76 493.42 522.83 491.9Z" fill="white"/>
<path d="M466.14 519.19C466.1 519.11 466.03 519.07 465.94 519.07C461.86 518.98 458.04 518.55 454.61 517.97C444.65 516.27 438 513.22 438 513.22C437.91 513.2 437.82 513.24 437.78 513.33C437.74 513.41 437.78 513.51 437.85 513.56C442.9 516.76 447.49 519.19 451.73 520.93C453.93 521.83 456.04 522.55 458.06 523.07C455.54 528.66 453.87 535.78 452.86 544.79C452.85 544.88 452.91 544.97 452.99 544.99C453.08 545.01 453.17 544.97 453.21 544.89C453.21 544.89 456.42 532.07 466.09 519.42C466.17 519.35 466.18 519.27 466.14 519.19Z" fill="white"/>
<path d="M439.44 493.96C439.44 493.96 452.15 490.33 467.94 492.38C468.03 492.39 468.11 492.36 468.16 492.29C468.21 492.22 468.21 492.13 468.17 492.06C467.6 491.01 467.06 489.98 466.56 488.94C460.34 476.2 459.27 464.94 459.27 464.94C459.24 464.85 459.16 464.79 459.07 464.81C458.98 464.82 458.91 464.9 458.91 464.99C458.54 474.06 459.13 481.35 460.78 487.25C460.1 487.32 459.4 487.41 458.69 487.52C453.09 488.36 446.75 490.38 439.37 493.61C439.29 493.65 439.24 493.74 439.26 493.83C439.27 493.91 439.35 493.97 439.44 493.96Z" fill="white"/>
<path d="M541.46 521.01C541.46 521.01 528.75 524.64 512.96 522.59C512.87 522.58 512.79 522.61 512.74 522.68C512.69 522.75 512.69 522.84 512.73 522.91C516.64 530.04 518.88 536.97 520.13 542.03C521.33 546.88 521.63 550.03 521.63 550.03C521.66 550.12 521.74 550.18 521.83 550.16C521.92 550.15 521.99 550.07 521.99 549.98C522.1 547.2 522.11 544.61 522.04 542.15C521.88 536.59 521.26 531.81 520.12 527.72C526.22 527.11 533.22 525 541.53 521.36C541.61 521.32 541.66 521.23 541.64 521.14C541.63 521.06 541.55 521 541.46 521.01Z" fill="white"/>
</g>
<defs>
<clipPath id="clip0_4822_51408">
<rect width="1080" height="1250" fill="white"/>
</clipPath>
</defs>
</svg>
