<svg width="22" height="22" viewBox="0 0 22 22" fill="none" xmlns="http://www.w3.org/2000/svg">
<path d="M3.02671 13.933L7.08468 12.1172C7.24199 12.0491 7.41379 12.0213 7.58455 12.0363C7.7553 12.0513 7.91962 12.1087 8.06265 12.2031C8.07408 12.2104 8.08499 12.2184 8.0953 12.2272L10.2266 14.0439C10.274 14.0728 10.3278 14.0896 10.3833 14.0928C10.4387 14.0959 10.4941 14.0853 10.5445 14.062C11.9401 13.3882 13.3848 11.9548 14.0585 10.5755C14.0823 10.5255 14.0934 10.4703 14.0907 10.415C14.088 10.3596 14.0716 10.3058 14.043 10.2584L12.2212 8.09188C12.2126 8.08156 12.2048 8.07039 12.1971 8.05922C12.1029 7.91639 12.0458 7.75238 12.0308 7.58196C12.0158 7.41153 12.0434 7.24005 12.1112 7.08297L13.9305 3.03188C14.0183 2.8267 14.1703 2.65555 14.3637 2.54414C14.5571 2.43272 14.7814 2.38705 15.003 2.41399C16.0844 2.55657 17.077 3.08796 17.7953 3.9089C18.5136 4.72984 18.9085 5.78418 18.9062 6.875C18.9062 13.5094 13.5094 18.9062 6.87499 18.9062C5.78417 18.9085 4.72983 18.5136 3.90889 17.7953C3.08795 17.077 2.55656 16.0844 2.41398 15.003C2.38724 14.7824 2.43243 14.5591 2.54284 14.3664C2.65325 14.1736 2.82296 14.0216 3.02671 13.933ZM3.09374 14.917C3.2151 15.8329 3.66587 16.6732 4.36179 17.2809C5.0577 17.8886 5.95112 18.222 6.87499 18.2188C13.1295 18.2188 18.2187 13.1295 18.2187 6.875C18.2219 5.95113 17.8885 5.05772 17.2809 4.3618C16.6732 3.66588 15.8329 3.21511 14.917 3.09375C14.9033 3.0929 14.8895 3.0929 14.8758 3.09375C14.808 3.09433 14.7418 3.11496 14.6857 3.15303C14.6296 3.19111 14.586 3.24494 14.5604 3.30774L12.7462 7.35883C12.7251 7.40834 12.7158 7.46213 12.7193 7.51587C12.7227 7.56961 12.7387 7.62179 12.766 7.66821L14.587 9.83383C14.5956 9.845 14.6042 9.85531 14.6119 9.86735C14.709 10.0157 14.7661 10.1866 14.7778 10.3634C14.7896 10.5403 14.7555 10.7172 14.679 10.8771C13.9322 12.4059 12.3922 13.9348 10.8462 14.6816C10.6852 14.7576 10.5073 14.7907 10.3297 14.7776C10.1522 14.7645 9.98102 14.7057 9.83296 14.6068L9.80116 14.5827L7.66734 12.7677C7.62169 12.7398 7.57007 12.7232 7.51673 12.7192C7.46339 12.7151 7.40986 12.7238 7.36054 12.7445L3.30343 14.563C3.23496 14.5915 3.17755 14.6413 3.13975 14.7052C3.10196 14.769 3.08582 14.8433 3.09374 14.917Z" fill="#1e645c"/>
</svg>
