<svg width="1214" height="201" viewBox="0 0 1214 201" fill="none" xmlns="http://www.w3.org/2000/svg">
<path d="M10 200.5C4.75331 200.5 0.5 196.247 0.5 191V181.95H0V163.85H0.5V145.75H0V127.65H0.5V109.55H0V91.45H0.5V73.35H0V55.25H0.5V37.15H0V19.05H0.5V10C0.5 4.75329 4.75329 0.5 10 0.5H19.0455V0H37.1364V0.5H55.2273V0H73.3182V0.5H91.4091V0H109.5V0.5H127.591V0H145.682V0.5H163.773V0H181.864V0.5H199.955V0H218.045V0.5H236.136V0H254.227V0.5H272.318V0H290.409V0.5H308.5V0H326.591V0.5H344.682V0H362.773V0.5H380.864V0H398.955V0.5H417.046V0H435.136V0.5H453.227V0H471.318V0.5H489.409V0H507.5V0.5H525.591V0H543.682V0.5H561.773V0H579.864V0.5H597.954V0H616.045V0.5H634.136V0H652.227V0.5H670.318V0H688.409V0.5H706.5V0H724.591V0.5H742.682V0H760.772V0.5H778.863V0H796.954V0.5H815.045V0H833.136V0.5H851.227V0H869.318V0.5H887.409V0H905.499V0.5H923.59V0H941.681V0.5H959.772V0H977.863V0.5H995.954V0H1014.04V0.5H1032.14V0H1050.23V0.5H1068.32V0H1086.41V0.5H1104.5V0H1122.59V0.5H1140.68V0H1158.77V0.5H1176.86V0H1194.95V0.5H1204C1209.25 0.5 1213.5 4.7533 1213.5 10V19.05H1214V37.15H1213.5V55.25H1214V73.35H1213.5V91.45H1214V109.55H1213.5V127.65H1214V145.75H1213.5V163.85H1214V181.95H1213.5V191C1213.5 196.247 1209.25 200.5 1204 200.5H1194.95V201H1176.86V200.5H1158.77V201H1140.68V200.5H1122.59V201H1104.5V200.5H1086.41V201H1068.32V200.5H1050.23V201H1032.14V200.5H1014.05V201H995.955V200.5H977.864V201H959.773V200.5H941.682V201H923.591V200.5H905.5V201H887.409V200.5H869.318V201H851.227V200.5H833.136V201H815.045V200.5H796.955V201H778.864V200.5H760.773V201H742.682V200.5H724.591V201H706.5V200.5H688.409V201H670.318V200.5H652.227V201H634.136V200.5H616.046V201H597.955V200.5H579.864V201H561.773V200.5H543.682V201H525.591V200.5H507.5V201H489.409V200.5H471.318V201H453.228V200.5H435.137V201H417.046V200.5H398.955V201H380.864V200.5H362.773V201H344.682V200.5H326.591V201H308.501V200.5H290.41V201H272.319V200.5H254.228V201H236.137V200.5H218.046V201H199.955V200.5H181.864V201H163.773V200.5H145.682V201H127.592V200.5H109.501V201H91.4097V200.5H73.3187V201H55.2278V200.5H37.1368V201H19.0459V200.5H10Z" stroke="#1e645c" stroke-dasharray="18 18"/>
</svg>
