<svg width="24" height="24" viewBox="0 0 24 24" fill="none" xmlns="http://www.w3.org/2000/svg">
  <path d="M2.30409 20.2168L7.23443 15.2662C5.96675 13.8113 5.27218 11.9807 5.27218 10.075C5.27218 5.62251 9.0243 2 13.6361 2C18.2479 2 22 5.62251 22 10.075C22 14.5275 18.2479 18.15 13.6361 18.15C11.9048 18.15 10.2549 17.6458 8.8443 16.6888L3.8765 21.677C3.66886 21.8852 3.38958 22 3.09029 22C2.80701 22 2.53828 21.8957 2.33427 21.7061C1.9008 21.3034 1.88698 20.6357 2.30409 20.2168ZM13.6361 4.10652C10.2273 4.10652 7.45407 6.78391 7.45407 10.075C7.45407 13.3661 10.2273 16.0435 13.6361 16.0435C17.0449 16.0435 19.8181 13.3661 19.8181 10.075C19.8181 6.78391 17.0449 4.10652 13.6361 4.10652Z" fill="#101820"/>
</svg>
