<svg width="27" height="27" viewBox="0 0 27 27" fill="none" xmlns="http://www.w3.org/2000/svg">
<path d="M16.8537 15.8536C13.9884 15.8536 8.26837 17.2809 8.26837 20.1463V22.2927H25.4391V20.1463C25.4391 17.2809 19.7191 15.8536 16.8537 15.8536ZM7.1952 11.5609V8.34143H5.04886V11.5609H1.82935V13.7073H5.04886V16.9268H7.1952V13.7073H10.4147V11.5609M16.8537 13.7073C17.9922 13.7073 19.0841 13.255 19.8891 12.45C20.6942 11.645 21.1464 10.5531 21.1464 9.4146C21.1464 8.27611 20.6942 7.18425 19.8891 6.37922C19.0841 5.57418 17.9922 5.12192 16.8537 5.12192C15.7152 5.12192 14.6234 5.57418 13.8184 6.37922C13.0133 7.18425 12.5611 8.27611 12.5611 9.4146C12.5611 10.5531 13.0133 11.645 13.8184 12.45C14.6234 13.255 15.7152 13.7073 16.8537 13.7073Z" fill="#1e645c"/>
</svg>
