<?xml version="1.0" encoding="UTF-8"?>
<svg id="Wrth_Lockups" data-name="Wrth Lockups" xmlns="http://www.w3.org/2000/svg" viewBox="0 0 1548 2066">
  <defs>
    <style>
      .cls-1 {
        fill: #050505;
      }

      .cls-2 {
        fill: #060707;
      }
    </style>
  </defs>
  <g id="Wrth-Vertical_Lockup" data-name="Wrth-Vertical Lockup">
    <g id="Wrth-Wordmark">
      <path id="English_Wordmark" data-name="English Wordmark" class="cls-1" d="M274.59,1615.78l2.12,20.84-4.42.53c-7.77-16.78-11.48-19.96-21.9-19.96h-3.88v72.59c-.18,6.71.35,7.07,10.95,8.83v5.12h-40.62v-5.12c10.6-1.77,11.13-2.12,10.95-8.83v-72.59h-4.06c-10.42,0-14.13,3-21.37,19.96l-4.42-.35,1.59-20.84.35-5.83h74.18l.53,5.65ZM351.05,1690.14v-28.26c0-17.49-6.18-24.55-20.66-24.55-6.53,0-14.31,2.83-21.9,8.83v-43.98h-.71l-24.37,6.71v4.59c6.54-.53,7.95.35,7.95,6.53l.18,70.12c.18,6.71-.18,7.24-7.77,8.83v4.77h32.5v-4.77c-7.59-1.59-7.95-2.12-7.77-8.83v-37.97c4.95-1.77,8.12-2.3,12.01-2.3,10.77,0,13.6,5.3,13.6,17.13v23.14c.18,6.71-.18,7.24-7.77,8.83v4.77h32.5v-4.77c-7.6-1.59-7.95-2.12-7.77-8.83ZM366.21,1673.36c0-19.25,12.72-36.03,31.08-36.03s28.79,12.19,26.49,31.61h-39.92c.18,17.48,8.83,24.9,21.55,24.9,5.12,0,11.48-1.41,16.96-4.06l1.24,1.59c-6.36,9.01-14.83,13.95-27.9,13.95-17.48,0-29.5-11.13-29.5-31.97ZM384.05,1663.29h23.31c1.59-14.31-3.53-19.78-9.89-19.78-7.42,0-12.54,4.77-13.42,19.78ZM487.17,1689.08c-.18,7.24.35,7.77,9.72,9.54v5.12h-37.97v-5.12c9.36-1.77,9.89-2.3,9.71-9.54v-64.29c.18-7.24-.35-7.77-9.71-9.54v-5.12h35.85c24.73,0,39.21,9.36,39.21,24.2,0,10.95-8.48,20.13-22.61,23.49l12.01,18.37c9.54,14.66,15.37,21.55,21.37,23.31v1.59c-18.54,10.42-29.32-1.94-46.45-33.38-3.18-5.83-4.94-6.53-7.42-6.53h-3.71v27.91ZM487.17,1654.28h9.54c10.77,0,18.37-4.24,17.66-19.96-.53-11.83-9.18-16.78-20.66-16.78h-6.54v36.74ZM547.55,1671.77c0-20.84,15.19-34.44,34.79-34.44s34.44,12.36,34.44,33.56-15.01,34.44-34.62,34.44-34.62-12.54-34.62-33.56ZM565.57,1668.41c0,19.07,7.59,30.02,17.66,30.02,9.36,0,15.54-9.01,15.54-24.02,0-19.43-7.42-30.02-17.66-30.02-9.18,0-15.54,8.66-15.54,24.02ZM666.04,1643.69c9.36,1.59,9.36,2.12,6.71,9.18l-11.66,32.32-13.25-33.2c-2.65-6.18-2.65-6.71,4.94-8.3v-4.77h-34.06v4.77c5.65,1.77,6.71,2.47,9.36,9.01l23.64,53.16-1.59,3.71c-3.71,9.01-6.89,10.42-11.28,10.42s-8.48-1.06-13.42-4.24l-1.06.18c-2.3,3.18-3.36,5.83-3.36,9.01,0,5.83,4.59,10.42,12.19,10.42,10.4,0,17.82-6.18,23.47-20.66l24.2-61.99c2.47-6.36,3.36-7.24,9.18-9.01v-4.77h-24.02v4.77ZM743.05,1704.97c-6.36,0-10.07-2.83-11.3-9.01-5.12,5.83-12.01,9.36-19.6,9.36-10.42,0-18.72-5.83-18.72-17.13,0-16.6,18.02-19.43,37.62-25.43v-6.01c0-9.01-2.65-13.42-9.71-13.42-8.83,0-12.72,8.83-11.48,18.72l-.71.71c-9.89-1.59-13.07-6.71-13.07-10.95,0-7.59,9.71-14.48,27.38-14.48s24.2,8.65,24.2,22.25v28.44c0,6,1.41,9.54,9.34,8.48l.53,1.06c-4.22,5.83-8.83,7.42-14.46,7.42ZM731.04,1669.82c-12.89,3-20.13,7.24-20.13,15.54,0,6.18,3.18,8.48,11.13,8.48,2.47,0,6.01-.53,9.01-2.3v-21.72ZM768.46,1620.02l.18,70.12c.18,6.71-.18,7.24-7.77,8.83v4.77h32.5v-4.77c-7.59-1.59-7.95-2.12-7.77-8.83v-87.95h-.71l-24.37,6.71v4.59c6.53-.53,7.95.35,7.95,6.53ZM825.84,1615.25c10.6,1.77,11.13,2.12,10.95,8.83v65.7c.18,6.71-.35,7.07-10.95,8.83v5.12h40.62v-5.12c-10.6-1.77-11.13-2.12-10.95-8.83v-65.7c-.18-6.71.35-7.06,10.95-8.83v-5.12h-40.62v5.12ZM942.2,1690.14v-28.26c0-17.49-6.18-24.55-20.64-24.55-6.54,0-14.31,3-21.9,9.18v-9.18h-.71l-24.37,6.71v4.59c6.53-.53,7.95.35,7.95,6.53l.18,34.97c.18,6.71-.18,7.24-7.77,8.83v4.77h32.5v-4.77c-7.6-1.59-7.95-2.12-7.77-8.83v-37.97c4.95-1.77,8.12-2.3,11.99-2.3,10.77,0,13.62,5.3,13.62,17.13v23.14c.18,6.71-.2,7.24-7.77,8.83v4.77h32.48v-4.77c-7.59-1.59-7.95-2.12-7.77-8.83ZM982.83,1699.14c-9.18,0-16.07-7.77-16.6-17.31l-.88-.53c-6.71,3-8.83,7.77-8.83,11.13,0,7.06,8.12,12.89,23.84,12.89s26.85-8.48,26.85-22.43c0-21.19-35.68-16.07-35.68-30.91,0-4.94,3.53-8.48,9.71-8.48,10.6,0,14.48,9.36,15.01,17.13l.71.53c6-2.65,7.93-8.12,7.93-11.66,0-6.89-7.22-12.36-21.17-12.36-17.13,0-25.96,10.07-25.96,22.08,0,21.9,35.32,15.37,35.32,30.91,0,5.12-3.53,9.01-10.24,9.01ZM1051.51,1693.49c-7.06,0-10.24-4.06-10.24-15.54v-32.85h19.07v-6.18h-19.07v-23.49h-5.12c-6.18,16.6-10.77,21.19-24.55,26.32v3.36h12.54v35.32c0,15.89,5.3,24.73,17.84,24.73,8.65,0,15.54-3.89,21.19-12.19l-1.06-1.77c-3.53,1.41-6.89,2.3-10.6,2.3ZM1083.1,1629.38c6.18,0,10.24-4.42,10.24-9.71s-4.06-9.71-10.24-9.71c-5.83,0-10.07,4.59-10.07,9.71s4.24,9.71,10.07,9.71ZM1067.56,1698.97v4.77h32.5v-4.77c-7.6-1.59-7.95-2.12-7.77-8.83v-52.81h-.71l-24.35,6.71v4.59c6.51-.53,7.93.35,7.93,6.53l.2,34.97c.16,6.71-.2,7.24-7.79,8.83ZM1113.3,1680.42c0,15.89,5.3,24.73,17.84,24.73,8.66,0,15.54-3.89,21.19-12.19l-1.06-1.77c-3.53,1.41-6.89,2.3-10.6,2.3-7.07,0-10.24-4.06-10.24-15.54v-32.85h19.07v-6.18h-19.07v-23.49h-5.12c-6.18,16.6-10.77,21.19-24.55,26.32v3.36h12.54v35.32ZM1162.02,1655.17l.18,25.79c0,17.13,6.56,24.37,20.66,24.37,6.53,0,14.48-2.83,22.08-8.83v8.83h.71l24.37-6.71v-4.59c-6.53.53-7.95-.35-7.95-6.53l-.18-46.63v-3.53h-.71l-24.37,6.71v4.59c6.54-.53,7.95.35,7.95,6.53l.18,35.32c-4.77,1.77-8.48,2.3-12.19,2.3-10.77,0-13.6-5.48-13.6-17.13v-38.33h-.71l-24.35,6.71v4.59c6.54-.53,7.93.35,7.93,6.53ZM1243.62,1680.42c0,15.89,5.3,24.73,17.84,24.73,8.65,0,15.54-3.89,21.19-12.19l-1.06-1.77c-3.55,1.41-6.89,2.3-10.62,2.3-7.04,0-10.22-4.06-10.22-15.54v-32.85h19.05v-6.18h-19.05v-23.49h-5.12c-6.18,16.6-10.77,21.19-24.55,26.32v3.36h12.54v35.32ZM1285.63,1673.36c0-19.25,12.72-36.03,31.08-36.03s28.79,12.19,26.49,31.61h-39.92c.18,17.48,8.83,24.9,21.55,24.9,5.12,0,11.48-1.41,16.96-4.06l1.24,1.59c-6.36,9.01-14.84,13.95-27.91,13.95-17.48,0-29.5-11.13-29.5-31.97ZM1303.47,1663.29h23.31c1.59-14.31-3.53-19.78-9.89-19.78-7.42,0-12.54,4.77-13.42,19.78ZM276.34,1831.73c0,20.84-15.01,34.44-34.62,34.44s-34.62-12.54-34.62-33.56,15.19-34.44,34.79-34.44,34.44,12.36,34.44,33.56ZM258.32,1835.26c0-19.43-7.42-30.02-17.66-30.02-9.18,0-15.54,8.65-15.54,24.02,0,19.07,7.59,30.02,17.66,30.02,9.36,0,15.54-9.01,15.54-24.02ZM321.44,1763.02c-18.19,0-26.67,14.13-26.67,28.43v6.53l-10.6,4.42v3.36h10.6v45.21c.18,6.71-.18,7.24-7.75,8.83v4.77h34.24v-4.77c-9.36-1.41-9.71-1.41-9.54-7.95v-46.1h16.95v-6h-16.95v-11.48c0-15.54,2.65-19.6,7.77-19.6,4.24,0,8.12,3.36,9.18,13.25l.88.53c6.36-2.65,8.83-5.83,8.83-9.36,0-4.95-5.48-10.07-16.96-10.07ZM438.69,1776.62l-.53-5.65h-74.16l-.35,5.83-1.59,20.84,4.42.35c7.22-16.95,10.93-19.96,21.35-19.96h4.06v72.59c.18,6.71-.35,7.06-10.93,8.83v5.12h40.6v-5.12c-10.6-1.77-11.13-2.12-10.95-8.83v-72.59h3.89c10.42,0,14.13,3.18,21.9,19.96l4.42-.53-2.12-20.84ZM484.94,1798.35c-6.89,0-13.75,4.42-21,13.42v-13.6h-.71l-24.37,6.71v4.59c6.53-.53,7.95.35,7.95,6.53l.18,34.97c.18,6.71-.18,7.24-7.77,8.83v4.77h36.18v-4.77c-11.28-1.24-11.63-.88-11.46-7.06v-34.44c4.06-3.18,8.83-5.65,12.87-5.65,3.71,0,6.01,2.47,8.3,7.24l1.06.18c12.54-10.42,7.77-21.72-1.24-21.72ZM565.57,1857.33l.53,1.06c-4.24,5.83-8.83,7.42-14.48,7.42-6.36,0-10.07-2.83-11.3-9.01-5.12,5.83-12.01,9.36-19.6,9.36-10.42,0-18.72-5.83-18.72-17.13,0-16.6,18.02-19.43,37.62-25.43v-6.01c0-9.01-2.65-13.42-9.71-13.42-8.83,0-12.72,8.83-11.48,18.72l-.71.71c-9.89-1.59-13.07-6.71-13.07-10.95,0-7.59,9.71-14.48,27.38-14.48s24.2,8.65,24.2,22.25v28.44c0,6.01,1.41,9.54,9.36,8.48ZM539.61,1830.67c-12.89,3-20.13,7.24-20.13,15.54,0,6.18,3.18,8.48,11.13,8.48,2.47,0,6.01-.53,9.01-2.3v-21.72ZM644.58,1854.86v4.59l-24.37,6.71h-.71v-8.83c-5.12,5.83-11.3,8.83-17.49,8.83-16.78,0-28.79-11.13-28.79-31.97s14.13-36.03,36.38-36.03c4.06,0,7.07.35,9.89.88v-18.19c0-6.18-1.41-7.07-7.95-6.53v-4.59l24.37-6.71h.71v85.31c0,6.18,1.41,7.06,7.95,6.53ZM619.5,1807c-4.06-.88-8.3-1.59-12.01-1.59-11.83,0-16.6,8.48-16.6,23.84,0,17.84,8.66,25.43,18.37,25.43,3.18,0,6.89-.88,10.24-2.65v-45.04ZM680.41,1850.98v-52.81h-.71l-24.35,6.71v4.59c6.51-.53,7.93.35,7.93,6.53l.2,34.97c.15,6.71-.2,7.24-7.79,8.83v4.77h32.5v-4.77c-7.59-1.59-7.95-2.12-7.77-8.83ZM681.47,1780.51c0-5.12-4.06-9.71-10.24-9.71-5.83,0-10.07,4.59-10.07,9.71s4.24,9.71,10.07,9.71c6.18,0,10.24-4.42,10.24-9.71ZM731.01,1854.33c-7.06,0-10.24-4.06-10.24-15.54v-32.85h19.08v-6.18h-19.08v-23.49h-5.12c-6.18,16.6-10.77,21.19-24.55,26.32v3.36h12.54v35.32c0,15.9,5.3,24.73,17.84,24.73,8.66,0,15.54-3.89,21.19-12.19l-1.06-1.77c-3.53,1.41-6.89,2.3-10.6,2.3ZM764.81,1790.22c6.18,0,10.24-4.42,10.24-9.71s-4.06-9.71-10.24-9.71c-5.83,0-10.07,4.59-10.07,9.71s4.24,9.71,10.07,9.71ZM774,1850.98v-52.81h-.71l-24.37,6.71v4.59c6.53-.53,7.95.35,7.95,6.53l.18,34.97c.18,6.71-.18,7.24-7.77,8.83v4.77h32.5v-4.77c-7.6-1.59-7.95-2.12-7.77-8.83ZM857.71,1831.73c0,20.84-15.01,34.44-34.62,34.44s-34.62-12.54-34.62-33.56,15.19-34.44,34.79-34.44,34.44,12.36,34.44,33.56ZM839.7,1835.26c0-19.43-7.42-30.02-17.66-30.02-9.18,0-15.54,8.65-15.54,24.02,0,19.07,7.59,30.02,17.66,30.02,9.36,0,15.54-9.01,15.54-24.02ZM936.02,1850.98v-28.26c0-17.48-6.18-24.55-20.66-24.55-6.53,0-14.31,3-21.9,9.18v-9.18h-.71l-24.37,6.71v4.59c6.53-.53,7.95.35,7.95,6.53l.18,34.97c.18,6.71-.18,7.24-7.77,8.83v4.77h32.5v-4.77c-7.59-1.59-7.95-2.12-7.77-8.83v-37.97c4.94-1.77,8.12-2.3,12.01-2.3,10.77,0,13.6,5.3,13.6,17.13v23.14c.18,6.71-.18,7.24-7.77,8.83v4.77h32.5v-4.77c-7.59-1.59-7.95-2.12-7.77-8.83ZM1017.68,1857.33l.53,1.06c-4.24,5.83-8.83,7.42-14.48,7.42-6.36,0-10.07-2.83-11.3-9.01-5.12,5.83-12.01,9.36-19.61,9.36-10.42,0-18.72-5.83-18.72-17.13,0-16.6,18.02-19.43,37.62-25.43v-6.01c0-9.01-2.65-13.42-9.71-13.42-8.83,0-12.72,8.83-11.48,18.72l-.71.71c-9.89-1.59-13.07-6.71-13.07-10.95,0-7.59,9.71-14.48,27.38-14.48s24.2,8.65,24.2,22.25v28.44c0,6.01,1.41,9.54,9.36,8.48ZM991.72,1830.67c-12.89,3-20.13,7.24-20.13,15.54,0,6.18,3.18,8.48,11.13,8.48,2.47,0,6.01-.53,9.01-2.3v-21.72ZM1048.48,1850.98v-87.95h-.71l-24.37,6.71v4.59c6.53-.53,7.95.35,7.95,6.53l.18,70.12c.18,6.71-.18,7.24-7.77,8.83v4.77h32.5v-4.77c-7.59-1.59-7.95-2.12-7.77-8.83ZM1173.33,1859.46v5.12h-36.18v-5.12c9.36-1.77,9.36-2.3,7.04-9.18l-4.75-15.54h-27.91l-4.24,13.6c-2.82,8.3-2.65,9.18,6.54,11.13v5.12h-24.73v-5.12c5.12-2.12,7.24-3.89,10.77-15.01l25.43-73.47h12.19l25.76,75.41c3.18,9.71,4.77,10.95,10.07,13.07ZM1137.14,1827.31l-11.48-37.62-11.83,37.62h23.31ZM1223.46,1798.35c-6.89,0-13.75,4.42-21,13.42v-13.6h-.71l-24.37,6.71v4.59c6.53-.53,7.95.35,7.95,6.53l.18,34.97c.18,6.71-.18,7.24-7.77,8.83v4.77h36.18v-4.77c-11.28-1.24-11.64-.88-11.46-7.06v-34.44c4.06-3.18,8.81-5.65,12.87-5.65,3.71,0,6.01,2.47,8.3,7.24l1.06.18c12.54-10.42,7.77-21.72-1.24-21.72ZM1275.92,1854.33c-7.06,0-10.24-4.06-10.24-15.54v-32.85h19.07v-6.18h-19.07v-23.49h-5.12c-6.18,16.6-10.77,21.19-24.55,26.32v3.36h12.54v35.32c0,15.9,5.3,24.73,17.84,24.73,8.65,0,15.54-3.89,21.19-12.19l-1.06-1.77c-3.53,1.41-6.89,2.3-10.6,2.3ZM1307.87,1812.83c0-4.95,3.53-8.48,9.71-8.48,10.6,0,14.48,9.36,15.01,17.13l.71.53c6-2.65,7.95-8.12,7.95-11.66,0-6.89-7.24-12.36-21.19-12.36-17.13,0-25.94,10.07-25.94,22.08,0,21.9,35.3,15.37,35.3,30.91,0,5.12-3.53,9.01-10.24,9.01-9.18,0-16.07-7.77-16.6-17.31l-.88-.53c-6.71,3-8.81,7.77-8.81,11.13,0,7.06,8.1,12.89,23.82,12.89s26.85-8.48,26.85-22.43c0-21.19-35.68-16.07-35.68-30.91Z"/>
      <path id="Arabic_Wordmark" data-name="Arabic Wordmark" class="cls-1" d="M1330.81,1285.09l-4.34-112.76,16.26-30.36h3.25l-1.89,108.69-9.52,34.43h-3.77ZM849.47,1262.35l-2.49-5.49c-4.03,16.03-15.75,29.49-41.25,29.49-28.54,0-31.82-23.13-25.11-47.45h4.42c-.28,14.65,1.62,20.96,22.5,20.96,13.11,0,28.35-3.16,36.83-8.72l-21.32-46.98,10.86-21.36h1.82s24.16,56.49,27.48,64.35c4.07,9.75,15.2,11.41,34.46,10.74,1.74-26.17,20.13-60.6,38.02-61.35,10.7-.43,17.65,14.84,15.48,38.96-2.45,27.28-20.09,43.62-40.35,49.07,7.34,10.42,17.05,17.05,25.9,21.4-1.42-9.44.43-16.66,4.78-25.03,6.12-11.84,17.65-22.23,34.94-22.23h166.08c16.19,0,32.29-1.54,45.72-4.62-9.08-8.33-19.5-18.99-31.11-25.07l-4.38,1.7-3.04-3.04,4.74-18.67c7.58-6.12,26.88-12.99,43.11-12.99,25.07,0,31.35,15.24,31.35,27.71,0,11.33-6.83,23.02-17.65,32.49,4.18,2.45,16.26,2.49,27.04,2.49h11.01c7.26,0,17.13-.43,22.7-2.84,0,0-1.93-3.43-2.13-9.12-.2-4.9-2.01-63.76-2.01-63.76l-4.62-4.9c-6.51-6.87-7.22-13.74-2.17-21.32l12.99-18.79,3.55,2.76-5.45,8.33,22.5,19.27-12.99,16.42v57.52c0,3.04,1.78,5.72,4.46,7.03,10.97,5.21,20.65,11.21,28.98,18.75,1.89,1.7,2.13,4.62.67,6.71l-13.15,18.63c-6.51-6.16-19.34-19.23-27.12-19.23-9.4,0-16.38,10.9-36.63,10.9h-1.26c-15.63,0-24.52-7.9-37.19-19.86-16.46,11.61-39.12,19.86-65.89,19.86h-164.27c-27.4,0-31.54,16.19-21.95,27.16l-11.8,18.16c-21.75-10.19-33.2-29.13-37.42-44.89-20.57,1.82-40.66-2.8-49.62-23.17ZM1200.82,1250.42c27.36-13.34,26.85-31.94-3.12-31.7-9.47.08-20.33,2.13-30,6.16,5.53,2.37,11.61,6.32,18.2,12.24,5.8,5.21,10.74,10.42,14.92,13.3ZM903.51,1257.96c22.62-1.7,39.44-8.45,41.02-20.02,1.14-8.49-5.05-14.76-13.66-13.15-14.8,2.8-26.69,20.09-27.36,33.16ZM368.03,1338.48l15.9-15.9-15.9-15.9-15.54,15.9,15.54,15.9ZM243.51,1335.43c35.25,0,74.89-13.63,74.89-42.75,0-3.6-.49-6.24-1.45-8.46,20.29,1.09,48.17,1.55,77.38,1.55,65.3,0,137.61-2.55,145.89-6.1l10.27-14.26c3.65,11.93,12.46,19.32,26.59,19.32,16.34,0,29.75-8.28,33.35-24.16,3.04,13.88,11.88,24.53,28.33,24.53,20.24,0,27.23-10.9,36.63-10.9,7.77,0,20.6,13.08,27.11,19.22l13.15-18.65c1.47-2.08,1.23-4.99-.66-6.7-8.34-7.56-17.98-13.53-28.96-18.77-2.71-1.29-4.49-3.99-4.49-7v-57.55l13.01-16.41-22.5-19.29,5.42-8.31-3.52-2.76-13.01,18.79c-5.06,7.59-4.34,14.46,2.17,21.32l4.64,4.89s1.79,58.86,1.98,63.74c.22,5.71,2.14,9.13,2.14,9.13-5.54,2.41-15.43,2.84-22.67,2.84h-11.03c-9.84,0-18.07-5.28-18.07-16.26l3.61-100.32h-2.89l-16.63,30.36,2.89,76.47c-3.98,8.67-13.38,10.68-25.66,10.68-8.83,0-20.21-1-21.83-12.24-.07-.48-.26-2.74-.26-2.74-2.28-21.75-15.37-26.78-51.67-26.78-13.73,0-101.82.63-119.9.63-30,0-89.96,1.9-89.96-6.05s46.62-24.21,77.34-33.97l5.42-24.58-1.45-2.17c-26.86,8.77-49.58,20.89-65.93,33.58-15.34,11.91-25.15,24.18-25.15,38.7s23.02,17.35,45.43,16.99c12.29,0,45.06.21,54.46.21,31.8,0,107.48-.21,126.27-.21,26.02,0,32.89,5.42,32.89,16.26-38.88,2.15-114.29,3.29-156.85,3.08-27.37-.13-91.13-2.01-101.03-2.59-10.12-.59-26.46-2.06-26.46-2.06l-7.61,18.11,1.37,3.43c7.59.72,54.55,4.88,54.55,15s-32.6,16.8-60.63,16.8c-35.93,0-43.63-12.05-45.32-27.02-1.42-12.59,3.35-29.31,6.16-41.03h-6.15c-4.9,13.09-10.49,28.85-10.49,46.7,0,28.12,12.49,47.73,48.85,47.73ZM335.87,1338.48l15.9-15.9-15.9-15.9-15.54,15.9,15.54,15.9ZM734.46,1285.09l9.52-34.43,1.89-108.69h-3.25l-16.26,30.36,4.34,112.76h3.77ZM911.55,1470.75l15.54,15.9,15.9-15.9-15.9-15.9-15.54,15.9ZM1115.58,1421.33l15.9-15.9-15.9-15.9-15.54,15.9,15.54,15.9ZM1175.89,1378.9l15.54,15.9,15.9-15.9-15.9-15.9-15.54,15.9ZM1353.34,1389.74l-13.05,16.46s-.88,44.58-1.01,59.44c-.21,24.58-13.17,40.03-35.94,40.03h-1.52c-19.87,0-29.67-11.12-32.75-25.38-3.83,16.08-17.08,25.38-33.18,25.38h-4.57c-16.64,0-32.07-1.1-44.37-7.2-11.43,6.22-22.45,7.2-34.35,7.2h-4.94c-14.95,0-29.28-5.12-34.84-19.7-5.54,12.5-15.27,19.7-31.97,19.7h-19.41c-1.61,16.63-11.44,39.41-32.53,41.21-16.48,1.4-30.28-6.51-42.36-17.91l1.52-6.02c33.16,5.82,66.6-1.91,67.58-17.27h-26.02c-17.81,0-27.99-11.32-27.99-30.06,0-20.48,15.1-45.75,31.88-45.75s26.92,29.24,28.32,49.41h21.53c19.93,0,26.1-6.88,29.8-22.98.8-3.46,2.41-15.57,2.41-15.57l5.82.52s-2.4,17.96-3.3,24.59c3.44,10.91,17.32,13.44,33.3,13.44,1.85,0,14.96,0,14.96,0-3.55-6.04-6.46-12.97-6.46-20.79,0-18.79,12.37-45.18,34.41-45.18s32.21,31.1,22.77,52.77c-1.96,4.49-4.39,8.62-7.18,12.4,5.57.64,15.39.8,20.32.8h7.62c12.63,0,23.82-4.39,28.03-11.43l-2.89-74.11,16.63-30.36h2.89l-3.25,90.35c-.59,20.33,12.41,25.55,25.44,25.55h1.52c10.91,0,20.62-4.22,23.44-6.54l-3.11-68.33-4.65-4.89c-6.5-6.87-7.23-13.73-2.17-21.32l13.01-18.79,3.25,2.53-5.42,8.31,22.77,19.52ZM1056.02,1479.26c-3.32-9.13-10.26-26.27-28.65-26.27-14.46,0-19.45,10.43-19.45,16.19,0,7.05,6.02,10.08,17.76,10.08h30.35ZM1212.31,1463.53c11.57-22.05-47.27-35.78-47.27-7.23,0,9.62,12.32,16.13,30.16,19.85,8.93-3.2,14.33-7.52,17.11-12.62ZM967.09,1431.68l-12.65,20.96c8.73,13.48,18.69,29.76,21.18,43.35-2.46,8.65-20.41,23.84-43.06,24.45-35.72.96-43.63-12.05-45.32-27.02-1.42-12.59,3.35-29.31,6.16-41.03h-6.15c-4.9,13.09-10.49,28.85-10.49,46.7,0,28.13,12.5,48.62,48.85,47.73,35.63-.88,54.74-28.85,54.74-55.7,0-24.4-5.31-43.9-12.18-59.44h-1.08ZM243.67,1395.38l15.9-15.9-15.9-15.9-15.54,15.9,15.54,15.9ZM257.85,1536.82l15.54,15.9,15.9-15.9-15.9-15.9-15.54,15.9ZM211.51,1395.38l15.9-15.9-15.9-15.9-15.54,15.9,15.54,15.9ZM644.24,1392.5l15.9-15.9-15.9-15.9-15.54,15.9,15.54,15.9ZM731.88,1424.31l15.9-15.9-15.9-15.9-15.54,15.9,15.54,15.9ZM731.88,1360.7l-15.54,15.9,15.54,15.9,15.9-15.9-15.9-15.9ZM290.02,1536.82l15.54,15.9,15.9-15.9-15.9-15.9-15.54,15.9ZM676.4,1392.5l15.9-15.9-15.9-15.9-15.54,15.9,15.54,15.9ZM479.26,1536.82l15.54,15.9,15.9-15.9-15.9-15.9-15.54,15.9ZM511.43,1536.82l15.54,15.9,15.9-15.9-15.9-15.9-15.54,15.9ZM822.23,1393.72l4.34,112.76h3.77l9.52-34.43,1.89-108.69h-3.25l-16.26,30.36ZM249.64,1470.52v-4.84l-10.21,19.49c-14.1,7.95-43.47,3.61-43.47-15.18,0-28.18,16.63-33.96,53.59-50.79v-7.4l11.2-11.56h1.08v56.01c0,18.36,13.09,23.02,25.93,23.02,10.78,0,22.2-2.79,25.64-4.59-3.61-9.04-8.56-18.79-15.79-32.89l12.65-20.96h1.08c6.87,15.54,7.7,31.08,7.7,46.98,0,24.58-11.32,39.17-34.09,39.17s-34.42-13.49-35.33-36.45ZM249.56,1435.73c-12.46,4.13-46.79,14.43-46.79,21.25,0,5.48,33.23,9.96,46.79,2.13v-23.38ZM781.76,1370.24l22.74,19.5-13.03,16.46s-.91,44.57-1.03,59.45c-.2,24.56-13.15,40.03-35.93,40.03-11.72,0-22.03-5.84-26.81-19.23-5.37,11.84-16.42,19.23-32.85,19.23h-3.04c-13.3,0-25.98-1.11-38.25-7.22-11.45,6.24-21.63,7.22-32.85,7.22h-4.22c-19.9,0-27.83-10.78-30.04-24.08-3.51,13.74-13.34,24.08-26.57,24.08h-3.08c-12.99,0-23.17-5.13-28.74-19.7-5.53,12.48-15.28,19.7-31.98,19.7h-43.07c-15.95,0-26.02.51-36.36-8.09-4.14-3.47-7.66-8.01-10.22-13.9l-2.49-5.45c-3.99,16.03-15.75,29.49-41.25,29.49-28.54,0-31.82-23.13-25.11-47.49h4.42c-.28,14.69,1.62,21,22.5,21,13.11,0,28.35-3.16,36.83-8.76l-21.28-46.94,10.82-21.36h1.82s24.16,56.49,27.48,64.35c4.11,9.75,12.16,10.74,34.46,10.74h43.98c19.94,0,26.09-6.87,29.81-22.98.83-3.47,2.41-15.59,2.41-15.59l5.84.51s-2.41,17.96-3.32,24.59c3.44,10.94,11.17,13.46,25.7,13.46h1.5c11.76,0,19.5-4.18,22.9-11.45l-2.92-74.1,16.66-30.36h2.88l-3.63,100.08c0,13.38,10.07,15.83,22.34,15.83h14.17c-3.55-6.04-6.43-12.99-6.43-20.8,0-18.79,12.36-45.16,34.42-45.16s32.17,31.07,22.74,52.74c-1.93,4.5-4.38,8.65-7.19,12.44,5.57.63,7.78.79,12.71.79h9.04c19.82,0,26.1-6.91,29.81-23.02.79-3.47,2.45-15.55,2.45-15.55l5.84.51s-2.41,18.12-3.32,24.91c3.71,11.61,14.65,13.15,24.36,13.15,10.9,0,20.61-4.22,23.41-6.55l-3.08-68.34-4.66-4.9c-6.51-6.87-7.22-13.74-2.17-21.32l13.03-18.79,3.24,2.53-5.41,8.33ZM678.93,1463.52c11.57-22.03-47.25-35.77-47.25-7.22,0,9.63,12.32,16.15,30.16,19.86,8.92-3.2,14.33-7.54,17.09-12.63Z"/>
    </g>
    <path id="Wrth-Crest" class="cls-2" d="M1099.21,713.71s.03,0,.03-.03v.09s-.03-.03-.03-.06ZM1108.64,720.63c.05,30.05-1.68,61.67-7.38,89.56-11,63.46-53.33,125.66-116.75,154.35-114.09,50.69-306.49,50.75-420.66.21-90.71-42.18-123.51-130.23-124.3-222.44-.63-6.41-.27-215.65-.33-227.95,0-15.41.66-30.07,1.99-44.07,8.08-86.15,42.14-150.14,111.06-187.46.45-6.9,2.73-13.87,7.17-19.21,0-.03.03-.03.03-.06,11.41-13.98,40.44-20.49,56.12-10.78h.03c1.73,1.06,3.42,2.22,4.94,3.58,36.2-9.46,70.15-12.53,80.95-13.61,25.28-45.36,70.58-43.23,72.24-43.25,30.29-.31,57.71,16.18,72.63,43.22,29.41,2.74,56.72,7.25,80.98,13.64,7.43-6.54,16.68-8.34,23.03-8.28,17.73.41,39.07,7.98,43.98,27.18.35,1.36,1.07,5.01,1.26,7.56,84.15,44.62,113.74,132.68,113.04,231.54.41,78.65-.14,140.45-.03,206.28ZM1079.25,683.6s.02-.09.03-.12c21.97-65.05,9.91-103.26-12.07-145.47-27.47-52.73-62.7-83.11-99.62-103.41-1.61.74-3.54,1.36-5.63,1.81-12.31,2.9-30.46-1.95-40.19-9.3-8.16-5.99-12.46-16.41-13.25-18.27-44.5-12.91-70.42-14.99-82.25-15.65-27.77,23.11-76.21,23.38-104.4-.12-20.14,1.44-41.21,3.73-82.55,15.77-.75,1.87-5.06,12.28-13.22,18.27-10.93,8.44-33.38,13.46-45.82,7.5-42.46,23.59-76.92,57.91-99.14,102.42-7.47,14.18-13.83,27.73-18.09,42.6-9.96,35-7.09,74.85,7.59,110.48t.03.06s.03.09.03.12c24.96,62.7,86.13,114.27,144.59,139.72,99,41.55,174.95,33.72,239.91,22.73,94.97-18.11,188.87-75.6,224.04-169.13ZM696.22,298.01c0,50.18,30.98,98.56,77.97,98.56s77.55-46.77,77.55-96.95-32.98-92.42-77.55-92.42-77.97,40.63-77.97,90.81ZM562.05,422.81v-.03c.43-.67,1.48-.06,2.5.39,1.84.93,4.55,2.53,7.13,3.52-2.41-2.35-7.23-10.08-8.7-14.42-39.55,25.15-65.58,57.54-84.81,99.71-5.17,11.32-11.93,31.12-15.99,43.08,2.33-5.22,4.87-11,7.86-17.46,3.15-6.9,6.62-14.11,10.09-20.86,3.01-5.88,6.7-12.33,8.31-12.88-.07-1.1-.3-4.11.54-5.12.65-.78,4.47-1.25,5.24-1.44-2-2.41-1.94-4.78-1.72-5.24.09-.18.48-.36.99-.39,2-.11,4.45-.05,6.5-.24-1.3-1.86-2.69-4.1-2.92-6.26,0-.76.37-.9,1.23-.9,2.17-.05,4.89.43,7.11.27-1.13-1.52-2.1-3.25-2.65-5.03-.76-2.27-.38-2.79,1.66-2.5,2.16.21,4.61.62,6.74.57-1.1-1.57-2.16-3.44-2.68-5.21-.3-1.14-.39-2.05-.03-2.44.27-.23.88-.15,1.3-.12,2.42.2,5.06.95,7.47.96-.35-.5-3.74-5.98-2.47-7.86.58-.86,5.26,1.08,9.09,1.17-.42-.57-3.92-6.86-2.41-8.19.85-.75,4.92,1.28,9.42,1.69-.99-1.75-1.76-3.65-2.35-5.57-.36-1.48-.36-2.65.12-3.07.67-.27,1.35.02,2.47.33,2.3.64,4.87,1.6,7.32,1.93-.92-1.79-1.81-3.77-2.23-5.66-.42-1.69-.45-2.98.09-3.4.6-.21,1.21-.04,2.38.33,2.34.82,5.1,2.01,7.71,2.41-.27-.57-.54-1.14-.78-1.75h-.03c-.71-1.86-2.42-6.43-1.14-7.65l.03-.03c.37-.28,1.96.22,2.83.6,2.14.84,5.03,2.26,7.56,2.77-.82-1.85-1.46-3.86-1.93-5.78-.42-1.93-.46-3.84.21-4.12.53-.22,1.29.18,2.11.48,1.25.47,5.6,2.82,8.58,3.49-.71-1.85-1.37-3.81-1.75-5.75-.45-1.96-.51-3.61,0-4.33ZM560.03,404.32c-1.61-5.97-3.07-12.26-3.46-18.27-52.63,34.35-83.23,87.92-97.15,147.09,1.17-2.89,12.1-30.13,18.18-40.97,1.3-2.35,2.38-3.91,3.1-4.3-.42-1.6-1.44-4.31-.36-5.66.97-.71,3.38-1.38,4.67-1.75-1.14-.79-2.3-3.31-2.65-4.88-.17-.98.11-1.14.93-1.35,1.89-.51,4.61-.3,6.32-1.05-1.12-.72-1.83-2.21-2.56-3.73-.03-.03-.03-.09-.06-.12-.39-.84-.66-1.57-.69-2.08-.26-.89.75-.88,1.38-.99,1.93-.18,4.85.1,6.59-.36-1.17-.99-1.95-2.69-2.68-4.27-.51-1.2-.78-2.29-.54-2.62.15-.24.63-.3,1.26-.3,2.16-.04,4.94.38,6.95.06-1.19-1.12-2-2.94-2.71-4.58-.54-1.85-1.15-3.05.63-2.92,2.25.01,5.02.61,7.17.48-1.1-1.33-1.97-3.2-2.5-4.88-.39-1.23-.57-2.2-.27-2.47.09-.15.48-.24.87-.24,2.31.11,5.22.92,7.56.93-1.08-1.43-1.92-3.35-2.44-5.09-.43-1.69-.91-2.78.57-2.74,2.49.23,5.24,1.27,7.71,1.45-.42-.61-1.23-2.38-1.38-2.83-.52-1.17-1.58-4.28-1.08-5.04.4-.61,1.45-.17,2.1-.05,2.14.49,4.53,1.36,6.65,1.66-.79-1.2-3-6.49-2.32-8.14.48-1.17,6.3,1.71,8.89,2.15-.96-1.68-1.53-3.83-2.02-5.72-.3-1.48-.39-2.54-.03-2.95.62-.72,6.29,2.14,9.03,2.8-.84-1.78-1.54-3.82-1.87-5.78-.3-1.6-.36-2.89.06-3.16.32-.22.86-.06,1.26.06,2.58.83,5.12,2.42,7.86,3.22-.82-1.81-1.49-3.91-1.78-5.9-.16-.92-.42-2.69.03-3.29.3-.41,1.42.05,1.63.13,2.52.95,5.02,2.7,7.8,3.7-.75-1.84-1.25-4.02-1.6-5.99-.15-.85-.4-3.02-.02-3.49.58-.72,2.36.24,2.79.39,2.32.96,5.66,2.8,8.16,3.85ZM645.5,296.64c.42,0,.77.26,1.35.78,2.05,1.9,5.72,6.86,9.48,10.08.06-3.87.35-8.38,1.26-11.59.92-3.21,1.82-2.94,2.23-2.64,2.98,2.17,6.01,7.67,10.56,11.61.11-3.03.31-6.12.9-9.09.63-3.17,1.8-7.08,3.31-5.6,3.56,3.49,6.55,8.79,10.48,12.34h.06c.12-2.67,1.86-17.41,2.62-21.74-18.63,2.38-37.22,5.63-54.1,9.93-5.51,1.41-7.68,11.67-1.69,19.66-.13-2.64-.09-5.33.21-7.92.22-1.85.71-2.99,1.32-3.13.27-.06.72.24,1.32.75,1.93,1.66,5.3,5.69,8.76,8.43,0-.27-.03-.51,0-.78-.12-3.09-.03-10.81,1.9-11.11ZM624.49,353.93c-6.61,3.79-4.91,14.61.78,19.18-.25-.97-.88-5.19-.6-9,.15-2.05.6-3.6,1.23-3.73,1.92-.41,8.08,6.33,12.98,9.48-.59-1.96-.87-5.34-.66-8.85.15-2.59.69-4.63,1.51-4.85.51-.14.91.15,1.26.33,2.56,1.41,7.14,6.71,11.77,9.78-.69-3.09-1.37-15.98,2.41-13.82h.03c2.62,1.42,7.19,7.23,11.95,10.54-.71-3.7-.79-12.52,1.38-14.54.33-.27.91-.06,1.33.15,2.65,1.35,7.29,7.74,12.16,11.26-.71-3.85-.46-11.4,1.2-14.31.09-.16.5-.97,1.3-.66,2.23.87,5.4,4.9,8.58,7.83-1.63-4.47-2.99-9.1-4.03-13.79-.12.03-.3.03-.42.06-22.88,3.49-44.46,8.24-64.15,14.93ZM701.74,370.42c-.9-1.44-1.78-2.95-2.62-4.46-21.44,2.77-42.48,7.23-61.53,12.88-3.19,1.22-5.35,3.45-6.08,6.56-1.34,5.72,2.69,12.59,10.3,12.61-1.55-3.02-2.11-7.27-1.66-10.3.24-1.84.75-3.1,1.26-3.22.34.07.59.29.96.6,2.11,1.87,6.75,7.6,12.31,9.33-.52-2.78-.69-11.77,1.57-13.79.39-.27.63-.18,1.11.15,2.14,1.44,6.8,7.98,11.41,10.3-.35-3.9-.23-11.63,1.69-13.91.42-.47.8-.6,1.35-.18,2.17,1.29,6.89,8.67,11.77,11.17-.4-4.07.13-11.29,1.69-13.85.51-.75,1.02-1.33,1.72-.78,2.11,1.26,6.95,9.63,12.16,12.16-.51-3.14.74-13.72,2.59-15.29ZM629.94,283.45c-.36-3.98,1.61-11.79,3.64-13.04.52-.27,1.27.36,1.84.93,1.96,1.99,5,6.29,8.37,8.85-.51-3.94.94-11.7,3.1-13.16.53-.29,1.1.27,1.48.63,2.3,2.16,5.03,6.83,8.76,9.81-.3-4.37,1.08-11.34,3.64-13.58.45-.27,1.08.15,1.81.99,2.05,2.2,5.09,7.25,8.61,10.15-.31-4.11,1.31-10.64,3.16-13.13.4-.46.76-.94,1.2-.96s1.11.65,1.57,1.14c2.08,2.35,5.12,7.8,8.76,10.93-.23-3.98,1.14-9.25,2.74-12.37.74-1.44,1.43-2.31,1.92-2.36s1.45.82,2.63,2.33c1.2-3.28,2.5-6.47,3.94-9.57-24.81,2.34-49.99,6.64-71.5,12.07-2.15.69-3.25,2.58-3.73,5-.9,4.91,1.38,11.89,8.07,15.32ZM583.73,339.54c-64.16,30.2-100.41,81.51-120.33,144.78-1.69,5.38-5.97,21.12-8.61,33.05.45-1.05,1.44-3.82,2.86-7.65,5.19-13.99,13.67-36.73,21.1-50.7,18.34-34.04,45.17-61.6,78.03-82.64,1.75-14.21,10.3-24.14,29.98-29.71,10.93-3.1,22.8-3.47,30.98,1.02,21.26-7.25,45.4-12.95,69.87-16.62-.88-6.87-1.71-13.6-1.81-20.65-18.88,2.66-37.34,6.52-54.31,11.32-4.67,7.44-10.45,12.4-23.06,15.81-6.98,1.9-18.57,3.25-24.72,1.99ZM451.9,497.95s.03-.03.03-.03c4.32-13.47,11.83-50.95,19.09-57.41-.45-.66-.9-1.78-1.2-2.95-.48-1.69-.48-2.8.51-3.1,1.53-.52,4.15-.98,5.69-1.72-.94-1.1-4.12-4.77-3.62-6.3.09-.29.76-.44,1.6-.62,1.82-.24,4.3-.47,5.99-.96-.8-.88-1.91-2.55-2.71-3.88-.72-1.23-1.1-2.34-.81-2.77.16-.25.72-.36,1.57-.51,1.91-.22,4.41-.24,6.26-.63-1.33-1.71-3.68-5.34-3.54-6.69.07-.66.75-.66,1.56-.72,2.01-.11,4.69-.05,6.62-.33-2.13-2.83-3.92-6.44-3.34-7.17.43-.54,2.18-.29,3.18-.32,1.64.04,3.56.11,5.09.03-.79-1.38-1.76-2.87-2.47-4.43-.75-1.44-1.14-2.74-.75-3.22.18-.21.57-.24,1.23-.24,2.24.06,4.98.54,7.26.48-.84-1.42-1.69-2.96-2.41-4.52-.63-1.57-1.02-2.89-.57-3.34.12-.18.48-.24.96-.24,2.34.15,5.13.78,7.56.87-.85-1.43-1.62-3.09-2.26-4.61-.57-1.57-.9-2.86-.42-3.28.09-.15.39-.21.81-.15,2.45.15,5.36,1.03,7.92,1.32-.77-1.45-1.65-3.24-2.11-4.73-.56-1.8-1.24-3.9.3-3.61,2.57.28,5.58,1.37,8.28,1.81-1-1.91-1.58-3.68-1.99-4.85-.6-1.78-.78-3.29-.3-3.7s.98-.17,2.71.33c2.01.59,4.18,1.38,6.38,1.87-.66-1.54-1.29-3.29-1.78-4.88,0,0-1.05-3.37-.21-4.03.23-.18,1.29.06,2.62.48,2.05.66,4.33,1.68,6.65,2.32-.12-.33-.24-.66-.33-.99h-.03c-.42-1.26-.9-2.65-1.2-3.88,0-.03-.03-.09-.03-.12-.52-2.15-.87-3.93.03-4.3.39-.12,1.23.15,2.38.63,2.05.82,4.47,2.02,6.95,2.8-.57-1.59-1.11-3.34-1.51-4.94-.03-.06-.03-.15-.03-.21-.48-2.11-.57-3.85.03-4.4,0-.03.03-.03.03-.06.33-.21,1.2.12,2.41.66,2.03.9,4.64,2.34,7.25,3.31-.45-1.67-.98-3.39-1.29-5.12-.46-2.28-.76-4.14.12-4.85.77-.62,6.78,3.37,9.87,4.58-.73-2.63-2.7-9.96-.66-10.42.83-.19,5.2,3.13,8.33,4.58-.73-1.76-1.36-3.78-1.72-5.63-.24-1.05-.65-2.96.11-3.74.42-.43,1.74.51,2.21.79,2.03,1.29,4.69,3.22,7.95,4.31-5.34-3.89-9.28-9.35-12.34-15.17-70.73,39.89-97.13,103.63-107.93,178.61ZM447.47,480.13c3.58-9.64,10.9-56.84,15.56-58.52-1-1.38-2.61-5.51-1.02-6.47,1.17-.86,3.41-1.32,4.33-2.26-1.18-1.52-2.17-4.76-1.99-6.35.06-.53,1.77-.62,2.18-.71,1.18-.24,3.12-.54,3.66-1.55-.69-.65-1.35-2.27-1.75-3.37-.45-1.29-.66-2.56-.54-3.07.09-.21.39-.33.9-.42,1.38-.2,3.88-.16,5.12-1.26-1.07-1.17-2.6-5.24-2.17-6.68.23-.77,3.6-.28,5.36-.87.79-.27,1.54-.51,1.81-1.35-1.24-1.19-3.39-4.56-2.92-6.14.26-.86,5.22-.57,7.47-1.2-1.29-1.08-3.44-5.05-3.04-6.77.18-.77,2.66-.62,3.97-.63,1.35,0,2.69,0,3.97-.24-1.79-1.84-3.71-6.1-3.08-7.08.4-.73,2.38-.31,3.77-.33,1.43.05,2.9.18,4.27-.03-1.41-1.32-3.59-6.4-2.92-7.38.67-.98,4.67.39,8.25.21-1.46-1.75-3.57-6.77-2.5-7.83.34-.33,2.29.05,3.13.15,1.56.28,3.29.63,4.94.66-1.8-2.75-2.94-6.8-2.26-7.65s4.11.75,8.28,1.14c-.08-.12-3.64-7.54-1.51-8.13.4-.11,1.65.26,2.44.48,1.72.49,3.67,1.12,5.6,1.41-.81-1.01-2.59-6.78-1.67-8.13.39-.58,1.56-.04,2.88.36,1.68.59,3.68,1.4,5.66,1.84-1.33-2.9-2.26-7.76-1.29-8.52s5.94,2.3,8.73,2.8c-.6-1.47-1.13-3.28-1.35-4.87-.23-1.68-.41-3.73.34-4.07.86-.4,6.31,2.8,8.74,3.53-.52-1.57-.88-3.24-1.11-4.88-.16-1.87-.38-3.33.33-4.27.31-.41,1.11-.06,2.35.6,1.92.98,4.3,2.45,6.74,3.37-.75-2.54-1.39-6.08-1-8.49.33-2.03,2.05-.79,3.02-.33,1.93.99,4.61,2.71,7.04,3.79-1.85-6.05-3.84-12.44-4.09-18.66-43.45,25.12-72.96,61.64-89.17,110.42-6.57,23.43-12.5,42.99-15.14,72.58-.18,1.93-.3,3.67-.33,5.18ZM985.87,427.14c-.38,1.94-1.04,3.9-1.75,5.75,2.98-.67,7.33-3.02,8.58-3.49.81-.3,1.58-.7,2.11-.48.67.28.63,2.2.21,4.12-.46,1.92-1.11,3.93-1.93,5.78,2.53-.51,5.42-1.93,7.56-2.77.87-.39,2.46-.88,2.83-.6l.03.03c1.28,1.22-.43,5.78-1.14,7.65h-.03c-.24.6-.51,1.17-.78,1.75,2.61-.4,5.37-1.59,7.71-2.41,1.17-.37,1.78-.54,2.38-.33.54.42.51,1.72.09,3.4-.42,1.89-1.31,3.87-2.23,5.66,2.45-.33,5.02-1.29,7.32-1.93,1.12-.31,1.8-.6,2.47-.33.48.42.48,1.6.12,3.07-.58,1.92-1.35,3.82-2.35,5.57,4.5-.41,8.57-2.43,9.42-1.69,1.51,1.33-1.99,7.62-2.41,8.19,3.83-.09,8.51-2.03,9.09-1.17,1.27,1.88-2.12,7.35-2.47,7.86,2.41-.02,5.05-.76,7.47-.96.41-.03,1.03-.11,1.3.12.36.39.27,1.29-.03,2.44-.52,1.76-1.57,3.64-2.68,5.21,2.13.05,4.59-.36,6.74-.57,2.04-.29,2.42.23,1.66,2.5-.55,1.78-1.52,3.5-2.65,5.03,2.22.16,4.93-.32,7.11-.27.86,0,1.24.14,1.23.9-.23,2.16-1.62,4.4-2.92,6.26,2.05.19,4.51.13,6.5.24.51.03.9.21.99.39.23.46.29,2.83-1.72,5.24.77.2,4.58.66,5.24,1.44.84,1,.61,4.02.54,5.12,1.61.55,5.3,7,8.31,12.88,3.46,6.76,6.93,13.96,10.09,20.86,2.99,6.46,5.53,12.24,7.86,17.46-4.06-11.96-10.82-31.76-15.99-43.08-19.23-42.17-45.25-74.55-84.81-99.71-1.47,4.34-6.29,12.07-8.7,14.42,2.59-.99,5.3-2.59,7.13-3.52,1.01-.45,2.07-1.07,2.5-.39v.03c.51.72.45,2.38,0,4.33ZM996.04,400.47c.43-.15,2.2-1.11,2.79-.39.38.47.14,2.65-.02,3.49-.34,1.97-.85,4.15-1.6,5.99,2.78-1,5.28-2.75,7.8-3.7.2-.08,1.32-.53,1.63-.13.44.6.19,2.37.03,3.29-.29,1.99-.95,4.09-1.78,5.9,2.74-.8,5.28-2.39,7.86-3.22.4-.12.94-.28,1.26-.06.42.27.36,1.57.06,3.16-.32,1.96-1.03,4-1.87,5.78,2.75-.66,8.42-3.52,9.03-2.8.36.41.27,1.48-.03,2.95-.49,1.89-1.06,4.04-2.02,5.72,2.59-.43,8.4-3.32,8.89-2.15.68,1.65-1.54,6.94-2.32,8.14,2.12-.3,4.51-1.16,6.65-1.66.65-.12,1.69-.56,2.1.05.5.76-.56,3.87-1.08,5.04-.15.45-.97,2.22-1.38,2.83,2.46-.17,5.21-1.21,7.71-1.45,1.49-.05,1,1.05.57,2.74-.51,1.74-1.36,3.66-2.44,5.09,2.34-.02,5.25-.82,7.56-.93.39,0,.78.09.87.24.3.27.12,1.23-.27,2.47-.53,1.67-1.4,3.55-2.5,4.88,2.15.13,4.92-.47,7.17-.48,1.79-.13,1.17,1.07.63,2.92-.7,1.64-1.52,3.45-2.71,4.58,2.02.32,4.79-.1,6.95-.06.63,0,1.11.06,1.26.3.24.33-.03,1.41-.54,2.62-.73,1.58-1.51,3.28-2.68,4.27,1.75.46,4.66.18,6.59.36.63.12,1.64.11,1.38.99-.03.51-.3,1.23-.69,2.08-.03.03-.03.09-.06.12-.73,1.52-1.44,3.01-2.56,3.73,1.71.76,4.43.54,6.32,1.05.82.22,1.11.37.93,1.35-.35,1.57-1.51,4.09-2.65,4.88,1.29.36,3.69,1.03,4.67,1.75,1.08,1.35.06,4.06-.36,5.66.72.39,1.81,1.96,3.1,4.3,6.08,10.84,17.01,38.08,18.18,40.97-13.92-59.17-44.52-112.74-97.15-147.09-.39,6.01-1.85,12.3-3.46,18.27,2.5-1.05,5.84-2.89,8.16-3.85ZM904.31,307.75c.03.27,0,.51,0,.78,3.46-2.74,6.83-6.77,8.76-8.43.6-.51,1.05-.81,1.32-.75.61.14,1.11,1.28,1.32,3.13.31,2.59.34,5.27.21,7.92,5.99-7.99,3.83-18.25-1.69-19.66-16.88-4.31-35.47-7.55-54.1-9.93.76,4.32,2.5,19.07,2.62,21.74h.06c3.92-3.56,6.91-8.85,10.48-12.34,1.51-1.48,2.68,2.42,3.31,5.6.59,2.98.79,6.06.9,9.09,4.55-3.93,7.58-9.43,10.56-11.61.41-.3,1.32-.57,2.23,2.64.92,3.21,1.21,7.72,1.26,11.59,3.76-3.22,7.44-8.19,9.48-10.08.58-.53.93-.79,1.35-.78,1.93.3,2.02,8.02,1.9,11.11ZM859.28,338.99c-.12-.03-.3-.03-.42-.06-1.05,4.69-2.4,9.31-4.03,13.79,3.18-2.93,6.35-6.95,8.58-7.83.8-.31,1.21.5,1.3.66,1.66,2.91,1.91,10.46,1.2,14.31,4.88-3.52,9.51-9.9,12.16-11.26.42-.21,1-.42,1.33-.15,2.17,2.02,2.1,10.84,1.38,14.54,4.76-3.31,9.33-9.12,11.95-10.54h.03c3.77-2.16,3.09,10.73,2.41,13.82,4.64-3.07,9.21-8.37,11.77-9.78.35-.18.76-.47,1.26-.33.81.22,1.36,2.26,1.51,4.85.2,3.51-.07,6.89-.66,8.85,4.9-3.15,11.05-9.9,12.98-9.48.64.14,1.08,1.69,1.23,3.73.28,3.81-.35,8.03-.6,9,5.69-4.57,7.39-15.39.78-19.18-19.69-6.69-41.28-11.44-64.15-14.93ZM848.77,385.72c5.21-2.53,10.06-10.9,12.16-12.16.7-.54,1.21.03,1.72.78,1.56,2.56,2.09,9.78,1.69,13.85,4.88-2.5,9.6-9.87,11.77-11.17.55-.42.93-.28,1.35.18,1.92,2.27,2.04,10.01,1.69,13.91,4.61-2.32,9.27-8.85,11.41-10.3.48-.33.72-.42,1.11-.15,2.26,2.01,2.09,11,1.57,13.79,5.56-1.74,10.21-7.47,12.31-9.33.37-.31.62-.53.96-.6.51.12,1.02,1.38,1.26,3.22.46,3.03-.11,7.27-1.66,10.3,7.61-.02,11.64-6.9,10.3-12.61-.73-3.12-2.89-5.35-6.08-6.56-19.06-5.65-40.1-10.11-61.53-12.88-.84,1.51-1.72,3.01-2.62,4.46,1.84,1.57,3.1,12.15,2.59,15.29ZM926.05,268.13c-.48-2.42-1.58-4.31-3.73-5-21.5-5.43-46.69-9.73-71.5-12.07,1.44,3.1,2.74,6.29,3.94,9.57,1.18-1.52,2.14-2.38,2.63-2.33.49.05,1.18.92,1.92,2.36,1.6,3.12,2.97,8.39,2.74,12.37,3.64-3.13,6.68-8.58,8.76-10.93.46-.5,1.12-1.17,1.57-1.14s.81.5,1.2.96c1.85,2.49,3.47,9.01,3.16,13.13,3.52-2.89,6.56-7.95,8.61-10.15.72-.84,1.35-1.26,1.81-.99,2.57,2.24,3.94,9.21,3.64,13.58,3.73-2.98,6.46-7.66,8.76-9.81.38-.36.95-.93,1.48-.63,2.16,1.46,3.61,9.22,3.1,13.16,3.37-2.56,6.41-6.86,8.37-8.85.57-.58,1.32-1.21,1.84-.93,2.03,1.25,4.01,9.05,3.64,13.04,6.68-3.43,8.97-10.42,8.07-15.32ZM939.48,337.55c-12.61-3.4-18.39-8.37-23.06-15.81-16.97-4.8-35.42-8.66-54.31-11.32-.09,7.05-.93,13.78-1.81,20.65,24.48,3.67,48.61,9.36,69.87,16.62,8.18-4.49,20.05-4.12,30.98-1.02,19.69,5.57,28.24,15.5,29.98,29.71,32.87,21.04,59.69,48.59,78.03,82.64,7.44,13.96,15.91,36.7,21.1,50.7,1.42,3.82,2.41,6.59,2.86,7.65-2.64-11.93-6.92-27.67-8.61-33.05-19.92-63.28-56.17-114.58-120.33-144.78-6.14,1.26-17.73-.09-24.72-1.99ZM988.1,319.34c-3.07,5.83-7,11.28-12.34,15.17,3.26-1.08,5.91-3.02,7.95-4.31.46-.29,1.78-1.23,2.21-.79.76.78.35,2.7.11,3.74-.36,1.85-.99,3.87-1.72,5.63,3.13-1.46,7.5-4.77,8.33-4.58,2.04.47.07,7.79-.66,10.42,3.1-1.21,9.11-5.19,9.87-4.58.88.71.58,2.57.12,4.85-.31,1.72-.85,3.45-1.29,5.12,2.61-.97,5.23-2.41,7.25-3.31,1.2-.54,2.08-.87,2.41-.66,0,.03.03.03.03.06.6.54.51,2.29.03,4.4,0,.06,0,.15-.03.21-.4,1.6-.93,3.35-1.51,4.94,2.48-.78,4.9-1.98,6.95-2.8,1.14-.48,1.99-.75,2.38-.63.9.38.55,2.16.03,4.3,0,.03-.03.09-.03.12-.3,1.23-.78,2.62-1.2,3.88h-.03c-.09.33-.21.66-.33.99,2.32-.64,4.6-1.66,6.65-2.32,1.33-.42,2.39-.67,2.62-.48.84.66-.21,4.03-.21,4.03-.48,1.58-1.11,3.33-1.78,4.88,2.2-.48,4.37-1.28,6.38-1.87,1.73-.51,2.23-.75,2.71-.33.48.42.3,1.93-.3,3.7-.4,1.17-.98,2.94-1.99,4.85,2.7-.43,5.71-1.53,8.28-1.81,1.54-.29.86,1.81.3,3.61-.46,1.49-1.34,3.27-2.11,4.73,2.56-.3,5.47-1.17,7.92-1.32.42-.06.72,0,.81.15.48.42.15,1.72-.42,3.28-.63,1.51-1.4,3.17-2.26,4.61,2.43-.09,5.21-.72,7.56-.87.48,0,.84.06.96.24.45.45.06,1.78-.57,3.34-.72,1.55-1.56,3.09-2.41,4.52,2.27.06,5.01-.42,7.26-.48.66,0,1.05.03,1.23.24.39.48,0,1.78-.75,3.22-.7,1.56-1.67,3.05-2.47,4.43,1.53.08,3.45,0,5.09-.03,1,.03,2.75-.22,3.18.32.59.74-1.21,4.34-3.34,7.17,1.94.29,4.61.22,6.62.33.81.06,1.49.06,1.56.72.14,1.35-2.22,4.98-3.54,6.69,1.86.39,4.35.42,6.26.63.84.15,1.4.26,1.57.51.28.43-.09,1.54-.81,2.77-.79,1.34-1.91,3-2.71,3.88,1.69.49,4.17.72,5.99.96.84.18,1.51.34,1.6.62.5,1.53-2.68,5.2-3.62,6.3,1.54.74,4.16,1.2,5.69,1.72.99.3.99,1.41.51,3.1-.3,1.17-.75,2.29-1.2,2.95,7.26,6.46,14.77,43.94,19.09,57.41,0,0,0,.03.03.03-10.8-74.99-37.2-138.72-107.93-178.61ZM1100.12,474.95c-2.65-29.6-8.57-49.15-15.14-72.58-16.21-48.79-45.72-85.31-89.17-110.42-.25,6.22-2.25,12.61-4.09,18.66,2.44-1.08,5.12-2.8,7.04-3.79.97-.46,2.69-1.7,3.02.33.39,2.42-.25,5.95-1,8.49,2.44-.92,4.83-2.39,6.74-3.37,1.23-.66,2.04-1.01,2.35-.6.71.94.49,2.41.33,4.27-.23,1.64-.6,3.31-1.11,4.88,2.43-.72,7.88-3.92,8.74-3.53.75.34.58,2.4.34,4.07-.22,1.59-.75,3.4-1.35,4.87,2.79-.5,7.75-3.57,8.73-2.8.97.77.04,5.63-1.29,8.52,1.98-.44,3.98-1.25,5.66-1.84,1.31-.4,2.48-.94,2.88-.36.91,1.35-.86,7.12-1.67,8.13,1.93-.3,3.88-.93,5.6-1.41.79-.22,2.04-.59,2.44-.48,2.14.59-1.43,8.01-1.51,8.13,4.17-.4,7.58-2.02,8.28-1.14.68.85-.45,4.89-2.26,7.65,1.65-.03,3.38-.39,4.94-.66.84-.11,2.79-.49,3.13-.15,1.07,1.06-1.04,6.08-2.5,7.83,3.58.18,7.58-1.19,8.25-.21s-1.51,6.05-2.92,7.38c1.37.21,2.85.08,4.27.03,1.39.02,3.37-.41,3.77.33.63.98-1.29,5.24-3.08,7.08,1.29.24,2.63.23,3.97.24s3.8-.14,3.97.63c.4,1.72-1.75,5.69-3.04,6.77,2.24.64,7.21.35,7.47,1.2.47,1.58-1.68,4.95-2.92,6.14.27.84,1.02,1.09,1.81,1.35,1.76.59,5.13.11,5.36.87.43,1.44-1.09,5.52-2.17,6.68,1.24,1.11,3.73,1.06,5.12,1.26.51.09.81.21.9.42.12.51-.09,1.78-.54,3.07-.4,1.1-1.06,2.72-1.75,3.37.54,1.01,2.48,1.31,3.66,1.55.41.08,2.12.18,2.18.71.18,1.59-.81,4.84-1.99,6.35.92.94,3.17,1.4,4.33,2.26,1.59.96-.02,5.09-1.02,6.47,4.67,1.69,11.98,48.89,15.56,58.52-.03-1.51-.15-3.25-.33-5.18ZM471.02,842.77c.21-.09.14-.47.11-.64-.41-2.33-2.05-8.12-2.74-10.47.53-1.81,1.38-4.35,1.69-5.39.3-1.04-.08-1.9-.69-2.26-1.23-.71-3.65-2.01-3.88-2.17-.06-.3-.15-.6-.21-.87.87-1.93,1.71-3.92,2.59-5.84.36-.79.38-2.06-.63-2.44-1.65-.62-3.22-1.41-4.79-2.2-.12-.33-.24-.69-.33-1.05,1.1-1.63,2.92-4.19,3.67-5.36.61-.79.55-2.17-.48-2.59-1.87-.75-4.55-2.08-6.41-2.89-.09-.3-.18-.6-.27-.93.32-.35,4.9-5.55,5.36-6.08.87-.77.51-1.97-.57-2.35-2.5-.91-4.89-1.9-7.35-2.86-.03-.12-.06-.27-.09-.42.64-.68,4.92-4.93,5.66-5.72.83-.88.51-1.93-.45-2.38-2.33-1.09-4.56-2.33-6.83-3.49l-.09-.63c.5-.58,4-4.34,4.61-5,.31-.33.84-1.58-.3-2.35-1.56-1.06-3.1-2.11-4.61-3.22-.27-.15-.54-.36-.81-.54l-.06-.81c.91-1.3,2.76-3.82,3.34-4.76.45-.72.45-1.67-.3-2.35-.92-.82-2.92-2.59-3.97-3.62-.03-.24-.06-.48-.09-.75.89-1.59,1.79-3.21,2.64-4.82.35-.68.22-1.65-.29-2.23-1.09-1.3-2.18-2.57-3.25-3.88,0-.42-.06-.9-.09-1.35.39-.94.92-2.31,1.34-3.21.8-1.7.19-2.56-.07-2.97-.57-.89-1.41-2.19-2.09-3.25-.03-.57-.09-1.14-.15-1.66.39-1.41,1.06-3.04,1.14-4.27.11-1.64-2.04-4.02-2.17-6.83-1.11-9.24-2.2-46.9-2.2-46.9-1.92,39.21.22,75.08,7.03,114.14,3.55,20.39,10.05,48.3,16.32,58.71.19.31.29.51.4.7.06.1.18.33.38.24ZM487.99,800.86c-.15-.16-.89-.47-1.72-.85-1.23-.57-2.69-1.25-3.01-1.43-.03-.06-.06-.12-.09-.18.12-.24,2.41-4.87,3-6.02.41-.81.88-1.67.44-2.41-.42-.7-1.24-.78-1.81-.92-1.26-.32-3.12-.79-5.78-1.57,1.58-2.25,3.24-4.55,4.82-6.71.97-1.19.78-2.35-.75-2.59-2.89-.49-5.75-1.04-8.61-1.63.74-.95,4.75-5.99,5.57-7.04.88-1.1.36-2.05-.81-2.29-3.03-.57-5.97-1.23-8.91-1.93,1.06-1.38,5.42-6.83,5.42-6.83,1.08-1.47-.27-2.11-.72-2.23-2.73-.73-5.43-1.58-8.07-2.47-.03-.18-.09-.3-.12-.42.48-.72,3.56-5.2,4.12-6.02.72-1.05.16-1.96-.57-2.26-2.2-.91-4.28-1.86-6.35-2.89-.06-.27-.12-.54-.18-.78.49-.93,2.83-5,2.95-5.4.2-.64.28-1.58-.54-2.13-1.6-1.07-3.19-2.17-4.76-3.31-.06-.27-.09-.57-.15-.84.46-1.37,1.24-3.4,1.72-4.76.26-.75.12-1.71-.36-2.26-1.16-1.19-2.24-2.37-3.34-3.58-.03-.15-.12-.54-.21-.9.34-1.33,1.07-3.45,1.17-4.28.04-.34-.1-1.24-.25-1.46-.75-1.07-1.91-2.74-2.42-3.53-.27-2.92-.51-5-.51-5-.33-.99-.69-1.66-.99-2.26-2.86-15.41-3.88-39.95-3.88-39.95-1.43,22.39,2.24,45.39,4.25,56.33,2.81,15.24,12.57,50.39,18.27,66.41,2.98,8.39,7,17.71,10.88,25.17.75,1.44,1.55,2.56,1.97,2.26s.52-2.51.19-4.02l.84-4.61c.24-.75-.12-1.81-.66-2.41ZM496.2,779.07c5.24,8.19,11.06,15.85,17.13,23.45.51.54,1.49,1.79,1.72,1.66.13-.07-1.6-5.32-4.55-9.51.14-1.05.35-2.74.39-3.04.21-1.41.42-3.13-1.14-3.37-1.02-.15-2.96-.4-4.27-.63,1.96-9.17,3.04-7.65-6.32-8.55.91-1.76,2.46-5.18,2.98-6.26.44-.93.06-2.33-1.26-2.32-.94.01-5.32-.17-7.29-.3.63-1.09,3.41-5.94,4.09-7.13.45-.79.34-2.08-1.26-2.08-1.71,0-5.79,0-8.43-.15.6-1.07,3.31-5.8,3.97-6.95.64-.93.34-1.95-.93-1.99-2.61-.14-5.22-.37-7.77-.66-.06-.09-.09-.21-.18-.3.5-.9,2.94-5.3,3.49-6.29.56-.89.26-1.84-.87-2.02-2.34-.37-4.62-.71-6.86-1.17-.09-.21-.18-.42-.27-.66.42-.83,2.43-4.7,2.89-5.6.52-.87.22-1.78-.84-2.05-1.93-.48-5.78-1.54-5.81-1.54-.15-.48-.36-.93-.54-1.41.68-1.54,1.34-3.14,2.02-4.67.26-.59.4-1.58-.72-2.02-1.54-.6-3.04-1.2-4.43-1.9-.03,0-.03-.03-.06-.03-.18-.48-.36-.96-.54-1.44.43-1.5.88-2.96,1.26-4.46.21-.81-.09-1.69-.75-2.11-1.14-.72-2.26-1.54-3.31-2.35-.22-.77-.42-1.47-.66-2.29.32-1.5.92-2.88.33-4.06-3.77-7.58-10.17-40.04-10.17-40.04,3.28,44.18,14.81,72.15,23.99,89.83,4.42,8.5,9.76,16.41,14.99,24.42ZM1077.32,842.52c.11-.19.21-.39.4-.7,6.27-10.41,12.77-38.32,16.32-58.71,6.8-39.06,8.94-74.93,7.03-114.14,0,0-1.08,37.66-2.2,46.9-.13,2.81-2.28,5.19-2.17,6.83.09,1.24.76,2.86,1.14,4.27-.06.51-.12,1.08-.15,1.66-.68,1.05-1.52,2.36-2.09,3.25-.26.41-.86,1.27-.07,2.97.42.89.95,2.26,1.34,3.21-.03.45-.09.93-.09,1.35-1.08,1.32-2.16,2.58-3.25,3.88-.51.58-.64,1.55-.29,2.23.84,1.6,1.75,3.22,2.64,4.82-.03.27-.06.51-.09.75-1.05,1.02-3.05,2.79-3.97,3.62-.75.67-.75,1.62-.3,2.35.58.94,2.43,3.46,3.34,4.76l-.06.81c-.27.18-.54.39-.81.54-1.51,1.11-3.04,2.17-4.61,3.22-1.15.77-.61,2.02-.3,2.35.61.65,4.11,4.42,4.61,5l-.09.63c-2.27,1.16-4.5,2.4-6.83,3.49-.96.45-1.28,1.5-.45,2.38.74.79,5.02,5.04,5.66,5.72-.03.15-.06.3-.09.42-2.46.96-4.84,1.95-7.35,2.86-1.08.38-1.45,1.58-.57,2.35.46.53,5.04,5.73,5.36,6.08-.09.33-.18.63-.27.93-1.86.81-4.54,2.14-6.41,2.89-1.03.42-1.09,1.8-.48,2.59.75,1.17,2.58,3.73,3.67,5.36-.09.36-.21.72-.33,1.05-1.56.79-3.14,1.58-4.79,2.2-1.01.38-.99,1.65-.63,2.44.88,1.92,1.72,3.91,2.59,5.84-.06.27-.15.57-.21.87-.23.16-2.65,1.46-3.88,2.17-.61.35-.99,1.22-.69,2.26.3,1.04,1.16,3.58,1.69,5.39-.69,2.34-2.33,8.13-2.74,10.47-.03.17-.1.55.11.64s.32-.14.38-.24ZM1059.31,803.27l.84,4.61c-.33,1.51-.23,3.73.19,4.02s1.22-.83,1.97-2.26c3.88-7.46,7.89-16.78,10.88-25.17,5.69-16.02,15.46-51.17,18.27-66.41,2.01-10.94,5.68-33.93,4.25-56.33,0,0-1.02,24.54-3.88,39.95-.3.6-.66,1.26-.99,2.26,0,0-.24,2.08-.51,5-.51.79-1.67,2.46-2.42,3.53-.15.22-.29,1.12-.25,1.46.1.83.83,2.94,1.17,4.28-.09.36-.18.75-.21.9-1.1,1.21-2.18,2.39-3.34,3.58-.48.55-.62,1.51-.36,2.26.48,1.36,1.25,3.39,1.72,4.76-.06.27-.09.57-.15.84-1.57,1.14-3.15,2.24-4.76,3.31-.82.55-.74,1.49-.54,2.13.12.39,2.46,4.46,2.95,5.4-.06.24-.12.51-.18.78-2.07,1.03-4.15,1.98-6.35,2.89-.73.3-1.29,1.2-.57,2.26.56.82,3.65,5.3,4.12,6.02-.03.12-.09.24-.12.42-2.64.89-5.33,1.74-8.07,2.47-.46.12-1.81.76-.72,2.23,0,0,4.36,5.46,5.42,6.83-2.94.7-5.88,1.36-8.91,1.93-1.17.24-1.69,1.19-.81,2.29.82,1.05,4.83,6.1,5.57,7.04-2.86.58-5.72,1.13-8.61,1.63-1.53.24-1.72,1.4-.75,2.59,1.58,2.16,3.24,4.46,4.82,6.71-2.66.78-4.52,1.25-5.78,1.57-.56.14-1.39.23-1.81.92-.45.75.03,1.6.44,2.41.58,1.16,2.88,5.78,3,6.02-.03.06-.06.12-.09.18-.32.18-1.78.86-3.01,1.43-.83.38-1.57.69-1.72.85-.54.6-.9,1.66-.66,2.41ZM1066.74,754.65c9.19-17.68,20.71-45.65,23.99-89.83,0,0-6.4,32.46-10.17,40.04-.59,1.19.01,2.56.33,4.06-.24.82-.44,1.52-.66,2.29-1.05.81-2.17,1.63-3.31,2.35-.66.42-.96,1.29-.75,2.11.38,1.5.84,2.95,1.26,4.46-.18.48-.36.96-.54,1.44-.03,0-.03.03-.06.03-1.38.69-2.89,1.29-4.43,1.9-1.13.44-.99,1.42-.72,2.02.68,1.53,1.34,3.13,2.02,4.67-.18.48-.39.93-.54,1.41-.03,0-3.88,1.05-5.81,1.54-1.06.27-1.36,1.17-.84,2.05.47.9,2.47,4.77,2.89,5.6-.09.24-.18.45-.27.66-2.25.47-4.52.8-6.86,1.17-1.13.17-1.43,1.13-.87,2.02.55.99,2.99,5.39,3.49,6.29-.09.09-.12.21-.18.3-2.55.29-5.16.53-7.77.66-1.27.04-1.57,1.05-.93,1.99.66,1.16,3.37,5.88,3.97,6.95-2.63.15-6.72.15-8.43.15-1.61,0-1.72,1.29-1.26,2.08.68,1.19,3.47,6.04,4.09,7.13-1.97.13-6.35.31-7.29.3-1.32-.02-1.71,1.39-1.26,2.32.52,1.09,2.08,4.5,2.98,6.26-9.36.9-8.28-.62-6.32,8.55-1.32.23-3.25.49-4.27.63-1.57.24-1.35,1.96-1.14,3.37.05.3.25,2,.39,3.04-2.95,4.19-4.67,9.44-4.55,9.51.23.13,1.21-1.11,1.72-1.66,6.07-7.6,11.89-15.27,17.13-23.45,5.23-8,10.58-15.92,14.99-24.42ZM583.94,848.55s.66-2.23,1.44-4.73c1.2-3.64.6-5.66-1.57-6.89-3.49-1.96-13.88-8.46-17.28-10.63-1.32-.78-2.92-1.23-4.49-1.11-1.54.12-3.01.75-4.22,2.05-1.66,1.78-3.97,4.27-3.97,4.27,0,0-9.69-6.08-11.56-7.19-.9-.57-1.99-.84-3.07-.75-1.32.09-2.62.72-3.79,1.96-1.66,1.69-7.98,8.28-7.98,8.28,0,0-6.68-4.58-8.58-5.87-1.11-.78-2.47-1.14-3.82-1.05-1.96.15-4.03,1.23-5.9,3.37-.45.48-2.14,2.56-4.09,4.94,22.13,20.53,47.48,37.72,73.88,52.35,7.53,4.06,15.11,7.89,22.91,11.32,1.6-3.55,3.04-6.74,3.13-7.01,1.6-4.49.06-7.08-3.16-9.12-1.6-1.02-8.79-5.15-8.79-5.15,0,0,4.82-9.51,5.6-12.95.87-3.76-.51-6.41-3.73-8.7-2.44-1.78-10.96-7.38-10.96-7.38ZM597.27,909.12c.09-.18.9-2.02,1.96-4.46-18.24-7.98-35.61-17.82-52.32-28.63-16.23-10.63-31.88-22.22-46.24-35.34-1.81,2.32-3.19,4.12-3.28,4.27-2.44,3.13-2.83,6.35-.15,9.66,1.32,1.69,8.28,8.73,8.28,8.73,0,0-2.74,3.82-4,6.11-1.57,3.01-.93,7.1.99,9.39,1.66,2.02,13.76,14.36,13.76,14.36,0,0-2.41,3.94-3.31,5.96-.99,2.17-.36,4.28,1.6,6.53,2.95,3.43,13.64,11.95,18.57,14.6,1.42.75,2.98,1.08,4.46.96,1.54-.15,3.04-.81,4.18-2.08,1.75-1.9,3.55-4.37,3.55-4.37,0,0,12.88,6.74,15.74,7.74,1.08.42,2.38.54,3.67.42,2.68-.27,5.39-1.54,6.74-3.34,1.84-2.47,6.38-9.39,6.38-9.39,0,0,7.19,2.83,9.6,3.79.99.42,2.05.54,3.1.45,2.74-.27,5.48-2.11,6.71-5.39ZM546.37,837.74c-.15-.48-.57-.78-1.05-.72-4.06.27-7.86.72-11.05.69-.93-.03-1.38.78-.48,1.69.72.66,13.67,9.78,14.48,10.27,1.11.69,1.93-.18,1.41-1.38-1.32-3.4-2.29-7.11-3.31-10.54ZM581.71,861.52c-4.06.51-7.83,1.17-10.99,1.26-.96.06-1.36.9-.39,1.75.75.63,14.18,9.03,14.99,9.48,1.14.6,1.9-.27,1.35-1.51-1.48-3.31-2.65-6.92-3.88-10.3-.18-.51-.6-.75-1.08-.69ZM572.95,851.74c-1.57-3.31-2.8-6.92-4.06-10.3-.18-.45-.6-.72-1.11-.66-4,.57-7.77,1.26-10.96,1.48-.93.03-1.32.9-.33,1.72.72.63,14.3,8.79,15.14,9.24,1.14.6,1.87-.3,1.32-1.48ZM528.3,891.27c-1.11-.63-1.9.24-1.38,1.44,1.44,3.37,2.5,7.01,3.64,10.42.18.48.6.75,1.11.72,4.03-.45,7.8-.99,11.02-1.05.9,0,1.32-.84.39-1.69-.72-.66-13.94-9.39-14.78-9.84ZM528.85,880.52c-.66-.72-13.13-10.51-13.91-11.05-1.08-.75-1.93.09-1.51,1.35,1.14,3.46,1.9,7.16,2.77,10.66.12.51.51.81,1.02.78,4.06-.06,7.89-.3,11.05-.06.9.06,1.41-.75.57-1.69ZM568.01,904.7c-.78-.57-14.54-8.37-15.41-8.79-1.17-.57-1.87.36-1.3,1.54,1.66,3.28,2.98,6.8,4.37,10.15.18.45.63.72,1.11.63,4-.66,7.77-1.48,10.93-1.75.9-.09,1.29-.96.3-1.78ZM631.53,910.66c9.46,3.71,32.41,10.8,53.5,14.99,3.34-25.07,16.01-37.28,21.31-42.48-17.6-3.11-35.07-7.86-52.65-13.88-14.43-4.98-16.23-6.48-20.86-7.95h-.03c-1.96-.42-4,.69-4.73,2.65l-1.57,4.27c-.75,2.02.2,4.29,2.2,5.24,14.92,7.05,36,13.5,50.73,17.91-12.73-1.6-25.14-5.33-37.21-9.93-2.49,6.86-10.69,29.17-10.69,29.17ZM697.1,977.04c-6.67-9.56-13.19-26.49-12.64-43.83-17.05-3.56-33.66-7.56-55.48-15.53l-.03.03s-8.72,23.96-9.75,26.76c12.28,4,24.6,8.46,36.76,11.95-19.31-2.28-45.65-12.82-51.72-14.87-2.26-.76-4.67.27-5.42,2.47l-1.41,3.85c-.78,2.08.25,4.44,2.32,5.3,43.28,18,97.39,23.87,97.39,23.87ZM684.85,889.28c1.93.03,3.49-1.51,3.52-3.4.03-1.9-1.48-3.46-3.4-3.49-1.93-.03-3.49,1.48-3.52,3.37-.03,1.93,1.48,3.49,3.4,3.52ZM667.36,877.66c-1.96-.06-3.52,1.48-3.55,3.37-.03,1.93,1.48,3.49,3.43,3.55,1.9.03,3.46-1.51,3.49-3.43.03-1.9-1.47-3.46-3.37-3.49ZM649.66,872c-1.9-.03-3.46,1.48-3.49,3.37-.03,1.9,1.48,3.49,3.37,3.52,1.9.03,3.49-1.51,3.52-3.4.03-1.9-1.51-3.46-3.4-3.49ZM643.06,956.9c-1.93-.03-3.49,1.51-3.52,3.4-.03,1.93,1.48,3.49,3.4,3.55,1.9.03,3.46-1.51,3.49-3.43.03-1.9-1.48-3.46-3.37-3.52ZM625.6,952.26c-1.93-.03-3.49,1.51-3.52,3.4-.03,1.9,1.48,3.46,3.4,3.49,1.93.03,3.49-1.48,3.52-3.37.03-1.9-1.48-3.49-3.4-3.52ZM679.19,964c-1.9-.03-3.46,1.51-3.49,3.4-.03,1.93,1.48,3.49,3.37,3.55,1.93.03,3.49-1.51,3.52-3.43.03-1.9-1.48-3.46-3.4-3.52ZM661.07,960.87c-1.9-.03-3.49,1.51-3.52,3.4-.03,1.9,1.51,3.46,3.4,3.49,1.9.03,3.46-1.48,3.49-3.37.03-1.9-1.48-3.49-3.37-3.52ZM903.46,878.45c2.62-1.14,3.63-3.45,2.55-6.2-.33-.84-.96-2.85-1.15-3.47-.76-2.3-3.27-3.48-5.52-2.59-2.78,1.08-5.57,2.1-8.38,3.1-20.1,6.97-41.41,12.29-61.84,15.49,12.24,11.7,18.73,27.6,20.31,43.17,16.3-2.56,38.14-8.41,50.49-12.3-2.44-7.45-7.31-22.24-9.75-29.75-11.93,4.05-24.18,7.23-36.71,8.35,17.7-4.64,37.32-10.25,50.01-15.79ZM933.97,908.03l-.79-2.39c-.45-1.32-1.89-1.99-3.21-1.45-9.66,3.9-17.65,7.18-30.05,11.46l2.26,7c-23.2,7.73-43.48,11.27-52.37,12.92-.34,14.72-3.9,28.95-13.8,43.38,30.05-2.84,61.98-8.47,94.09-20.08,2.12-.77,3.23-3.1,2.53-5.22,0,0-1.22-3.72-1.53-4.52s-2.06-2.93-5.11-2.02c-11.26,3.36-34.81,11.8-52.29,13.07,12.33-3.09,24.8-7.09,37.26-10.68l-8.78-26.85c6.73-2.16,18.6-6.34,30.47-11.58,1.17-.52,1.73-1.84,1.33-3.04ZM888.62,967.09c1.9.03,3.47-1.49,3.51-3.39.03-1.93-1.48-3.5-3.39-3.54-1.9-.03-3.47,1.49-3.51,3.42-.03,1.9,1.49,3.47,3.39,3.51ZM846.44,884.99c-1.9-.03-3.47,1.49-3.51,3.39-.03,1.9,1.49,3.48,3.39,3.51,1.9.03,3.47-1.49,3.51-3.39.03-1.9-1.49-3.47-3.39-3.51ZM864.18,880.89c-1.9-.03-3.47,1.49-3.51,3.39-.03,1.9,1.49,3.47,3.39,3.51,1.9.03,3.48-1.48,3.51-3.39.03-1.9-1.49-3.47-3.39-3.51ZM881.95,876.15c-1.9-.03-3.48,1.48-3.51,3.39-.03,1.9,1.49,3.47,3.39,3.51,1.9.03,3.47-1.49,3.51-3.39.03-1.9-1.49-3.47-3.39-3.51ZM867.24,966.96c-.03,1.9,1.49,3.47,3.39,3.51,1.9.03,3.47-1.49,3.51-3.39.03-1.9-1.49-3.47-3.39-3.51-1.9-.03-3.48,1.48-3.51,3.39ZM906.62,962.62c1.9.03,3.48-1.49,3.51-3.39.03-1.9-1.49-3.47-3.39-3.51-1.93-.03-3.5,1.48-3.54,3.39-.03,1.9,1.49,3.48,3.42,3.51ZM852.62,966.38c-1.93-.03-3.51,1.49-3.54,3.39-.03,1.9,1.49,3.47,3.42,3.51,1.9.03,3.47-1.48,3.51-3.39.03-1.9-1.49-3.47-3.39-3.51ZM801.78,912.67c5.08-6.25,9.68-14.43,10.24-15.5-6.01,4.97-11.12,10.63-16.05,16.62-1.08,1.23.03,3.37,1.69,3.16,7.69-.84,15.27-1.97,22.7-4.24-6.26-.66-12.4-.48-18.57-.03ZM765.83,897.66c.54,1.59,2.92,1.65,3.6.09,3.32-7.62,4.6-12.2,5.56-17.12-2.89,3.58-5.15,7.49-7.19,11.53-1.8-4.13-3.82-8.09-6.46-11.77.64,5.94,2.41,11.73,4.49,17.26ZM733.2,911.59c-6.14-.84-12.31-1.35-18.54-1.14,7.25,2.76,14.74,4.34,22.37,5.6,1.63.36,2.92-1.72,1.9-3.07-4.55-6.2-9.3-12.19-14.99-17.49.48,1.08,4.67,9.68,9.27,16.11ZM710.29,977.85c-31.88-54.5,2.87-88.57,12.25-96.88-35.75,21.15-38.73,67.62-12.25,96.88ZM738.47,950.42c1.11-1.26,0-3.43-1.72-3.19-7.65.84-15.23,1.96-22.67,4.25,2.52.23,7.8.77,18.57,0-3.77,4.95-7.31,9.93-10.24,15.47,4.58-3.66,8.45-7.85,12.34-12.16,1.25-1.45,2.46-2.96,3.7-4.37ZM773.2,983.75c-.61-5.95-2.42-11.65-4.49-17.23-.54-1.59-2.95-1.66-3.57-.09-2.41,5.52-4.53,11.1-5.59,17.09,2.93-3.51,5.4-7.88,7.21-11.5,2.24,5.31,4.2,8.55,6.43,11.74ZM770.35,933.96c20.24,10.14,40.73,7.04,55.84-.84-26.87-14.78-47.55-6.03-55.78-2.8,19.47-13.35,26.29-31.87,27.18-48.77-14.12,8.35-27.87,23.36-30.32,47.02-1.62-23.7-14.66-39.11-28.66-48.05.48,17.18,6.23,35.57,25.5,49.7-18.75-9.21-38.99-7.98-55.9.84,15.86,8.69,34.96,11.95,55.84,2.77-6.11,4.72-25.52,17.89-27.18,48.8,28.02-17.04,29.22-41.33,30.29-47.08,2.15,24.98,14.85,38.96,28.69,48.11-.7-27.78-15.11-41.82-25.5-49.7ZM819.78,953.72c-7.27-2.8-14.73-4.29-22.38-5.62-1.63-.33-2.91,1.73-1.87,3.06,4.57,6.24,9.3,12.21,14.98,17.5-2.58-5.69-5.79-10.95-9.27-16.07,5.58.74,11.43,1.36,18.53,1.12ZM822.5,980.22c27.88-28.72,25.7-74.93-8.88-97.2,29.16,27.71,30.41,64.33,8.88,97.2ZM1052.33,835.81c-5.15,1.45-8.03,2.17-13.36,3.11-2.09.37-3.54-1.27-3.38-2.8.56-5.21,1.11-9.76,1.56-14.84.12-2.17-2.61-3.45-3.96-2.01-5.96,6.69-12.68,13.64-18.16,17.91-1.59,1.27-5.16.49-4.67-2.36.39-2.26,1.06-5.98,1.51-9.66.25-2.01-2.36-3.69-3.78-2.49-6.02,4.94-12.14,9.11-16.48,12.1-1.55,1.08-4.29-.35-3.82-2.29.53-2.04,1.77-4.96,2.27-7.08.42-1.94-2.05-4.35-4-2.85-4.91,3.74-14.06,9.96-20.54,13.66-2.5,1.46-2.02,3.98-.07,4.72,2.79,1.08,6.21,1.37,8.99,2.34,2.33.88.99,2.76-1.04,4.08-4.51,2.98-9.33,5.59-16.73,9.24-2.54,1.25-2.16,4.4-.1,5.03,2.59.84,8.47,2.81,10.76,3.46,2.07.66,2.19,4.04.46,5.22-5.76,3.88-14.4,9.06-21.91,12.71-1.82.91-1.45,4.43.77,4.93,1.75.39,7.18,1.6,11.12,2.63,1.88.49,3.85.37,4.28,2.58.38,1.43-.61,2.54-1.09,3.83-1.84,3.91-4.13,8.45-5.97,12.02-1.12,2.08,1.15,4.42,3.31,3.62,2.86-1.02,25.17-11.24,25.17-11.24,1.98-1.16,4.34,1.21,3.3,3.42-1.37,3.12-2.82,6.41-4.45,9.88-1.01,2.24,1.13,4.67,3.29,3.51,9.55-5.45,19.28-11.67,26.4-16.49,2.06-1.37,4.47.6,3.62,2.99-1.13,3.28-2.49,7.72-3.48,11.02-.71,2.43,1.38,4.49,3.58,3.07,3.25-2.28,6.58-4.78,9.77-7.41,6.2-5.1,12.01-10.66,16.49-15.67,1.6-1.73,1.12-3.9-1.53-3.65-2.95.33-7.2.52-10.1.69-2.38.09-2.71-1.83-.81-3.41,8.64-6.87,13.75-14.44,18.65-20.45,1.56-1.88,1.04-4.01-1.3-4.09-2.51-.12-5.92-.06-8.69-.14-2.54-.07-3.42-2.63-1.72-4.18,6.39-5.71,12.56-13.22,18.23-20.91,1.3-1.87-.3-4.35-2.41-3.75ZM1030.8,845.97c-2.62,15.08-6.24,29.45-11.86,44.73-.27.86-1.06,1.46-1.93,1.53-15.83.67-30.87-.68-45.82-3.57-1.69-.35-2.34-2.48-1.43-3.9,6.4-13.47,11.45-26.88,15.01-39.78.21-.76.84-1.13,1.57-1.04,13.62,1.72,27.77,1.65,41.97-.47,1.24-.19,2.75.99,2.49,2.49ZM1012.99,857.9c-6.16.12-12.15.12-18.17-.35-.85-.07-1.58.38-1.82,1.22-2,6.53-3.96,11.95-5.97,16.91-.6,1.44-.08,3.08,1.51,3.27,3.15.32,12.63,1.3,19.4,1.05.92,0,1.7-.55,2.03-1.38,2.12-5.92,3.84-11.96,5.47-17.75.38-1.51-.92-3.05-2.45-2.98ZM936.13,265.51c3.46-.3,8.55-1.57,13.37-1.81,4.79-.21,9.42.54,13.61.63-.81-.6-1.81-1.23-2.89-1.84-3.01-1.75-6.89-3.28-10.6-3.16-2.95.12-5.99,1.35-8.64,2.86-1.9,1.05-3.55,2.26-4.85,3.31ZM934.51,276.41c3.43-.3,8.52-1.57,13.34-1.78,4.79-.24,9.45.51,13.61.57-.78-.57-1.72-1.17-2.74-1.78-3.01-1.72-6.92-3.31-10.72-3.19-2.95.09-5.96,1.32-8.58,2.8-1.93,1.08-3.61,2.32-4.91,3.37ZM928.91,287.42c3.43-.27,8.52-1.57,13.34-1.78,4.79-.21,9.42.54,13.61.6-.75-.54-1.69-1.14-2.68-1.75-3.04-1.75-6.98-3.37-10.81-3.22-2.86.09-5.81,1.26-8.37,2.71,0,0-.03.03-.06.03-1.96,1.08-3.7,2.35-5.03,3.4ZM613.44,372.08c-1.81-1.48-4.39-3.28-7.28-4.58-1.99-.87-4.09-1.51-6.17-1.57-2.38-.09-4.79.51-7.01,1.41-2.56.99-4.85,2.38-6.47,3.55,4.15-.09,8.76-.81,13.55-.6h.09c2.89.12,5.93.66,8.61,1.11.03,0,.06,0,.09.03,1.72.27,3.28.51,4.61.63ZM613.29,379.3c-2.41-1.29-5.09-2.26-7.71-2.35-2.05-.06-4.12.36-6.08,1.05-2.92,1.02-5.57,2.59-7.41,3.91,4.18-.06,8.85-.81,13.64-.6h.3c2.8.18,5.63.66,8.22,1.11h.06c1.78.3,3.4.57,4.76.69-1.48-1.2-3.52-2.65-5.78-3.82ZM611.82,361.18c-3.07-2.47-8.4-5.96-13.49-6.14-5.06-.18-10.39,2.77-13.49,4.97,4.12-.06,8.64-.78,13.31-.6h.33c2.98.15,6.08.69,8.85,1.14h.03c1.66.3,3.16.54,4.46.63ZM934.48,372.08c1.32-.12,2.89-.36,4.61-.63.03-.03.06-.03.09-.03,2.68-.45,5.72-.99,8.64-1.11h.06c4.76-.21,9.39.51,13.55.6-1.63-1.17-3.91-2.56-6.47-3.55-2.23-.9-4.64-1.51-7.01-1.41-2.05.06-4.15.66-6.11,1.57-2.89,1.26-5.51,3.1-7.35,4.58ZM940.56,360.55h.03c2.74-.45,5.84-.99,8.85-1.14h.33c4.67-.18,9.21.54,13.28.6-3.07-2.2-8.37-5.15-13.46-4.97-5.09.18-10.45,3.67-13.49,6.14,1.29-.09,2.8-.33,4.46-.63ZM928.85,383.13c1.38-.12,3.01-.39,4.79-.69,2.56-.45,5.45-.93,8.25-1.11h.3c4.79-.21,9.45.54,13.61.6-1.84-1.32-4.46-2.89-7.35-3.91-1.96-.69-4.06-1.11-6.11-1.05-2.62.09-5.3,1.05-7.71,2.35-2.26,1.17-4.3,2.62-5.78,3.82ZM613.92,283.99c-2.56-1.44-5.51-2.62-8.37-2.71-3.82-.15-7.77,1.48-10.81,3.22-.99.6-1.93,1.2-2.68,1.75,4.18-.06,8.85-.81,13.64-.6,4.79.21,9.9,1.51,13.34,1.78-1.32-1.05-3.07-2.32-5.06-3.4-.03,0-.06-.03-.06-.03ZM613.41,276.41c-1.29-1.05-2.98-2.29-4.91-3.37-2.62-1.48-5.63-2.71-8.58-2.8-3.76-.12-7.68,1.48-10.72,3.19-1.05.6-1.99,1.2-2.77,1.78,4.22-.06,8.85-.81,13.64-.57,4.79.21,9.9,1.48,13.34,1.78ZM584.81,264.33c4.18-.09,8.85-.84,13.64-.63,4.79.24,9.9,1.51,13.34,1.81-1.29-1.05-2.95-2.26-4.85-3.31-2.65-1.51-5.69-2.74-8.64-2.86-3.73-.12-7.59,1.42-10.6,3.16-1.08.6-2.08,1.23-2.89,1.84ZM995.74,685.81c-24.39,24.37-52.59,50.23-83.82,62.26-13.5,4.06-77.31,7.51-84.12,7.71-16.23.48-12.67-3.29-10.59-3.88,65.92-20.8,153.57-58.3,200.42-122.01-2.34-8.31-12.44-13.25-25.52-12.87-7.85.23-24.59,1.25-33.56-1.11-14.78-3.76-21.38-14.56-21.75-27.13-.71-24.08,17.81-53.44,37.18-54,21.98-.65,51.37,36.73,52.63,79.65.79,26.69-8.45,49.76-30.87,71.37ZM995.32,583.92c-6.56-9.24-16.73-16.8-26.16-16.52-8.9.26-15.53,6.22-15.39,10.93.12,4.19,8.04,6.05,18.5,5.74,5.76-.17,15.67-1.51,23.05-.15ZM902.92,622.78c-.68-23.03-12.21-41.03-22.72-60.1,4.71-.14,8.87-1.31,10.41-2.4l-28.79-34.78c-3.97,7.45-7.28,19.6-9.61,29.62,3.23,3.05,5.91,5.06,6.51,7.67,4.14,16.12,15.24,37.27,25.28,57.93,4.99,9.28,6.7,13.95,7.25,14.98-50.22,55.96-160.17,91.69-226.09,112.49-2.08.58-5.63,4.36,10.59,3.88,6.8-.2,76.37-3.82,89.87-7.88,36.78-14.18,79.67-33,111.75-64.33,16.8-16.73,26.16-36.14,25.55-57.07ZM813.13,614.82c-.42-14.19-6.34-31.53-14.54-48.89,3.82-.36,7.02-1.34,8.32-2.27l-28.79-34.78c-3.97,7.45-7.28,19.6-9.61,29.62,3.23,3.05,5.91,5.06,6.51,7.67,10.42,27.97,15.79,32.8,27.33,61.87-62.56,27.88-115.59,41.31-170.41,42.92-52.34,1.54-96.94-18.63-98.22-62.07-.31-10.47,1.51-19.95,4.25-33.65l-5.27-.89c-4.42,10.08-12.02,36.5-11.41,57.44,1.77,60.19,52.56,77.03,101.76,75.59,79.04-2.32,148.33-33.18,175.65-48.12,5.16-2.77,14.78-31.87,14.41-44.43ZM683.73,538.54l-23.76-19.13-19.12,24.81,24.28,18.6,18.61-24.28ZM664.25,579.58l-26.4-21.2-21.19,27.45,26.92,20.67,20.67-26.92ZM693.79,600.75l20.67-26.92-26.4-21.2-21.19,27.45,26.92,20.67ZM1025.04,692.25c-15.12,17.47-39.46,41.13-52.34,52.04.53,4.06.8,7.58,1.09,11.54,17.5-13.77,40.46-36.48,54.65-53.47-1.45-3.97-2.4-6.9-3.4-10.11ZM703.15,294.54c.1-1.27.2-2.57.33-3.84,4.29-41.67,31.97-73.78,69.68-73.78,41.04,0,70.24,38.16,70.24,85.21,0,42.16-21.59,77.11-57.14,83.94-1.15.22-2.24.44-3.48.57-1.24.13-1.32.87,0,.73,1.32-.15,2.56-.33,3.82-.55,37.45-6.43,60.18-42.74,60.18-86.53,0-48.35-30.03-87.48-72.26-87.48-39.33,0-68.1,33.95-71.84,77.7-.11,1.33-.19,2.63-.27,4.02-.09,1.38.65,1.27.76,0ZM784.15,357.38l2.02-1.99,2.39-2.41c.17-.18.46-.18.64,0,5.46,4.87,9.49,11.3,15.99,5.71.98-.84,2.89-2.25,3.88-3.67.45-.64.77-1.46.52-2.16-.21-.6-.86-1.12-1.16-1.22-.28-.09-.37-.12-.53-.18-1.96-.7-4.46-1.74-5.87-2.99-1.63-1.44-3.08-3.95-3.15-6.8,0-.26-.22-.47-.49-.47h-1.69c-.71,0-1.31.56-1.38,1.25,0,.06-.14,1.12-.14,1.12-1.7,1.67-2.02,2.32-4.58,3.07-1.33.39-4.71-.21-6-1-.48-.3-.24-.84.13-.88,1.09-.11,2.02-.17,3.27-.35l-8.99-8.6c-.25-.15-.27-.54-.04-.72,4.15-3.56,8.24-6.64,13.03-9.28,4.94-2.68,10.06-4.64,15.59-5.65,6.48-1.15,11.94-1.16,17.7-1.14-5.56-3-15.54-3.91-22.75-2.47-6.65,1.09-12.85,3.86-18.57,7.41-3.48,2.19-6.46,4.3-9.69,7.1-.08.07-.53,0-.62,0-8.57-7.11-17.65-12.73-28.29-14.52-7.19-1.44-17.19-.5-22.72,2.48,7.57-.05,16.12.09,23.97,2.73,5.82,1.89,10.97,4.69,15.89,8.22,2.11,1.48,4.24,3.15,6.5,5.11.18.26.01.75-.26.91l-8.55,8.21c1.57.21,2.7.3,3.93.41.18.02.33.13.38.3.06.16.02.35-.1.47-.6.62-4.66,1.81-7.04,1.24-2.27-.55-3.21-1.64-4.71-3.36v-.71c0-.76-.62-1.38-1.38-1.38h-1.71c-.28,0-.49.2-.49.47-.03,2.35-.95,4.55-2.67,6.38-1.56,1.59-4.33,2.69-6.84,3.58-.47.17-1.49.87-1.24,2.16.35,1.8,3.08,3.72,4.46,4.9,4.36,3.72,7.52,2.17,10.52-.59,1.7-1.57,3.44-3.19,5.47-5.12.08-.09.56.01.66,0l4.52,4.73v.68c0,.75.62,1.39,1.38,1.41h1.69c.27,0,.49-.22.49-.5v-1.69c.04-.72-.54-1.34-1.24-1.4-.06,0-1.14-.14-1.14-.14-1.32-1.27-2.7-2.7-3.06-4.59-.04-.16.01-.32.12-.44l11.45-11.04c.18-.18.81.13.9.23.05.06,9.42,9.09,9.69,9.35.51.52,1,1,1.51,1.49.12.12.17.28.13.44-.12.54-.56,1.75-1.16,2.5-.7.89-1.61,1.63-2.26,2.2h-.68c-.76,0-1.38.63-1.38,1.41l.04,1.69c0,.29.21.5.49.5h1.68c.72-.02,1.31-.57,1.38-1.25,0-.07.15-1.16.15-1.16ZM792.01,349.39s4.11-4.14,4.22-4.24c.05-.05.15-.18.39-.18.18,0,.45,0,.56,0,.22,0,.4.16.44.37.27,1.48.98,2.93,2.11,4.3.99,1.17,2.55,1.96,4.61,2.35.17.04.19.27.22.45.06.34-.51.71-.78.91-.21.15-2.07,1.59-2.82,2.16-1,.75-2.43.72-3.33-.16l-5.6-5.33c-.19-.16-.18-.48,0-.64ZM755.94,350.03l-5.57,5.33c-.87.87-2.36.91-3.32.16-.43-.31-2.6-1.99-2.8-2.16l-.78-.57c-.31-.22-.19-.74.19-.81,3.84-.6,6.03-3.38,6.72-6.65.04-.21.22-.37.44-.37l.9.13,4.23,4.29c.17.18.18.48,0,.64ZM769.94,246.54c-2.26-1.59-6.77-4.29-11.58-4.57-4.95-.43-9.82,2.33-12.11,4.28l4.48-.73,2.21.62,3.04-.89,2.93.69,3.57-.29c.17.04,4.19,1.12,7.37,2.74.2.1.29.33.22.55-.07.21-.29.34-.5.3-2.83-.55-10.58-1.39-14.28-.34-3.65.89-6.38,3.4-8.27,7.77l3.5-2.11,2.11-.2,2.21-1.81,2.91-.37,2.58-1.46c.38-.17,7.47-.53,9.06,0,.21.04.36.22.37.43,0,.22-.14.4-.35.45-2.85.67-9.88,2.59-13.58,6.07-4.33,4.12-4.97,9.99-5.01,12.91l2.47-4.48,2.2-1.29,1.38-3.14,2.46-1.4,1.89-2.98s4.71-2.65,8.72-4.15c.21-.07.44,0,.56.21.11.19.05.45-.13.58-4.16,3.09-7.09,6.42-8.47,9.62-2.41,5.61-.06,11.09.75,12.7l.07-4.13,1.72-3.43.14-4,1.94-2.65,1.05-3.85c.06-.07,1.61-1.73,3.77-3.42.14-.11.33-.13.49-.05.16.08.25.25.24.42l-2.25,57.24c0,.15-.08.28-.21.36-.12.08-.28.1-.42.04l-1.67-.7.68,1.49c.07.17.04.36-.08.5-.13.13-.32.18-.5.11l-2.93-1.12.85,1.73c.09.16.05.35-.06.49-.12.14-.31.19-.48.14l-3.06-.97c1.36,1.17,6.14,5.28,7.56,6.39,1.42,1.1,2.74,2.32,4.45,2.32s2.98-1.18,4.46-2.32c1.59-1.23,6.25-5.24,7.59-6.4l-3.06.98c-.17.05-.36,0-.48-.14-.11-.13-.14-.33-.06-.49l.82-1.73-2.9,1.12c-.17.07-.37.03-.49-.11-.13-.13-.16-.33-.09-.49l.65-1.48-1.64.71c-.13.06-.3.05-.42-.04-.13-.08-.21-.22-.21-.36l-2.25-57.27c0-.17.09-.34.25-.42.16-.08.34-.07.49.05,2.17,1.7,3.7,3.35,3.87,3.62l.84,3.5,2.09,3.06.02,3.55,1.84,3.82.02,3.92c.81-1.62,3.14-7.08.75-12.69-1.77-4.11-5.6-7.51-8.5-9.64-.18-.13-.24-.38-.13-.58.11-.2.34-.29.55-.21,4.01,1.49,8.67,4.14,8.87,4.33l1.61,2.68,2.81,1.77,1.01,2.71,2.54,1.66,2.29,4.26c0-2.21-.43-8.5-5.02-12.85-3.5-3.32-10.01-5.23-13.58-6.07-.21-.05-.35-.24-.35-.45,0-.21.16-.39.37-.43,1.72-.54,8.7-.19,9.26.06l2.24,1.34,3.31.53,1.74,1.6,2.53.37,3.32,2.06c-1.75-4.25-4.53-6.86-8.27-7.78-3.97-1.01-10.82-.26-14.35.37-.21.04-.44-.09-.5-.3-.07-.22.02-.45.22-.55,3.21-1.65,7.26-2.73,7.59-2.79l3.27.32,3.31-.69,2.56.87,2.62-.61,4.31.73c-4.95-3.85-8.59-4.4-12.1-4.28-4.76.31-9.34,3.02-11.64,4.61-.19.12-.42.1-.58-.06-.15-.15-.17-.4-.04-.58,1.69-2.37,5.01-4.84,5.3-5.01l2.38-.6,2.17-1.51,2.11-.17,1.66-1.09,2.81-.92c-2.75-.54-6.79-.21-9.33,1-2.23.98-4.79,3.32-7.44,6.78-.14.18-.39.23-.59.12-.2-.11-.27-.36-.2-.56.92-2.27,2.12-4.77,2.27-4.95l1.84-1.29,1.38-1.97,1.72-.84,1.07-1.46,2.02-1.62c-1.6.28-4.94,1.16-7.58,3.73-1.61,1.58-2.82,4.19-3.55,6.11-.08.22-.33.34-.55.28-.23-.07-.36-.29-.32-.52.37-1.92.6-3.62.6-4.44-.07-2.66-.8-4.71-1.12-5.49-.39.93-1.08,2.92-1.14,5.48,0,.83.23,2.54.6,4.45.05.23-.09.45-.32.52-.23.06-.47-.06-.55-.28-.72-1.91-1.93-4.52-3.54-6.11-2.72-2.65-6.2-3.5-7.61-3.72l2.14,1.71.78,1.22,2.09,1.13,1.08,1.71,2.09,1.57s1.22,2.6,2.17,4.86c.09.21,0,.45-.19.57-.19.11-.45.06-.59-.12-1.83-2.45-4.6-5.62-7.46-6.87-2.49-1.2-6.7-1.56-9.35-.99l2.94.97,1.32.96,2.57.32,1.8,1.36,2.68.75c.14.1,3.42,2.57,5.09,4.91.13.18.11.44-.05.58-.19.17-.4.17-.58.05Z"/>
  </g>
</svg>