<?xml version="1.0" encoding="iso-8859-1"?>
<!-- Uploaded to: SVG Repo, www.svgrepo.com, Generator: SVG Repo Mixer Tools -->
<svg fill="#000000" height="800px" width="800px" version="1.1" id="Layer_1" xmlns="http://www.w3.org/2000/svg" xmlns:xlink="http://www.w3.org/1999/xlink" 
	 viewBox="0 0 512 512" xml:space="preserve">
<g>
	<g>
		<g>
			<path d="M256,263.494c85.59,0,137.572-94.09,93.583-166.251c4.823-14.894,3.816-19.716,3.816-78.491
				C353.398,8.396,345.002,0,334.646,0H177.354c-10.356,0-18.753,8.396-18.753,18.753c0,57.459-1.123,63.246,3.814,78.492
				C118.41,169.435,170.445,263.494,256,263.494z M196.108,37.505h119.786v10.381H196.108V37.505z M314.005,85.391
				c-5.333,16.984-20.914,28.998-39.489,28.998c-39.402,0-38.773,0.184-43.076-0.439c-16.093-2.329-28.78-13.696-33.448-28.559
				H314.005z M186.937,133.683c27.84,22.843,100.696,31.293,138.126,0.003c13.559,46.164-21.24,92.304-69.063,92.304
				C208.099,225.989,173.403,179.76,186.937,133.683z"/>
			<path d="M256,275.012c-89.595,0-162.484,72.89-162.484,162.484v55.751c0,10.356,8.396,18.753,18.753,18.753
				c13.963,0,273.527,0,287.464,0c10.356,0,18.753-8.396,18.753-18.753v-55.751C418.486,347.882,345.54,275.012,256,275.012z
				 M131.021,474.495v-36.999c0-84.924,83.537-145.565,164.418-118.598L139.843,474.495H131.021z M380.981,474.495H192.883
				l137.425-137.426C387.589,379.563,380.981,437.729,380.981,474.495z"/>
		</g>
	</g>
</g>
</svg>